<svg width="291" height="48" viewBox="0 0 291 48" fill="none" xmlns="http://www.w3.org/2000/svg">
<rect width="291" height="48" rx="15" fill="black" fill-opacity="0.5"/>
<path d="M119.075 31V18.6364H124.025C124.934 18.6364 125.693 18.7712 126.301 19.0408C126.908 19.3105 127.365 19.6848 127.671 20.1637C127.977 20.6386 128.13 21.186 128.13 21.8058C128.13 22.2887 128.033 22.7133 127.84 23.0795C127.647 23.4418 127.381 23.7396 127.043 23.973C126.709 24.2024 126.327 24.3654 125.896 24.462V24.5827C126.367 24.6029 126.808 24.7357 127.218 24.9812C127.633 25.2267 127.969 25.5708 128.227 26.0135C128.484 26.4522 128.613 26.9754 128.613 27.5831C128.613 28.2391 128.45 28.8247 128.124 29.3398C127.802 29.851 127.325 30.2554 126.693 30.5533C126.061 30.8511 125.283 31 124.357 31H119.075ZM121.689 28.8629H123.82C124.548 28.8629 125.079 28.7241 125.413 28.4464C125.747 28.1647 125.914 27.7904 125.914 27.3235C125.914 26.9814 125.832 26.6796 125.667 26.418C125.502 26.1564 125.266 25.9511 124.961 25.8022C124.659 25.6533 124.299 25.5788 123.88 25.5788H121.689V28.8629ZM121.689 23.81H123.626C123.985 23.81 124.303 23.7476 124.58 23.6229C124.862 23.4941 125.083 23.313 125.244 23.0795C125.409 22.8461 125.492 22.5664 125.492 22.2404C125.492 21.7937 125.333 21.4335 125.015 21.1598C124.701 20.8861 124.254 20.7493 123.675 20.7493H121.689V23.81ZM132.445 31H129.644L133.912 18.6364H137.28L141.543 31H138.741L135.644 21.4616H135.548L132.445 31ZM132.27 26.1403H138.886V28.1808H132.27V26.1403ZM153.358 22.9648H150.714C150.666 22.6228 150.567 22.3189 150.418 22.0533C150.269 21.7836 150.078 21.5542 149.845 21.3651C149.611 21.1759 149.342 21.031 149.036 20.9304C148.734 20.8298 148.406 20.7795 148.052 20.7795C147.412 20.7795 146.855 20.9384 146.38 21.2564C145.905 21.5703 145.536 22.0291 145.275 22.6328C145.013 23.2325 144.882 23.9609 144.882 24.8182C144.882 25.6996 145.013 26.4401 145.275 27.0398C145.54 27.6394 145.911 28.0922 146.386 28.3981C146.861 28.704 147.41 28.8569 148.034 28.8569C148.384 28.8569 148.708 28.8106 149.006 28.718C149.308 28.6255 149.575 28.4906 149.809 28.3136C150.042 28.1325 150.235 27.9131 150.388 27.6555C150.545 27.398 150.654 27.1042 150.714 26.7741L153.358 26.7862C153.29 27.3537 153.119 27.901 152.845 28.4283C152.576 28.9515 152.211 29.4203 151.752 29.8349C151.298 30.2454 150.754 30.5714 150.123 30.8129C149.495 31.0503 148.784 31.169 147.991 31.169C146.889 31.169 145.903 30.9195 145.033 30.4205C144.168 29.9214 143.484 29.199 142.981 28.2532C142.482 27.3074 142.232 26.1624 142.232 24.8182C142.232 23.4699 142.486 22.3229 142.993 21.3771C143.5 20.4313 144.188 19.7109 145.058 19.2159C145.927 18.7169 146.905 18.4673 147.991 18.4673C148.708 18.4673 149.372 18.5679 149.984 18.7692C150.599 18.9704 151.145 19.2642 151.62 19.6506C152.095 20.0329 152.481 20.5018 152.779 21.0572C153.081 21.6126 153.274 22.2485 153.358 22.9648ZM155.233 31V18.6364H157.847V24.0877H158.01L162.459 18.6364H165.592L161.004 24.1722L165.646 31H162.519L159.133 25.9169L157.847 27.4865V31H155.233Z" fill="white" fill-opacity="0.8"/>
<path d="M20 27L17 24L20 27ZM17 24L20 21L17 24ZM17 24H25H17ZM12 24C12 22.8181 12.2328 21.6478 12.6851 20.5558C13.1374 19.4639 13.8003 18.4718 14.636 17.636C15.4718 16.8003 16.4639 16.1374 17.5558 15.6851C18.6478 15.2328 19.8181 15 21 15C22.1819 15 23.3522 15.2328 24.4442 15.6851C25.5361 16.1374 26.5282 16.8003 27.364 17.636C28.1997 18.4718 28.8626 19.4639 29.3149 20.5558C29.7672 21.6478 30 22.8181 30 24C30 26.3869 29.0518 28.6761 27.364 30.364C25.6761 32.0518 23.3869 33 21 33C18.6131 33 16.3239 32.0518 14.636 30.364C12.9482 28.6761 12 26.3869 12 24V24Z" stroke="white" stroke-opacity="0.8" stroke-width="2" stroke-linecap="round" stroke-linejoin="round"/>
</svg>
