<svg width="420" height="700" viewBox="0 0 420 700" fill="none" xmlns="http://www.w3.org/2000/svg">
<rect width="420" height="700" rx="20" fill="#AAAA00"/>
<path d="M129.455 66L124.252 47.8182H128.451L131.461 60.4513H131.612L134.932 47.8182H138.528L141.839 60.478H141.999L145.009 47.8182H149.208L144.005 66H140.259L136.797 54.1126H136.655L133.201 66H129.455ZM151.265 66V47.8182H163.517V50.9876H155.109V55.32H162.886V58.4893H155.109V62.8306H163.552V66H151.265ZM166.573 66V47.8182H170.417V62.8306H178.212V66H166.573ZM196.092 54.1836H192.203C192.132 53.6805 191.987 53.2337 191.768 52.843C191.549 52.4465 191.268 52.1091 190.925 51.831C190.582 51.5528 190.185 51.3397 189.735 51.1918C189.291 51.0438 188.809 50.9698 188.288 50.9698C187.347 50.9698 186.527 51.2036 185.829 51.6712C185.131 52.1328 184.589 52.8075 184.204 53.6953C183.82 54.5772 183.627 55.6484 183.627 56.9091C183.627 58.2053 183.82 59.2943 184.204 60.1761C184.595 61.058 185.139 61.7238 185.838 62.1737C186.536 62.6235 187.344 62.8484 188.261 62.8484C188.776 62.8484 189.253 62.7803 189.691 62.6442C190.135 62.508 190.528 62.3098 190.872 62.0494C191.215 61.783 191.499 61.4605 191.724 61.0817C191.955 60.7029 192.114 60.2708 192.203 59.7855L196.092 59.8033C195.991 60.6378 195.74 61.4427 195.337 62.218C194.941 62.9875 194.405 63.677 193.73 64.2866C193.061 64.8903 192.262 65.3697 191.333 65.7248C190.41 66.074 189.365 66.2486 188.199 66.2486C186.578 66.2486 185.128 65.8816 183.849 65.1477C182.577 64.4138 181.571 63.3514 180.831 61.9606C180.097 60.5697 179.73 58.8859 179.73 56.9091C179.73 54.9264 180.103 53.2396 180.848 51.8487C181.594 50.4579 182.606 49.3984 183.885 48.6705C185.163 47.9366 186.601 47.5696 188.199 47.5696C189.253 47.5696 190.229 47.7176 191.129 48.0135C192.035 48.3094 192.837 48.7415 193.535 49.3097C194.233 49.8719 194.802 50.5614 195.239 51.3782C195.683 52.195 195.967 53.1301 196.092 54.1836ZM215.556 56.9091C215.556 58.8918 215.181 60.5786 214.429 61.9695C213.683 63.3603 212.665 64.4227 211.375 65.1566C210.091 65.8846 208.646 66.2486 207.043 66.2486C205.427 66.2486 203.977 65.8816 202.692 65.1477C201.408 64.4138 200.393 63.3514 199.647 61.9606C198.902 60.5697 198.529 58.8859 198.529 56.9091C198.529 54.9264 198.902 53.2396 199.647 51.8487C200.393 50.4579 201.408 49.3984 202.692 48.6705C203.977 47.9366 205.427 47.5696 207.043 47.5696C208.646 47.5696 210.091 47.9366 211.375 48.6705C212.665 49.3984 213.683 50.4579 214.429 51.8487C215.181 53.2396 215.556 54.9264 215.556 56.9091ZM211.659 56.9091C211.659 55.6248 211.467 54.5417 211.082 53.6598C210.703 52.7779 210.168 52.1091 209.475 51.6534C208.783 51.1977 207.972 50.9698 207.043 50.9698C206.113 50.9698 205.303 51.1977 204.61 51.6534C203.918 52.1091 203.379 52.7779 202.994 53.6598C202.615 54.5417 202.426 55.6248 202.426 56.9091C202.426 58.1934 202.615 59.2765 202.994 60.1584C203.379 61.0402 203.918 61.709 204.61 62.1648C205.303 62.6205 206.113 62.8484 207.043 62.8484C207.972 62.8484 208.783 62.6205 209.475 62.1648C210.168 61.709 210.703 61.0402 211.082 60.1584C211.467 59.2765 211.659 58.1934 211.659 56.9091ZM218.404 47.8182H223.145L228.152 60.0341H228.365L233.372 47.8182H238.113V66H234.384V54.1658H234.233L229.528 65.9112H226.989L222.284 54.1214H222.133V66H218.404V47.8182ZM241.28 66V47.8182H253.531V50.9876H245.124V55.32H252.901V58.4893H245.124V62.8306H253.567V66H241.28ZM261.681 50.9876V47.8182H276.614V50.9876H271.047V66H267.248V50.9876H261.681ZM294.951 56.9091C294.951 58.8918 294.575 60.5786 293.823 61.9695C293.078 63.3603 292.06 64.4227 290.769 65.1566C289.485 65.8846 288.041 66.2486 286.437 66.2486C284.821 66.2486 283.371 65.8816 282.087 65.1477C280.803 64.4138 279.788 63.3514 279.042 61.9606C278.296 60.5697 277.923 58.8859 277.923 56.9091C277.923 54.9264 278.296 53.2396 279.042 51.8487C279.788 50.4579 280.803 49.3984 282.087 48.6705C283.371 47.9366 284.821 47.5696 286.437 47.5696C288.041 47.5696 289.485 47.9366 290.769 48.6705C292.06 49.3984 293.078 50.4579 293.823 51.8487C294.575 53.2396 294.951 54.9264 294.951 56.9091ZM291.054 56.9091C291.054 55.6248 290.861 54.5417 290.477 53.6598C290.098 52.7779 289.562 52.1091 288.87 51.6534C288.177 51.1977 287.366 50.9698 286.437 50.9698C285.508 50.9698 284.697 51.1977 284.005 51.6534C283.312 52.1091 282.774 52.7779 282.389 53.6598C282.01 54.5417 281.821 55.6248 281.821 56.9091C281.821 58.1934 282.01 59.2765 282.389 60.1584C282.774 61.0402 283.312 61.709 284.005 62.1648C284.697 62.6205 285.508 62.8484 286.437 62.8484C287.366 62.8484 288.177 62.6205 288.87 62.1648C289.562 61.709 290.098 61.0402 290.477 60.1584C290.861 59.2765 291.054 58.1934 291.054 56.9091Z" fill="black"/>
<path d="M101.499 84.1836H97.611C97.54 83.6805 97.3949 83.2337 97.176 82.843C96.957 82.4465 96.6758 82.1091 96.3326 81.831C95.9893 81.5528 95.5927 81.3397 95.1429 81.1918C94.699 81.0438 94.2167 80.9698 93.6958 80.9698C92.7548 80.9698 91.9351 81.2036 91.2367 81.6712C90.5383 82.1328 89.9967 82.8075 89.612 83.6953C89.2273 84.5772 89.035 85.6484 89.035 86.9091C89.035 88.2053 89.2273 89.2943 89.612 90.1761C90.0027 91.058 90.5472 91.7238 91.2456 92.1737C91.944 92.6235 92.7518 92.8484 93.6692 92.8484C94.1841 92.8484 94.6606 92.7803 95.0985 92.6442C95.5424 92.508 95.936 92.3098 96.2793 92.0494C96.6226 91.783 96.9067 91.4605 97.1316 91.0817C97.3624 90.7029 97.5222 90.2708 97.611 89.7855L101.499 89.8033C101.399 90.6378 101.147 91.4427 100.745 92.218C100.348 92.9875 99.8127 93.677 99.138 94.2866C98.4692 94.8903 97.6702 95.3697 96.7409 95.7248C95.8176 96.074 94.773 96.2486 93.6071 96.2486C91.9854 96.2486 90.5353 95.8816 89.2569 95.1477C87.9844 94.4138 86.9783 93.3514 86.2385 91.9606C85.5046 90.5697 85.1376 88.8859 85.1376 86.9091C85.1376 84.9264 85.5105 83.2396 86.2562 81.8487C87.002 80.4579 88.014 79.3984 89.2924 78.6705C90.5708 77.9366 92.0091 77.5696 93.6071 77.5696C94.6606 77.5696 95.6371 77.7176 96.5368 78.0135C97.4423 78.3094 98.2443 78.7415 98.9426 79.3097C99.641 79.8719 100.209 80.5614 100.647 81.3782C101.091 82.195 101.375 83.1301 101.499 84.1836ZM120.964 86.9091C120.964 88.8918 120.588 90.5786 119.837 91.9695C119.091 93.3603 118.073 94.4227 116.783 95.1566C115.498 95.8846 114.054 96.2486 112.45 96.2486C110.835 96.2486 109.384 95.8816 108.1 95.1477C106.816 94.4138 105.801 93.3514 105.055 91.9606C104.309 90.5697 103.936 88.8859 103.936 86.9091C103.936 84.9264 104.309 83.2396 105.055 81.8487C105.801 80.4579 106.816 79.3984 108.1 78.6705C109.384 77.9366 110.835 77.5696 112.45 77.5696C114.054 77.5696 115.498 77.9366 116.783 78.6705C118.073 79.3984 119.091 80.4579 119.837 81.8487C120.588 83.2396 120.964 84.9264 120.964 86.9091ZM117.067 86.9091C117.067 85.6248 116.874 84.5417 116.49 83.6598C116.111 82.7779 115.575 82.1091 114.883 81.6534C114.19 81.1977 113.379 80.9698 112.45 80.9698C111.521 80.9698 110.71 81.1977 110.018 81.6534C109.325 82.1091 108.787 82.7779 108.402 83.6598C108.023 84.5417 107.834 85.6248 107.834 86.9091C107.834 88.1934 108.023 89.2765 108.402 90.1584C108.787 91.0402 109.325 91.709 110.018 92.1648C110.71 92.6205 111.521 92.8484 112.45 92.8484C113.379 92.8484 114.19 92.6205 114.883 92.1648C115.575 91.709 116.111 91.0402 116.49 90.1584C116.874 89.2765 117.067 88.1934 117.067 86.9091ZM139.019 77.8182V96H135.699L127.789 84.5565H127.656V96H123.812V77.8182H127.185L135.033 89.2528H135.193V77.8182H139.019ZM152.059 83.0472C151.988 82.3311 151.683 81.7747 151.144 81.3782C150.606 80.9817 149.875 80.7834 148.952 80.7834C148.324 80.7834 147.794 80.8722 147.362 81.0497C146.93 81.2214 146.599 81.4611 146.368 81.7688C146.143 82.0766 146.031 82.4258 146.031 82.8164C146.019 83.1419 146.087 83.426 146.235 83.6687C146.389 83.9113 146.599 84.1214 146.865 84.299C147.132 84.4706 147.439 84.6216 147.789 84.7518C148.138 84.8761 148.511 84.9826 148.907 85.0714L150.541 85.462C151.334 85.6396 152.062 85.8763 152.725 86.1722C153.387 86.4682 153.962 86.8321 154.447 87.2642C154.932 87.6963 155.308 88.2053 155.574 88.7912C155.847 89.3771 155.986 90.0489 155.992 90.8065C155.986 91.9192 155.702 92.8839 155.139 93.7006C154.583 94.5115 153.778 95.1418 152.725 95.5916C151.677 96.0355 150.413 96.2575 148.934 96.2575C147.466 96.2575 146.188 96.0326 145.099 95.5827C144.015 95.1329 143.169 94.4671 142.559 93.5852C141.956 92.6974 141.639 91.5996 141.61 90.2915H145.329C145.371 90.9012 145.545 91.4102 145.853 91.8185C146.167 92.221 146.584 92.5258 147.105 92.733C147.632 92.9342 148.227 93.0348 148.889 93.0348C149.54 93.0348 150.106 92.9401 150.585 92.7507C151.07 92.5613 151.446 92.2979 151.713 91.9606C151.979 91.6232 152.112 91.2356 152.112 90.7976C152.112 90.3892 151.991 90.0459 151.748 89.7678C151.511 89.4896 151.162 89.2528 150.7 89.0575C150.245 88.8622 149.685 88.6847 149.023 88.5249L147.043 88.0277C145.51 87.6548 144.3 87.0719 143.412 86.2788C142.524 85.4857 142.083 84.4174 142.089 83.0739C142.083 81.973 142.376 81.0112 142.968 80.1886C143.566 79.3659 144.385 78.7237 145.427 78.2621C146.469 77.8004 147.652 77.5696 148.978 77.5696C150.328 77.5696 151.505 77.8004 152.512 78.2621C153.524 78.7237 154.311 79.3659 154.873 80.1886C155.435 81.0112 155.725 81.9641 155.743 83.0472H152.059ZM169.808 77.8182H173.652V89.6257C173.652 90.9515 173.335 92.1115 172.702 93.1058C172.075 94.1001 171.196 94.8755 170.065 95.4318C168.935 95.9822 167.618 96.2575 166.115 96.2575C164.605 96.2575 163.286 95.9822 162.155 95.4318C161.025 94.8755 160.146 94.1001 159.518 93.1058C158.891 92.1115 158.577 90.9515 158.577 89.6257V77.8182H162.421V89.2972C162.421 89.9897 162.572 90.6052 162.874 91.1438C163.182 91.6824 163.614 92.1056 164.17 92.4134C164.727 92.7211 165.375 92.875 166.115 92.875C166.86 92.875 167.508 92.7211 168.059 92.4134C168.615 92.1056 169.044 91.6824 169.346 91.1438C169.654 90.6052 169.808 89.9897 169.808 89.2972V77.8182ZM176.815 96V77.8182H180.659V92.8306H188.453V96H176.815ZM188.036 80.9876V77.8182H202.969V80.9876H197.402V96H193.603V80.9876H188.036ZM206.34 96H202.221L208.497 77.8182H213.451L219.719 96H215.6L211.045 81.973H210.903L206.34 96ZM206.083 88.8533H215.813V91.854H206.083V88.8533ZM218.993 80.9876V77.8182H233.926V80.9876H228.359V96H224.56V80.9876H218.993ZM240.229 77.8182V96H236.385V77.8182H240.229ZM260.1 86.9091C260.1 88.8918 259.724 90.5786 258.972 91.9695C258.227 93.3603 257.209 94.4227 255.918 95.1566C254.634 95.8846 253.19 96.2486 251.586 96.2486C249.97 96.2486 248.52 95.8816 247.236 95.1477C245.952 94.4138 244.937 93.3514 244.191 91.9606C243.445 90.5697 243.072 88.8859 243.072 86.9091C243.072 84.9264 243.445 83.2396 244.191 81.8487C244.937 80.4579 245.952 79.3984 247.236 78.6705C248.52 77.9366 249.97 77.5696 251.586 77.5696C253.19 77.5696 254.634 77.9366 255.918 78.6705C257.209 79.3984 258.227 80.4579 258.972 81.8487C259.724 83.2396 260.1 84.9264 260.1 86.9091ZM256.203 86.9091C256.203 85.6248 256.01 84.5417 255.625 83.6598C255.247 82.7779 254.711 82.1091 254.019 81.6534C253.326 81.1977 252.515 80.9698 251.586 80.9698C250.657 80.9698 249.846 81.1977 249.153 81.6534C248.461 82.1091 247.922 82.7779 247.538 83.6598C247.159 84.5417 246.97 85.6248 246.97 86.9091C246.97 88.1934 247.159 89.2765 247.538 90.1584C247.922 91.0402 248.461 91.709 249.153 92.1648C249.846 92.6205 250.657 92.8484 251.586 92.8484C252.515 92.8484 253.326 92.6205 254.019 92.1648C254.711 91.709 255.247 91.0402 255.625 90.1584C256.01 89.2765 256.203 88.1934 256.203 86.9091ZM278.155 77.8182V96H274.835L266.925 84.5565H266.792V96H262.947V77.8182H266.321L274.169 89.2528H274.329V77.8182H278.155ZM287.117 96V77.8182H299.156V80.9876H290.961V85.32H298.357V88.4893H290.961V96H287.117ZM318.449 86.9091C318.449 88.8918 318.074 90.5786 317.322 91.9695C316.576 93.3603 315.558 94.4227 314.268 95.1566C312.984 95.8846 311.54 96.2486 309.936 96.2486C308.32 96.2486 306.87 95.8816 305.585 95.1477C304.301 94.4138 303.286 93.3514 302.54 91.9606C301.795 90.5697 301.422 88.8859 301.422 86.9091C301.422 84.9264 301.795 83.2396 302.54 81.8487C303.286 80.4579 304.301 79.3984 305.585 78.6705C306.87 77.9366 308.32 77.5696 309.936 77.5696C311.54 77.5696 312.984 77.9366 314.268 78.6705C315.558 79.3984 316.576 80.4579 317.322 81.8487C318.074 83.2396 318.449 84.9264 318.449 86.9091ZM314.552 86.9091C314.552 85.6248 314.36 84.5417 313.975 83.6598C313.596 82.7779 313.061 82.1091 312.368 81.6534C311.676 81.1977 310.865 80.9698 309.936 80.9698C309.006 80.9698 308.196 81.1977 307.503 81.6534C306.811 82.1091 306.272 82.7779 305.887 83.6598C305.509 84.5417 305.319 85.6248 305.319 86.9091C305.319 88.1934 305.509 89.2765 305.887 90.1584C306.272 91.0402 306.811 91.709 307.503 92.1648C308.196 92.6205 309.006 92.8484 309.936 92.8484C310.865 92.8484 311.676 92.6205 312.368 92.1648C313.061 91.709 313.596 91.0402 313.975 90.1584C314.36 89.2765 314.552 88.1934 314.552 86.9091ZM321.297 96V77.8182H328.47C329.843 77.8182 331.015 78.0638 331.986 78.555C332.963 79.0404 333.705 79.7299 334.214 80.6236C334.729 81.5114 334.987 82.556 334.987 83.7575C334.987 84.9648 334.726 86.0036 334.205 86.8736C333.685 87.7377 332.93 88.4006 331.942 88.8622C330.959 89.3239 329.769 89.5547 328.373 89.5547H323.57V86.4652H327.751C328.485 86.4652 329.095 86.3646 329.58 86.1634C330.065 85.9621 330.426 85.6603 330.663 85.2578C330.906 84.8554 331.027 84.3552 331.027 83.7575C331.027 83.1538 330.906 82.6448 330.663 82.2305C330.426 81.8162 330.062 81.5025 329.571 81.2894C329.086 81.0704 328.473 80.9609 327.733 80.9609H325.141V96H321.297ZM331.116 87.7259L335.635 96H331.391L326.97 87.7259H331.116Z" fill="white"/>
<path d="M186.083 126L180.881 107.818H185.08L188.089 120.451H188.24L191.561 107.818H195.156L198.468 120.478H198.627L201.637 107.818H205.836L200.634 126H196.887L193.425 114.113H193.283L189.83 126H186.083ZM209.197 126H205.077L211.354 107.818H216.308L222.575 126H218.456L213.902 111.973H213.76L209.197 126ZM208.939 118.853H218.669V121.854H208.939V118.853ZM224.764 126V107.818H231.937C233.31 107.818 234.482 108.064 235.453 108.555C236.429 109.04 237.172 109.73 237.681 110.624C238.196 111.511 238.453 112.556 238.453 113.757C238.453 114.965 238.193 116.004 237.672 116.874C237.151 117.738 236.397 118.401 235.408 118.862C234.426 119.324 233.236 119.555 231.839 119.555H227.037V116.465H231.218C231.952 116.465 232.562 116.365 233.047 116.163C233.532 115.962 233.893 115.66 234.13 115.258C234.373 114.855 234.494 114.355 234.494 113.757C234.494 113.154 234.373 112.645 234.13 112.23C233.893 111.816 233.529 111.502 233.038 111.289C232.553 111.07 231.94 110.961 231.2 110.961H228.608V126H224.764ZM234.583 117.726L239.102 126H234.858L230.437 117.726H234.583Z" fill="#AAAA00"/>
<path d="M129.455 66L128.493 66.2751L128.701 67H129.455V66ZM124.252 47.8182V46.8182H122.926L123.291 48.0933L124.252 47.8182ZM128.451 47.8182L129.424 47.5864L129.241 46.8182H128.451V47.8182ZM131.461 60.4513L130.488 60.6831L130.671 61.4513H131.461V60.4513ZM131.612 60.4513V61.4513H132.383L132.579 60.7055L131.612 60.4513ZM134.932 47.8182V46.8182H134.161L133.965 47.564L134.932 47.8182ZM138.528 47.8182L139.495 47.5651L139.3 46.8182H138.528V47.8182ZM141.839 60.478L140.872 60.731L141.067 61.478H141.839V60.478ZM141.999 60.478V61.478H142.789L142.972 60.7093L141.999 60.478ZM145.009 47.8182V46.8182H144.219L144.036 47.5869L145.009 47.8182ZM149.208 47.8182L150.169 48.0933L150.534 46.8182H149.208V47.8182ZM144.005 66V67H144.759L144.967 66.2751L144.005 66ZM140.259 66L139.299 66.2796L139.509 67H140.259V66ZM136.797 54.1126L137.757 53.8329L137.547 53.1126H136.797V54.1126ZM136.655 54.1126V53.1126H135.904L135.694 53.8336L136.655 54.1126ZM133.201 66V67H133.952L134.161 66.279L133.201 66ZM130.416 65.7249L125.214 47.5431L123.291 48.0933L128.493 66.2751L130.416 65.7249ZM124.252 48.8182H128.451V46.8182H124.252V48.8182ZM127.479 48.0499L130.488 60.6831L132.434 60.2196L129.424 47.5864L127.479 48.0499ZM131.461 61.4513H131.612V59.4513H131.461V61.4513ZM132.579 60.7055L135.899 48.0724L133.965 47.564L130.645 60.1972L132.579 60.7055ZM134.932 48.8182H138.528V46.8182H134.932V48.8182ZM137.56 48.0712L140.872 60.731L142.807 60.2249L139.495 47.5651L137.56 48.0712ZM141.839 61.478H141.999V59.478H141.839V61.478ZM142.972 60.7093L145.982 48.0495L144.036 47.5869L141.026 60.2467L142.972 60.7093ZM145.009 48.8182H149.208V46.8182H145.009V48.8182ZM148.246 47.5431L143.044 65.7249L144.967 66.2751L150.169 48.0933L148.246 47.5431ZM144.005 65H140.259V67H144.005V65ZM141.219 65.7204L137.757 53.8329L135.837 54.3922L139.299 66.2796L141.219 65.7204ZM136.797 53.1126H136.655V55.1126H136.797V53.1126ZM135.694 53.8336L132.241 65.721L134.161 66.279L137.615 54.3916L135.694 53.8336ZM133.201 65H129.455V67H133.201V65ZM151.265 66H150.265V67H151.265V66ZM151.265 47.8182V46.8182H150.265V47.8182H151.265ZM163.517 47.8182H164.517V46.8182H163.517V47.8182ZM163.517 50.9876V51.9876H164.517V50.9876H163.517ZM155.109 50.9876V49.9876H154.109V50.9876H155.109ZM155.109 55.32H154.109V56.32H155.109V55.32ZM162.886 55.32H163.886V54.32H162.886V55.32ZM162.886 58.4893V59.4893H163.886V58.4893H162.886ZM155.109 58.4893V57.4893H154.109V58.4893H155.109ZM155.109 62.8306H154.109V63.8306H155.109V62.8306ZM163.552 62.8306H164.552V61.8306H163.552V62.8306ZM163.552 66V67H164.552V66H163.552ZM152.265 66V47.8182H150.265V66H152.265ZM151.265 48.8182H163.517V46.8182H151.265V48.8182ZM162.517 47.8182V50.9876H164.517V47.8182H162.517ZM163.517 49.9876H155.109V51.9876H163.517V49.9876ZM154.109 50.9876V55.32H156.109V50.9876H154.109ZM155.109 56.32H162.886V54.32H155.109V56.32ZM161.886 55.32V58.4893H163.886V55.32H161.886ZM162.886 57.4893H155.109V59.4893H162.886V57.4893ZM154.109 58.4893V62.8306H156.109V58.4893H154.109ZM155.109 63.8306H163.552V61.8306H155.109V63.8306ZM162.552 62.8306V66H164.552V62.8306H162.552ZM163.552 65H151.265V67H163.552V65ZM166.573 66H165.573V67H166.573V66ZM166.573 47.8182V46.8182H165.573V47.8182H166.573ZM170.417 47.8182H171.417V46.8182H170.417V47.8182ZM170.417 62.8306H169.417V63.8306H170.417V62.8306ZM178.212 62.8306H179.212V61.8306H178.212V62.8306ZM178.212 66V67H179.212V66H178.212ZM167.573 66V47.8182H165.573V66H167.573ZM166.573 48.8182H170.417V46.8182H166.573V48.8182ZM169.417 47.8182V62.8306H171.417V47.8182H169.417ZM170.417 63.8306H178.212V61.8306H170.417V63.8306ZM177.212 62.8306V66H179.212V62.8306H177.212ZM178.212 65H166.573V67H178.212V65ZM196.092 54.1836V55.1836H197.217L197.085 54.0664L196.092 54.1836ZM192.203 54.1836L191.213 54.3234L191.335 55.1836H192.203V54.1836ZM191.768 52.843L190.893 53.3265L190.896 53.332L191.768 52.843ZM190.925 51.831L190.295 52.6079L190.295 52.6079L190.925 51.831ZM189.735 51.1918L189.419 52.1405L189.423 52.1417L189.735 51.1918ZM185.829 51.6712L186.38 52.5054L186.385 52.5021L185.829 51.6712ZM184.204 53.6953L185.121 54.0952L185.122 54.0929L184.204 53.6953ZM184.204 60.1761L183.288 60.576L183.29 60.5811L184.204 60.1761ZM185.838 62.1737L185.296 63.0144L185.838 62.1737ZM189.691 62.6442L189.398 61.6881L189.394 61.6892L189.691 62.6442ZM190.872 62.0494L191.476 62.8461L191.485 62.8394L190.872 62.0494ZM191.724 61.0817L190.87 60.5613L190.864 60.5711L191.724 61.0817ZM192.203 59.7855L192.208 58.7855L191.37 58.7817L191.22 59.6056L192.203 59.7855ZM196.092 59.8033L197.085 59.923L197.219 58.8084L196.096 58.8033L196.092 59.8033ZM195.337 62.218L194.45 61.7573L194.448 61.7599L195.337 62.218ZM193.73 64.2866L194.4 65.0289L194.401 65.0286L193.73 64.2866ZM191.333 65.7248L191.687 66.6601L191.69 66.6589L191.333 65.7248ZM183.849 65.1477L183.35 66.014L183.351 66.015L183.849 65.1477ZM180.831 61.9606L179.946 62.4273L179.948 62.4302L180.831 61.9606ZM180.849 51.8487L181.73 52.3213L180.849 51.8487ZM183.885 48.6705L184.38 49.5394L184.383 49.5377L183.885 48.6705ZM191.129 48.0135L190.817 48.9634L190.818 48.964L191.129 48.0135ZM193.535 49.3097L192.904 50.0854L192.908 50.0886L193.535 49.3097ZM195.239 51.3782L194.358 51.8508L194.361 51.8557L195.239 51.3782ZM196.092 53.1836H192.203V55.1836H196.092V53.1836ZM193.193 54.0438C193.107 53.4344 192.928 52.8663 192.641 52.354L190.896 53.332C191.047 53.601 191.157 53.9266 191.213 54.3234L193.193 54.0438ZM192.644 52.3596C192.364 51.8532 192 51.4154 191.554 51.054L190.295 52.6079C190.536 52.8029 190.735 53.0398 190.893 53.3265L192.644 52.3596ZM191.554 51.054C191.11 50.6941 190.605 50.425 190.048 50.2418L189.423 52.1417C189.766 52.2545 190.053 52.4115 190.295 52.6079L191.554 51.054ZM190.051 50.2431C189.495 50.0575 188.904 49.9698 188.288 49.9698V51.9698C188.714 51.9698 189.088 52.0301 189.419 52.1404L190.051 50.2431ZM188.288 49.9698C187.174 49.9698 186.155 50.2495 185.273 50.8402L186.385 52.5021C186.9 52.1577 187.521 51.9698 188.288 51.9698V49.9698ZM185.278 50.8369C184.393 51.4214 183.736 52.2603 183.287 53.2977L185.122 54.0929C185.442 53.3547 185.868 52.8442 186.38 52.5054L185.278 50.8369ZM183.288 53.2955C182.834 54.3361 182.627 55.5515 182.627 56.9091H184.627C184.627 55.7453 184.805 54.8183 185.121 54.0952L183.288 53.2955ZM182.627 56.9091C182.627 58.2977 182.832 59.5323 183.288 60.576L185.121 59.7763C184.807 59.0562 184.627 58.1128 184.627 56.9091H182.627ZM183.29 60.5811C183.747 61.6121 184.409 62.4426 185.296 63.0144L186.379 61.3329C185.87 61.005 185.443 60.5039 185.119 59.7711L183.29 60.5811ZM185.296 63.0144C186.173 63.5789 187.173 63.8484 188.261 63.8484V61.8484C187.515 61.8484 186.9 61.6681 186.379 61.3329L185.296 63.0144ZM188.261 63.8484C188.865 63.8484 189.443 63.7685 189.988 63.5991L189.394 61.6892C189.063 61.7921 188.688 61.8484 188.261 61.8484V63.8484ZM189.984 63.6002C190.531 63.4324 191.032 63.1828 191.476 62.8461L190.267 61.2527C190.025 61.4368 189.738 61.5837 189.398 61.6881L189.984 63.6002ZM191.485 62.8394C191.928 62.4951 192.296 62.0773 192.584 61.5922L190.864 60.5711C190.702 60.8436 190.501 61.0709 190.259 61.2593L191.485 62.8394ZM192.578 61.602C192.879 61.1076 193.079 60.5578 193.187 59.9655L191.22 59.6056C191.15 59.9839 191.03 60.2982 190.87 60.5613L192.578 61.602ZM192.199 60.7855L196.087 60.8033L196.096 58.8033L192.208 58.7855L192.199 60.7855ZM195.099 59.6836C195.013 60.3944 194.799 61.0842 194.45 61.7573L196.225 62.6788C196.68 61.8012 196.969 60.8812 197.085 59.923L195.099 59.6836ZM194.448 61.7599C194.11 62.417 193.65 63.0115 193.06 63.5446L194.401 65.0286C195.16 64.3424 195.772 63.5579 196.226 62.6762L194.448 61.7599ZM193.06 63.5443C192.492 64.0571 191.802 64.475 190.976 64.7907L191.69 66.6589C192.723 66.2643 193.631 65.7235 194.4 65.0289L193.06 63.5443ZM190.979 64.7894C190.188 65.0889 189.266 65.2486 188.199 65.2486V67.2486C189.465 67.2486 190.632 67.0591 191.687 66.6601L190.979 64.7894ZM188.199 65.2486C186.734 65.2486 185.459 64.9189 184.347 64.2805L183.351 66.015C184.796 66.8444 186.421 67.2486 188.199 67.2486V65.2486ZM184.349 64.2815C183.251 63.6481 182.372 62.7288 181.714 61.491L179.948 62.4302C180.769 63.9741 181.903 65.1796 183.35 66.014L184.349 64.2815ZM181.715 61.4939C181.074 60.2792 180.73 58.7642 180.73 56.9091H178.73C178.73 59.0076 179.119 60.8603 179.946 62.4273L181.715 61.4939ZM180.73 56.9091C180.73 55.0498 181.079 53.5342 181.73 52.3213L179.967 51.3762C179.126 52.945 178.73 54.8029 178.73 56.9091H180.73ZM181.73 52.3213C182.393 51.0837 183.277 50.1675 184.38 49.5394L183.39 47.8015C181.936 48.6294 180.795 49.832 179.967 51.3762L181.73 52.3213ZM184.383 49.5377C185.497 48.898 186.761 48.5696 188.199 48.5696V46.5696C186.442 46.5696 184.829 46.9751 183.387 47.8032L184.383 49.5377ZM188.199 48.5696C189.159 48.5696 190.028 48.7042 190.817 48.9634L191.442 47.0636C190.43 46.731 189.347 46.5696 188.199 46.5696V48.5696ZM190.818 48.964C191.614 49.2241 192.306 49.5991 192.904 50.0854L194.166 48.5339C193.367 47.8839 192.455 47.3948 191.44 47.063L190.818 48.964ZM192.908 50.0886C193.498 50.564 193.981 51.1481 194.358 51.8508L196.121 50.9056C195.622 49.9748 194.968 49.1799 194.162 48.5307L192.908 50.0886ZM194.361 51.8557C194.736 52.5461 194.987 53.3559 195.099 54.3008L197.085 54.0664C196.948 52.9043 196.631 51.8438 196.118 50.9007L194.361 51.8557ZM214.429 61.9695L213.549 61.494L213.548 61.4969L214.429 61.9695ZM211.375 65.1566L211.868 66.0266L211.869 66.0258L211.375 65.1566ZM202.692 65.1477L203.189 64.2795L202.692 65.1477ZM199.647 61.9606L198.766 62.4331L199.647 61.9606ZM199.647 51.8487L200.529 52.3213L199.647 51.8487ZM202.692 48.6705L203.186 49.5404L203.189 49.5387L202.692 48.6705ZM211.375 48.6705L210.879 49.5387L210.884 49.5414L211.375 48.6705ZM214.429 51.8487L213.548 52.3213L213.549 52.3242L214.429 51.8487ZM211.082 53.6598L210.163 54.0545L210.165 54.0597L211.082 53.6598ZM209.475 51.6534L208.925 52.4887L209.475 51.6534ZM204.61 51.6534L205.16 52.4887L204.61 51.6534ZM202.994 53.6598L202.078 53.2599L202.075 53.2651L202.994 53.6598ZM202.994 60.1584L202.075 60.5531L202.078 60.5582L202.994 60.1584ZM204.61 62.1648L205.16 61.3294L204.61 62.1648ZM209.475 62.1648L208.925 61.3294L209.475 62.1648ZM211.082 60.1584L210.165 59.7585L210.163 59.7637L211.082 60.1584ZM214.556 56.9091C214.556 58.7672 214.204 60.2817 213.549 61.494L215.309 62.4449C216.157 60.8755 216.556 59.0164 216.556 56.9091H214.556ZM213.548 61.4969C212.885 62.7327 211.997 63.6526 210.881 64.2874L211.869 66.0258C213.334 65.1928 214.481 63.9879 215.31 62.442L213.548 61.4969ZM210.882 64.2866C209.761 64.9221 208.489 65.2486 207.043 65.2486V67.2486C208.804 67.2486 210.421 66.8471 211.868 66.0266L210.882 64.2866ZM207.043 65.2486C205.584 65.2486 204.308 64.9192 203.189 64.2795L202.196 66.016C203.645 66.8441 205.269 67.2486 207.043 67.2486V65.2486ZM203.189 64.2795C202.078 63.645 201.192 62.725 200.529 61.488L198.766 62.4331C199.594 63.9779 200.738 65.1826 202.196 66.016L203.189 64.2795ZM200.529 61.488C199.878 60.2747 199.529 58.7619 199.529 56.9091H197.529C197.529 59.0099 197.925 60.8647 198.766 62.4331L200.529 61.488ZM199.529 56.9091C199.529 55.0498 199.878 53.5342 200.529 52.3213L198.766 51.3762C197.925 52.945 197.529 54.8029 197.529 56.9091H199.529ZM200.529 52.3213C201.192 51.0849 202.077 50.1688 203.186 49.5404L202.199 47.8005C200.739 48.6281 199.595 49.8308 198.766 51.3762L200.529 52.3213ZM203.189 49.5387C204.308 48.899 205.584 48.5696 207.043 48.5696V46.5696C205.269 46.5696 203.645 46.9741 202.196 47.8022L203.189 49.5387ZM207.043 48.5696C208.488 48.5696 209.758 48.8983 210.879 49.5387L211.871 47.8022C210.423 46.9748 208.805 46.5696 207.043 46.5696V48.5696ZM210.884 49.5414C211.998 50.1701 212.885 51.0861 213.548 52.3213L215.31 51.3762C214.481 49.8297 213.333 48.6268 211.866 47.7995L210.884 49.5414ZM213.549 52.3242C214.204 53.5364 214.556 55.051 214.556 56.9091H216.556C216.556 54.8018 216.157 52.9427 215.309 51.3733L213.549 52.3242ZM212.659 56.9091C212.659 55.5308 212.453 54.3026 211.999 53.2599L210.165 54.0597C210.48 54.7807 210.659 55.7187 210.659 56.9091H212.659ZM212.001 53.2651C211.557 52.2325 210.905 51.3976 210.025 50.8181L208.925 52.4887C209.43 52.8207 209.849 53.3234 210.163 54.0545L212.001 53.2651ZM210.025 50.8181C209.15 50.2422 208.143 49.9698 207.043 49.9698V51.9698C207.801 51.9698 208.415 52.1531 208.925 52.4887L210.025 50.8181ZM207.043 49.9698C205.942 49.9698 204.935 50.2422 204.06 50.8181L205.16 52.4887C205.67 52.1531 206.284 51.9698 207.043 51.9698V49.9698ZM204.06 50.8181C203.181 51.3966 202.527 52.2296 202.078 53.2599L203.911 54.0597C204.231 53.3262 204.654 52.8217 205.16 52.4887L204.06 50.8181ZM202.075 53.2651C201.628 54.3062 201.426 55.5325 201.426 56.9091H203.426C203.426 55.7171 203.603 54.7771 203.913 54.0545L202.075 53.2651ZM201.426 56.9091C201.426 58.2857 201.628 59.512 202.075 60.553L203.913 59.7637C203.603 59.041 203.426 58.1011 203.426 56.9091H201.426ZM202.078 60.5582C202.527 61.5886 203.181 62.4216 204.06 63.0001L205.16 61.3294C204.654 60.9965 204.231 60.4919 203.911 59.7585L202.078 60.5582ZM204.06 63.0001C204.935 63.5759 205.942 63.8484 207.043 63.8484V61.8484C206.284 61.8484 205.67 61.6651 205.16 61.3294L204.06 63.0001ZM207.043 63.8484C208.143 63.8484 209.15 63.5759 210.025 63.0001L208.925 61.3294C208.415 61.6651 207.801 61.8484 207.043 61.8484V63.8484ZM210.025 63.0001C210.905 62.4206 211.557 61.5857 212.001 60.553L210.163 59.7637C209.849 60.4948 209.43 60.9975 208.925 61.3294L210.025 63.0001ZM211.999 60.5582C212.453 59.5156 212.659 58.2874 212.659 56.9091H210.659C210.659 58.0995 210.48 59.0375 210.165 59.7585L211.999 60.5582ZM218.404 47.8182V46.8182H217.404V47.8182H218.404ZM223.145 47.8182L224.07 47.4389L223.816 46.8182H223.145V47.8182ZM228.152 60.0341L227.227 60.4134L227.481 61.0341H228.152V60.0341ZM228.365 60.0341V61.0341H229.036L229.29 60.4134L228.365 60.0341ZM233.372 47.8182V46.8182H232.701L232.447 47.4389L233.372 47.8182ZM238.113 47.8182H239.113V46.8182H238.113V47.8182ZM238.113 66V67H239.113V66H238.113ZM234.384 66H233.384V67H234.384V66ZM234.384 54.1658H235.384V53.1658H234.384V54.1658ZM234.233 54.1658V53.1658H233.557L233.305 53.794L234.233 54.1658ZM229.528 65.9112V66.9112H230.205L230.456 66.2831L229.528 65.9112ZM226.989 65.9112L226.06 66.2819L226.311 66.9112H226.989V65.9112ZM222.284 54.1214L223.212 53.7508L222.961 53.1214H222.284V54.1214ZM222.133 54.1214V53.1214H221.133V54.1214H222.133ZM222.133 66V67H223.133V66H222.133ZM218.404 66H217.404V67H218.404V66ZM218.404 48.8182H223.145V46.8182H218.404V48.8182ZM222.219 48.1974L227.227 60.4134L229.077 59.6548L224.07 47.4389L222.219 48.1974ZM228.152 61.0341H228.365V59.0341H228.152V61.0341ZM229.29 60.4134L234.297 48.1974L232.447 47.4389L227.44 59.6548L229.29 60.4134ZM233.372 48.8182H238.113V46.8182H233.372V48.8182ZM237.113 47.8182V66H239.113V47.8182H237.113ZM238.113 65H234.384V67H238.113V65ZM235.384 66V54.1658H233.384V66H235.384ZM234.384 53.1658H234.233V55.1658H234.384V53.1658ZM233.305 53.794L228.6 65.5393L230.456 66.2831L235.161 54.5377L233.305 53.794ZM229.528 64.9112H226.989V66.9112H229.528V64.9112ZM227.918 65.5406L223.212 53.7508L221.355 54.4921L226.06 66.2819L227.918 65.5406ZM222.284 53.1214H222.133V55.1214H222.284V53.1214ZM221.133 54.1214V66H223.133V54.1214H221.133ZM222.133 65H218.404V67H222.133V65ZM219.404 66V47.8182H217.404V66H219.404ZM241.28 66H240.28V67H241.28V66ZM241.28 47.8182V46.8182H240.28V47.8182H241.28ZM253.531 47.8182H254.531V46.8182H253.531V47.8182ZM253.531 50.9876V51.9876H254.531V50.9876H253.531ZM245.124 50.9876V49.9876H244.124V50.9876H245.124ZM245.124 55.32H244.124V56.32H245.124V55.32ZM252.901 55.32H253.901V54.32H252.901V55.32ZM252.901 58.4893V59.4893H253.901V58.4893H252.901ZM245.124 58.4893V57.4893H244.124V58.4893H245.124ZM245.124 62.8306H244.124V63.8306H245.124V62.8306ZM253.567 62.8306H254.567V61.8306H253.567V62.8306ZM253.567 66V67H254.567V66H253.567ZM242.28 66V47.8182H240.28V66H242.28ZM241.28 48.8182H253.531V46.8182H241.28V48.8182ZM252.531 47.8182V50.9876H254.531V47.8182H252.531ZM253.531 49.9876H245.124V51.9876H253.531V49.9876ZM244.124 50.9876V55.32H246.124V50.9876H244.124ZM245.124 56.32H252.901V54.32H245.124V56.32ZM251.901 55.32V58.4893H253.901V55.32H251.901ZM252.901 57.4893H245.124V59.4893H252.901V57.4893ZM244.124 58.4893V62.8306H246.124V58.4893H244.124ZM245.124 63.8306H253.567V61.8306H245.124V63.8306ZM252.567 62.8306V66H254.567V62.8306H252.567ZM253.567 65H241.28V67H253.567V65ZM261.681 50.9876H260.681V51.9876H261.681V50.9876ZM261.681 47.8182V46.8182H260.681V47.8182H261.681ZM276.614 47.8182H277.614V46.8182H276.614V47.8182ZM276.614 50.9876V51.9876H277.614V50.9876H276.614ZM271.047 50.9876V49.9876H270.047V50.9876H271.047ZM271.047 66V67H272.047V66H271.047ZM267.248 66H266.248V67H267.248V66ZM267.248 50.9876H268.248V49.9876H267.248V50.9876ZM262.681 50.9876V47.8182H260.681V50.9876H262.681ZM261.681 48.8182H276.614V46.8182H261.681V48.8182ZM275.614 47.8182V50.9876H277.614V47.8182H275.614ZM276.614 49.9876H271.047V51.9876H276.614V49.9876ZM270.047 50.9876V66H272.047V50.9876H270.047ZM271.047 65H267.248V67H271.047V65ZM268.248 66V50.9876H266.248V66H268.248ZM267.248 49.9876H261.681V51.9876H267.248V49.9876ZM293.823 61.9695L292.944 61.494L292.942 61.4969L293.823 61.9695ZM290.769 65.1566L291.263 66.0266L291.264 66.0258L290.769 65.1566ZM282.087 65.1477L282.583 64.2795L282.087 65.1477ZM279.042 61.9606L278.161 62.4331L279.042 61.9606ZM279.042 51.8487L279.923 52.3213L279.042 51.8487ZM282.087 48.6705L282.58 49.5404L282.583 49.5387L282.087 48.6705ZM290.769 48.6705L290.273 49.5387L290.278 49.5414L290.769 48.6705ZM293.823 51.8487L292.942 52.3213L292.944 52.3242L293.823 51.8487ZM290.477 53.6598L289.558 54.0545L289.56 54.0597L290.477 53.6598ZM288.87 51.6534L288.32 52.4887L288.87 51.6534ZM284.005 51.6534L284.554 52.4887L284.005 51.6534ZM282.389 53.6598L281.472 53.2599L281.47 53.2651L282.389 53.6598ZM282.389 60.1584L281.47 60.5531L281.472 60.5582L282.389 60.1584ZM284.005 62.1648L284.554 61.3294L284.005 62.1648ZM288.87 62.1648L288.32 61.3294L288.87 62.1648ZM290.477 60.1584L289.56 59.7585L289.558 59.7637L290.477 60.1584ZM293.951 56.9091C293.951 58.7672 293.599 60.2817 292.944 61.494L294.703 62.4449C295.551 60.8755 295.951 59.0164 295.951 56.9091H293.951ZM292.942 61.4969C292.28 62.7327 291.391 63.6526 290.275 64.2874L291.264 66.0258C292.728 65.1928 293.876 63.9879 294.705 62.442L292.942 61.4969ZM290.276 64.2866C289.155 64.9221 287.884 65.2486 286.437 65.2486V67.2486C288.199 67.2486 289.815 66.8471 291.263 66.0266L290.276 64.2866ZM286.437 65.2486C284.979 65.2486 283.703 64.9192 282.583 64.2795L281.591 66.016C283.04 66.8441 284.664 67.2486 286.437 67.2486V65.2486ZM282.583 64.2795C281.473 63.645 280.586 62.725 279.923 61.488L278.161 62.4331C278.989 63.9779 280.132 65.1826 281.591 66.016L282.583 64.2795ZM279.923 61.488C279.273 60.2747 278.923 58.7619 278.923 56.9091H276.923C276.923 59.0099 277.32 60.8647 278.161 62.4331L279.923 61.488ZM278.923 56.9091C278.923 55.0498 279.273 53.5342 279.923 52.3213L278.161 51.3762C277.319 52.945 276.923 54.8029 276.923 56.9091H278.923ZM279.923 52.3213C280.586 51.0849 281.472 50.1688 282.58 49.5404L281.594 47.8005C280.134 48.6281 278.989 49.8308 278.161 51.3762L279.923 52.3213ZM282.583 49.5387C283.703 48.899 284.979 48.5696 286.437 48.5696V46.5696C284.664 46.5696 283.04 46.9741 281.591 47.8022L282.583 49.5387ZM286.437 48.5696C287.882 48.5696 289.153 48.8983 290.273 49.5387L291.266 47.8022C289.818 46.9748 288.2 46.5696 286.437 46.5696V48.5696ZM290.278 49.5414C291.392 50.1701 292.28 51.0861 292.942 52.3213L294.705 51.3762C293.876 49.8297 292.727 48.6268 291.261 47.7995L290.278 49.5414ZM292.944 52.3242C293.599 53.5364 293.951 55.051 293.951 56.9091H295.951C295.951 54.8018 295.551 52.9427 294.703 51.3733L292.944 52.3242ZM292.054 56.9091C292.054 55.5308 291.848 54.3026 291.393 53.2599L289.56 54.0597C289.874 54.7807 290.054 55.7187 290.054 56.9091H292.054ZM291.395 53.2651C290.952 52.2325 290.3 51.3976 289.419 50.8181L288.32 52.4887C288.824 52.8207 289.244 53.3234 289.558 54.0545L291.395 53.2651ZM289.419 50.8181C288.544 50.2422 287.537 49.9698 286.437 49.9698V51.9698C287.195 51.9698 287.81 52.1531 288.32 52.4887L289.419 50.8181ZM286.437 49.9698C285.337 49.9698 284.33 50.2422 283.455 50.8181L284.554 52.4887C285.064 52.1531 285.679 51.9698 286.437 51.9698V49.9698ZM283.455 50.8181C282.576 51.3966 281.922 52.2296 281.472 53.2599L283.305 54.0597C283.625 53.3262 284.048 52.8217 284.554 52.4887L283.455 50.8181ZM281.47 53.2651C281.023 54.3062 280.821 55.5325 280.821 56.9091H282.821C282.821 55.7171 282.997 54.7771 283.308 54.0545L281.47 53.2651ZM280.821 56.9091C280.821 58.2857 281.023 59.512 281.47 60.553L283.308 59.7637C282.997 59.041 282.821 58.1011 282.821 56.9091H280.821ZM281.472 60.5582C281.922 61.5886 282.576 62.4216 283.455 63.0001L284.554 61.3294C284.048 60.9965 283.625 60.4919 283.305 59.7585L281.472 60.5582ZM283.455 63.0001C284.33 63.5759 285.337 63.8484 286.437 63.8484V61.8484C285.679 61.8484 285.064 61.6651 284.554 61.3294L283.455 63.0001ZM286.437 63.8484C287.537 63.8484 288.544 63.5759 289.419 63.0001L288.32 61.3294C287.81 61.6651 287.195 61.8484 286.437 61.8484V63.8484ZM289.419 63.0001C290.3 62.4206 290.952 61.5857 291.395 60.553L289.558 59.7637C289.244 60.4948 288.824 60.9975 288.32 61.3294L289.419 63.0001ZM291.393 60.5582C291.848 59.5156 292.054 58.2874 292.054 56.9091H290.054C290.054 58.0995 289.874 59.0375 289.56 59.7585L291.393 60.5582ZM101.499 84.1836V85.1836H102.624L102.493 84.0664L101.499 84.1836ZM97.611 84.1836L96.6208 84.3234L96.7422 85.1836H97.611V84.1836ZM97.176 82.843L96.3006 83.3265L96.3037 83.332L97.176 82.843ZM96.3326 81.831L95.703 82.6079L96.3326 81.831ZM95.1429 81.1918L94.8267 82.1405L94.8305 82.1417L95.1429 81.1918ZM91.2367 81.6712L91.7881 82.5054L91.793 82.5021L91.2367 81.6712ZM89.612 83.6953L90.5286 84.0952L90.5296 84.0929L89.612 83.6953ZM89.612 90.1761L88.6954 90.576L88.6977 90.5811L89.612 90.1761ZM91.2456 92.1736L90.7041 93.0144L91.2456 92.1736ZM95.0985 92.6442L94.8054 91.6881L94.8017 91.6892L95.0985 92.6442ZM96.2793 92.0494L96.8837 92.8461L96.8923 92.8394L96.2793 92.0494ZM97.1316 91.0817L96.2776 90.5613L96.2717 90.5711L97.1316 91.0817ZM97.611 89.7855L97.6155 88.7855L96.778 88.7817L96.6273 89.6056L97.611 89.7855ZM101.499 89.8033L102.492 89.923L102.627 88.8084L101.504 88.8033L101.499 89.8033ZM100.745 92.218L99.8573 91.7573L99.856 91.7599L100.745 92.218ZM99.138 94.2866L99.808 95.0289L99.8084 95.0286L99.138 94.2866ZM96.7409 95.7248L97.0947 96.6601L97.0979 96.6589L96.7409 95.7248ZM89.2569 95.1477L88.7573 96.014L88.7591 96.015L89.2569 95.1477ZM86.2385 91.9606L85.354 92.4273L85.3556 92.4302L86.2385 91.9606ZM86.2562 81.8487L87.1375 82.3213L86.2562 81.8487ZM89.2924 78.6705L89.7873 79.5394L89.7903 79.5377L89.2924 78.6705ZM96.5368 78.0135L96.2243 78.9634L96.2261 78.964L96.5368 78.0135ZM98.9426 79.3097L98.3116 80.0854L98.3155 80.0886L98.9426 79.3097ZM100.647 81.3782L99.7659 81.8508L99.7686 81.8557L100.647 81.3782ZM101.499 83.1836H97.611V85.1836H101.499V83.1836ZM98.6012 84.0438C98.5151 83.4344 98.3354 82.8663 98.0482 82.354L96.3037 83.332C96.4545 83.601 96.5648 83.9266 96.6208 84.3234L98.6012 84.0438ZM98.0513 82.3596C97.7717 81.8532 97.408 81.4154 96.9621 81.054L95.703 82.6079C95.9436 82.8029 96.1422 83.0398 96.3006 83.3265L98.0513 82.3596ZM96.9621 81.054C96.518 80.6941 96.0122 80.425 95.4554 80.2418L94.8305 82.1417C95.1733 82.2545 95.4606 82.4115 95.703 82.6079L96.9621 81.054ZM95.4592 80.2431C94.9025 80.0575 94.3121 79.9698 93.6958 79.9698V81.9698C94.1212 81.9698 94.4956 82.0301 94.8267 82.1404L95.4592 80.2431ZM93.6958 79.9698C92.5813 79.9698 91.5627 80.2495 90.6804 80.8402L91.793 82.5021C92.3075 82.1577 92.9283 81.9698 93.6958 81.9698V79.9698ZM90.6852 80.8369C89.8011 81.4214 89.144 82.2603 88.6945 83.2977L90.5296 84.0929C90.8495 83.3547 91.2755 82.8442 91.7881 82.5054L90.6852 80.8369ZM88.6955 83.2955C88.2415 84.3361 88.035 85.5515 88.035 86.9091H90.035C90.035 85.7453 90.2132 84.8183 90.5286 84.0952L88.6955 83.2955ZM88.035 86.9091C88.035 88.2977 88.2402 89.5323 88.6955 90.576L90.5286 89.7763C90.2145 89.0562 90.035 88.1128 90.035 86.9091H88.035ZM88.6977 90.5811C89.1544 91.6121 89.8164 92.4426 90.7041 93.0144L91.787 91.3329C91.2779 91.005 90.8509 90.5039 90.5264 89.7711L88.6977 90.5811ZM90.7041 93.0144C91.5805 93.5789 92.5806 93.8484 93.6692 93.8484V91.8484C92.9231 91.8484 92.3074 91.6681 91.787 91.3329L90.7041 93.0144ZM93.6692 93.8484C94.2726 93.8484 94.8503 93.7685 95.3953 93.5991L94.8017 91.6892C94.4708 91.7921 94.0957 91.8484 93.6692 91.8484V93.8484ZM95.3917 93.6002C95.9392 93.4324 96.4398 93.1828 96.8837 92.8461L95.6749 91.2527C95.4322 91.4368 95.1457 91.5837 94.8054 91.6881L95.3917 93.6002ZM96.8923 92.8394C97.3361 92.4951 97.7034 92.0773 97.9914 91.5922L96.2717 90.5711C96.1099 90.8436 95.9091 91.0709 95.6663 91.2593L96.8923 92.8394ZM97.9855 91.602C98.2868 91.1076 98.4863 90.5578 98.5947 89.9655L96.6273 89.6056C96.5581 89.9839 96.438 90.2982 96.2776 90.5613L97.9855 91.602ZM97.6064 90.7855L101.495 90.8033L101.504 88.8033L97.6155 88.7855L97.6064 90.7855ZM100.507 89.6836C100.421 90.3944 100.207 91.0842 99.8573 91.7573L101.632 92.6788C102.088 91.8012 102.377 90.8812 102.492 89.923L100.507 89.6836ZM99.856 91.7599C99.5173 92.417 99.0575 93.0115 98.4676 93.5446L99.8084 95.0286C100.568 94.3424 101.179 93.5579 101.634 92.6762L99.856 91.7599ZM98.4679 93.5443C97.8998 94.0571 97.2099 94.475 96.384 94.7907L97.0979 96.6589C98.1304 96.2643 99.0385 95.7235 99.808 95.0289L98.4679 93.5443ZM96.3872 94.7894C95.5954 95.0889 94.6736 95.2486 93.6071 95.2486V97.2486C94.8724 97.2486 96.0399 97.0591 97.0947 96.6601L96.3872 94.7894ZM93.6071 95.2486C92.1421 95.2486 90.8668 94.9189 89.7548 94.2805L88.7591 96.015C90.2038 96.8444 91.8286 97.2486 93.6071 97.2486V95.2486ZM89.7565 94.2815C88.6583 93.6481 87.7798 92.7288 87.1213 91.491L85.3556 92.4302C86.1768 93.9741 87.3106 95.1796 88.7573 96.014L89.7565 94.2815ZM87.1229 91.4939C86.4819 90.2792 86.1376 88.7642 86.1376 86.9091H84.1376C84.1376 89.0076 84.5272 90.8603 85.354 92.4273L87.1229 91.4939ZM86.1376 86.9091C86.1376 85.0498 86.4872 83.5342 87.1375 82.3213L85.3749 81.3762C84.5338 82.945 84.1376 84.8029 84.1376 86.9091H86.1376ZM87.1375 82.3213C87.8011 81.0837 88.6844 80.1675 89.7873 79.5394L88.7976 77.8015C87.3436 78.6294 86.2028 79.832 85.3749 81.3762L87.1375 82.3213ZM89.7903 79.5377C90.9046 78.898 92.1686 78.5696 93.6071 78.5696V76.5696C91.8495 76.5696 90.2371 76.9751 88.7946 77.8032L89.7903 79.5377ZM93.6071 78.5696C94.5662 78.5696 95.4361 78.7042 96.2243 78.9634L96.8492 77.0636C95.8381 76.731 94.7549 76.5696 93.6071 76.5696V78.5696ZM96.2261 78.964C97.0219 79.2241 97.7138 79.5991 98.3116 80.0854L99.5737 78.5339C98.7747 77.8839 97.8627 77.3948 96.8474 77.063L96.2261 78.964ZM98.3155 80.0886C98.906 80.564 99.3891 81.1481 99.7659 81.8508L101.528 80.9056C101.029 79.9748 100.376 79.1799 99.5698 78.5307L98.3155 80.0886ZM99.7686 81.8557C100.144 82.5461 100.395 83.3559 100.506 84.3008L102.493 84.0664C102.355 82.9043 102.038 81.8438 101.526 80.9007L99.7686 81.8557ZM119.837 91.9695L118.957 91.494L118.955 91.4969L119.837 91.9695ZM116.783 95.1566L117.276 96.0266L117.277 96.0258L116.783 95.1566ZM108.1 95.1477L108.596 94.2795L108.1 95.1477ZM105.055 91.9606L104.174 92.4331L105.055 91.9606ZM105.055 81.8487L105.936 82.3213L105.055 81.8487ZM108.1 78.6705L108.593 79.5404L108.596 79.5387L108.1 78.6705ZM116.783 78.6705L116.287 79.5387L116.291 79.5414L116.783 78.6705ZM119.837 81.8487L118.955 82.3213L118.957 82.3242L119.837 81.8487ZM116.49 83.6598L115.571 84.0545L115.573 84.0597L116.49 83.6598ZM114.883 81.6534L114.333 82.4887L114.883 81.6534ZM110.018 81.6534L110.568 82.4887L110.018 81.6534ZM108.402 83.6598L107.485 83.2599L107.483 83.2651L108.402 83.6598ZM108.402 90.1584L107.483 90.5531L107.485 90.5582L108.402 90.1584ZM110.018 92.1648L110.568 91.3294L110.018 92.1648ZM114.883 92.1648L114.333 91.3294L114.883 92.1648ZM116.49 90.1584L115.573 89.7585L115.571 89.7637L116.49 90.1584ZM119.964 86.9091C119.964 88.7672 119.612 90.2817 118.957 91.494L120.716 92.4449C121.565 90.8755 121.964 89.0164 121.964 86.9091H119.964ZM118.955 91.4969C118.293 92.7327 117.404 93.6526 116.288 94.2874L117.277 96.0258C118.742 95.1928 119.889 93.9879 120.718 92.442L118.955 91.4969ZM116.29 94.2866C115.168 94.9221 113.897 95.2486 112.45 95.2486V97.2486C114.212 97.2486 115.828 96.8471 117.276 96.0266L116.29 94.2866ZM112.45 95.2486C110.992 95.2486 109.716 94.9192 108.596 94.2795L107.604 96.016C109.053 96.8441 110.677 97.2486 112.45 97.2486V95.2486ZM108.596 94.2795C107.486 93.645 106.6 92.725 105.936 91.488L104.174 92.4331C105.002 93.9779 106.146 95.1826 107.604 96.016L108.596 94.2795ZM105.936 91.488C105.286 90.2747 104.936 88.7619 104.936 86.9091H102.936C102.936 89.0099 103.333 90.8647 104.174 92.4331L105.936 91.488ZM104.936 86.9091C104.936 85.0498 105.286 83.5342 105.936 82.3213L104.174 81.3762C103.333 82.945 102.936 84.8029 102.936 86.9091H104.936ZM105.936 82.3213C106.599 81.0849 107.485 80.1688 108.593 79.5404L107.607 77.8005C106.147 78.6281 105.002 79.8308 104.174 81.3762L105.936 82.3213ZM108.596 79.5387C109.716 78.899 110.992 78.5696 112.45 78.5696V76.5696C110.677 76.5696 109.053 76.9741 107.604 77.8022L108.596 79.5387ZM112.45 78.5696C113.895 78.5696 115.166 78.8983 116.287 79.5387L117.279 77.8022C115.831 76.9748 114.213 76.5696 112.45 76.5696V78.5696ZM116.291 79.5414C117.405 80.1701 118.293 81.0861 118.955 82.3213L120.718 81.3762C119.889 79.8297 118.74 78.6268 117.274 77.7995L116.291 79.5414ZM118.957 82.3242C119.612 83.5364 119.964 85.051 119.964 86.9091H121.964C121.964 84.8018 121.565 82.9427 120.716 81.3733L118.957 82.3242ZM118.067 86.9091C118.067 85.5308 117.861 84.3026 117.406 83.2599L115.573 84.0597C115.888 84.7807 116.067 85.7187 116.067 86.9091H118.067ZM117.409 83.2651C116.965 82.2325 116.313 81.3976 115.433 80.8181L114.333 82.4887C114.837 82.8207 115.257 83.3234 115.571 84.0545L117.409 83.2651ZM115.433 80.8181C114.558 80.2422 113.55 79.9698 112.45 79.9698V81.9698C113.209 81.9698 113.823 82.1531 114.333 82.4887L115.433 80.8181ZM112.45 79.9698C111.35 79.9698 110.343 80.2422 109.468 80.8181L110.568 82.4887C111.077 82.1531 111.692 81.9698 112.45 81.9698V79.9698ZM109.468 80.8181C108.589 81.3966 107.935 82.2296 107.485 83.2599L109.319 84.0597C109.639 83.3262 110.062 82.8217 110.568 82.4887L109.468 80.8181ZM107.483 83.2651C107.036 84.3062 106.834 85.5325 106.834 86.9091H108.834C108.834 85.7171 109.01 84.7771 109.321 84.0545L107.483 83.2651ZM106.834 86.9091C106.834 88.2857 107.036 89.512 107.483 90.553L109.321 89.7637C109.01 89.041 108.834 88.1011 108.834 86.9091H106.834ZM107.485 90.5582C107.935 91.5886 108.589 92.4216 109.468 93.0001L110.568 91.3294C110.062 90.9965 109.639 90.4919 109.319 89.7585L107.485 90.5582ZM109.468 93.0001C110.343 93.5759 111.35 93.8484 112.45 93.8484V91.8484C111.692 91.8484 111.077 91.6651 110.568 91.3294L109.468 93.0001ZM112.45 93.8484C113.55 93.8484 114.558 93.5759 115.433 93.0001L114.333 91.3294C113.823 91.6651 113.209 91.8484 112.45 91.8484V93.8484ZM115.433 93.0001C116.313 92.4206 116.965 91.5857 117.409 90.553L115.571 89.7637C115.257 90.4948 114.837 90.9975 114.333 91.3294L115.433 93.0001ZM117.406 90.5582C117.861 89.5156 118.067 88.2874 118.067 86.9091H116.067C116.067 88.0995 115.888 89.0374 115.573 89.7585L117.406 90.5582ZM139.019 77.8182H140.019V76.8182H139.019V77.8182ZM139.019 96V97H140.019V96H139.019ZM135.699 96L134.877 96.5686L135.175 97H135.699V96ZM127.789 84.5565L128.612 83.9879L128.313 83.5565H127.789V84.5565ZM127.656 84.5565V83.5565H126.656V84.5565H127.656ZM127.656 96V97H128.656V96H127.656ZM123.812 96H122.812V97H123.812V96ZM123.812 77.8182V76.8182H122.812V77.8182H123.812ZM127.185 77.8182L128.01 77.2523L127.712 76.8182H127.185V77.8182ZM135.033 89.2528L134.209 89.8187L134.507 90.2528H135.033V89.2528ZM135.193 89.2528V90.2528H136.193V89.2528H135.193ZM135.193 77.8182V76.8182H134.193V77.8182H135.193ZM138.019 77.8182V96H140.019V77.8182H138.019ZM139.019 95H135.699V97H139.019V95ZM136.522 95.4314L128.612 83.9879L126.966 85.1251L134.877 96.5686L136.522 95.4314ZM127.789 83.5565H127.656V85.5565H127.789V83.5565ZM126.656 84.5565V96H128.656V84.5565H126.656ZM127.656 95H123.812V97H127.656V95ZM124.812 96V77.8182H122.812V96H124.812ZM123.812 78.8182H127.185V76.8182H123.812V78.8182ZM126.361 78.3841L134.209 89.8187L135.858 88.687L128.01 77.2523L126.361 78.3841ZM135.033 90.2528H135.193V88.2528H135.033V90.2528ZM136.193 89.2528V77.8182H134.193V89.2528H136.193ZM135.193 78.8182H139.019V76.8182H135.193V78.8182ZM152.059 83.0472L151.064 83.1459L151.153 84.0472H152.059V83.0472ZM147.362 81.0497L147.732 81.9791L147.743 81.9747L147.362 81.0497ZM146.368 81.7688L145.568 81.1688L145.561 81.1788L146.368 81.7688ZM146.031 82.8164L147.03 82.8527L147.031 82.8346V82.8164H146.031ZM146.235 83.6687L145.381 84.1893L145.386 84.1968L145.39 84.2042L146.235 83.6687ZM146.865 84.299L146.311 85.1311L146.317 85.1354L146.324 85.1396L146.865 84.299ZM147.789 84.7518L147.439 85.6888L147.446 85.6914L147.453 85.6939L147.789 84.7518ZM148.907 85.0714L149.14 84.0988L149.133 84.0971L149.126 84.0955L148.907 85.0714ZM150.541 85.462L150.308 86.4346L150.315 86.4363L150.322 86.4378L150.541 85.462ZM152.725 86.1722L152.317 87.0854L152.725 86.1722ZM154.447 87.2642L155.112 86.5173L154.447 87.2642ZM155.574 88.7912L154.664 89.205L154.668 89.2126L155.574 88.7912ZM155.992 90.8065L156.992 90.8118L156.992 90.7987L155.992 90.8065ZM155.139 93.7006L154.316 93.1336L154.315 93.1349L155.139 93.7006ZM152.725 95.5916L153.115 96.5124L153.117 96.5113L152.725 95.5916ZM145.099 95.5827L144.715 96.5063L144.717 96.507L145.099 95.5827ZM142.559 93.5852L141.733 94.1476L141.737 94.1539L142.559 93.5852ZM141.61 90.2915V89.2915H140.587L140.61 90.3142L141.61 90.2915ZM145.329 90.2915L146.327 90.2237L146.264 89.2915H145.329V90.2915ZM145.853 91.8185L145.055 92.4204L145.059 92.4269L145.064 92.4333L145.853 91.8185ZM147.105 92.733L146.735 93.6622L146.748 93.6671L147.105 92.733ZM150.585 92.7507L150.222 91.8191L150.218 91.8207L150.585 92.7507ZM151.713 91.9606L152.497 92.5802L151.713 91.9606ZM151.748 89.7678L150.986 90.4159L150.994 90.4251L151.748 89.7678ZM150.7 89.0575L150.307 89.9767L150.311 89.9785L150.7 89.0575ZM149.023 88.5249L148.779 89.4948L148.788 89.497L149.023 88.5249ZM147.043 88.0277L147.286 87.0578L147.279 87.056L147.043 88.0277ZM143.412 86.2788L142.746 87.0245L143.412 86.2788ZM142.089 83.0739L143.089 83.0783L143.089 83.0685L142.089 83.0739ZM142.968 80.1886L142.159 79.6007L142.156 79.6046L142.968 80.1886ZM152.512 78.2621L152.095 79.171L152.097 79.1719L152.512 78.2621ZM154.873 80.1886L154.047 80.7528L154.873 80.1886ZM155.743 83.0472V84.0472H156.76L156.743 83.0308L155.743 83.0472ZM153.054 82.9485C152.957 81.9746 152.523 81.1512 151.737 80.5729L150.551 82.1835C150.843 82.3982 151.018 82.6875 151.064 83.1459L153.054 82.9485ZM151.737 80.5729C150.972 80.0097 150.009 79.7834 148.952 79.7834V81.7834C149.741 81.7834 150.239 81.9536 150.551 82.1835L151.737 80.5729ZM148.952 79.7834C148.236 79.7834 147.569 79.8838 146.982 80.1248L147.743 81.9747C148.02 81.8605 148.412 81.7834 148.952 81.7834V79.7834ZM146.993 80.1204C146.426 80.3458 145.93 80.6856 145.568 81.1688L147.168 82.3688C147.267 82.2365 147.435 82.0969 147.732 81.9791L146.993 80.1204ZM145.561 81.1788C145.207 81.6623 145.031 82.2193 145.031 82.8164H147.031C147.031 82.6323 147.079 82.4908 147.175 82.3588L145.561 81.1788ZM145.031 82.7801C145.013 83.2721 145.117 83.7558 145.381 84.1893L147.089 83.1481C147.057 83.0963 147.024 83.0118 147.03 82.8527L145.031 82.7801ZM145.39 84.2042C145.627 84.5777 145.941 84.8849 146.311 85.1311L147.42 83.467C147.257 83.358 147.15 83.245 147.079 83.1331L145.39 84.2042ZM146.324 85.1396C146.66 85.3563 147.034 85.5377 147.439 85.6888L148.138 83.8148C147.845 83.7054 147.603 83.585 147.407 83.4584L146.324 85.1396ZM147.453 85.6939C147.844 85.833 148.256 85.9504 148.689 86.0472L149.126 84.0955C148.765 84.0148 148.431 83.9191 148.124 83.8097L147.453 85.6939ZM148.675 86.044L150.308 86.4346L150.773 84.4894L149.14 84.0988L148.675 86.044ZM150.322 86.4378C151.058 86.6026 151.722 86.8196 152.317 87.0854L153.132 85.2591C152.402 84.933 151.61 84.6766 150.759 84.4862L150.322 86.4378ZM152.317 87.0854C152.897 87.3443 153.382 87.6548 153.782 88.0111L155.112 86.5173C154.541 86.0095 153.878 85.592 153.132 85.2591L152.317 87.0854ZM153.782 88.0111C154.164 88.3514 154.456 88.7472 154.664 89.205L156.485 88.3774C156.16 87.6633 155.7 87.0411 155.112 86.5173L153.782 88.0111ZM154.668 89.2126C154.87 89.6484 154.987 90.1752 154.992 90.8143L156.992 90.7987C156.985 89.9226 156.823 89.1058 156.481 88.3698L154.668 89.2126ZM154.992 90.8011C154.987 91.7386 154.751 92.5019 154.316 93.1336L155.963 94.2677C156.653 93.2658 156.985 92.0997 156.992 90.8118L154.992 90.8011ZM154.315 93.1349C153.883 93.7647 153.24 94.2842 152.332 94.6719L153.117 96.5113C154.316 95.9995 155.283 95.2582 155.964 94.2664L154.315 93.1349ZM152.334 94.6709C151.441 95.0493 150.318 95.2575 148.934 95.2575V97.2575C150.509 97.2575 151.913 97.0217 153.115 96.5124L152.334 94.6709ZM148.934 95.2575C147.566 95.2575 146.422 95.0476 145.48 94.6585L144.717 96.507C145.953 97.0175 147.366 97.2575 148.934 97.2575V95.2575ZM145.482 94.6592C144.559 94.2759 143.872 93.7257 143.382 93.0166L141.737 94.1539C142.466 95.2085 143.472 95.99 144.715 96.5063L145.482 94.6592ZM143.386 93.0229C142.913 92.3264 142.635 91.4266 142.609 90.2689L140.61 90.3142C140.643 91.7725 140.999 93.0685 141.733 94.1475L143.386 93.0229ZM141.61 91.2915H145.329V89.2915H141.61V91.2915ZM144.332 90.3594C144.384 91.1243 144.609 91.8291 145.055 92.4204L146.652 91.2167C146.482 90.9913 146.358 90.678 146.327 90.2237L144.332 90.3594ZM145.064 92.4333C145.498 92.9895 146.066 93.396 146.735 93.6622L147.475 91.8038C147.102 91.6556 146.836 91.4525 146.642 91.2038L145.064 92.4333ZM146.748 93.6671C147.407 93.9188 148.126 94.0348 148.889 94.0348V92.0348C148.327 92.0348 147.857 91.9496 147.462 91.7988L146.748 93.6671ZM148.889 94.0348C149.634 94.0348 150.33 93.9268 150.952 93.6808L150.218 91.8207C149.882 91.9534 149.446 92.0348 148.889 92.0348V94.0348ZM150.949 93.6823C151.564 93.4419 152.1 93.0841 152.497 92.5802L150.928 91.3409C150.793 91.5118 150.576 91.6807 150.222 91.8191L150.949 93.6823ZM152.497 92.5802C152.906 92.0628 153.112 91.4558 153.112 90.7976H151.112C151.112 91.0153 151.052 91.1837 150.928 91.3409L152.497 92.5802ZM153.112 90.7976C153.112 90.1751 152.92 89.5905 152.502 89.1104L150.994 90.4251C151.061 90.5014 151.112 90.6033 151.112 90.7976H153.112ZM152.51 89.1196C152.141 88.687 151.645 88.3712 151.09 88.1366L150.311 89.9785C150.68 90.1345 150.881 90.2921 150.987 90.4159L152.51 89.1196ZM151.094 88.1384C150.572 87.9145 149.956 87.7212 149.257 87.5527L148.788 89.497C149.415 89.6482 149.918 89.8099 150.307 89.9767L151.094 88.1384ZM149.266 87.555L147.286 87.0578L146.799 88.9976L148.779 89.4947L149.266 87.555ZM147.279 87.056C145.856 86.7098 144.81 86.1868 144.078 85.533L142.746 87.0245C143.789 87.9569 145.164 88.5998 146.806 88.9994L147.279 87.056ZM144.078 85.533C143.432 84.9563 143.084 84.1764 143.089 83.0783L141.089 83.0695C141.082 84.6583 141.615 86.015 142.746 87.0245L144.078 85.533ZM143.089 83.0685C143.084 82.1598 143.322 81.4086 143.78 80.7726L142.156 79.6046C141.43 80.6139 141.082 81.7862 141.089 83.0792L143.089 83.0685ZM143.777 80.7764C144.259 80.1127 144.932 79.5754 145.832 79.1763L145.022 77.3478C143.839 77.8721 142.872 78.619 142.159 79.6007L143.777 80.7764ZM145.832 79.1763C146.727 78.7797 147.769 78.5696 148.978 78.5696V76.5696C147.535 76.5696 146.21 76.8211 145.022 77.3478L145.832 79.1763ZM148.978 78.5696C150.215 78.5696 151.245 78.781 152.095 79.171L152.929 77.3532C151.766 76.8198 150.441 76.5696 148.978 76.5696V78.5696ZM152.097 79.1719C152.963 79.567 153.6 80.0976 154.047 80.7528L155.699 79.6243C155.022 78.6342 154.085 77.8805 152.927 77.3523L152.097 79.1719ZM154.047 80.7528C154.49 81.3998 154.728 82.1585 154.743 83.0636L156.743 83.0308C156.722 81.7698 156.381 80.6227 155.699 79.6243L154.047 80.7528ZM155.743 82.0472H152.059V84.0472H155.743V82.0472ZM169.808 77.8182V76.8182H168.808V77.8182H169.808ZM173.652 77.8182H174.652V76.8182H173.652V77.8182ZM172.702 93.1058L171.859 92.5686L171.856 92.5722L172.702 93.1058ZM170.065 95.4318L170.503 96.3309L170.507 96.329L170.065 95.4318ZM162.155 95.4318L161.714 96.3291L161.717 96.3309L162.155 95.4318ZM159.518 93.1058L158.673 93.6394L159.518 93.1058ZM158.577 77.8182V76.8182H157.577V77.8182H158.577ZM162.421 77.8182H163.421V76.8182H162.421V77.8182ZM162.874 91.1438L162.002 91.6327L162.006 91.64L162.874 91.1438ZM164.17 92.4134L163.686 93.2884L164.17 92.4134ZM168.059 92.4134L167.575 91.5383L167.571 91.5405L168.059 92.4134ZM169.346 91.1438L168.478 90.6477L168.474 90.6549L169.346 91.1438ZM169.808 78.8182H173.652V76.8182H169.808V78.8182ZM172.652 77.8182V89.6257H174.652V77.8182H172.652ZM172.652 89.6257C172.652 90.7856 172.377 91.7543 171.859 92.5686L173.545 93.643C174.293 92.4688 174.652 91.1174 174.652 89.6257H172.652ZM171.856 92.5722C171.335 93.3991 170.601 94.0537 169.624 94.5346L170.507 96.329C171.791 95.6972 172.815 94.8012 173.548 93.6394L171.856 92.5722ZM169.627 94.5327C168.658 95.005 167.496 95.2575 166.115 95.2575V97.2575C167.74 97.2575 169.212 96.9595 170.503 96.3309L169.627 94.5327ZM166.115 95.2575C164.727 95.2575 163.562 95.0048 162.593 94.5327L161.717 96.3309C163.009 96.9597 164.484 97.2575 166.115 97.2575V95.2575ZM162.597 94.5346C161.62 94.0537 160.886 93.3991 160.364 92.5722L158.673 93.6394C159.406 94.8012 160.43 95.6972 161.714 96.329L162.597 94.5346ZM160.364 92.5722C159.85 91.7574 159.577 90.7874 159.577 89.6257H157.577C157.577 91.1155 157.932 92.4656 158.673 93.6394L160.364 92.5722ZM159.577 89.6257V77.8182H157.577V89.6257H159.577ZM158.577 78.8182H162.421V76.8182H158.577V78.8182ZM161.421 77.8182V89.2972H163.421V77.8182H161.421ZM161.421 89.2972C161.421 90.1397 161.607 90.9273 162.002 91.6327L163.747 90.6549C163.538 90.2832 163.421 89.8397 163.421 89.2972H161.421ZM162.006 91.64C162.407 92.3418 162.974 92.8942 163.686 93.2884L164.654 91.5383C164.254 91.3169 163.957 91.023 163.742 90.6477L162.006 91.64ZM163.686 93.2884C164.413 93.6906 165.233 93.875 166.115 93.875V91.875C165.516 91.875 165.04 91.7516 164.654 91.5383L163.686 93.2884ZM166.115 93.875C167 93.875 167.822 93.6914 168.547 93.2862L167.571 91.5405C167.195 91.7509 166.721 91.875 166.115 91.875V93.875ZM168.543 93.2884C169.257 92.8934 169.823 92.3387 170.218 91.6327L168.474 90.6549C168.266 91.0262 167.973 91.3178 167.575 91.5383L168.543 93.2884ZM170.214 91.64C170.618 90.9333 170.808 90.143 170.808 89.2972H168.808C168.808 89.8364 168.69 90.2772 168.478 90.6477L170.214 91.64ZM170.808 89.2972V77.8182H168.808V89.2972H170.808ZM176.815 96H175.815V97H176.815V96ZM176.815 77.8182V76.8182H175.815V77.8182H176.815ZM180.659 77.8182H181.659V76.8182H180.659V77.8182ZM180.659 92.8306H179.659V93.8306H180.659V92.8306ZM188.453 92.8306H189.453V91.8306H188.453V92.8306ZM188.453 96V97H189.453V96H188.453ZM177.815 96V77.8182H175.815V96H177.815ZM176.815 78.8182H180.659V76.8182H176.815V78.8182ZM179.659 77.8182V92.8306H181.659V77.8182H179.659ZM180.659 93.8306H188.453V91.8306H180.659V93.8306ZM187.453 92.8306V96H189.453V92.8306H187.453ZM188.453 95H176.815V97H188.453V95ZM188.036 80.9876H187.036V81.9876H188.036V80.9876ZM188.036 77.8182V76.8182H187.036V77.8182H188.036ZM202.969 77.8182H203.969V76.8182H202.969V77.8182ZM202.969 80.9876V81.9876H203.969V80.9876H202.969ZM197.402 80.9876V79.9876H196.402V80.9876H197.402ZM197.402 96V97H198.402V96H197.402ZM193.603 96H192.603V97H193.603V96ZM193.603 80.9876H194.603V79.9876H193.603V80.9876ZM189.036 80.9876V77.8182H187.036V80.9876H189.036ZM188.036 78.8182H202.969V76.8182H188.036V78.8182ZM201.969 77.8182V80.9876H203.969V77.8182H201.969ZM202.969 79.9876H197.402V81.9876H202.969V79.9876ZM196.402 80.9876V96H198.402V80.9876H196.402ZM197.402 95H193.603V97H197.402V95ZM194.603 96V80.9876H192.603V96H194.603ZM193.603 79.9876H188.036V81.9876H193.603V79.9876ZM206.34 96V97H207.066L207.291 96.3094L206.34 96ZM202.221 96L201.276 95.6737L200.818 97H202.221V96ZM208.497 77.8182V76.8182H207.785L207.552 77.4919L208.497 77.8182ZM213.451 77.8182L214.397 77.4923L214.164 76.8182H213.451V77.8182ZM219.719 96V97H221.121L220.664 95.6741L219.719 96ZM215.6 96L214.649 96.3088L214.873 97H215.6V96ZM211.045 81.973L211.996 81.6642L211.772 80.973H211.045V81.973ZM210.903 81.973V80.973H210.177L209.952 81.6637L210.903 81.973ZM206.083 88.8533V87.8533H205.083V88.8533H206.083ZM215.813 88.8533H216.813V87.8533H215.813V88.8533ZM215.813 91.854V92.854H216.813V91.854H215.813ZM206.083 91.854H205.083V92.854H206.083V91.854ZM206.34 95H202.221V97H206.34V95ZM203.166 96.3263L209.443 78.1445L207.552 77.4919L201.276 95.6737L203.166 96.3263ZM208.497 78.8182H213.451V76.8182H208.497V78.8182ZM212.506 78.1441L218.774 96.3259L220.664 95.6741L214.397 77.4923L212.506 78.1441ZM219.719 95H215.6V97H219.719V95ZM216.551 95.6912L211.996 81.6642L210.094 82.2818L214.649 96.3088L216.551 95.6912ZM211.045 80.973H210.903V82.973H211.045V80.973ZM209.952 81.6637L205.389 95.6906L207.291 96.3094L211.854 82.2824L209.952 81.6637ZM206.083 89.8533H215.813V87.8533H206.083V89.8533ZM214.813 88.8533V91.854H216.813V88.8533H214.813ZM215.813 90.854H206.083V92.854H215.813V90.854ZM207.083 91.854V88.8533H205.083V91.854H207.083ZM218.993 80.9876H217.993V81.9876H218.993V80.9876ZM218.993 77.8182V76.8182H217.993V77.8182H218.993ZM233.926 77.8182H234.926V76.8182H233.926V77.8182ZM233.926 80.9876V81.9876H234.926V80.9876H233.926ZM228.359 80.9876V79.9876H227.359V80.9876H228.359ZM228.359 96V97H229.359V96H228.359ZM224.56 96H223.56V97H224.56V96ZM224.56 80.9876H225.56V79.9876H224.56V80.9876ZM219.993 80.9876V77.8182H217.993V80.9876H219.993ZM218.993 78.8182H233.926V76.8182H218.993V78.8182ZM232.926 77.8182V80.9876H234.926V77.8182H232.926ZM233.926 79.9876H228.359V81.9876H233.926V79.9876ZM227.359 80.9876V96H229.359V80.9876H227.359ZM228.359 95H224.56V97H228.359V95ZM225.56 96V80.9876H223.56V96H225.56ZM224.56 79.9876H218.993V81.9876H224.56V79.9876ZM240.229 77.8182H241.229V76.8182H240.229V77.8182ZM240.229 96V97H241.229V96H240.229ZM236.385 96H235.385V97H236.385V96ZM236.385 77.8182V76.8182H235.385V77.8182H236.385ZM239.229 77.8182V96H241.229V77.8182H239.229ZM240.229 95H236.385V97H240.229V95ZM237.385 96V77.8182H235.385V96H237.385ZM236.385 78.8182H240.229V76.8182H236.385V78.8182ZM258.972 91.9695L258.093 91.494L258.091 91.4969L258.972 91.9695ZM255.918 95.1566L256.412 96.0266L256.413 96.0258L255.918 95.1566ZM247.236 95.1477L247.732 94.2795L247.236 95.1477ZM244.191 91.9606L243.309 92.4331L244.191 91.9606ZM244.191 81.8487L245.072 82.3213L244.191 81.8487ZM247.236 78.6705L247.729 79.5404L247.732 79.5387L247.236 78.6705ZM255.918 78.6705L255.422 79.5387L255.427 79.5414L255.918 78.6705ZM258.972 81.8487L258.091 82.3213L258.093 82.3242L258.972 81.8487ZM255.625 83.6598L254.707 84.0545L254.709 84.0597L255.625 83.6598ZM254.019 81.6534L253.469 82.4887L254.019 81.6534ZM249.154 81.6534L249.703 82.4887L249.154 81.6534ZM247.538 83.6598L246.621 83.2599L246.619 83.2651L247.538 83.6598ZM247.538 90.1584L246.619 90.5531L246.621 90.5582L247.538 90.1584ZM249.154 92.1648L249.703 91.3294L249.154 92.1648ZM254.019 92.1648L253.469 91.3294L254.019 92.1648ZM255.625 90.1584L254.709 89.7585L254.707 89.7637L255.625 90.1584ZM259.1 86.9091C259.1 88.7672 258.748 90.2817 258.093 91.494L259.852 92.4449C260.7 90.8755 261.1 89.0164 261.1 86.9091H259.1ZM258.091 91.4969C257.428 92.7327 256.54 93.6526 255.424 94.2874L256.413 96.0258C257.877 95.1928 259.025 93.9879 259.854 92.442L258.091 91.4969ZM255.425 94.2866C254.304 94.9221 253.032 95.2486 251.586 95.2486V97.2486C253.347 97.2486 254.964 96.8471 256.412 96.0266L255.425 94.2866ZM251.586 95.2486C250.128 95.2486 248.852 94.9192 247.732 94.2795L246.74 96.016C248.189 96.8441 249.813 97.2486 251.586 97.2486V95.2486ZM247.732 94.2795C246.622 93.645 245.735 92.725 245.072 91.488L243.309 92.4331C244.138 93.9779 245.281 95.1826 246.74 96.016L247.732 94.2795ZM245.072 91.488C244.422 90.2747 244.072 88.7619 244.072 86.9091H242.072C242.072 89.0099 242.469 90.8647 243.309 92.4331L245.072 91.488ZM244.072 86.9091C244.072 85.0498 244.422 83.5342 245.072 82.3213L243.309 81.3762C242.468 82.945 242.072 84.8029 242.072 86.9091H244.072ZM245.072 82.3213C245.735 81.0849 246.62 80.1688 247.729 79.5404L246.743 77.8005C245.283 78.6281 244.138 79.8308 243.309 81.3762L245.072 82.3213ZM247.732 79.5387C248.852 78.899 250.128 78.5696 251.586 78.5696V76.5696C249.813 76.5696 248.189 76.9741 246.74 77.8022L247.732 79.5387ZM251.586 78.5696C253.031 78.5696 254.302 78.8983 255.422 79.5387L256.415 77.8022C254.967 76.9748 253.349 76.5696 251.586 76.5696V78.5696ZM255.427 79.5414C256.541 80.1701 257.429 81.0861 258.091 82.3213L259.854 81.3762C259.025 79.8297 257.876 78.6268 256.41 77.7995L255.427 79.5414ZM258.093 82.3242C258.748 83.5364 259.1 85.051 259.1 86.9091H261.1C261.1 84.8018 260.7 82.9427 259.852 81.3733L258.093 82.3242ZM257.202 86.9091C257.202 85.5308 256.997 84.3026 256.542 83.2599L254.709 84.0597C255.023 84.7807 255.202 85.7187 255.202 86.9091H257.202ZM256.544 83.2651C256.101 82.2325 255.449 81.3976 254.568 80.8181L253.469 82.4887C253.973 82.8207 254.393 83.3234 254.707 84.0545L256.544 83.2651ZM254.568 80.8181C253.693 80.2422 252.686 79.9698 251.586 79.9698V81.9698C252.344 81.9698 252.959 82.1531 253.469 82.4887L254.568 80.8181ZM251.586 79.9698C250.486 79.9698 249.479 80.2422 248.604 80.8181L249.703 82.4887C250.213 82.1531 250.828 81.9698 251.586 81.9698V79.9698ZM248.604 80.8181C247.725 81.3966 247.071 82.2296 246.621 83.2599L248.454 84.0597C248.774 83.3262 249.197 82.8217 249.703 82.4887L248.604 80.8181ZM246.619 83.2651C246.172 84.3062 245.97 85.5325 245.97 86.9091H247.97C247.97 85.7171 248.146 84.7771 248.457 84.0545L246.619 83.2651ZM245.97 86.9091C245.97 88.2857 246.172 89.512 246.619 90.553L248.457 89.7637C248.146 89.041 247.97 88.1011 247.97 86.9091H245.97ZM246.621 90.5582C247.071 91.5886 247.725 92.4216 248.604 93.0001L249.703 91.3294C249.197 90.9965 248.774 90.4919 248.454 89.7585L246.621 90.5582ZM248.604 93.0001C249.479 93.5759 250.486 93.8484 251.586 93.8484V91.8484C250.828 91.8484 250.213 91.6651 249.703 91.3294L248.604 93.0001ZM251.586 93.8484C252.686 93.8484 253.693 93.5759 254.568 93.0001L253.469 91.3294C252.959 91.6651 252.344 91.8484 251.586 91.8484V93.8484ZM254.568 93.0001C255.449 92.4206 256.101 91.5857 256.544 90.553L254.707 89.7637C254.393 90.4948 253.973 90.9975 253.469 91.3294L254.568 93.0001ZM256.542 90.5582C256.997 89.5156 257.202 88.2874 257.202 86.9091H255.202C255.202 88.0995 255.023 89.0374 254.709 89.7585L256.542 90.5582ZM278.155 77.8182H279.155V76.8182H278.155V77.8182ZM278.155 96V97H279.155V96H278.155ZM274.835 96L274.012 96.5686L274.31 97H274.835V96ZM266.925 84.5565L267.747 83.9879L267.449 83.5565H266.925V84.5565ZM266.792 84.5565V83.5565H265.792V84.5565H266.792ZM266.792 96V97H267.792V96H266.792ZM262.947 96H261.947V97H262.947V96ZM262.947 77.8182V76.8182H261.947V77.8182H262.947ZM266.321 77.8182L267.146 77.2523L266.848 76.8182H266.321V77.8182ZM274.169 89.2528L273.345 89.8187L273.643 90.2528H274.169V89.2528ZM274.329 89.2528V90.2528H275.329V89.2528H274.329ZM274.329 77.8182V76.8182H273.329V77.8182H274.329ZM277.155 77.8182V96H279.155V77.8182H277.155ZM278.155 95H274.835V97H278.155V95ZM275.657 95.4314L267.747 83.9879L266.102 85.1251L274.012 96.5686L275.657 95.4314ZM266.925 83.5565H266.792V85.5565H266.925V83.5565ZM265.792 84.5565V96H267.792V84.5565H265.792ZM266.792 95H262.947V97H266.792V95ZM263.947 96V77.8182H261.947V96H263.947ZM262.947 78.8182H266.321V76.8182H262.947V78.8182ZM265.497 78.3841L273.345 89.8187L274.994 88.687L267.146 77.2523L265.497 78.3841ZM274.169 90.2528H274.329V88.2528H274.169V90.2528ZM275.329 89.2528V77.8182H273.329V89.2528H275.329ZM274.329 78.8182H278.155V76.8182H274.329V78.8182ZM287.117 96H286.117V97H287.117V96ZM287.117 77.8182V76.8182H286.117V77.8182H287.117ZM299.156 77.8182H300.156V76.8182H299.156V77.8182ZM299.156 80.9876V81.9876H300.156V80.9876H299.156ZM290.961 80.9876V79.9876H289.961V80.9876H290.961ZM290.961 85.32H289.961V86.32H290.961V85.32ZM298.357 85.32H299.357V84.32H298.357V85.32ZM298.357 88.4893V89.4893H299.357V88.4893H298.357ZM290.961 88.4893V87.4893H289.961V88.4893H290.961ZM290.961 96V97H291.961V96H290.961ZM288.117 96V77.8182H286.117V96H288.117ZM287.117 78.8182H299.156V76.8182H287.117V78.8182ZM298.156 77.8182V80.9876H300.156V77.8182H298.156ZM299.156 79.9876H290.961V81.9876H299.156V79.9876ZM289.961 80.9876V85.32H291.961V80.9876H289.961ZM290.961 86.32H298.357V84.32H290.961V86.32ZM297.357 85.32V88.4893H299.357V85.32H297.357ZM298.357 87.4893H290.961V89.4893H298.357V87.4893ZM289.961 88.4893V96H291.961V88.4893H289.961ZM290.961 95H287.117V97H290.961V95ZM317.322 91.9695L316.442 91.494L316.441 91.4969L317.322 91.9695ZM314.268 95.1566L314.761 96.0266L314.762 96.0258L314.268 95.1566ZM305.585 95.1477L306.082 94.2795L305.585 95.1477ZM302.54 91.9606L301.659 92.4331L302.54 91.9606ZM302.54 81.8487L303.422 82.3213L302.54 81.8487ZM305.585 78.6705L306.079 79.5404L306.082 79.5387L305.585 78.6705ZM314.268 78.6705L313.772 79.5387L313.777 79.5414L314.268 78.6705ZM317.322 81.8487L316.441 82.3213L316.442 82.3242L317.322 81.8487ZM313.975 83.6598L313.056 84.0545L313.058 84.0597L313.975 83.6598ZM312.368 81.6534L311.818 82.4887L312.368 81.6534ZM307.503 81.6534L308.053 82.4887L307.503 81.6534ZM305.887 83.6598L304.971 83.2599L304.969 83.2651L305.887 83.6598ZM305.887 90.1584L304.969 90.5531L304.971 90.5582L305.887 90.1584ZM307.503 92.1648L308.053 91.3294L307.503 92.1648ZM312.368 92.1648L311.818 91.3294L312.368 92.1648ZM313.975 90.1584L313.058 89.7585L313.056 89.7637L313.975 90.1584ZM317.449 86.9091C317.449 88.7672 317.097 90.2817 316.442 91.494L318.202 92.4449C319.05 90.8755 319.449 89.0164 319.449 86.9091H317.449ZM316.441 91.4969C315.778 92.7327 314.89 93.6526 313.774 94.2874L314.762 96.0258C316.227 95.1928 317.374 93.9879 318.203 92.442L316.441 91.4969ZM313.775 94.2866C312.654 94.9221 311.382 95.2486 309.936 95.2486V97.2486C311.697 97.2486 313.314 96.8471 314.761 96.0266L313.775 94.2866ZM309.936 95.2486C308.477 95.2486 307.201 94.9192 306.082 94.2795L305.089 96.016C306.538 96.8441 308.162 97.2486 309.936 97.2486V95.2486ZM306.082 94.2795C304.971 93.645 304.085 92.725 303.422 91.488L301.659 92.4331C302.487 93.9779 303.631 95.1826 305.089 96.016L306.082 94.2795ZM303.422 91.488C302.771 90.2747 302.422 88.7619 302.422 86.9091H300.422C300.422 89.0099 300.818 90.8647 301.659 92.4331L303.422 91.488ZM302.422 86.9091C302.422 85.0498 302.771 83.5342 303.422 82.3213L301.659 81.3762C300.818 82.945 300.422 84.8029 300.422 86.9091H302.422ZM303.422 82.3213C304.085 81.0849 304.97 80.1688 306.079 79.5404L305.092 77.8005C303.632 78.6281 302.488 79.8308 301.659 81.3762L303.422 82.3213ZM306.082 79.5387C307.201 78.899 308.477 78.5696 309.936 78.5696V76.5696C308.162 76.5696 306.538 76.9741 305.089 77.8022L306.082 79.5387ZM309.936 78.5696C311.381 78.5696 312.651 78.8983 313.772 79.5387L314.764 77.8022C313.316 76.9748 311.698 76.5696 309.936 76.5696V78.5696ZM313.777 79.5414C314.891 80.1701 315.778 81.0861 316.441 82.3213L318.203 81.3762C317.374 79.8297 316.226 78.6268 314.759 77.7995L313.777 79.5414ZM316.442 82.3242C317.097 83.5364 317.449 85.051 317.449 86.9091H319.449C319.449 84.8018 319.05 82.9427 318.202 81.3733L316.442 82.3242ZM315.552 86.9091C315.552 85.5308 315.346 84.3026 314.892 83.2599L313.058 84.0597C313.373 84.7807 313.552 85.7187 313.552 86.9091H315.552ZM314.894 83.2651C314.45 82.2325 313.798 81.3976 312.918 80.8181L311.818 82.4887C312.323 82.8207 312.742 83.3234 313.056 84.0545L314.894 83.2651ZM312.918 80.8181C312.043 80.2422 311.036 79.9698 309.936 79.9698V81.9698C310.694 81.9698 311.308 82.1531 311.818 82.4887L312.918 80.8181ZM309.936 79.9698C308.835 79.9698 307.828 80.2422 306.953 80.8181L308.053 82.4887C308.563 82.1531 309.177 81.9698 309.936 81.9698V79.9698ZM306.953 80.8181C306.074 81.3966 305.42 82.2296 304.971 83.2599L306.804 84.0597C307.124 83.3262 307.547 82.8217 308.053 82.4887L306.953 80.8181ZM304.969 83.2651C304.521 84.3062 304.319 85.5325 304.319 86.9091H306.319C306.319 85.7171 306.496 84.7771 306.806 84.0545L304.969 83.2651ZM304.319 86.9091C304.319 88.2857 304.521 89.512 304.969 90.553L306.806 89.7637C306.496 89.041 306.319 88.1011 306.319 86.9091H304.319ZM304.971 90.5582C305.42 91.5886 306.074 92.4216 306.953 93.0001L308.053 91.3294C307.547 90.9965 307.124 90.4919 306.804 89.7585L304.971 90.5582ZM306.953 93.0001C307.828 93.5759 308.835 93.8484 309.936 93.8484V91.8484C309.177 91.8484 308.563 91.6651 308.053 91.3294L306.953 93.0001ZM309.936 93.8484C311.036 93.8484 312.043 93.5759 312.918 93.0001L311.818 91.3294C311.308 91.6651 310.694 91.8484 309.936 91.8484V93.8484ZM312.918 93.0001C313.798 92.4206 314.45 91.5857 314.894 90.553L313.056 89.7637C312.742 90.4948 312.323 90.9975 311.818 91.3294L312.918 93.0001ZM314.892 90.5582C315.346 89.5156 315.552 88.2874 315.552 86.9091H313.552C313.552 88.0995 313.373 89.0374 313.058 89.7585L314.892 90.5582ZM321.297 96H320.297V97H321.297V96ZM321.297 77.8182V76.8182H320.297V77.8182H321.297ZM331.986 78.555L331.534 79.4473L331.541 79.4506L331.986 78.555ZM334.214 80.6236L333.345 81.1185L333.349 81.1253L334.214 80.6236ZM334.205 86.8736L335.062 87.3898L335.063 87.3872L334.205 86.8736ZM331.942 88.8622L331.518 87.9562L331.516 87.9571L331.942 88.8622ZM323.57 89.5547H322.57V90.5547H323.57V89.5547ZM323.57 86.4652V85.4652H322.57V86.4652H323.57ZM329.58 86.1634L329.963 87.0871L329.58 86.1634ZM330.663 85.2578L329.807 84.7414L329.801 84.7508L330.663 85.2578ZM330.663 82.2305L329.795 82.7266L329.8 82.7359L330.663 82.2305ZM329.571 81.2894L329.16 82.2009L329.167 82.2039L329.173 82.2068L329.571 81.2894ZM325.141 80.9609V79.9609H324.141V80.9609H325.141ZM325.141 96V97H326.141V96H325.141ZM331.116 87.7259L331.994 87.2465L331.709 86.7259H331.116V87.7259ZM335.635 96V97H337.32L336.512 95.5207L335.635 96ZM331.391 96L330.509 96.4713L330.792 97H331.391V96ZM326.97 87.7259V86.7259H325.302L326.088 88.1971L326.97 87.7259ZM322.297 96V77.8182H320.297V96H322.297ZM321.297 78.8182H328.47V76.8182H321.297V78.8182ZM328.47 78.8182C329.727 78.8182 330.736 79.043 331.534 79.4473L332.438 77.6628C331.295 77.0846 329.96 76.8182 328.47 76.8182V78.8182ZM331.541 79.4506C332.351 79.853 332.941 80.4081 333.345 81.1185L335.083 80.1287C334.47 79.0516 333.574 78.2277 332.431 77.6595L331.541 79.4506ZM333.349 81.1253C333.762 81.8364 333.987 82.7019 333.987 83.7575H335.987C335.987 82.4101 335.697 81.1863 335.079 80.1219L333.349 81.1253ZM333.987 83.7575C333.987 84.8187 333.759 85.6724 333.347 86.3599L335.063 87.3872C335.694 86.3347 335.987 85.111 335.987 83.7575H333.987ZM333.349 86.3574C332.939 87.0375 332.342 87.5714 331.518 87.9562L332.365 89.7683C333.518 89.2297 334.43 88.4379 335.062 87.3898L333.349 86.3574ZM331.516 87.9571C330.699 88.341 329.663 88.5547 328.373 88.5547V90.5547C329.876 90.5547 331.219 90.3067 332.367 89.7673L331.516 87.9571ZM328.373 88.5547H323.57V90.5547H328.373V88.5547ZM324.57 89.5547V86.4652H322.57V89.5547H324.57ZM323.57 87.4652H327.751V85.4652H323.57V87.4652ZM327.751 87.4652C328.568 87.4652 329.318 87.3544 329.963 87.0871L329.197 85.2396C328.871 85.3748 328.402 85.4652 327.751 85.4652V87.4652ZM329.963 87.0871C330.623 86.8136 331.165 86.3777 331.525 85.7648L329.801 84.7508C329.688 84.9428 329.508 85.1107 329.197 85.2396L329.963 87.0871ZM331.52 85.7742C331.879 85.1788 332.027 84.4884 332.027 83.7575H330.027C330.027 84.2221 329.933 84.5319 329.807 84.7415L331.52 85.7742ZM332.027 83.7575C332.027 83.0213 331.879 82.3274 331.526 81.7251L329.8 82.7359C329.933 82.9621 330.027 83.2863 330.027 83.7575H332.027ZM331.531 81.7343C331.175 81.1098 330.633 80.66 329.969 80.372L329.173 82.2068C329.492 82.345 329.678 82.5225 329.795 82.7266L331.531 81.7343ZM329.982 80.3779C329.328 80.0825 328.563 79.9609 327.733 79.9609V81.9609C328.383 81.9609 328.844 82.0583 329.16 82.2009L329.982 80.3779ZM327.733 79.9609H325.141V81.9609H327.733V79.9609ZM324.141 80.9609V96H326.141V80.9609H324.141ZM325.141 95H321.297V97H325.141V95ZM330.238 88.2052L334.757 96.4793L336.512 95.5207L331.994 87.2465L330.238 88.2052ZM335.635 95H331.391V97H335.635V95ZM332.273 95.5287L327.852 87.2546L326.088 88.1971L330.509 96.4713L332.273 95.5287ZM326.97 88.7259H331.116V86.7259H326.97V88.7259ZM186.083 126L185.122 126.275L185.329 127H186.083V126ZM180.881 107.818V106.818H179.554L179.919 108.093L180.881 107.818ZM185.08 107.818L186.053 107.586L185.87 106.818H185.08V107.818ZM188.089 120.451L187.117 120.683L187.3 121.451H188.089V120.451ZM188.24 120.451V121.451H189.012L189.208 120.706L188.24 120.451ZM191.561 107.818V106.818H190.79L190.594 107.564L191.561 107.818ZM195.156 107.818L196.124 107.565L195.928 106.818H195.156V107.818ZM198.468 120.478L197.5 120.731L197.696 121.478H198.468V120.478ZM198.627 120.478V121.478H199.418L199.6 120.709L198.627 120.478ZM201.637 107.818V106.818H200.847L200.664 107.587L201.637 107.818ZM205.836 107.818L206.798 108.093L207.163 106.818H205.836V107.818ZM200.634 126V127H201.388L201.595 126.275L200.634 126ZM196.887 126L195.927 126.28L196.137 127H196.887V126ZM193.425 114.113L194.385 113.833L194.175 113.113H193.425V114.113ZM193.283 114.113V113.113H192.532L192.323 113.834L193.283 114.113ZM189.83 126V127H190.58L190.79 126.279L189.83 126ZM187.045 125.725L181.842 107.543L179.919 108.093L185.122 126.275L187.045 125.725ZM180.881 108.818H185.08V106.818H180.881V108.818ZM184.107 108.05L187.117 120.683L189.062 120.22L186.053 107.586L184.107 108.05ZM188.089 121.451H188.24V119.451H188.089V121.451ZM189.208 120.706L192.528 108.072L190.594 107.564L187.273 120.197L189.208 120.706ZM191.561 108.818H195.156V106.818H191.561V108.818ZM194.189 108.071L197.5 120.731L199.435 120.225L196.124 107.565L194.189 108.071ZM198.468 121.478H198.627V119.478H198.468V121.478ZM199.6 120.709L202.61 108.049L200.664 107.587L197.655 120.247L199.6 120.709ZM201.637 108.818H205.836V106.818H201.637V108.818ZM204.875 107.543L199.672 125.725L201.595 126.275L206.798 108.093L204.875 107.543ZM200.634 125H196.887V127H200.634V125ZM197.848 125.72L194.385 113.833L192.465 114.392L195.927 126.28L197.848 125.72ZM193.425 113.113H193.283V115.113H193.425V113.113ZM192.323 113.834L188.869 125.721L190.79 126.279L194.243 114.392L192.323 113.834ZM189.83 125H186.083V127H189.83V125ZM209.197 126V127H209.923L210.148 126.309L209.197 126ZM205.077 126L204.132 125.674L203.674 127H205.077V126ZM211.354 107.818V106.818H210.641L210.409 107.492L211.354 107.818ZM216.308 107.818L217.253 107.492L217.021 106.818H216.308V107.818ZM222.575 126V127H223.978L223.521 125.674L222.575 126ZM218.456 126L217.505 126.309L217.729 127H218.456V126ZM213.902 111.973L214.853 111.664L214.629 110.973H213.902V111.973ZM213.76 111.973V110.973H213.033L212.809 111.664L213.76 111.973ZM208.939 118.853V117.853H207.939V118.853H208.939ZM218.669 118.853H219.669V117.853H218.669V118.853ZM218.669 121.854V122.854H219.669V121.854H218.669ZM208.939 121.854H207.939V122.854H208.939V121.854ZM209.197 125H205.077V127H209.197V125ZM206.022 126.326L212.299 108.145L210.409 107.492L204.132 125.674L206.022 126.326ZM211.354 108.818H216.308V106.818H211.354V108.818ZM215.362 108.144L221.63 126.326L223.521 125.674L217.253 107.492L215.362 108.144ZM222.575 125H218.456V127H222.575V125ZM219.407 125.691L214.853 111.664L212.951 112.282L217.505 126.309L219.407 125.691ZM213.902 110.973H213.76V112.973H213.902V110.973ZM212.809 111.664L208.246 125.691L210.148 126.309L214.711 112.282L212.809 111.664ZM208.939 119.853H218.669V117.853H208.939V119.853ZM217.669 118.853V121.854H219.669V118.853H217.669ZM218.669 120.854H208.939V122.854H218.669V120.854ZM209.939 121.854V118.853H207.939V121.854H209.939ZM224.764 126H223.764V127H224.764V126ZM224.764 107.818V106.818H223.764V107.818H224.764ZM235.453 108.555L235.001 109.447L235.008 109.451L235.453 108.555ZM237.681 110.624L236.812 111.118L236.816 111.125L237.681 110.624ZM237.672 116.874L238.529 117.39L238.53 117.387L237.672 116.874ZM235.408 118.862L234.985 117.956L234.983 117.957L235.408 118.862ZM227.037 119.555H226.037V120.555H227.037V119.555ZM227.037 116.465V115.465H226.037V116.465H227.037ZM233.047 116.163L233.43 117.087L233.047 116.163ZM234.13 115.258L233.274 114.741L233.268 114.751L234.13 115.258ZM234.13 112.23L233.262 112.727L233.267 112.736L234.13 112.23ZM233.038 111.289L232.627 112.201L232.633 112.204L232.64 112.207L233.038 111.289ZM228.608 110.961V109.961H227.608V110.961H228.608ZM228.608 126V127H229.608V126H228.608ZM234.583 117.726L235.46 117.247L235.176 116.726H234.583V117.726ZM239.102 126V127H240.787L239.979 125.521L239.102 126ZM234.858 126L233.976 126.471L234.258 127H234.858V126ZM230.437 117.726V116.726H228.769L229.555 118.197L230.437 117.726ZM225.764 126V107.818H223.764V126H225.764ZM224.764 108.818H231.937V106.818H224.764V108.818ZM231.937 108.818C233.193 108.818 234.202 109.043 235.001 109.447L235.904 107.663C234.762 107.085 233.427 106.818 231.937 106.818V108.818ZM235.008 109.451C235.818 109.853 236.408 110.408 236.812 111.118L238.55 110.129C237.937 109.052 237.041 108.228 235.898 107.66L235.008 109.451ZM236.816 111.125C237.229 111.836 237.453 112.702 237.453 113.757H239.453C239.453 112.41 239.164 111.186 238.546 110.122L236.816 111.125ZM237.453 113.757C237.453 114.819 237.226 115.672 236.814 116.36L238.53 117.387C239.16 116.335 239.453 115.111 239.453 113.757H237.453ZM236.816 116.357C236.406 117.037 235.809 117.571 234.985 117.956L235.832 119.768C236.985 119.23 237.897 118.438 238.529 117.39L236.816 116.357ZM234.983 117.957C234.166 118.341 233.13 118.555 231.839 118.555V120.555C233.343 120.555 234.686 120.307 235.834 119.767L234.983 117.957ZM231.839 118.555H227.037V120.555H231.839V118.555ZM228.037 119.555V116.465H226.037V119.555H228.037ZM227.037 117.465H231.218V115.465H227.037V117.465ZM231.218 117.465C232.035 117.465 232.785 117.354 233.43 117.087L232.664 115.24C232.338 115.375 231.869 115.465 231.218 115.465V117.465ZM233.43 117.087C234.09 116.814 234.631 116.378 234.992 115.765L233.268 114.751C233.155 114.943 232.975 115.111 232.664 115.24L233.43 117.087ZM234.986 115.774C235.345 115.179 235.494 114.488 235.494 113.757H233.494C233.494 114.222 233.4 114.532 233.274 114.741L234.986 115.774ZM235.494 113.757C235.494 113.021 235.346 112.327 234.993 111.725L233.267 112.736C233.4 112.962 233.494 113.286 233.494 113.757H235.494ZM234.998 111.734C234.641 111.11 234.1 110.66 233.436 110.372L232.64 112.207C232.959 112.345 233.145 112.523 233.262 112.727L234.998 111.734ZM233.449 110.378C232.795 110.083 232.03 109.961 231.2 109.961V111.961C231.85 111.961 232.311 112.058 232.627 112.201L233.449 110.378ZM231.2 109.961H228.608V111.961H231.2V109.961ZM227.608 110.961V126H229.608V110.961H227.608ZM228.608 125H224.764V127H228.608V125ZM233.705 118.205L238.224 126.479L239.979 125.521L235.46 117.247L233.705 118.205ZM239.102 125H234.858V127H239.102V125ZM235.74 125.529L231.319 117.255L229.555 118.197L233.976 126.471L235.74 125.529ZM230.437 118.726H234.583V116.726H230.437V118.726Z" fill="white"/>
<path d="M106.886 185.184H102.997C102.926 184.681 102.781 184.234 102.562 183.843C102.343 183.446 102.062 183.109 101.719 182.831C101.376 182.553 100.979 182.34 100.529 182.192C100.085 182.044 99.6029 181.97 99.0821 181.97C98.141 181.97 97.3213 182.204 96.6229 182.671C95.9245 183.133 95.383 183.808 94.9983 184.695C94.6136 185.577 94.4212 186.648 94.4212 187.909C94.4212 189.205 94.6136 190.294 94.9983 191.176C95.3889 192.058 95.9334 192.724 96.6318 193.174C97.3302 193.623 98.1381 193.848 99.0554 193.848C99.5704 193.848 100.047 193.78 100.485 193.644C100.929 193.508 101.322 193.31 101.666 193.049C102.009 192.783 102.293 192.46 102.518 192.082C102.749 191.703 102.908 191.271 102.997 190.786L106.886 190.803C106.785 191.638 106.534 192.443 106.131 193.218C105.735 193.987 105.199 194.677 104.524 195.287C103.855 195.89 103.056 196.37 102.127 196.725C101.204 197.074 100.159 197.249 98.9933 197.249C97.3716 197.249 95.9216 196.882 94.6432 196.148C93.3707 195.414 92.3645 194.351 91.6247 192.961C90.8908 191.57 90.5238 189.886 90.5238 187.909C90.5238 185.926 90.8967 184.24 91.6424 182.849C92.3882 181.458 93.4003 180.398 94.6787 179.67C95.9571 178.937 97.3953 178.57 98.9933 178.57C100.047 178.57 101.023 178.718 101.923 179.013C102.829 179.309 103.63 179.741 104.329 180.31C105.027 180.872 105.595 181.561 106.033 182.378C106.477 183.195 106.761 184.13 106.886 185.184ZM113.353 189.116V197H109.571V178.818H113.247V185.77H113.406C113.714 184.965 114.211 184.334 114.898 183.879C115.585 183.417 116.446 183.186 117.481 183.186C118.428 183.186 119.254 183.393 119.958 183.808C120.669 184.216 121.219 184.805 121.61 185.574C122.006 186.338 122.201 187.252 122.196 188.317V197H118.414V188.992C118.419 188.152 118.206 187.498 117.774 187.03C117.348 186.563 116.75 186.329 115.981 186.329C115.466 186.329 115.01 186.438 114.614 186.657C114.223 186.876 113.915 187.196 113.691 187.616C113.472 188.03 113.359 188.531 113.353 189.116ZM131.333 197.266C129.954 197.266 128.761 196.973 127.755 196.387C126.755 195.796 125.983 194.973 125.438 193.919C124.894 192.86 124.621 191.632 124.621 190.235C124.621 188.826 124.894 187.595 125.438 186.542C125.983 185.482 126.755 184.66 127.755 184.074C128.761 183.482 129.954 183.186 131.333 183.186C132.712 183.186 133.902 183.482 134.902 184.074C135.908 184.66 136.683 185.482 137.228 186.542C137.772 187.595 138.045 188.826 138.045 190.235C138.045 191.632 137.772 192.86 137.228 193.919C136.683 194.973 135.908 195.796 134.902 196.387C133.902 196.973 132.712 197.266 131.333 197.266ZM131.351 194.337C131.978 194.337 132.502 194.159 132.922 193.804C133.342 193.443 133.659 192.952 133.872 192.33C134.091 191.709 134.201 191.002 134.201 190.208C134.201 189.415 134.091 188.708 133.872 188.087C133.659 187.465 133.342 186.974 132.922 186.613C132.502 186.252 131.978 186.071 131.351 186.071C130.718 186.071 130.185 186.252 129.753 186.613C129.327 186.974 129.004 187.465 128.785 188.087C128.572 188.708 128.466 189.415 128.466 190.208C128.466 191.002 128.572 191.709 128.785 192.33C129.004 192.952 129.327 193.443 129.753 193.804C130.185 194.159 130.718 194.337 131.351 194.337ZM146.665 197.266C145.286 197.266 144.093 196.973 143.087 196.387C142.087 195.796 141.315 194.973 140.77 193.919C140.226 192.86 139.953 191.632 139.953 190.235C139.953 188.826 140.226 187.595 140.77 186.542C141.315 185.482 142.087 184.66 143.087 184.074C144.093 183.482 145.286 183.186 146.665 183.186C148.044 183.186 149.234 183.482 150.234 184.074C151.24 184.66 152.015 185.482 152.56 186.542C153.104 187.595 153.377 188.826 153.377 190.235C153.377 191.632 153.104 192.86 152.56 193.919C152.015 194.973 151.24 195.796 150.234 196.387C149.234 196.973 148.044 197.266 146.665 197.266ZM146.683 194.337C147.31 194.337 147.834 194.159 148.254 193.804C148.674 193.443 148.991 192.952 149.204 192.33C149.423 191.709 149.533 191.002 149.533 190.208C149.533 189.415 149.423 188.708 149.204 188.087C148.991 187.465 148.674 186.974 148.254 186.613C147.834 186.252 147.31 186.071 146.683 186.071C146.05 186.071 145.517 186.252 145.085 186.613C144.659 186.974 144.336 187.465 144.117 188.087C143.904 188.708 143.798 189.415 143.798 190.208C143.798 191.002 143.904 191.709 144.117 192.33C144.336 192.952 144.659 193.443 145.085 193.804C145.517 194.159 146.05 194.337 146.683 194.337ZM167.182 187.252L163.719 187.465C163.66 187.169 163.533 186.903 163.338 186.666C163.142 186.424 162.885 186.231 162.565 186.089C162.252 185.941 161.876 185.867 161.438 185.867C160.852 185.867 160.358 185.991 159.955 186.24C159.553 186.483 159.352 186.808 159.352 187.217C159.352 187.542 159.482 187.817 159.742 188.042C160.003 188.267 160.449 188.448 161.083 188.584L163.551 189.081C164.876 189.353 165.865 189.791 166.516 190.395C167.167 190.999 167.492 191.792 167.492 192.774C167.492 193.668 167.229 194.452 166.702 195.127C166.182 195.801 165.465 196.328 164.554 196.707C163.648 197.08 162.604 197.266 161.42 197.266C159.615 197.266 158.177 196.891 157.105 196.139C156.04 195.381 155.416 194.351 155.232 193.049L158.952 192.854C159.064 193.404 159.337 193.825 159.769 194.115C160.201 194.399 160.754 194.541 161.429 194.541C162.092 194.541 162.624 194.414 163.027 194.159C163.435 193.899 163.642 193.564 163.648 193.156C163.642 192.813 163.497 192.531 163.213 192.312C162.929 192.088 162.491 191.916 161.899 191.798L159.538 191.327C158.206 191.061 157.215 190.599 156.564 189.942C155.919 189.285 155.596 188.448 155.596 187.43C155.596 186.554 155.833 185.799 156.306 185.166C156.786 184.533 157.458 184.044 158.322 183.701C159.192 183.358 160.21 183.186 161.376 183.186C163.098 183.186 164.453 183.55 165.442 184.278C166.436 185.006 167.016 185.997 167.182 187.252ZM176.088 197.266C174.686 197.266 173.478 196.982 172.466 196.414C171.46 195.84 170.685 195.029 170.14 193.982C169.596 192.928 169.324 191.682 169.324 190.244C169.324 188.841 169.596 187.61 170.14 186.551C170.685 185.491 171.451 184.666 172.44 184.074C173.434 183.482 174.6 183.186 175.938 183.186C176.837 183.186 177.675 183.331 178.45 183.621C179.231 183.905 179.912 184.334 180.492 184.908C181.078 185.482 181.534 186.205 181.859 187.075C182.185 187.939 182.347 188.951 182.347 190.111V191.15H170.833V188.806H178.787C178.787 188.261 178.669 187.779 178.432 187.359C178.195 186.938 177.867 186.61 177.447 186.373C177.032 186.131 176.55 186.009 176 186.009C175.426 186.009 174.917 186.142 174.473 186.409C174.035 186.669 173.691 187.021 173.443 187.465C173.194 187.903 173.067 188.391 173.061 188.93V191.158C173.061 191.833 173.185 192.416 173.434 192.907C173.688 193.399 174.047 193.777 174.508 194.044C174.97 194.31 175.517 194.443 176.151 194.443C176.571 194.443 176.956 194.384 177.305 194.266C177.654 194.147 177.953 193.97 178.201 193.733C178.45 193.496 178.639 193.206 178.77 192.863L182.267 193.094C182.09 193.934 181.726 194.668 181.175 195.295C180.631 195.917 179.927 196.402 179.063 196.751C178.204 197.095 177.213 197.266 176.088 197.266ZM192.936 202.114C192.457 202.114 192.007 202.075 191.587 201.998C191.173 201.927 190.829 201.835 190.557 201.723L191.409 198.9C191.853 199.036 192.253 199.11 192.608 199.122C192.969 199.134 193.28 199.051 193.54 198.873C193.806 198.696 194.022 198.394 194.188 197.968L194.41 197.391L189.518 183.364H193.496L196.319 193.378H196.461L199.311 183.364H203.315L198.015 198.474C197.76 199.208 197.414 199.847 196.976 200.391C196.544 200.942 195.996 201.365 195.333 201.661C194.671 201.963 193.872 202.114 192.936 202.114ZM210.972 197.266C209.593 197.266 208.4 196.973 207.394 196.387C206.394 195.796 205.621 194.973 205.077 193.919C204.532 192.86 204.26 191.632 204.26 190.235C204.26 188.826 204.532 187.595 205.077 186.542C205.621 185.482 206.394 184.66 207.394 184.074C208.4 183.482 209.593 183.186 210.972 183.186C212.351 183.186 213.54 183.482 214.541 184.074C215.547 184.66 216.322 185.482 216.867 186.542C217.411 187.595 217.683 188.826 217.683 190.235C217.683 191.632 217.411 192.86 216.867 193.919C216.322 194.973 215.547 195.796 214.541 196.387C213.54 196.973 212.351 197.266 210.972 197.266ZM210.989 194.337C211.617 194.337 212.141 194.159 212.561 193.804C212.981 193.443 213.298 192.952 213.511 192.33C213.73 191.709 213.839 191.002 213.839 190.208C213.839 189.415 213.73 188.708 213.511 188.087C213.298 187.465 212.981 186.974 212.561 186.613C212.141 186.252 211.617 186.071 210.989 186.071C210.356 186.071 209.824 186.252 209.391 186.613C208.965 186.974 208.643 187.465 208.424 188.087C208.211 188.708 208.104 189.415 208.104 190.208C208.104 191.002 208.211 191.709 208.424 192.33C208.643 192.952 208.965 193.443 209.391 193.804C209.824 194.159 210.356 194.337 210.989 194.337ZM228.887 191.194V183.364H232.669V197H229.038V194.523H228.896C228.588 195.322 228.076 195.964 227.36 196.45C226.65 196.935 225.783 197.178 224.759 197.178C223.848 197.178 223.046 196.97 222.353 196.556C221.661 196.142 221.119 195.553 220.728 194.789C220.344 194.026 220.148 193.112 220.143 192.046V183.364H223.924V191.371C223.93 192.176 224.146 192.813 224.573 193.28C224.999 193.748 225.57 193.982 226.286 193.982C226.742 193.982 227.168 193.878 227.564 193.671C227.961 193.458 228.281 193.144 228.523 192.73C228.772 192.315 228.893 191.804 228.887 191.194ZM235.694 197V183.364H239.361V185.743H239.503C239.751 184.897 240.169 184.257 240.755 183.825C241.341 183.387 242.015 183.168 242.779 183.168C242.968 183.168 243.172 183.18 243.391 183.204C243.61 183.228 243.803 183.26 243.968 183.301V186.657C243.791 186.604 243.545 186.557 243.232 186.515C242.918 186.474 242.631 186.453 242.37 186.453C241.814 186.453 241.317 186.574 240.879 186.817C240.447 187.054 240.104 187.385 239.849 187.811C239.601 188.238 239.476 188.729 239.476 189.285V197H235.694ZM257.853 202.398C256.628 202.398 255.578 202.229 254.702 201.892C253.832 201.56 253.139 201.107 252.624 200.533C252.109 199.959 251.775 199.314 251.621 198.598L255.119 198.127C255.226 198.4 255.394 198.654 255.625 198.891C255.856 199.128 256.161 199.317 256.539 199.459C256.924 199.607 257.392 199.681 257.942 199.681C258.765 199.681 259.443 199.48 259.975 199.077C260.514 198.681 260.783 198.015 260.783 197.08V194.585H260.623C260.458 194.964 260.209 195.322 259.878 195.659C259.546 195.997 259.12 196.272 258.599 196.485C258.078 196.698 257.457 196.805 256.735 196.805C255.711 196.805 254.779 196.568 253.938 196.094C253.104 195.615 252.438 194.884 251.941 193.902C251.449 192.913 251.204 191.664 251.204 190.155C251.204 188.61 251.455 187.32 251.958 186.284C252.462 185.249 253.13 184.473 253.965 183.958C254.805 183.444 255.726 183.186 256.726 183.186C257.489 183.186 258.129 183.316 258.644 183.577C259.158 183.831 259.573 184.151 259.886 184.536C260.206 184.914 260.452 185.287 260.623 185.654H260.765V183.364H264.521V197.133C264.521 198.293 264.237 199.264 263.668 200.045C263.1 200.826 262.313 201.412 261.307 201.803C260.307 202.199 259.155 202.398 257.853 202.398ZM257.933 193.964C258.543 193.964 259.058 193.813 259.478 193.511C259.904 193.203 260.23 192.765 260.455 192.197C260.685 191.623 260.801 190.936 260.801 190.137C260.801 189.338 260.688 188.646 260.463 188.06C260.239 187.468 259.913 187.009 259.487 186.684C259.061 186.358 258.543 186.196 257.933 186.196C257.312 186.196 256.788 186.364 256.362 186.702C255.936 187.033 255.613 187.495 255.394 188.087C255.175 188.679 255.066 189.362 255.066 190.137C255.066 190.925 255.175 191.605 255.394 192.179C255.619 192.748 255.942 193.188 256.362 193.502C256.788 193.81 257.312 193.964 257.933 193.964ZM271.419 197.257C270.549 197.257 269.773 197.107 269.093 196.805C268.412 196.497 267.874 196.044 267.477 195.446C267.086 194.843 266.891 194.091 266.891 193.191C266.891 192.434 267.03 191.798 267.308 191.283C267.586 190.768 267.965 190.353 268.445 190.04C268.924 189.726 269.469 189.489 270.078 189.33C270.694 189.17 271.339 189.057 272.014 188.992C272.807 188.909 273.446 188.832 273.931 188.761C274.416 188.684 274.769 188.572 274.988 188.424C275.207 188.276 275.316 188.057 275.316 187.767V187.714C275.316 187.152 275.139 186.717 274.783 186.409C274.434 186.101 273.937 185.947 273.292 185.947C272.611 185.947 272.07 186.098 271.667 186.4C271.265 186.696 270.999 187.069 270.868 187.518L267.37 187.234C267.548 186.406 267.897 185.69 268.418 185.086C268.939 184.476 269.611 184.009 270.433 183.683C271.262 183.352 272.221 183.186 273.31 183.186C274.067 183.186 274.792 183.275 275.485 183.452C276.183 183.63 276.802 183.905 277.34 184.278C277.885 184.651 278.314 185.13 278.628 185.716C278.941 186.296 279.098 186.992 279.098 187.803V197H275.511V195.109H275.405C275.186 195.535 274.893 195.911 274.526 196.237C274.159 196.556 273.718 196.808 273.203 196.991C272.688 197.169 272.093 197.257 271.419 197.257ZM272.502 194.647C273.058 194.647 273.549 194.538 273.976 194.319C274.402 194.094 274.736 193.792 274.979 193.413C275.221 193.035 275.343 192.605 275.343 192.126V190.679C275.224 190.756 275.062 190.827 274.854 190.892C274.653 190.951 274.425 191.007 274.171 191.061C273.916 191.108 273.662 191.152 273.407 191.194C273.153 191.229 272.922 191.262 272.715 191.292C272.271 191.357 271.883 191.46 271.552 191.602C271.22 191.744 270.963 191.937 270.78 192.179C270.596 192.416 270.504 192.712 270.504 193.067C270.504 193.582 270.691 193.976 271.064 194.248C271.442 194.514 271.922 194.647 272.502 194.647ZM282.032 197V183.364H285.699V185.743H285.841C286.089 184.897 286.507 184.257 287.093 183.825C287.678 183.387 288.353 183.168 289.117 183.168C289.306 183.168 289.51 183.18 289.729 183.204C289.948 183.228 290.141 183.26 290.306 183.301V186.657C290.129 186.604 289.883 186.557 289.569 186.515C289.256 186.474 288.969 186.453 288.708 186.453C288.152 186.453 287.655 186.574 287.217 186.817C286.785 187.054 286.442 187.385 286.187 187.811C285.938 188.238 285.814 188.729 285.814 189.285V197H282.032ZM296.652 197.222C295.616 197.222 294.678 196.956 293.837 196.423C293.003 195.884 292.34 195.094 291.849 194.053C291.364 193.005 291.121 191.721 291.121 190.2C291.121 188.637 291.372 187.338 291.875 186.302C292.379 185.261 293.047 184.482 293.882 183.967C294.722 183.446 295.643 183.186 296.643 183.186C297.406 183.186 298.043 183.316 298.552 183.577C299.067 183.831 299.481 184.151 299.795 184.536C300.114 184.914 300.357 185.287 300.523 185.654H300.638V178.818H304.411V197H300.682V194.816H300.523C300.345 195.195 300.093 195.571 299.768 195.944C299.448 196.31 299.031 196.615 298.516 196.858C298.007 197.101 297.386 197.222 296.652 197.222ZM297.85 194.212C298.46 194.212 298.975 194.047 299.395 193.715C299.821 193.378 300.147 192.907 300.372 192.304C300.602 191.7 300.718 190.993 300.718 190.182C300.718 189.371 300.605 188.667 300.38 188.069C300.156 187.471 299.83 187.009 299.404 186.684C298.978 186.358 298.46 186.196 297.85 186.196C297.229 186.196 296.705 186.364 296.279 186.702C295.853 187.039 295.53 187.507 295.311 188.104C295.092 188.702 294.983 189.395 294.983 190.182C294.983 190.975 295.092 191.676 295.311 192.286C295.536 192.89 295.859 193.363 296.279 193.706C296.705 194.044 297.229 194.212 297.85 194.212ZM313.735 197.266C312.332 197.266 311.125 196.982 310.113 196.414C309.107 195.84 308.331 195.029 307.787 193.982C307.242 192.928 306.97 191.682 306.97 190.244C306.97 188.841 307.242 187.61 307.787 186.551C308.331 185.491 309.098 184.666 310.086 184.074C311.08 183.482 312.246 183.186 313.584 183.186C314.484 183.186 315.321 183.331 316.096 183.621C316.878 183.905 317.558 184.334 318.138 184.908C318.724 185.482 319.18 186.205 319.506 187.075C319.831 187.939 319.994 188.951 319.994 190.111V191.15H308.479V188.806H316.434C316.434 188.261 316.315 187.779 316.079 187.359C315.842 186.938 315.513 186.61 315.093 186.373C314.679 186.131 314.197 186.009 313.646 186.009C313.072 186.009 312.563 186.142 312.119 186.409C311.681 186.669 311.338 187.021 311.089 187.465C310.841 187.903 310.714 188.391 310.708 188.93V191.158C310.708 191.833 310.832 192.416 311.08 192.907C311.335 193.399 311.693 193.777 312.155 194.044C312.616 194.31 313.164 194.443 313.797 194.443C314.217 194.443 314.602 194.384 314.951 194.266C315.3 194.147 315.599 193.97 315.848 193.733C316.096 193.496 316.286 193.206 316.416 192.863L319.914 193.094C319.736 193.934 319.372 194.668 318.822 195.295C318.277 195.917 317.573 196.402 316.709 196.751C315.851 197.095 314.859 197.266 313.735 197.266ZM326.244 189.116V197H322.462V183.364H326.066V185.77H326.226C326.528 184.976 327.034 184.349 327.744 183.887C328.454 183.42 329.316 183.186 330.328 183.186C331.275 183.186 332.1 183.393 332.805 183.808C333.509 184.222 334.056 184.814 334.447 185.583C334.838 186.347 335.033 187.258 335.033 188.317V197H331.251V188.992C331.257 188.158 331.044 187.507 330.612 187.039C330.18 186.566 329.585 186.329 328.827 186.329C328.318 186.329 327.868 186.438 327.478 186.657C327.093 186.876 326.791 187.196 326.572 187.616C326.359 188.03 326.25 188.531 326.244 189.116ZM346.01 197.231C345.424 197.231 344.921 197.024 344.501 196.609C344.087 196.189 343.88 195.686 343.88 195.1C343.88 194.52 344.087 194.023 344.501 193.609C344.921 193.194 345.424 192.987 346.01 192.987C346.579 192.987 347.076 193.194 347.502 193.609C347.928 194.023 348.141 194.52 348.141 195.1C348.141 195.491 348.04 195.849 347.839 196.174C347.644 196.494 347.386 196.751 347.067 196.947C346.747 197.136 346.395 197.231 346.01 197.231ZM346.01 187.678C345.424 187.678 344.921 187.471 344.501 187.057C344.087 186.643 343.88 186.139 343.88 185.548C343.88 184.968 344.087 184.473 344.501 184.065C344.921 183.651 345.424 183.444 346.01 183.444C346.579 183.444 347.076 183.651 347.502 184.065C347.928 184.473 348.141 184.968 348.141 185.548C348.141 185.944 348.04 186.305 347.839 186.631C347.644 186.95 347.386 187.205 347.067 187.394C346.747 187.584 346.395 187.678 346.01 187.678Z" fill="white"/>
</svg>
