<svg width="51" height="20" viewBox="0 0 51 20" fill="none" xmlns="http://www.w3.org/2000/svg">
<path d="M0.0586826 19L3.07715 0.818181H9.21174C10.3954 0.818181 11.3483 1.02533 12.0704 1.43963C12.7925 1.85393 13.2896 2.41915 13.5619 3.1353C13.8401 3.85144 13.8992 4.66525 13.7394 5.5767C13.6151 6.33428 13.3814 6.98236 13.0381 7.52095C12.6948 8.05362 12.2776 8.48864 11.7863 8.82599C11.301 9.15743 10.7772 9.39714 10.2149 9.5451L10.1883 9.68714C10.7683 9.72857 11.3039 9.93572 11.7952 10.3086C12.2864 10.6755 12.6534 11.1905 12.896 11.8533C13.1446 12.5162 13.1949 13.3093 13.047 14.2326C12.8931 15.15 12.5498 15.9697 12.0171 16.6918C11.4904 17.4079 10.7683 17.9731 9.85094 18.3874C8.93948 18.7958 7.83271 19 6.53063 19H0.0586826ZM1.96742 17.5085H6.77921C8.18191 17.5085 9.27092 17.1978 10.0463 16.5763C10.8216 15.9549 11.2921 15.1737 11.4578 14.2326C11.5703 13.5401 11.5052 12.9128 11.2625 12.3505C11.0199 11.7823 10.6233 11.3325 10.0729 11.0011C9.52246 10.6696 8.83887 10.5039 8.02211 10.5039H3.13929L1.96742 17.5085ZM3.38787 9.03018H8.01323C8.72937 9.03018 9.38042 8.88222 9.96635 8.58629C10.5523 8.29036 11.0376 7.88198 11.4223 7.36115C11.807 6.84032 12.0526 6.2455 12.1592 5.5767C12.3249 4.61198 12.1444 3.82777 11.6176 3.22408C11.0968 2.61446 10.212 2.30966 8.96316 2.30966H4.48873L3.38787 9.03018ZM32.6426 10.0067C32.3289 11.8829 31.7252 13.5135 30.8315 14.8984C29.9378 16.2834 28.8458 17.3546 27.5556 18.1122C26.2653 18.8698 24.8626 19.2486 23.3475 19.2486C21.7909 19.2486 20.477 18.8609 19.4057 18.0856C18.3404 17.3043 17.5858 16.2094 17.1419 14.8008C16.698 13.3862 16.6329 11.7231 16.9466 9.81143C17.2602 7.93525 17.8639 6.30469 18.7576 4.91974C19.6513 3.5348 20.7463 2.46354 22.0424 1.70597C23.3386 0.94839 24.7472 0.569602 26.2683 0.569602C27.8071 0.569602 29.1092 0.957267 30.1745 1.7326C31.2399 2.50793 31.9975 3.60286 32.4473 5.0174C32.8971 6.42602 32.9622 8.08913 32.6426 10.0067ZM31.0534 9.81143C31.3257 8.18975 31.2902 6.80777 30.9469 5.66548C30.6096 4.5232 30.0295 3.65021 29.2069 3.04652C28.3842 2.43691 27.3869 2.1321 26.215 2.1321C25.0017 2.1321 23.8624 2.44579 22.7971 3.07315C21.7317 3.6946 20.8232 4.59422 20.0716 5.77202C19.3199 6.94389 18.805 8.35547 18.5268 10.0067C18.2605 11.6225 18.296 13.0045 18.6333 14.1527C18.9707 15.295 19.5507 16.1709 20.3734 16.7805C21.202 17.3842 22.2052 17.6861 23.383 17.6861C24.6022 17.6861 25.7445 17.3724 26.8098 16.745C27.8752 16.1177 28.7807 15.218 29.5265 14.0462C30.2781 12.8684 30.7871 11.4568 31.0534 9.81143ZM35.6255 0.818181H37.5165L41.4849 9.44744H41.6625L48.4718 0.818181H50.3983L42.1241 11.1254L40.8191 19H39.1678L40.464 11.1254L35.6255 0.818181Z" fill="white"/>
</svg>
