<svg width="126" height="180" viewBox="0 0 126 180" fill="none" xmlns="http://www.w3.org/2000/svg">
<circle cx="68.5" cy="57.5" r="57.5" fill="black" fill-opacity="0.5"/>
<path fill-rule="evenodd" clip-rule="evenodd" d="M68.4995 105.999C94.6614 105.999 116 84.6614 116 58.4995C116 32.3376 94.6614 11 68.4995 11C42.3376 11 21 32.3376 21 58.4995C21 84.6614 42.3376 105.999 68.4995 105.999Z" fill="#E7962D"/>
<path fill-rule="evenodd" clip-rule="evenodd" d="M82.449 99.9745L83.4339 103.602C87.8568 102.139 91.9901 100.042 95.7301 97.4211L95.636 96.8614C93.425 86.6758 79.8563 90.4262 82.449 99.9745Z" fill="#FBD9BD"/>
<path fill-rule="evenodd" clip-rule="evenodd" d="M96.1729 97.1077C95.2594 89.2819 89.0114 90.0589 86.0163 93.2631L87.7658 101.926C90.7413 100.605 93.5564 98.9855 96.1729 97.1077Z" fill="#2C8145"/>
<path fill-rule="evenodd" clip-rule="evenodd" d="M57.3072 99.9745L56.1153 104.365C51.7079 103.179 47.5551 101.374 43.7539 99.0496L44.1202 96.8614C46.3301 86.6758 59.9009 90.4262 57.3072 99.9745Z" fill="#FBD9BD"/>
<path fill-rule="evenodd" clip-rule="evenodd" d="M43.5419 97.4946C44.293 89.2561 50.6961 90.0072 53.7389 93.2631L51.7783 102.97C49.5239 102.121 47.3523 101.106 45.2758 99.9404L43.5419 97.4946Z" fill="#2C8145"/>
<path fill-rule="evenodd" clip-rule="evenodd" d="M91.479 90.8525L90.9472 100.368C84.2626 103.96 76.619 105.998 68.4995 105.998C61.7394 105.998 55.3104 104.584 49.4887 102.038L48.8638 90.8525H91.479Z" fill="#5EBE79"/>
<path fill-rule="evenodd" clip-rule="evenodd" d="M59.4664 90.8525H80.6902C81.7641 92.1354 82.4117 93.7876 82.4117 95.5909C82.4117 99.6673 79.1072 102.973 75.0309 102.973C73.1241 102.973 71.3881 102.25 70.0783 101.064C68.7685 102.25 67.0314 102.973 65.1257 102.973C61.0493 102.973 57.7448 99.6683 57.7448 95.5909C57.7448 93.7876 58.3915 92.1354 59.4664 90.8525Z" fill="#2C8145"/>
<path fill-rule="evenodd" clip-rule="evenodd" d="M93.2771 39.7453C77.3536 25.7482 62.7802 30.0511 57.6983 35.4145C60.5217 38.5204 78.8786 49.6258 93.2771 39.7453Z" fill="#A1400F"/>
<path fill-rule="evenodd" clip-rule="evenodd" d="M99.313 54.9384C91.4717 33.6629 63.6524 31.0392 57.6983 35.4145C59.9258 38.9735 83.3874 62.1041 99.313 54.9384Z" fill="#A1400F"/>
<path fill-rule="evenodd" clip-rule="evenodd" d="M97.6948 65.2317C94.7514 44.2003 64.2473 31.991 57.6993 35.4145C59.3609 39.2694 80.8681 69.9039 97.6948 65.2317Z" fill="#A1400F"/>
<path fill-rule="evenodd" clip-rule="evenodd" d="M42.9645 44.608C49.2528 44.9297 59.5326 41.2672 57.6983 35.4145C52.2356 35.548 47.4744 37.5706 42.9645 44.608Z" fill="#A1400F"/>
<path fill-rule="evenodd" clip-rule="evenodd" d="M40.6077 57.2187C49.1359 54.6312 57.5038 42.7736 57.6983 35.4145C53.8961 37.1899 43.0649 42.8212 40.6077 57.2187Z" fill="#A1400F"/>
<path fill-rule="evenodd" clip-rule="evenodd" d="M42.0282 66.1721C54.3265 62.6162 58.9098 42.6774 57.6983 35.4155C54.3027 37.882 41.6972 51.5718 42.0282 66.1721Z" fill="#A1400F"/>
<path fill-rule="evenodd" clip-rule="evenodd" d="M92.9295 77.471C98.8815 53.3472 64.6653 32.9522 57.6983 35.4155C58.7991 39.466 75.6113 79.715 92.9295 77.471Z" fill="#A1400F"/>
<path fill-rule="evenodd" clip-rule="evenodd" d="M47.913 78.728C63.3699 65.6279 63.4165 40.0961 57.6993 35.4145C54.8055 38.4552 37.0187 65.0806 47.913 78.728Z" fill="#A1400F"/>
<path fill-rule="evenodd" clip-rule="evenodd" d="M55.8143 87.6763C68.8947 72.2007 64.1107 39.0873 57.6983 35.4145C55.3466 38.8918 42.8145 76.0153 55.8143 87.6763Z" fill="#A1400F"/>
<path fill-rule="evenodd" clip-rule="evenodd" d="M87.0333 86.9707C89.4884 66.2611 65.0046 34.3054 57.6983 35.4145C58.018 39.6005 69.6013 85.9195 87.0333 86.9707Z" fill="#A1400F"/>
<path fill-rule="evenodd" clip-rule="evenodd" d="M63.6503 87.369C74.2694 70.1139 64.5877 38.0879 57.6993 35.4145C55.8939 39.2042 49.0521 77.7834 63.6503 87.369Z" fill="#A1400F"/>
<path fill-rule="evenodd" clip-rule="evenodd" d="M79.49 90.5845C84.8337 70.4264 65.0874 35.3442 57.6983 35.4145C57.4262 39.6036 62.3798 87.0917 79.49 90.5845Z" fill="#A1400F"/>
<path fill-rule="evenodd" clip-rule="evenodd" d="M78.4378 70.0012V90.8525C78.4378 100.968 61.907 100.807 61.907 90.8525V70.0012C61.906 59.0665 78.4378 59.0675 78.4378 70.0012Z" fill="#FFDDCB"/>
<path fill-rule="evenodd" clip-rule="evenodd" d="M78.4378 70.0012V83.5585C75.3092 86.0064 72.2954 87.3762 70.1714 87.3762C68.0494 87.3762 65.0346 86.0064 61.907 83.5596V70.0012C61.906 59.0665 78.4378 59.0665 78.4378 70.0012Z" fill="#F6C4A9"/>
<path fill-rule="evenodd" clip-rule="evenodd" d="M70.1704 84.0086C64.7905 84.0086 53.4223 75.5476 49.9067 63.4304C46.358 51.1952 53.0415 33.6453 70.1704 33.6453C87.3002 33.6453 93.9848 51.1942 90.4351 63.4304C86.9205 75.5476 75.5534 84.0086 70.1704 84.0086Z" fill="#FFDDCB"/>
<path fill-rule="evenodd" clip-rule="evenodd" d="M61.5925 71.5996C65.2219 68.9448 69.0085 70.5154 70.2759 70.5154C71.5422 70.5154 75.122 68.9438 78.7503 71.5996C76.9439 78.8977 64.3259 79.0818 61.5925 71.5996Z" fill="#FF386A"/>
<path fill-rule="evenodd" clip-rule="evenodd" d="M61.7011 71.5603C65.0708 70.3736 68.0494 72.6994 70.1683 72.6994C72.2882 72.6994 75.274 69.5749 78.6417 71.6803C74.6936 75.7039 65.6761 75.4856 61.7011 71.5603Z" fill="#A21F40"/>
<path fill-rule="evenodd" clip-rule="evenodd" d="M61.5915 71.5603C65.2219 70.0643 67.8932 71.1496 70.0121 71.1496C72.1309 71.1496 75.1209 70.0643 78.7493 71.5603C74.8023 73.8137 65.5674 73.7392 61.5915 71.5603Z" fill="black" fill-opacity="0.5"/>
<path fill-rule="evenodd" clip-rule="evenodd" d="M61.6101 71.5737C65.2219 68.9541 68.3246 70.7719 70.4404 70.7719C72.5562 70.7719 75.1033 68.9438 78.7327 71.5996C78.7193 71.6358 78.7058 71.672 78.6913 71.7082C74.0646 71.6255 66.4924 71.5789 61.6101 71.5737Z" fill="#FF386A"/>
<path d="M51.5631 64.6201C50.2772 61.6266 47.8315 59.8027 46.1006 60.5462C44.3697 61.2898 44.009 64.3193 45.2949 67.3128C46.5809 70.3064 49.0266 72.1303 50.7575 71.3868C52.4884 70.6432 52.8491 67.6137 51.5631 64.6201Z" fill="#FFDDCB"/>
<path d="M94.6696 67.3131C95.9552 64.3195 95.5943 61.2902 93.8634 60.5468C92.1325 59.8034 89.6871 61.6275 88.4014 64.621C87.1158 67.6146 87.4767 70.6439 89.2077 71.3873C90.9386 72.1307 93.384 70.3066 94.6696 67.3131Z" fill="#FFDDCB"/>
<path fill-rule="evenodd" clip-rule="evenodd" d="M49.3563 62.731C44.6892 41.3097 59.7106 31.9424 70.4135 31.9424C82.4697 31.9424 93.7758 45.1222 91.7428 61.5309C85.5083 58.5792 81.4103 54.7315 75.6175 47.9032C76.1172 50.0199 80.6809 57.4318 85.1679 59.9542C77.875 61.1398 64.2918 52.0881 57.0527 42.6174C55.3249 49.3516 52.5336 58.3971 49.3563 62.731Z" fill="#A1400F"/>
<path opacity="0.2" fill-rule="evenodd" clip-rule="evenodd" d="M91.4572 90.8525L91.45 90.9921C93.6682 91.2125 95.6691 92.9444 96.1523 97.1232C88.7549 102.43 79.7683 105.661 70.0452 105.972V30.3574C76.5549 29.9922 84.7106 32.2321 93.2564 39.7443C92.079 40.5513 90.8748 41.2176 89.657 41.7597C93.7489 44.9928 97.2189 49.3133 99.2923 54.9374C97.7735 55.6202 96.1874 56.0268 94.559 56.2027C96.1202 58.9878 97.222 62.0047 97.6742 65.2316C96.8599 65.4582 96.0333 65.601 95.1984 65.6683C95.0711 66.2073 94.89 66.7618 94.6542 67.3122C94.3262 68.0768 93.9206 68.7648 93.4716 69.3545C93.7437 71.9917 93.5906 74.7065 92.9088 77.471C90.6906 77.7575 88.4828 77.3489 86.3132 76.4074C87.1099 80.0957 87.4037 83.6765 87.0126 86.9727C84.6817 86.832 82.4562 85.8812 80.3488 84.3314C80.2691 86.5258 79.9887 88.626 79.4693 90.5855C79.1124 90.5131 78.7606 90.421 78.4151 90.3093V90.8525H80.6684H88.0938C88.6556 90.7842 89.2266 90.7811 89.7905 90.8525H91.4572Z" fill="black"/>
<path d="M51.4799 144.5C51.4207 143.89 51.2846 143.322 51.0715 142.795C50.8584 142.263 50.5596 141.798 50.1748 141.402C49.7901 141.005 49.3137 140.694 48.7455 140.469C48.1833 140.245 47.5204 140.132 46.7569 140.132C45.6264 140.132 44.5315 140.431 43.4721 141.029C42.4186 141.627 41.5042 142.505 40.7288 143.665C39.9594 144.82 39.4356 146.234 39.1574 147.909C38.8852 149.549 38.9118 150.948 39.2373 152.108C39.5629 153.268 40.1399 154.156 40.9685 154.772C41.7971 155.381 42.8299 155.686 44.0669 155.686C45.1796 155.686 46.2153 155.437 47.1741 154.94C48.1329 154.437 48.9408 153.724 49.5978 152.801C50.2548 151.877 50.6809 150.783 50.8762 149.516L51.3734 149.685H45.5495L45.8247 148.193H52.7228L52.4476 149.685C52.199 151.241 51.6693 152.585 50.8584 153.715C50.0476 154.846 49.0414 155.719 47.84 156.334C46.6385 156.944 45.3305 157.249 43.916 157.249C42.3298 157.249 41.004 156.867 39.9387 156.103C38.8793 155.334 38.1365 154.251 37.7104 152.854C37.2842 151.457 37.231 149.809 37.5506 147.909C37.7755 146.483 38.172 145.195 38.7402 144.047C39.3084 142.899 40.0068 141.92 40.8354 141.109C41.6699 140.292 42.5991 139.665 43.623 139.227C44.6528 138.789 45.7418 138.57 46.89 138.57C47.8844 138.57 48.7692 138.726 49.5445 139.04C50.3199 139.354 50.9768 139.786 51.5154 140.336C52.054 140.881 52.4624 141.511 52.7405 142.227C53.0246 142.937 53.1726 143.695 53.1844 144.5H51.4799ZM60.0581 138.818L57.0396 157H55.3795L58.3979 138.818H60.0581ZM61.8736 157L64.8921 138.818H70.7603C72.0506 138.818 73.0893 139.049 73.8765 139.511C74.6696 139.972 75.217 140.614 75.5189 141.437C75.8266 142.254 75.8947 143.195 75.7231 144.26C75.5455 145.314 75.1667 146.246 74.5867 147.057C74.0126 147.868 73.255 148.504 72.314 148.966C71.3729 149.421 70.2632 149.649 68.9848 149.649H63.9954L64.2529 148.131H69.1978C70.1507 148.131 70.9675 147.974 71.6481 147.661C72.3288 147.347 72.8733 146.9 73.2816 146.32C73.69 145.74 73.9593 145.053 74.0895 144.26C74.2197 143.461 74.1754 142.766 73.9564 142.174C73.7433 141.582 73.3468 141.123 72.7667 140.798C72.1926 140.472 71.4262 140.31 70.4674 140.31H66.3037L63.5338 157H61.8736ZM71.2486 148.797L74.3647 157H72.456L69.3932 148.797H71.2486ZM77.6451 157L80.6636 138.818H82.3237L79.5538 155.509H88.2186L87.97 157H77.6451Z" fill="white"/>
</svg>
