<svg width="240" height="42" viewBox="0 0 240 42" fill="none" xmlns="http://www.w3.org/2000/svg">
<rect width="240" height="42" rx="15" fill="black" fill-opacity="0.5"/>
<path d="M29 15H28V14C28 13.7348 27.8946 13.4804 27.7071 13.2929C27.5196 13.1054 27.2652 13 27 13C26.7348 13 26.4804 13.1054 26.2929 13.2929C26.1054 13.4804 26 13.7348 26 14V15H25C24.7348 15 24.4804 15.1054 24.2929 15.2929C24.1054 15.4804 24 15.7348 24 16C24 16.2652 24.1054 16.5196 24.2929 16.7071C24.4804 16.8946 24.7348 17 25 17H26V18C26 18.2652 26.1054 18.5196 26.2929 18.7071C26.4804 18.8946 26.7348 19 27 19C27.2652 19 27.5196 18.8946 27.7071 18.7071C27.8946 18.5196 28 18.2652 28 18V17H29C29.2652 17 29.5196 16.8946 29.7071 16.7071C29.8946 16.5196 30 16.2652 30 16C30 15.7348 29.8946 15.4804 29.7071 15.2929C29.5196 15.1054 29.2652 15 29 15Z" fill="white" fill-opacity="0.8"/>
<path d="M18 20C18.7911 20 19.5645 19.7654 20.2223 19.3259C20.8801 18.8864 21.3928 18.2616 21.6955 17.5307C21.9983 16.7998 22.0775 15.9956 21.9231 15.2196C21.7688 14.4437 21.3878 13.731 20.8284 13.1716C20.269 12.6122 19.5563 12.2312 18.7804 12.0769C18.0044 11.9225 17.2002 12.0017 16.4693 12.3045C15.7384 12.6072 15.1136 13.1199 14.6741 13.7777C14.2346 14.4355 14 15.2089 14 16C14 17.0609 14.4214 18.0783 15.1716 18.8284C15.9217 19.5786 16.9391 20 18 20ZM18 14C18.3956 14 18.7822 14.1173 19.1111 14.3371C19.44 14.5568 19.6964 14.8692 19.8478 15.2346C19.9991 15.6001 20.0387 16.0022 19.9616 16.3902C19.8844 16.7781 19.6939 17.1345 19.4142 17.4142C19.1345 17.6939 18.7781 17.8844 18.3902 17.9616C18.0022 18.0387 17.6001 17.9991 17.2346 17.8478C16.8692 17.6964 16.5568 17.44 16.3371 17.1111C16.1173 16.7822 16 16.3956 16 16C16 15.4696 16.2107 14.9609 16.5858 14.5858C16.9609 14.2107 17.4696 14 18 14Z" fill="white" fill-opacity="0.8"/>
<path d="M18 22C16.1435 22 14.363 22.7375 13.0503 24.0503C11.7375 25.363 11 27.1435 11 29C11 29.2652 11.1054 29.5196 11.2929 29.7071C11.4804 29.8946 11.7348 30 12 30C12.2652 30 12.5196 29.8946 12.7071 29.7071C12.8946 29.5196 13 29.2652 13 29C13 27.6739 13.5268 26.4021 14.4645 25.4645C15.4021 24.5268 16.6739 24 18 24C19.3261 24 20.5979 24.5268 21.5355 25.4645C22.4732 26.4021 23 27.6739 23 29C23 29.2652 23.1054 29.5196 23.2929 29.7071C23.4804 29.8946 23.7348 30 24 30C24.2652 30 24.5196 29.8946 24.7071 29.7071C24.8946 29.5196 25 29.2652 25 29C25 27.1435 24.2625 25.363 22.9497 24.0503C21.637 22.7375 19.8565 22 18 22Z" fill="white" fill-opacity="0.8"/>
</svg>
