<svg width="240" height="42" viewBox="0 0 240 42" fill="none" xmlns="http://www.w3.org/2000/svg">
<rect width="240" height="42" rx="15" fill="black" fill-opacity="0.5"/>
<path d="M29 21.6V12.5C29 11.7 28.3 11 27.5 11H25V9.5C25 8.7 24.3 8 23.5 8H22.5C21.7 8 21 8.7 21 9.5V11H16V9.5C16 8.7 15.3 8 14.5 8H13.5C12.7 8 12 8.7 12 9.5V11H9.5C8.7 11 8 11.7 8 12.5V28.5C8 29.3 8.7 30 9.5 30H22.3C23.3 31.2 24.8 32 26.5 32C29.5 32 32 29.5 32 26.5C32 24.4 30.8 22.5 29 21.6ZM21.6 24H19V20H23V22.3C22.4 22.7 22 23.3 21.6 24ZM14 24V20H18V24H14ZM18 25V29H14V25H18ZM23 15V19H19V15H23ZM18 19H14V15H18V19ZM13 19H9V15H13V19ZM13 20V24H9V20H13ZM24 20H28V21.2C27.5 21.1 27 21 26.5 21C25.6 21 24.8 21.2 24 21.6V20ZM28 19H24V15H28V19ZM22 9.5C22 9.2 22.2 9 22.5 9H23.5C23.8 9 24 9.2 24 9.5V11.5C24 11.8 23.8 12 23.5 12H22.5C22.2 12 22 11.8 22 11.5V9.5ZM13 9.5C13 9.2 13.2 9 13.5 9H14.5C14.8 9 15 9.2 15 9.5V11.5C15 11.8 14.8 12 14.5 12H13.5C13.2 12 13 11.8 13 11.5V9.5ZM9.5 12H12.1C12.3 12.6 12.9 13 13.5 13H14.5C15.2 13 15.7 12.6 15.9 12H21.1C21.3 12.6 21.9 13 22.5 13H23.5C24.2 13 24.7 12.6 24.9 12H27.5C27.8 12 28 12.2 28 12.5V14H9V12.5C9 12.2 9.2 12 9.5 12ZM9 28.5V25H13V29H9.5C9.2 29 9 28.8 9 28.5ZM19 29V25H21.2C21.1 25.5 21 26 21 26.5C21 27.4 21.2 28.2 21.6 29H19ZM26.5 31C24 31 22 29 22 26.5C22 24 24 22 26.5 22C29 22 31 24 31 26.5C31 29 29 31 26.5 31Z" fill="white" fill-opacity="0.8"/>
<path d="M25.5 29C25.4 29 25.2 28.9 25.1 28.9L23.1 26.9C22.9 26.7 22.9 26.4 23.1 26.2C23.3 26 23.6 26 23.8 26.2L25.4 27.8L28.1 24.3C28.3 24.1 28.6 24 28.8 24.2C29 24.4 29.1 24.7 28.9 24.9L25.9 28.9C25.8 28.9 25.7 29 25.5 29Z" fill="white" fill-opacity="0.8"/>
</svg>
