<svg width="291" height="48" viewBox="0 0 291 48" fill="none" xmlns="http://www.w3.org/2000/svg">
<rect width="291" height="48" rx="15" fill="black" fill-opacity="0.5"/>
<path d="M116.653 19.6364L119.642 29.0298H119.756L122.751 19.6364H125.648L121.386 32H118.018L113.75 19.6364H116.653ZM127.137 32V19.6364H135.468V21.7915H129.751V24.7376H135.039V26.8928H129.751V29.8448H135.492V32H127.137ZM137.546 32V19.6364H142.424C143.357 19.6364 144.154 19.8034 144.814 20.1374C145.478 20.4674 145.983 20.9363 146.33 21.544C146.68 22.1477 146.855 22.8581 146.855 23.6751C146.855 24.4961 146.678 25.2024 146.323 25.794C145.969 26.3816 145.456 26.8324 144.784 27.1463C144.116 27.4602 143.307 27.6172 142.357 27.6172H139.091V25.5163H141.935C142.434 25.5163 142.848 25.4479 143.178 25.3111C143.508 25.1742 143.754 24.969 143.915 24.6953C144.08 24.4216 144.162 24.0816 144.162 23.6751C144.162 23.2646 144.08 22.9184 143.915 22.6367C143.754 22.355 143.506 22.1417 143.172 21.9968C142.842 21.8479 142.426 21.7734 141.923 21.7734H140.16V32H137.546ZM144.223 26.3736L147.295 32H144.41L141.403 26.3736H144.223ZM151.316 19.6364V32H148.702V19.6364H151.316ZM153.467 32V19.6364H161.653V21.7915H156.081V24.7376H161.109V26.8928H156.081V32H153.467ZM162.687 19.6364H165.614L168.434 24.9609H168.554L171.374 19.6364H174.302L169.792 27.6293V32H167.196V27.6293L162.687 19.6364Z" fill="white" fill-opacity="0.8"/>
</svg>
