<svg width="126" height="180" viewBox="0 0 126 180" fill="none" xmlns="http://www.w3.org/2000/svg">
<circle cx="68.5" cy="57.5" r="57.5" fill="black" fill-opacity="0.5"/>
<g clip-path="url(#clip0_15_3)">
<path d="M68.5 11C42.2707 11 21 32.2707 21 58.5C21 84.7293 42.2707 106 68.5 106C94.7293 106 116 84.7293 116 58.5C116 32.2707 94.7293 11 68.5 11Z" fill="#337180"/>
<path d="M68.5 34.8553C48.8184 34.8553 31.7789 40.082 31.8172 40.1777C32.6405 42.2646 43.3045 53.5988 68.5 53.5988C93.6763 53.5988 104.187 42.2646 105.144 40.2352C105.202 40.1012 88.1816 34.8553 68.5 34.8553Z" fill="#BF8A3D"/>
<path d="M101.124 84.289C99.4966 79.0623 85.5778 74.8503 68.4234 74.8503C51.269 74.8503 37.5034 79.0623 35.8761 84.289C35.3783 85.9164 34.8231 88.5393 34.287 91.4494C42.9216 100.429 55.0599 106 68.5 106C81.9401 106 94.0784 100.41 102.713 91.4494C102.196 88.5393 101.641 85.8972 101.124 84.289Z" fill="#BF8A3D"/>
<path d="M78.6088 73.8738H58.4103V80.3642H78.6088V73.8738Z" fill="#724B1D"/>
<path d="M68.4234 74.8311C61.8565 74.8311 55.7682 75.4438 50.6947 76.5159C54.026 84.3081 68.5 89.6497 68.5 89.6497C68.5 89.6497 82.974 84.3273 86.3053 76.5351C81.1743 75.4629 75.0478 74.8311 68.4234 74.8311Z" fill="#E0AF8D"/>
<path d="M58.4103 73.8738C55.6534 74.161 50.6947 76.5159 50.6947 76.5159C52.6858 81.1491 58.6018 84.9208 63.0818 87.2183C61.2821 84.0401 59.4633 78.5262 58.4103 73.8738Z" fill="#966524"/>
<path d="M78.5897 73.8738C77.5367 78.5262 75.7179 84.0401 73.9182 87.2183C78.3982 84.94 84.3142 81.1683 86.3053 76.5351C86.3053 76.5351 81.3275 74.161 78.5897 73.8738Z" fill="#966524"/>
<path d="M59.6931 65.0095C59.6931 65.0095 61.1673 70.5617 61.1673 77.8178C62.2586 83.0828 74.7797 83.0254 75.871 77.7221C75.871 70.4468 77.3069 64.9903 77.3069 64.9903H59.6931V65.0095V65.0095Z" fill="#E0AF8D"/>
<path d="M68.5 24.8996C59.1761 24.8996 51.5945 26.8525 51.5945 44.5429C51.5945 50.5355 53.1262 58.366 54.7535 62.0419C57.5488 68.3025 65.0538 71.7104 68.5 71.7104C71.9462 71.7104 79.4512 68.1685 82.2465 62.0419C83.9121 58.3851 85.4055 50.5355 85.4055 44.5429C85.4055 26.8525 77.8239 24.8996 68.5 24.8996Z" fill="#F4BC95"/>
<path d="M68.5957 66.4454C66.1068 66.4454 61.6076 68.2642 61.6076 68.2642L63.8094 81.0151L68.5957 91.9089L73.2864 81.0151L75.4881 68.2642C75.4881 68.2642 71.0846 66.4454 68.5957 66.4454Z" fill="#686565"/>
<path d="M75.8519 62.444C75.8327 61.8696 75.7561 61.2761 75.5647 60.6826C75.469 60.3763 75.3349 60.0699 75.1435 59.7636C75.0861 59.687 75.0478 59.6104 74.9903 59.5339C74.952 59.4956 74.9329 59.4573 74.8946 59.419L74.7989 59.3233L74.7797 59.3041L74.7414 59.2658C74.7223 59.2467 74.7031 59.2275 74.6649 59.1892C74.6266 59.1509 74.5691 59.0935 74.5117 59.0552C74.416 58.9786 74.3202 58.9212 74.2245 58.8638C73.8225 58.6532 73.4778 58.5766 73.1332 58.5191C72.7886 58.4809 72.4823 58.4617 72.1759 58.4809C71.5633 58.5191 70.9889 58.634 70.4528 58.7872C69.8976 58.9595 69.3807 59.1701 68.8829 59.4573C68.7489 59.5339 68.634 59.6104 68.5 59.687C68.366 59.6104 68.2511 59.5339 68.1171 59.4573C67.6193 59.1701 67.1024 58.9595 66.5472 58.7872C65.9919 58.6149 65.4367 58.5 64.8241 58.4809C64.5177 58.4617 64.2114 58.4809 63.8668 58.5191C63.5222 58.5766 63.1776 58.6532 62.7755 58.8638C62.6798 58.9212 62.584 58.9786 62.4883 59.0552C62.4309 59.0935 62.3926 59.1318 62.3351 59.1892C62.316 59.2084 62.2969 59.2275 62.2586 59.2658L62.2203 59.3041L62.2011 59.3233L62.1054 59.419C62.0671 59.4573 62.048 59.4956 62.0097 59.5339C61.9522 59.6104 61.8948 59.687 61.8565 59.7636C61.6651 60.0699 61.531 60.3763 61.4353 60.6826C61.2439 61.2952 61.1673 61.8696 61.1481 62.444C61.1098 63.5927 61.263 64.684 61.4736 65.7753C61.6651 65.2392 61.8182 64.7223 61.9522 64.1862C62.1054 63.6693 62.2394 63.1524 62.3926 62.6546C62.5457 62.1759 62.7372 61.6973 62.9478 61.3144C63.0627 61.1229 63.1776 60.9506 63.3116 60.8166C63.3499 60.7783 63.369 60.7592 63.4073 60.7209C63.4264 60.7017 63.4456 60.6826 63.4456 60.6826L63.4647 60.6634L63.503 60.6252L63.5222 60.606L63.503 60.6252H63.5222C63.5413 60.6252 63.5605 60.6252 63.5796 60.6252C63.6753 60.606 63.8476 60.5869 64.0582 60.5869C64.2497 60.5869 68.2511 61.5058 68.4809 61.5058C68.7106 61.525 72.6929 60.5869 72.9035 60.5869C73.0949 60.5869 73.2864 60.606 73.3821 60.6252C73.4013 60.6252 73.4204 60.6252 73.4395 60.6252H73.4587C73.4778 60.6443 73.4395 60.606 73.4395 60.606L73.4587 60.6252L73.497 60.6634L73.5161 60.6826C73.5161 60.6826 73.5353 60.7017 73.5544 60.7209C73.5927 60.74 73.6119 60.7783 73.6501 60.8166C73.765 60.9506 73.899 61.1229 74.0139 61.3144C74.2437 61.6973 74.416 62.1759 74.5691 62.6546C74.7414 63.1524 74.8755 63.6501 75.0095 64.1862C75.1626 64.7031 75.2967 65.2392 75.4881 65.7753C75.737 64.684 75.8902 63.5927 75.8519 62.444Z" fill="#686565"/>
<path d="M70.9506 61.9845C70.2422 61.8505 68.5 62.712 68.5 62.712C68.5 62.712 66.7195 61.8505 66.0111 61.9845C64.8815 62.1951 63.1967 63.2672 63.1967 63.6501H73.7842C73.8033 63.6501 72.0994 62.1759 70.9506 61.9845Z" fill="#C6896D"/>
<path d="M68.5 63.3055C65.3601 63.3055 63.1967 63.6693 63.1967 63.6693C63.1967 63.6693 65.5516 64.9712 66.3366 65.2201C67.1215 65.469 70.0125 65.3924 70.7017 65.2009C71.4101 65.0095 73.7842 63.6693 73.7842 63.6693C73.7842 63.6693 71.6399 63.3055 68.5 63.3055Z" fill="#AF7556"/>
<path d="M68.5 23.7126C59.6356 23.7126 51.5945 26.8333 51.5945 44.5429C51.5945 45.4045 54.7727 45.1173 54.7727 45.1173C54.9641 42.8773 56.0171 40.0054 56.5915 39.1439C56.783 38.8567 56.9936 40.2352 57.319 40.0437C57.8742 39.7183 58.6401 38.8759 59.2336 38.5312C64.3837 35.4297 71.0655 34.2044 75.6221 34.2044C82.0742 34.2044 85.3672 47.5488 85.3672 44.5621C85.4055 26.8525 77.3644 23.7126 68.5 23.7126Z" fill="#686565"/>
<path d="M70.0125 50.4206C69.9742 48.9464 70.0699 47.0893 70.0699 47.0893C69.9168 48.4678 69.6679 49.425 69.7253 50.6695C69.8019 52.45 70.5486 54.0391 70.5486 54.0391C70.2805 52.3734 70.0316 51.3587 70.0125 50.4206Z" fill="#AF7F5F"/>
<path d="M64.8815 54.7858C64.8815 54.7858 62.7946 56.5472 64.9389 57.1981C64.9389 57.1981 63.7711 56.2217 64.8815 54.7858Z" fill="#AF7F5F"/>
<path d="M72.2142 54.7858C73.1715 56.3366 71.8887 57.179 71.8887 57.179C74.1288 56.9109 72.2142 54.7858 72.2142 54.7858Z" fill="#AF7F5F"/>
<path d="M66.8918 57.1598C68.5574 59.4764 70.1082 57.1598 70.1082 57.1598C68.5 58.0979 66.8918 57.1598 66.8918 57.1598Z" fill="#AF7F5F"/>
<path d="M55.4811 38.1483L52.6858 37.9569C51.8817 40.0437 51.6137 42.6284 51.6137 45.1364C51.6137 45.1364 53.2985 44.7727 53.2985 45.6342L53.8345 50.9184L55.9023 49.0038C55.8257 39.7948 55.4811 38.1483 55.4811 38.1483Z" fill="#686565"/>
<path d="M84.3333 37.9569L81.5381 37.8803C81.5381 37.8803 81.1935 39.7948 81.1552 48.9847L83.2229 50.8992L83.759 45.6151C83.759 44.7535 85.4438 45.1173 85.4438 45.1173C85.4246 42.6092 85.1566 40.0437 84.3333 37.9569Z" fill="#686565"/>
<path d="M51.9008 45.079C50.2926 45.347 49.0482 46.0554 49.9672 51.3779C50.8861 56.7003 52.0157 56.9492 53.6239 56.6812L51.9008 45.079Z" fill="#F4BC95"/>
<path d="M85.1183 45.079L83.3952 56.6812C85.0034 56.9492 86.133 56.7003 87.052 51.3779C87.9518 46.0554 86.7265 45.3662 85.1183 45.079Z" fill="#F4BC95"/>
<path d="M80.4085 44.5621C79.0875 43.241 76.656 42.8007 75.3349 42.6284C75.1052 42.6092 74.8754 42.5901 74.6648 42.5709C74.5883 42.5709 74.4543 42.705 74.4543 42.705C74.4543 42.705 74.3777 42.5518 74.3202 42.5518C73.2672 42.4944 72.3865 42.5518 71.927 42.6475L71.8505 42.6667C71.3335 42.7815 70.7017 42.9156 70.9123 43.6622C71.0272 44.0451 71.2952 44.294 71.6782 44.3323C71.7547 44.3323 71.8505 44.3323 71.927 44.3323C72.0419 44.3132 72.1951 44.2749 72.3482 44.2366C72.4248 44.2175 72.5206 44.1983 72.5971 44.1792C72.6929 44.16 72.7886 44.1409 72.9035 44.1217C73.0375 44.1026 73.3055 43.758 73.3055 43.758C73.3055 43.758 73.5927 44.0451 73.7267 44.0451C74.3394 44.0069 75.0095 44.026 75.6987 44.1026C77.575 44.3132 79.0683 44.8875 79.4512 45.079C79.7193 45.213 79.9299 45.2896 80.1022 45.3087C80.4085 45.347 80.5234 45.1939 80.5617 45.1173C80.6382 44.945 80.5808 44.7344 80.4085 44.5621Z" fill="#686565"/>
<path d="M65.1495 42.6475L65.0729 42.6284C64.6135 42.5326 63.7519 42.4752 62.6798 42.5326C62.6415 42.5326 62.5457 42.6858 62.5457 42.6858C62.5457 42.6858 62.3926 42.5518 62.3351 42.5518C62.1245 42.5709 61.8948 42.5901 61.665 42.6092C60.344 42.7624 57.9125 43.2219 56.5915 44.5429C56.4192 44.7152 56.3617 44.9258 56.4383 45.079C56.4766 45.1556 56.5915 45.3087 56.8978 45.2705C57.051 45.2513 57.2807 45.1747 57.5488 45.0407C57.9317 44.8493 59.425 44.294 61.3013 44.0643C61.9905 43.9877 62.6606 43.9686 63.2733 44.0069C63.4264 44.0069 63.6945 43.7197 63.6945 43.7197C63.6945 43.7197 63.9625 44.0643 64.0965 44.0834C64.1923 44.1026 64.3071 44.1217 64.4029 44.1409C64.4794 44.16 64.556 44.1792 64.6517 44.1983C64.8049 44.2366 64.9389 44.2749 65.0729 44.294C65.1687 44.3132 65.2453 44.3132 65.3218 44.294C65.7048 44.2557 65.9728 44.0069 66.0877 43.6239C66.2983 42.8964 65.6665 42.7624 65.1495 42.6475Z" fill="#686565"/>
<path d="M61.5119 46.5915C59.3102 46.5149 58.1997 48.0657 58.1997 48.0657C58.1997 48.0657 59.7697 49.4442 61.9139 49.2527C63.8094 49.0804 65.2836 48.3912 65.2836 48.3912C65.2836 48.3912 64.0965 46.6872 61.5119 46.5915Z" fill="#CC9169"/>
<path d="M62.6989 47.1084C60.4972 47.1467 58.1997 48.0657 58.1997 48.0657C58.1997 48.0657 59.6165 48.8698 61.7799 48.7358C63.6945 48.7932 65.2836 48.3912 65.2836 48.3912C65.2836 48.3912 64.288 47.1467 62.6989 47.1084Z" fill="#EADAD0"/>
<path d="M63.235 47.1659C63.0627 47.1276 62.8904 47.1084 62.6989 47.1084C61.8948 47.1276 61.0715 47.2616 60.344 47.4147C60.3249 47.5296 60.3057 47.6445 60.3057 47.7785C60.3057 48.1423 60.4206 48.4678 60.6312 48.7166C60.9758 48.7549 61.3587 48.7549 61.7799 48.7358C62.2203 48.7549 62.6606 48.7358 63.0627 48.7166C63.2541 48.4486 63.3881 48.1423 63.3881 47.7785C63.369 47.5679 63.3307 47.3573 63.235 47.1659Z" fill="#38251A"/>
<path d="M75.4881 46.5915C72.9035 46.6872 71.7164 48.372 71.7164 48.372C71.7164 48.372 73.1907 49.0613 75.0861 49.2336C77.2304 49.425 78.8003 48.0466 78.8003 48.0466C78.8003 48.0466 77.6707 46.5149 75.4881 46.5915Z" fill="#CC9169"/>
<path d="M74.3011 47.1084C72.712 47.1467 71.7164 48.3912 71.7164 48.3912C71.7164 48.3912 73.3055 48.8124 75.2201 48.7358C77.3644 48.8698 78.8003 48.0657 78.8003 48.0657C78.8003 48.0657 76.5028 47.1467 74.3011 47.1084Z" fill="#EADAD0"/>
<path d="M76.656 47.4147C75.9285 47.2424 75.1052 47.1276 74.3011 47.1084C74.1096 47.1084 73.9373 47.1276 73.765 47.1659C73.6884 47.3573 73.631 47.5679 73.631 47.7785C73.631 48.1231 73.7459 48.4486 73.9565 48.7166C74.3585 48.7358 74.7797 48.7549 75.2392 48.7358C75.6413 48.7549 76.0242 48.7549 76.3879 48.7166C76.5985 48.4486 76.7134 48.1231 76.7134 47.7785C76.6943 47.6445 76.6751 47.5296 76.656 47.4147Z" fill="#38251A"/>
<path d="M68.5 22.6979C58.9272 22.6979 32.9085 39.7757 31.8555 40.3883C32.7936 40.1012 53.241 38.895 68.5 38.895C84.1227 38.895 105.144 40.4649 105.144 40.4649C105.202 40.3501 78.2642 22.6979 68.5 22.6979ZM31.8555 40.3883C31.8364 40.3883 31.8172 40.4075 31.8172 40.4075C31.8172 40.4075 31.8364 40.4075 31.8555 40.3883Z" fill="#E2A84B"/>
</g>
<path d="M39.0587 157L42.0771 138.818H48.2117C49.3954 138.818 50.3483 139.025 51.0704 139.44C51.7925 139.854 52.2896 140.419 52.5619 141.135C52.8401 141.851 52.8992 142.665 52.7394 143.577C52.6151 144.334 52.3814 144.982 52.0381 145.521C51.6948 146.054 51.2776 146.489 50.7863 146.826C50.301 147.157 49.7772 147.397 49.2149 147.545L49.1883 147.687C49.7683 147.729 50.3039 147.936 50.7952 148.309C51.2864 148.676 51.6534 149.19 51.896 149.853C52.1446 150.516 52.1949 151.309 52.047 152.233C51.8931 153.15 51.5498 153.97 51.0171 154.692C50.4904 155.408 49.7683 155.973 48.8509 156.387C47.9395 156.796 46.8327 157 45.5306 157H39.0587ZM40.9674 155.509H45.7792C47.1819 155.509 48.2709 155.198 49.0463 154.576C49.8216 153.955 50.2921 153.174 50.4578 152.233C50.5703 151.54 50.5052 150.913 50.2625 150.35C50.0199 149.782 49.6233 149.333 49.0729 149.001C48.5225 148.67 47.8389 148.504 47.0221 148.504H42.1393L40.9674 155.509ZM42.3879 147.03H47.0132C47.7294 147.03 48.3804 146.882 48.9664 146.586C49.5523 146.29 50.0376 145.882 50.4223 145.361C50.807 144.84 51.0526 144.246 51.1592 143.577C51.3249 142.612 51.1444 141.828 50.6176 141.224C50.0968 140.614 49.212 140.31 47.9632 140.31H43.4887L42.3879 147.03ZM71.6426 148.007C71.3289 149.883 70.7252 151.513 69.8315 152.898C68.9378 154.283 67.8458 155.355 66.5556 156.112C65.2653 156.87 63.8626 157.249 62.3475 157.249C60.7909 157.249 59.477 156.861 58.4057 156.086C57.3404 155.304 56.5858 154.209 56.1419 152.801C55.698 151.386 55.6329 149.723 55.9466 147.811C56.2602 145.935 56.8639 144.305 57.7576 142.92C58.6513 141.535 59.7463 140.464 61.0424 139.706C62.3386 138.948 63.7472 138.57 65.2683 138.57C66.8071 138.57 68.1092 138.957 69.1745 139.733C70.2399 140.508 70.9975 141.603 71.4473 143.017C71.8971 144.426 71.9622 146.089 71.6426 148.007ZM70.0534 147.811C70.3257 146.19 70.2902 144.808 69.9469 143.665C69.6096 142.523 69.0295 141.65 68.2069 141.047C67.3842 140.437 66.3869 140.132 65.215 140.132C64.0017 140.132 62.8624 140.446 61.7971 141.073C60.7317 141.695 59.8232 142.594 59.0716 143.772C58.3199 144.944 57.805 146.355 57.5268 148.007C57.2605 149.623 57.296 151.004 57.6333 152.153C57.9707 153.295 58.5507 154.171 59.3734 154.781C60.202 155.384 61.2052 155.686 62.383 155.686C63.6022 155.686 64.7445 155.372 65.8098 154.745C66.8752 154.118 67.7807 153.218 68.5265 152.046C69.2781 150.868 69.7871 149.457 70.0534 147.811ZM74.6255 138.818H76.5165L80.4849 147.447H80.6625L87.4718 138.818H89.3983L81.1241 149.125L79.8191 157H78.1678L79.464 149.125L74.6255 138.818Z" fill="white"/>
<defs>
<clipPath id="clip0_15_3">
<rect width="95" height="95" fill="white" transform="translate(21 11)"/>
</clipPath>
</defs>
</svg>
