<svg width="115" height="115" viewBox="0 0 115 115" fill="none" xmlns="http://www.w3.org/2000/svg">
<circle cx="57.5" cy="57.5" r="57.5" fill="black" fill-opacity="0.5"/>
<g clip-path="url(#clip0_2_113)">
<path d="M57.5 11C31.2707 11 10 32.2707 10 58.5C10 84.7293 31.2707 106 57.5 106C83.7293 106 105 84.7293 105 58.5C105 32.2707 83.7293 11 57.5 11Z" fill="#337180"/>
<path d="M57.5 34.8553C37.8184 34.8553 20.7789 40.082 20.8172 40.1777C21.6405 42.2646 32.3045 53.5988 57.5 53.5988C82.6763 53.5988 93.1872 42.2646 94.1445 40.2352C94.2019 40.1012 77.1816 34.8553 57.5 34.8553Z" fill="#BF8A3D"/>
<path d="M90.1239 84.289C88.4966 79.0623 74.5778 74.8503 57.4234 74.8503C40.269 74.8503 26.5034 79.0623 24.8761 84.289C24.3783 85.9164 23.8231 88.5393 23.287 91.4494C31.9216 100.429 44.0599 106 57.5 106C70.9401 106 83.0784 100.41 91.713 91.4494C91.1961 88.5393 90.6409 85.8972 90.1239 84.289Z" fill="#BF8A3D"/>
<path d="M67.6088 73.8738H47.4103V80.3642H67.6088V73.8738Z" fill="#724B1D"/>
<path d="M57.4234 74.8311C50.8565 74.8311 44.7682 75.4438 39.6947 76.5159C43.026 84.3081 57.5 89.6497 57.5 89.6497C57.5 89.6497 71.974 84.3273 75.3053 76.5351C70.1743 75.4629 64.0478 74.8311 57.4234 74.8311Z" fill="#E0AF8D"/>
<path d="M47.4103 73.8738C44.6534 74.161 39.6947 76.5159 39.6947 76.5159C41.6858 81.1491 47.6018 84.9208 52.0818 87.2183C50.2821 84.0401 48.4633 78.5262 47.4103 73.8738Z" fill="#966524"/>
<path d="M67.5897 73.8738C66.5367 78.5262 64.7179 84.0401 62.9182 87.2183C67.3982 84.9399 73.3142 81.1683 75.3053 76.5351C75.3053 76.5351 70.3275 74.161 67.5897 73.8738Z" fill="#966524"/>
<path d="M48.6931 65.0095C48.6931 65.0095 50.1673 70.5617 50.1673 77.8178C51.2586 83.0828 63.7797 83.0254 64.871 77.7221C64.871 70.4468 66.3069 64.9903 66.3069 64.9903H48.6931V65.0095Z" fill="#E0AF8D"/>
<path d="M57.5 24.8996C48.1761 24.8996 40.5945 26.8525 40.5945 44.5429C40.5945 50.5355 42.1262 58.366 43.7535 62.0419C46.5488 68.3025 54.0538 71.7104 57.5 71.7104C60.9462 71.7104 68.4512 68.1685 71.2465 62.0419C72.9121 58.3851 74.4055 50.5355 74.4055 44.5429C74.4055 26.8525 66.8239 24.8996 57.5 24.8996Z" fill="#F4BC95"/>
<path d="M57.5957 66.4454C55.1068 66.4454 50.6076 68.2642 50.6076 68.2642L52.8094 81.0151L57.5957 91.9089L62.2864 81.0151L64.4881 68.2642C64.4881 68.2642 60.0846 66.4454 57.5957 66.4454Z" fill="#686565"/>
<path d="M64.8519 62.444C64.8327 61.8696 64.7561 61.2761 64.5647 60.6826C64.469 60.3763 64.3349 60.0699 64.1435 59.7636C64.0861 59.687 64.0478 59.6104 63.9903 59.5339C63.952 59.4956 63.9329 59.4573 63.8946 59.419L63.7989 59.3233L63.7797 59.3041L63.7414 59.2658C63.7223 59.2467 63.7031 59.2275 63.6649 59.1892C63.6266 59.1509 63.5691 59.0935 63.5117 59.0552C63.416 58.9786 63.3202 58.9212 63.2245 58.8638C62.8225 58.6532 62.4778 58.5766 62.1332 58.5191C61.7886 58.4809 61.4823 58.4617 61.1759 58.4809C60.5633 58.5191 59.9889 58.634 59.4528 58.7872C58.8976 58.9595 58.3807 59.1701 57.8829 59.4573C57.7489 59.5339 57.634 59.6104 57.5 59.687C57.366 59.6104 57.2511 59.5339 57.1171 59.4573C56.6193 59.1701 56.1024 58.9595 55.5472 58.7872C54.9919 58.6149 54.4367 58.5 53.8241 58.4809C53.5177 58.4617 53.2114 58.4809 52.8668 58.5191C52.5222 58.5766 52.1776 58.6532 51.7755 58.8638C51.6798 58.9212 51.584 58.9786 51.4883 59.0552C51.4309 59.0935 51.3926 59.1318 51.3351 59.1892C51.316 59.2084 51.2969 59.2275 51.2586 59.2658L51.2203 59.3041L51.2011 59.3233L51.1054 59.419C51.0671 59.4573 51.048 59.4956 51.0097 59.5339C50.9522 59.6104 50.8948 59.687 50.8565 59.7636C50.6651 60.0699 50.531 60.3763 50.4353 60.6826C50.2439 61.2952 50.1673 61.8696 50.1481 62.444C50.1098 63.5927 50.263 64.684 50.4736 65.7753C50.6651 65.2392 50.8182 64.7223 50.9522 64.1862C51.1054 63.6693 51.2394 63.1524 51.3926 62.6546C51.5457 62.1759 51.7372 61.6973 51.9478 61.3144C52.0627 61.1229 52.1776 60.9506 52.3116 60.8166C52.3499 60.7783 52.369 60.7592 52.4073 60.7209C52.4264 60.7017 52.4456 60.6826 52.4456 60.6826L52.4647 60.6634L52.503 60.6252L52.5222 60.606L52.503 60.6252H52.5222C52.5413 60.6252 52.5605 60.6252 52.5796 60.6252C52.6753 60.606 52.8476 60.5869 53.0582 60.5869C53.2497 60.5869 57.2511 61.5058 57.4809 61.5058C57.7106 61.525 61.6929 60.5869 61.9035 60.5869C62.0949 60.5869 62.2864 60.606 62.3821 60.6252C62.4013 60.6252 62.4204 60.6252 62.4395 60.6252H62.4587C62.4778 60.6443 62.4395 60.606 62.4395 60.606L62.4587 60.6252L62.497 60.6634L62.5161 60.6826C62.5161 60.6826 62.5353 60.7017 62.5544 60.7209C62.5927 60.74 62.6119 60.7783 62.6501 60.8166C62.765 60.9506 62.899 61.1229 63.0139 61.3144C63.2437 61.6973 63.416 62.1759 63.5691 62.6546C63.7414 63.1524 63.8755 63.6501 64.0095 64.1862C64.1626 64.7031 64.2967 65.2392 64.4881 65.7753C64.737 64.684 64.8902 63.5927 64.8519 62.444Z" fill="#686565"/>
<path d="M59.9506 61.9845C59.2422 61.8505 57.5 62.712 57.5 62.712C57.5 62.712 55.7195 61.8505 55.0111 61.9845C53.8815 62.1951 52.1967 63.2672 52.1967 63.6501H62.7842C62.8033 63.6501 61.0994 62.1759 59.9506 61.9845Z" fill="#C6896D"/>
<path d="M57.5 63.3055C54.3601 63.3055 52.1967 63.6693 52.1967 63.6693C52.1967 63.6693 54.5516 64.9712 55.3366 65.2201C56.1215 65.469 59.0125 65.3924 59.7017 65.2009C60.4101 65.0095 62.7842 63.6693 62.7842 63.6693C62.7842 63.6693 60.6399 63.3055 57.5 63.3055Z" fill="#AF7556"/>
<path d="M57.5 23.7126C48.6356 23.7126 40.5945 26.8333 40.5945 44.5429C40.5945 45.4045 43.7727 45.1173 43.7727 45.1173C43.9641 42.8773 45.0171 40.0054 45.5915 39.1439C45.783 38.8567 45.9936 40.2352 46.319 40.0437C46.8742 39.7183 47.6401 38.8759 48.2336 38.5312C53.3837 35.4297 60.0655 34.2044 64.6221 34.2044C71.0742 34.2044 74.3672 47.5488 74.3672 44.5621C74.4055 26.8525 66.3644 23.7126 57.5 23.7126Z" fill="#686565"/>
<path d="M59.0125 50.4206C58.9742 48.9464 59.0699 47.0893 59.0699 47.0893C58.9168 48.4678 58.6679 49.425 58.7253 50.6695C58.8019 52.45 59.5486 54.0391 59.5486 54.0391C59.2805 52.3734 59.0316 51.3587 59.0125 50.4206Z" fill="#AF7F5F"/>
<path d="M53.8815 54.7858C53.8815 54.7858 51.7946 56.5472 53.9389 57.1981C53.9389 57.1981 52.7711 56.2217 53.8815 54.7858Z" fill="#AF7F5F"/>
<path d="M61.2142 54.7858C62.1715 56.3366 60.8887 57.179 60.8887 57.179C63.1288 56.9109 61.2142 54.7858 61.2142 54.7858Z" fill="#AF7F5F"/>
<path d="M55.8918 57.1598C57.5574 59.4764 59.1082 57.1598 59.1082 57.1598C57.5 58.0979 55.8918 57.1598 55.8918 57.1598Z" fill="#AF7F5F"/>
<path d="M44.4811 38.1483L41.6858 37.9569C40.8817 40.0437 40.6137 42.6284 40.6137 45.1364C40.6137 45.1364 42.2985 44.7727 42.2985 45.6342L42.8345 50.9184L44.9023 49.0038C44.8257 39.7948 44.4811 38.1483 44.4811 38.1483Z" fill="#686565"/>
<path d="M73.3333 37.9569L70.5381 37.8803C70.5381 37.8803 70.1935 39.7948 70.1552 48.9847L72.2229 50.8992L72.759 45.6151C72.759 44.7535 74.4438 45.1173 74.4438 45.1173C74.4246 42.6092 74.1566 40.0437 73.3333 37.9569Z" fill="#686565"/>
<path d="M40.9008 45.079C39.2926 45.347 38.0482 46.0554 38.9672 51.3779C39.8861 56.7003 41.0157 56.9492 42.6239 56.6812L40.9008 45.079Z" fill="#F4BC95"/>
<path d="M74.1183 45.079L72.3952 56.6812C74.0034 56.9492 75.133 56.7003 76.052 51.3779C76.9518 46.0554 75.7265 45.3662 74.1183 45.079Z" fill="#F4BC95"/>
<path d="M69.4085 44.5621C68.0875 43.241 65.656 42.8007 64.3349 42.6284C64.1052 42.6092 63.8754 42.5901 63.6648 42.5709C63.5883 42.5709 63.4543 42.705 63.4543 42.705C63.4543 42.705 63.3777 42.5518 63.3202 42.5518C62.2672 42.4944 61.3865 42.5518 60.927 42.6475L60.8505 42.6667C60.3335 42.7815 59.7017 42.9156 59.9123 43.6622C60.0272 44.0451 60.2952 44.294 60.6782 44.3323C60.7547 44.3323 60.8505 44.3323 60.927 44.3323C61.0419 44.3132 61.1951 44.2749 61.3482 44.2366C61.4248 44.2175 61.5206 44.1983 61.5971 44.1792C61.6929 44.16 61.7886 44.1409 61.9035 44.1217C62.0375 44.1026 62.3055 43.758 62.3055 43.758C62.3055 43.758 62.5927 44.0451 62.7267 44.0451C63.3394 44.0069 64.0095 44.026 64.6987 44.1026C66.575 44.3132 68.0683 44.8875 68.4512 45.079C68.7193 45.213 68.9299 45.2896 69.1022 45.3087C69.4085 45.347 69.5234 45.1939 69.5617 45.1173C69.6382 44.945 69.5808 44.7344 69.4085 44.5621Z" fill="#686565"/>
<path d="M54.1495 42.6475L54.0729 42.6284C53.6135 42.5326 52.7519 42.4752 51.6798 42.5326C51.6415 42.5326 51.5457 42.6858 51.5457 42.6858C51.5457 42.6858 51.3926 42.5518 51.3351 42.5518C51.1245 42.5709 50.8948 42.5901 50.665 42.6092C49.344 42.7624 46.9125 43.2219 45.5915 44.5429C45.4192 44.7152 45.3617 44.9258 45.4383 45.079C45.4766 45.1556 45.5915 45.3087 45.8978 45.2705C46.051 45.2513 46.2807 45.1747 46.5488 45.0407C46.9317 44.8493 48.425 44.294 50.3013 44.0643C50.9905 43.9877 51.6606 43.9686 52.2733 44.0069C52.4264 44.0069 52.6945 43.7197 52.6945 43.7197C52.6945 43.7197 52.9625 44.0643 53.0965 44.0834C53.1923 44.1026 53.3071 44.1217 53.4029 44.1409C53.4794 44.16 53.556 44.1792 53.6517 44.1983C53.8049 44.2366 53.9389 44.2749 54.0729 44.294C54.1687 44.3132 54.2453 44.3132 54.3218 44.294C54.7048 44.2557 54.9728 44.0069 55.0877 43.6239C55.2983 42.8964 54.6665 42.7624 54.1495 42.6475Z" fill="#686565"/>
<path d="M50.5119 46.5915C48.3102 46.5149 47.1997 48.0657 47.1997 48.0657C47.1997 48.0657 48.7697 49.4442 50.9139 49.2527C52.8094 49.0804 54.2836 48.3912 54.2836 48.3912C54.2836 48.3912 53.0965 46.6872 50.5119 46.5915Z" fill="#CC9169"/>
<path d="M51.6989 47.1084C49.4972 47.1467 47.1997 48.0657 47.1997 48.0657C47.1997 48.0657 48.6165 48.8698 50.7799 48.7358C52.6945 48.7932 54.2836 48.3912 54.2836 48.3912C54.2836 48.3912 53.288 47.1467 51.6989 47.1084Z" fill="#EADAD0"/>
<path d="M52.235 47.1659C52.0627 47.1276 51.8904 47.1084 51.6989 47.1084C50.8948 47.1276 50.0715 47.2616 49.344 47.4147C49.3249 47.5296 49.3057 47.6445 49.3057 47.7785C49.3057 48.1423 49.4206 48.4678 49.6312 48.7166C49.9758 48.7549 50.3587 48.7549 50.7799 48.7358C51.2203 48.7549 51.6606 48.7358 52.0627 48.7166C52.2541 48.4486 52.3881 48.1423 52.3881 47.7785C52.369 47.5679 52.3307 47.3573 52.235 47.1659Z" fill="#38251A"/>
<path d="M64.4881 46.5915C61.9035 46.6872 60.7164 48.372 60.7164 48.372C60.7164 48.372 62.1907 49.0613 64.0861 49.2336C66.2304 49.425 67.8003 48.0466 67.8003 48.0466C67.8003 48.0466 66.6707 46.5149 64.4881 46.5915Z" fill="#CC9169"/>
<path d="M63.3011 47.1084C61.712 47.1467 60.7164 48.3912 60.7164 48.3912C60.7164 48.3912 62.3055 48.8124 64.2201 48.7358C66.3644 48.8698 67.8003 48.0657 67.8003 48.0657C67.8003 48.0657 65.5028 47.1467 63.3011 47.1084Z" fill="#EADAD0"/>
<path d="M65.656 47.4147C64.9285 47.2424 64.1052 47.1276 63.3011 47.1084C63.1096 47.1084 62.9373 47.1276 62.765 47.1659C62.6884 47.3573 62.631 47.5679 62.631 47.7785C62.631 48.1231 62.7459 48.4486 62.9565 48.7166C63.3585 48.7358 63.7797 48.7549 64.2392 48.7358C64.6413 48.7549 65.0242 48.7549 65.3879 48.7166C65.5985 48.4486 65.7134 48.1231 65.7134 47.7785C65.6943 47.6445 65.6751 47.5296 65.656 47.4147Z" fill="#38251A"/>
<path d="M57.5 22.6979C47.9272 22.6979 21.9085 39.7757 20.8555 40.3883C21.7936 40.1012 42.241 38.895 57.5 38.895C73.1227 38.895 94.1445 40.4649 94.1445 40.4649C94.2019 40.3501 67.2642 22.6979 57.5 22.6979ZM20.8555 40.3883C20.8364 40.3883 20.8172 40.4075 20.8172 40.4075C20.8172 40.4075 20.8364 40.4075 20.8555 40.3883Z" fill="#E2A84B"/>
</g>
<defs>
<clipPath id="clip0_2_113">
<rect width="95" height="95" fill="white" transform="translate(10 11)"/>
</clipPath>
</defs>
</svg>
