<svg width="420" height="700" viewBox="0 0 420 700" fill="none" xmlns="http://www.w3.org/2000/svg">
<rect width="420" height="700" rx="20" fill="#56BD74" style="mix-blend-mode:multiply"/>
<circle cx="199.5" cy="306.5" r="57.5" fill="black" fill-opacity="0.5"/>
<g clip-path="url(#clip0_28_15)">
<path d="M199.5 260C173.271 260 152 281.271 152 307.5C152 333.729 173.271 355 199.5 355C225.729 355 247 333.729 247 307.5C247 281.271 225.729 260 199.5 260Z" fill="#337180"/>
<path d="M199.5 283.855C179.818 283.855 162.779 289.082 162.817 289.178C163.64 291.265 174.305 302.599 199.5 302.599C224.676 302.599 235.187 291.265 236.144 289.235C236.202 289.101 219.182 283.855 199.5 283.855Z" fill="#BF8A3D"/>
<path d="M232.124 333.289C230.497 328.062 216.578 323.85 199.423 323.85C182.269 323.85 168.503 328.062 166.876 333.289C166.378 334.916 165.823 337.539 165.287 340.449C173.922 349.429 186.06 355 199.5 355C212.94 355 225.078 349.41 233.713 340.449C233.196 337.539 232.641 334.897 232.124 333.289Z" fill="#BF8A3D"/>
<path d="M209.609 322.874H189.41V329.364H209.609V322.874Z" fill="#724B1D"/>
<path d="M199.423 323.831C192.857 323.831 186.768 324.444 181.695 325.516C185.026 333.308 199.5 338.65 199.5 338.65C199.5 338.65 213.974 333.327 217.305 325.535C212.174 324.463 206.048 323.831 199.423 323.831Z" fill="#E0AF8D"/>
<path d="M189.41 322.874C186.653 323.161 181.695 325.516 181.695 325.516C183.686 330.149 189.602 333.921 194.082 336.218C192.282 333.04 190.463 327.526 189.41 322.874Z" fill="#966524"/>
<path d="M209.59 322.874C208.537 327.526 206.718 333.04 204.918 336.218C209.398 333.94 215.314 330.168 217.305 325.535C217.305 325.535 212.328 323.161 209.59 322.874Z" fill="#966524"/>
<path d="M190.693 314.009C190.693 314.009 192.167 319.562 192.167 326.818C193.259 332.083 205.78 332.025 206.871 326.722C206.871 319.447 208.307 313.99 208.307 313.99H190.693V314.009V314.009Z" fill="#E0AF8D"/>
<path d="M199.5 273.9C190.176 273.9 182.595 275.852 182.595 293.543C182.595 299.535 184.126 307.366 185.754 311.042C188.549 317.302 196.054 320.71 199.5 320.71C202.946 320.71 210.451 317.168 213.246 311.042C214.912 307.385 216.406 299.535 216.406 293.543C216.406 275.852 208.824 273.9 199.5 273.9Z" fill="#F4BC95"/>
<path d="M199.596 315.445C197.107 315.445 192.608 317.264 192.608 317.264L194.809 330.015L199.596 340.909L204.286 330.015L206.488 317.264C206.488 317.264 202.085 315.445 199.596 315.445Z" fill="#686565"/>
<path d="M206.852 311.444C206.833 310.87 206.756 310.276 206.565 309.683C206.469 309.376 206.335 309.07 206.143 308.764C206.086 308.687 206.048 308.61 205.99 308.534C205.952 308.496 205.933 308.457 205.895 308.419L205.799 308.323L205.78 308.304L205.741 308.266C205.722 308.247 205.703 308.228 205.665 308.189C205.627 308.151 205.569 308.094 205.512 308.055C205.416 307.979 205.32 307.921 205.224 307.864C204.822 307.653 204.478 307.577 204.133 307.519C203.789 307.481 203.482 307.462 203.176 307.481C202.563 307.519 201.989 307.634 201.453 307.787C200.898 307.959 200.381 308.17 199.883 308.457C199.749 308.534 199.634 308.61 199.5 308.687C199.366 308.61 199.251 308.534 199.117 308.457C198.619 308.17 198.102 307.959 197.547 307.787C196.992 307.615 196.437 307.5 195.824 307.481C195.518 307.462 195.211 307.481 194.867 307.519C194.522 307.577 194.178 307.653 193.775 307.864C193.68 307.921 193.584 307.979 193.488 308.055C193.431 308.094 193.393 308.132 193.335 308.189C193.316 308.208 193.297 308.228 193.259 308.266L193.22 308.304L193.201 308.323L193.105 308.419C193.067 308.457 193.048 308.496 193.01 308.534C192.952 308.61 192.895 308.687 192.856 308.764C192.665 309.07 192.531 309.376 192.435 309.683C192.244 310.295 192.167 310.87 192.148 311.444C192.11 312.593 192.263 313.684 192.474 314.775C192.665 314.239 192.818 313.722 192.952 313.186C193.105 312.669 193.239 312.152 193.393 311.655C193.546 311.176 193.737 310.697 193.948 310.314C194.063 310.123 194.178 309.951 194.312 309.817C194.35 309.778 194.369 309.759 194.407 309.721C194.426 309.702 194.446 309.683 194.446 309.683L194.465 309.663L194.503 309.625L194.522 309.606L194.503 309.625H194.522C194.541 309.625 194.56 309.625 194.58 309.625C194.675 309.606 194.848 309.587 195.058 309.587C195.25 309.587 199.251 310.506 199.481 310.506C199.711 310.525 203.693 309.587 203.903 309.587C204.095 309.587 204.286 309.606 204.382 309.625C204.401 309.625 204.42 309.625 204.44 309.625H204.459C204.478 309.644 204.44 309.606 204.44 309.606L204.459 309.625L204.497 309.663L204.516 309.683C204.516 309.683 204.535 309.702 204.554 309.721C204.593 309.74 204.612 309.778 204.65 309.817C204.765 309.951 204.899 310.123 205.014 310.314C205.244 310.697 205.416 311.176 205.569 311.655C205.741 312.152 205.875 312.65 206.009 313.186C206.163 313.703 206.297 314.239 206.488 314.775C206.737 313.684 206.89 312.593 206.852 311.444Z" fill="#686565"/>
<path d="M201.951 310.984C201.242 310.85 199.5 311.712 199.5 311.712C199.5 311.712 197.719 310.85 197.011 310.984C195.882 311.195 194.197 312.267 194.197 312.65H204.784C204.803 312.65 203.099 311.176 201.951 310.984Z" fill="#C6896D"/>
<path d="M199.5 312.306C196.36 312.306 194.197 312.669 194.197 312.669C194.197 312.669 196.552 313.971 197.337 314.22C198.122 314.469 201.013 314.392 201.702 314.201C202.41 314.009 204.784 312.669 204.784 312.669C204.784 312.669 202.64 312.306 199.5 312.306Z" fill="#AF7556"/>
<path d="M199.5 272.713C190.636 272.713 182.595 275.833 182.595 293.543C182.595 294.404 185.773 294.117 185.773 294.117C185.964 291.877 187.017 289.005 187.592 288.144C187.783 287.857 187.994 289.235 188.319 289.044C188.874 288.718 189.64 287.876 190.234 287.531C195.384 284.43 202.066 283.204 206.622 283.204C213.074 283.204 216.367 296.549 216.367 293.562C216.406 275.852 208.364 272.713 199.5 272.713Z" fill="#686565"/>
<path d="M201.013 299.421C200.974 297.946 201.07 296.089 201.07 296.089C200.917 297.468 200.668 298.425 200.725 299.669C200.802 301.45 201.549 303.039 201.549 303.039C201.281 301.373 201.032 300.359 201.013 299.421Z" fill="#AF7F5F"/>
<path d="M195.882 303.786C195.882 303.786 193.795 305.547 195.939 306.198C195.939 306.198 194.771 305.222 195.882 303.786Z" fill="#AF7F5F"/>
<path d="M203.214 303.786C204.172 305.337 202.889 306.179 202.889 306.179C205.129 305.911 203.214 303.786 203.214 303.786Z" fill="#AF7F5F"/>
<path d="M197.892 306.16C199.557 308.476 201.108 306.16 201.108 306.16C199.5 307.098 197.892 306.16 197.892 306.16Z" fill="#AF7F5F"/>
<path d="M186.481 287.148L183.686 286.957C182.882 289.044 182.614 291.628 182.614 294.136C182.614 294.136 184.298 293.773 184.298 294.634L184.835 299.918L186.902 298.004C186.826 288.795 186.481 287.148 186.481 287.148Z" fill="#686565"/>
<path d="M215.333 286.957L212.538 286.88C212.538 286.88 212.193 288.795 212.155 297.985L214.223 299.899L214.759 294.615C214.759 293.754 216.444 294.117 216.444 294.117C216.425 291.609 216.157 289.044 215.333 286.957Z" fill="#686565"/>
<path d="M182.901 294.079C181.293 294.347 180.048 295.055 180.967 300.378C181.886 305.7 183.016 305.949 184.624 305.681L182.901 294.079Z" fill="#F4BC95"/>
<path d="M216.118 294.079L214.395 305.681C216.003 305.949 217.133 305.7 218.052 300.378C218.952 295.055 217.727 294.366 216.118 294.079Z" fill="#F4BC95"/>
<path d="M211.408 293.562C210.087 292.241 207.656 291.801 206.335 291.628C206.105 291.609 205.875 291.59 205.665 291.571C205.588 291.571 205.454 291.705 205.454 291.705C205.454 291.705 205.378 291.552 205.32 291.552C204.267 291.494 203.387 291.552 202.927 291.648L202.85 291.667C202.334 291.782 201.702 291.916 201.912 292.662C202.027 293.045 202.295 293.294 202.678 293.332C202.755 293.332 202.85 293.332 202.927 293.332C203.042 293.313 203.195 293.275 203.348 293.237C203.425 293.217 203.521 293.198 203.597 293.179C203.693 293.16 203.789 293.141 203.903 293.122C204.037 293.103 204.306 292.758 204.306 292.758C204.306 292.758 204.593 293.045 204.727 293.045C205.339 293.007 206.009 293.026 206.699 293.103C208.575 293.313 210.068 293.888 210.451 294.079C210.719 294.213 210.93 294.29 211.102 294.309C211.408 294.347 211.523 294.194 211.562 294.117C211.638 293.945 211.581 293.734 211.408 293.562Z" fill="#686565"/>
<path d="M196.15 291.648L196.073 291.628C195.613 291.533 194.752 291.475 193.68 291.533C193.641 291.533 193.546 291.686 193.546 291.686C193.546 291.686 193.393 291.552 193.335 291.552C193.125 291.571 192.895 291.59 192.665 291.609C191.344 291.762 188.913 292.222 187.591 293.543C187.419 293.715 187.362 293.926 187.438 294.079C187.477 294.156 187.591 294.309 187.898 294.27C188.051 294.251 188.281 294.175 188.549 294.041C188.932 293.849 190.425 293.294 192.301 293.064C192.991 292.988 193.661 292.969 194.273 293.007C194.426 293.007 194.694 292.72 194.694 292.72C194.694 292.72 194.962 293.064 195.097 293.083C195.192 293.103 195.307 293.122 195.403 293.141C195.479 293.16 195.556 293.179 195.652 293.198C195.805 293.237 195.939 293.275 196.073 293.294C196.169 293.313 196.245 293.313 196.322 293.294C196.705 293.256 196.973 293.007 197.088 292.624C197.298 291.896 196.666 291.762 196.15 291.648Z" fill="#686565"/>
<path d="M192.512 295.591C190.31 295.515 189.2 297.066 189.2 297.066C189.2 297.066 190.77 298.444 192.914 298.253C194.809 298.08 196.284 297.391 196.284 297.391C196.284 297.391 195.097 295.687 192.512 295.591Z" fill="#CC9169"/>
<path d="M193.699 296.108C191.497 296.147 189.2 297.066 189.2 297.066C189.2 297.066 190.616 297.87 192.78 297.736C194.694 297.793 196.284 297.391 196.284 297.391C196.284 297.391 195.288 296.147 193.699 296.108Z" fill="#EADAD0"/>
<path d="M194.235 296.166C194.063 296.128 193.89 296.108 193.699 296.108C192.895 296.128 192.072 296.262 191.344 296.415C191.325 296.53 191.306 296.644 191.306 296.779C191.306 297.142 191.421 297.468 191.631 297.717C191.976 297.755 192.359 297.755 192.78 297.736C193.22 297.755 193.661 297.736 194.063 297.717C194.254 297.449 194.388 297.142 194.388 296.779C194.369 296.568 194.331 296.357 194.235 296.166Z" fill="#38251A"/>
<path d="M206.488 295.591C203.903 295.687 202.716 297.372 202.716 297.372C202.716 297.372 204.191 298.061 206.086 298.234C208.23 298.425 209.8 297.047 209.8 297.047C209.8 297.047 208.671 295.515 206.488 295.591Z" fill="#CC9169"/>
<path d="M205.301 296.108C203.712 296.147 202.716 297.391 202.716 297.391C202.716 297.391 204.306 297.812 206.22 297.736C208.364 297.87 209.8 297.066 209.8 297.066C209.8 297.066 207.503 296.147 205.301 296.108Z" fill="#EADAD0"/>
<path d="M207.656 296.415C206.928 296.242 206.105 296.128 205.301 296.108C205.11 296.108 204.937 296.128 204.765 296.166C204.688 296.357 204.631 296.568 204.631 296.779C204.631 297.123 204.746 297.449 204.956 297.717C205.359 297.736 205.78 297.755 206.239 297.736C206.641 297.755 207.024 297.755 207.388 297.717C207.599 297.449 207.713 297.123 207.713 296.779C207.694 296.644 207.675 296.53 207.656 296.415Z" fill="#38251A"/>
<path d="M199.5 271.698C189.927 271.698 163.908 288.776 162.855 289.388C163.794 289.101 184.241 287.895 199.5 287.895C215.123 287.895 236.144 289.465 236.144 289.465C236.202 289.35 209.264 271.698 199.5 271.698ZM162.855 289.388C162.836 289.388 162.817 289.407 162.817 289.407C162.817 289.407 162.836 289.407 162.855 289.388Z" fill="#E2A84B"/>
</g>
<path d="M170.059 406L173.077 387.818H179.212C180.395 387.818 181.348 388.025 182.07 388.44C182.792 388.854 183.29 389.419 183.562 390.135C183.84 390.851 183.899 391.665 183.739 392.577C183.615 393.334 183.381 393.982 183.038 394.521C182.695 395.054 182.278 395.489 181.786 395.826C181.301 396.157 180.777 396.397 180.215 396.545L180.188 396.687C180.768 396.729 181.304 396.936 181.795 397.309C182.286 397.676 182.653 398.19 182.896 398.853C183.145 399.516 183.195 400.309 183.047 401.233C182.893 402.15 182.55 402.97 182.017 403.692C181.49 404.408 180.768 404.973 179.851 405.387C178.939 405.796 177.833 406 176.531 406H170.059ZM171.967 404.509H176.779C178.182 404.509 179.271 404.198 180.046 403.576C180.822 402.955 181.292 402.174 181.458 401.233C181.57 400.54 181.505 399.913 181.263 399.35C181.02 398.782 180.623 398.333 180.073 398.001C179.522 397.67 178.839 397.504 178.022 397.504H173.139L171.967 404.509ZM173.388 396.03H178.013C178.729 396.03 179.38 395.882 179.966 395.586C180.552 395.29 181.038 394.882 181.422 394.361C181.807 393.84 182.053 393.246 182.159 392.577C182.325 391.612 182.144 390.828 181.618 390.224C181.097 389.614 180.212 389.31 178.963 389.31H174.489L173.388 396.03ZM202.643 397.007C202.329 398.883 201.725 400.513 200.831 401.898C199.938 403.283 198.846 404.355 197.556 405.112C196.265 405.87 194.863 406.249 193.347 406.249C191.791 406.249 190.477 405.861 189.406 405.086C188.34 404.304 187.586 403.209 187.142 401.801C186.698 400.386 186.633 398.723 186.947 396.811C187.26 394.935 187.864 393.305 188.758 391.92C189.651 390.535 190.746 389.464 192.042 388.706C193.339 387.948 194.747 387.57 196.268 387.57C197.807 387.57 199.109 387.957 200.175 388.733C201.24 389.508 201.997 390.603 202.447 392.017C202.897 393.426 202.962 395.089 202.643 397.007ZM201.053 396.811C201.326 395.19 201.29 393.808 200.947 392.665C200.61 391.523 200.03 390.65 199.207 390.047C198.384 389.437 197.387 389.132 196.215 389.132C195.002 389.132 193.862 389.446 192.797 390.073C191.732 390.695 190.823 391.594 190.072 392.772C189.32 393.944 188.805 395.355 188.527 397.007C188.26 398.623 188.296 400.004 188.633 401.153C188.971 402.295 189.551 403.171 190.373 403.781C191.202 404.384 192.205 404.686 193.383 404.686C194.602 404.686 195.744 404.372 196.81 403.745C197.875 403.118 198.781 402.218 199.526 401.046C200.278 399.868 200.787 398.457 201.053 396.811ZM205.626 387.818H207.517L211.485 396.447H211.662L218.472 387.818H220.398L212.124 398.125L210.819 406H209.168L210.464 398.125L205.626 387.818Z" fill="white"/>
<path d="M66.1629 60.8182H70.4686L74.6146 68.6484H74.7921L78.9381 60.8182H83.2438L76.6121 72.5724V79H72.7946V72.5724L66.1629 60.8182ZM100.953 69.9091C100.953 71.8918 100.577 73.5786 99.8254 74.9695C99.0797 76.3603 98.0617 77.4227 96.7714 78.1566C95.4871 78.8846 94.043 79.2486 92.4391 79.2486C90.8233 79.2486 89.3732 78.8816 88.0889 78.1477C86.8046 77.4138 85.7896 76.3514 85.0438 74.9606C84.2981 73.5697 83.9252 71.8859 83.9252 69.9091C83.9252 67.9264 84.2981 66.2396 85.0438 64.8487C85.7896 63.4579 86.8046 62.3984 88.0889 61.6705C89.3732 60.9366 90.8233 60.5696 92.4391 60.5696C94.043 60.5696 95.4871 60.9366 96.7714 61.6705C98.0617 62.3984 99.0797 63.4579 99.8254 64.8487C100.577 66.2396 100.953 67.9264 100.953 69.9091ZM97.0555 69.9091C97.0555 68.6248 96.8632 67.5417 96.4785 66.6598C96.0997 65.7779 95.5641 65.1091 94.8716 64.6534C94.1791 64.1977 93.3683 63.9698 92.4391 63.9698C91.5098 63.9698 90.699 64.1977 90.0065 64.6534C89.3141 65.1091 88.7755 65.7779 88.3908 66.6598C88.012 67.5417 87.8226 68.6248 87.8226 69.9091C87.8226 71.1934 88.012 72.2765 88.3908 73.1584C88.7755 74.0402 89.3141 74.709 90.0065 75.1648C90.699 75.6205 91.5098 75.8484 92.4391 75.8484C93.3683 75.8484 94.1791 75.6205 94.8716 75.1648C95.5641 74.709 96.0997 74.0402 96.4785 73.1584C96.8632 72.2765 97.0555 71.1934 97.0555 69.9091ZM115.031 60.8182H118.875V72.6257C118.875 73.9515 118.558 75.1115 117.925 76.1058C117.298 77.1001 116.419 77.8755 115.288 78.4318C114.158 78.9822 112.841 79.2575 111.338 79.2575C109.829 79.2575 108.509 78.9822 107.378 78.4318C106.248 77.8755 105.369 77.1001 104.742 76.1058C104.114 75.1115 103.8 73.9515 103.8 72.6257V60.8182H107.645V72.2972C107.645 72.9897 107.795 73.6052 108.097 74.1438C108.405 74.6824 108.837 75.1056 109.394 75.4134C109.95 75.7211 110.598 75.875 111.338 75.875C112.083 75.875 112.732 75.7211 113.282 75.4134C113.838 75.1056 114.267 74.6824 114.569 74.1438C114.877 73.6052 115.031 72.9897 115.031 72.2972V60.8182ZM143.866 67.1836H139.978C139.907 66.6805 139.762 66.2337 139.543 65.843C139.324 65.4465 139.043 65.1091 138.699 64.831C138.356 64.5528 137.959 64.3397 137.51 64.1918C137.066 64.0438 136.583 63.9698 136.063 63.9698C135.121 63.9698 134.302 64.2036 133.603 64.6712C132.905 65.1328 132.363 65.8075 131.979 66.6953C131.594 67.5772 131.402 68.6484 131.402 69.9091C131.402 71.2053 131.594 72.2943 131.979 73.1761C132.369 74.058 132.914 74.7238 133.612 75.1737C134.311 75.6235 135.119 75.8484 136.036 75.8484C136.551 75.8484 137.027 75.7803 137.465 75.6442C137.909 75.508 138.303 75.3098 138.646 75.0494C138.989 74.783 139.273 74.4605 139.498 74.0817C139.729 73.7029 139.889 73.2708 139.978 72.7855L143.866 72.8033C143.766 73.6378 143.514 74.4427 143.112 75.218C142.715 75.9875 142.179 76.677 141.505 77.2866C140.836 77.8903 140.037 78.3697 139.108 78.7248C138.184 79.074 137.14 79.2486 135.974 79.2486C134.352 79.2486 132.902 78.8816 131.624 78.1477C130.351 77.4138 129.345 76.3514 128.605 74.9606C127.871 73.5697 127.504 71.8859 127.504 69.9091C127.504 67.9264 127.877 66.2396 128.623 64.8487C129.369 63.4579 130.381 62.3984 131.659 61.6705C132.938 60.9366 134.376 60.5696 135.974 60.5696C137.027 60.5696 138.004 60.7176 138.903 61.0135C139.809 61.3094 140.611 61.7415 141.309 62.3097C142.008 62.8719 142.576 63.5614 143.014 64.3782C143.458 65.195 143.742 66.1301 143.866 67.1836ZM149.415 79H145.295L151.572 60.8182H156.526L162.794 79H158.674L154.12 64.973H153.978L149.415 79ZM149.157 71.8533H158.887V74.854H149.157V71.8533ZM180.19 60.8182V79H176.87L168.959 67.5565H168.826V79H164.982V60.8182H168.356L176.204 72.2528H176.364V60.8182H180.19ZM185.727 60.8182V67.7251H183.029V60.8182H185.727ZM187.898 63.9876V60.8182H202.831V63.9876H197.264V79H193.464V63.9876H187.898ZM223.132 66.6953C223.008 66.2633 222.833 65.8815 222.608 65.5501C222.383 65.2127 222.108 64.9286 221.783 64.6978C221.463 64.4611 221.096 64.2805 220.682 64.1562C220.273 64.032 219.821 63.9698 219.323 63.9698C218.394 63.9698 217.577 64.2006 216.873 64.6623C216.175 65.1239 215.63 65.7957 215.24 66.6776C214.849 67.5535 214.654 68.6248 214.654 69.8913C214.654 71.1579 214.846 72.2351 215.231 73.1229C215.615 74.0107 216.16 74.6883 216.864 75.1559C217.569 75.6175 218.4 75.8484 219.359 75.8484C220.229 75.8484 220.972 75.6945 221.587 75.3867C222.209 75.073 222.682 74.6321 223.008 74.0639C223.339 73.4957 223.505 72.824 223.505 72.0487L224.286 72.1641H219.599V69.2699H227.207V71.5604C227.207 73.1584 226.87 74.5315 226.195 75.6797C225.52 76.822 224.591 77.7038 223.407 78.3253C222.223 78.9408 220.868 79.2486 219.341 79.2486C217.637 79.2486 216.139 78.8728 214.849 78.1211C213.559 77.3635 212.553 76.2893 211.83 74.8984C211.114 73.5017 210.756 71.8445 210.756 69.9268C210.756 68.4531 210.969 67.1392 211.395 65.9851C211.828 64.825 212.431 63.8426 213.207 63.0376C213.982 62.2327 214.884 61.6201 215.914 61.1999C216.944 60.7797 218.06 60.5696 219.261 60.5696C220.291 60.5696 221.25 60.7205 222.138 61.0224C223.025 61.3183 223.813 61.7385 224.499 62.283C225.192 62.8275 225.757 63.4756 226.195 64.2273C226.633 64.973 226.914 65.7957 227.038 66.6953H223.132ZM246.803 69.9091C246.803 71.8918 246.427 73.5786 245.675 74.9695C244.929 76.3603 243.911 77.4227 242.621 78.1566C241.337 78.8846 239.893 79.2486 238.289 79.2486C236.673 79.2486 235.223 78.8816 233.939 78.1477C232.654 77.4138 231.639 76.3514 230.893 74.9606C230.148 73.5697 229.775 71.8859 229.775 69.9091C229.775 67.9264 230.148 66.2396 230.893 64.8487C231.639 63.4579 232.654 62.3984 233.939 61.6705C235.223 60.9366 236.673 60.5696 238.289 60.5696C239.893 60.5696 241.337 60.9366 242.621 61.6705C243.911 62.3984 244.929 63.4579 245.675 64.8487C246.427 66.2396 246.803 67.9264 246.803 69.9091ZM242.905 69.9091C242.905 68.6248 242.713 67.5417 242.328 66.6598C241.949 65.7779 241.414 65.1091 240.721 64.6534C240.029 64.1977 239.218 63.9698 238.289 63.9698C237.359 63.9698 236.549 64.1977 235.856 64.6534C235.164 65.1091 234.625 65.7779 234.24 66.6598C233.862 67.5417 233.672 68.6248 233.672 69.9091C233.672 71.1934 233.862 72.2765 234.24 73.1584C234.625 74.0402 235.164 74.709 235.856 75.1648C236.549 75.6205 237.359 75.8484 238.289 75.8484C239.218 75.8484 240.029 75.6205 240.721 75.1648C241.414 74.709 241.949 74.0402 242.328 73.1584C242.713 72.2765 242.905 71.1934 242.905 69.9091ZM254.744 63.9876V60.8182H269.676V63.9876H264.11V79H260.31V63.9876H254.744ZM288.013 69.9091C288.013 71.8918 287.638 73.5786 286.886 74.9695C286.14 76.3603 285.122 77.4227 283.832 78.1566C282.548 78.8846 281.104 79.2486 279.5 79.2486C277.884 79.2486 276.434 78.8816 275.149 78.1477C273.865 77.4138 272.85 76.3514 272.104 74.9606C271.359 73.5697 270.986 71.8859 270.986 69.9091C270.986 67.9264 271.359 66.2396 272.104 64.8487C272.85 63.4579 273.865 62.3984 275.149 61.6705C276.434 60.9366 277.884 60.5696 279.5 60.5696C281.104 60.5696 282.548 60.9366 283.832 61.6705C285.122 62.3984 286.14 63.4579 286.886 64.8487C287.638 66.2396 288.013 67.9264 288.013 69.9091ZM284.116 69.9091C284.116 68.6248 283.924 67.5417 283.539 66.6598C283.16 65.7779 282.625 65.1091 281.932 64.6534C281.24 64.1977 280.429 63.9698 279.5 63.9698C278.57 63.9698 277.76 64.1977 277.067 64.6534C276.375 65.1091 275.836 65.7779 275.451 66.6598C275.073 67.5417 274.883 68.6248 274.883 69.9091C274.883 71.1934 275.073 72.2765 275.451 73.1584C275.836 74.0402 276.375 74.709 277.067 75.1648C277.76 75.6205 278.57 75.8484 279.5 75.8484C280.429 75.8484 281.24 75.6205 281.932 75.1648C282.625 74.709 283.16 74.0402 283.539 73.1584C283.924 72.2765 284.116 71.1934 284.116 69.9091ZM300.74 79L295.537 60.8182H299.737L302.746 73.4513H302.897L306.217 60.8182H309.813L313.124 73.478H313.284L316.294 60.8182H320.493L315.291 79H311.544L308.082 67.1126H307.94L304.486 79H300.74ZM323.853 79H319.734L326.011 60.8182H330.964L337.232 79H333.113L328.559 64.973H328.417L323.853 79ZM323.596 71.8533H333.326V74.854H323.596V71.8533ZM339.421 79V60.8182H346.594C347.967 60.8182 349.139 61.0638 350.11 61.555C351.086 62.0404 351.829 62.7299 352.338 63.6236C352.853 64.5114 353.11 65.556 353.11 66.7575C353.11 67.9648 352.85 69.0036 352.329 69.8736C351.808 70.7377 351.054 71.4006 350.065 71.8622C349.083 72.3239 347.893 72.5547 346.496 72.5547H341.693V69.4652H345.875C346.609 69.4652 347.218 69.3646 347.704 69.1634C348.189 68.9621 348.55 68.6603 348.787 68.2578C349.029 67.8554 349.151 67.3552 349.151 66.7575C349.151 66.1538 349.029 65.6448 348.787 65.2305C348.55 64.8162 348.186 64.5025 347.695 64.2894C347.209 64.0704 346.597 63.9609 345.857 63.9609H343.265V79H339.421ZM349.239 70.7259L353.758 79H349.515L345.094 70.7259H349.239ZM360.275 60.8182L359.928 73.549H356.679L356.324 60.8182H360.275ZM358.304 79.2308C357.718 79.2308 357.215 79.0237 356.795 78.6094C356.374 78.1892 356.167 77.6861 356.173 77.1001C356.167 76.5201 356.374 76.023 356.795 75.6087C357.215 75.1944 357.718 74.9872 358.304 74.9872C358.866 74.9872 359.36 75.1944 359.786 75.6087C360.212 76.023 360.429 76.5201 360.434 77.1001C360.429 77.4908 360.325 77.8488 360.124 78.1744C359.928 78.494 359.671 78.7514 359.351 78.9467C359.032 79.1361 358.683 79.2308 358.304 79.2308Z" fill="white"/>
<defs>
<clipPath id="clip0_28_15">
<rect width="95" height="95" fill="white" transform="translate(152 260)"/>
</clipPath>
</defs>
</svg>
