<svg width="428" height="708" viewBox="0 0 428 708" fill="none" xmlns="http://www.w3.org/2000/svg">
<g filter="url(#filter0_d_28_19)">
<rect x="4" width="420" height="700" rx="20" fill="#44CCBC" style="mix-blend-mode:multiply" shape-rendering="crispEdges"/>
</g>
<circle cx="219.5" cy="306.5" r="57.5" fill="black" fill-opacity="0.5"/>
<g clip-path="url(#clip0_28_19)">
<path d="M219.5 260C193.271 260 172 281.271 172 307.5C172 333.729 193.271 355 219.5 355C245.729 355 267 333.729 267 307.5C267 281.271 245.729 260 219.5 260Z" fill="#337180"/>
<path d="M219.5 283.855C199.818 283.855 182.779 289.082 182.817 289.178C183.64 291.265 194.305 302.599 219.5 302.599C244.676 302.599 255.187 291.265 256.144 289.235C256.202 289.101 239.182 283.855 219.5 283.855Z" fill="#BF8A3D"/>
<path d="M252.124 333.289C250.497 328.062 236.578 323.85 219.423 323.85C202.269 323.85 188.503 328.062 186.876 333.289C186.378 334.916 185.823 337.539 185.287 340.449C193.922 349.429 206.06 355 219.5 355C232.94 355 245.078 349.41 253.713 340.449C253.196 337.539 252.641 334.897 252.124 333.289Z" fill="#BF8A3D"/>
<path d="M229.609 322.874H209.41V329.364H229.609V322.874Z" fill="#724B1D"/>
<path d="M219.423 323.831C212.857 323.831 206.768 324.444 201.695 325.516C205.026 333.308 219.5 338.65 219.5 338.65C219.5 338.65 233.974 333.327 237.305 325.535C232.174 324.463 226.048 323.831 219.423 323.831Z" fill="#E0AF8D"/>
<path d="M209.41 322.874C206.653 323.161 201.695 325.516 201.695 325.516C203.686 330.149 209.602 333.921 214.082 336.218C212.282 333.04 210.463 327.526 209.41 322.874Z" fill="#966524"/>
<path d="M229.59 322.874C228.537 327.526 226.718 333.04 224.918 336.218C229.398 333.94 235.314 330.168 237.305 325.535C237.305 325.535 232.328 323.161 229.59 322.874Z" fill="#966524"/>
<path d="M210.693 314.009C210.693 314.009 212.167 319.562 212.167 326.818C213.259 332.083 225.78 332.025 226.871 326.722C226.871 319.447 228.307 313.99 228.307 313.99H210.693V314.009Z" fill="#E0AF8D"/>
<path d="M219.5 273.9C210.176 273.9 202.594 275.852 202.594 293.543C202.594 299.535 204.126 307.366 205.753 311.042C208.549 317.302 216.054 320.71 219.5 320.71C222.946 320.71 230.451 317.168 233.246 311.042C234.912 307.385 236.405 299.535 236.405 293.543C236.405 275.852 228.824 273.9 219.5 273.9Z" fill="#F4BC95"/>
<path d="M219.596 315.445C217.107 315.445 212.608 317.264 212.608 317.264L214.809 330.015L219.596 340.909L224.286 330.015L226.488 317.264C226.488 317.264 222.085 315.445 219.596 315.445Z" fill="#686565"/>
<path d="M226.852 311.444C226.833 310.87 226.756 310.276 226.565 309.683C226.469 309.376 226.335 309.07 226.143 308.764C226.086 308.687 226.048 308.61 225.99 308.534C225.952 308.496 225.933 308.457 225.895 308.419L225.799 308.323L225.78 308.304L225.741 308.266C225.722 308.247 225.703 308.228 225.665 308.189C225.627 308.151 225.569 308.094 225.512 308.055C225.416 307.979 225.32 307.921 225.224 307.864C224.822 307.653 224.478 307.577 224.133 307.519C223.789 307.481 223.482 307.462 223.176 307.481C222.563 307.519 221.989 307.634 221.453 307.787C220.898 307.959 220.381 308.17 219.883 308.457C219.749 308.534 219.634 308.61 219.5 308.687C219.366 308.61 219.251 308.534 219.117 308.457C218.619 308.17 218.102 307.959 217.547 307.787C216.992 307.615 216.437 307.5 215.824 307.481C215.518 307.462 215.211 307.481 214.867 307.519C214.522 307.577 214.178 307.653 213.775 307.864C213.68 307.921 213.584 307.979 213.488 308.055C213.431 308.094 213.393 308.132 213.335 308.189C213.316 308.208 213.297 308.228 213.259 308.266L213.22 308.304L213.201 308.323L213.105 308.419C213.067 308.457 213.048 308.496 213.01 308.534C212.952 308.61 212.895 308.687 212.856 308.764C212.665 309.07 212.531 309.376 212.435 309.683C212.244 310.295 212.167 310.87 212.148 311.444C212.11 312.593 212.263 313.684 212.474 314.775C212.665 314.239 212.818 313.722 212.952 313.186C213.105 312.669 213.239 312.152 213.393 311.655C213.546 311.176 213.737 310.697 213.948 310.314C214.063 310.123 214.178 309.951 214.312 309.817C214.35 309.778 214.369 309.759 214.407 309.721C214.426 309.702 214.446 309.683 214.446 309.683L214.465 309.663L214.503 309.625L214.522 309.606L214.503 309.625H214.522C214.541 309.625 214.56 309.625 214.58 309.625C214.675 309.606 214.848 309.587 215.058 309.587C215.25 309.587 219.251 310.506 219.481 310.506C219.711 310.525 223.693 309.587 223.903 309.587C224.095 309.587 224.286 309.606 224.382 309.625C224.401 309.625 224.42 309.625 224.44 309.625H224.459C224.478 309.644 224.44 309.606 224.44 309.606L224.459 309.625L224.497 309.663L224.516 309.683C224.516 309.683 224.535 309.702 224.554 309.721C224.593 309.74 224.612 309.778 224.65 309.817C224.765 309.951 224.899 310.123 225.014 310.314C225.244 310.697 225.416 311.176 225.569 311.655C225.741 312.152 225.875 312.65 226.009 313.186C226.163 313.703 226.297 314.239 226.488 314.775C226.737 313.684 226.89 312.593 226.852 311.444Z" fill="#686565"/>
<path d="M221.951 310.984C221.242 310.85 219.5 311.712 219.5 311.712C219.5 311.712 217.719 310.85 217.011 310.984C215.881 311.195 214.197 312.267 214.197 312.65H224.784C224.803 312.65 223.099 311.176 221.951 310.984Z" fill="#C6896D"/>
<path d="M219.5 312.306C216.36 312.306 214.197 312.669 214.197 312.669C214.197 312.669 216.552 313.971 217.337 314.22C218.121 314.469 221.012 314.392 221.702 314.201C222.41 314.009 224.784 312.669 224.784 312.669C224.784 312.669 222.64 312.306 219.5 312.306Z" fill="#AF7556"/>
<path d="M219.5 272.713C210.636 272.713 202.594 275.833 202.594 293.543C202.594 294.404 205.773 294.117 205.773 294.117C205.964 291.877 207.017 289.005 207.591 288.144C207.783 287.857 207.994 289.235 208.319 289.044C208.874 288.718 209.64 287.876 210.234 287.531C215.384 284.43 222.065 283.204 226.622 283.204C233.074 283.204 236.367 296.549 236.367 293.562C236.405 275.852 228.364 272.713 219.5 272.713Z" fill="#686565"/>
<path d="M221.013 299.421C220.974 297.946 221.07 296.089 221.07 296.089C220.917 297.468 220.668 298.425 220.725 299.669C220.802 301.45 221.549 303.039 221.549 303.039C221.281 301.373 221.032 300.359 221.013 299.421Z" fill="#AF7F5F"/>
<path d="M215.882 303.786C215.882 303.786 213.795 305.547 215.939 306.198C215.939 306.198 214.771 305.222 215.882 303.786Z" fill="#AF7F5F"/>
<path d="M223.214 303.786C224.172 305.337 222.889 306.179 222.889 306.179C225.129 305.911 223.214 303.786 223.214 303.786Z" fill="#AF7F5F"/>
<path d="M217.892 306.16C219.558 308.476 221.108 306.16 221.108 306.16C219.5 307.098 217.892 306.16 217.892 306.16Z" fill="#AF7F5F"/>
<path d="M206.481 287.148L203.686 286.957C202.882 289.044 202.614 291.628 202.614 294.136C202.614 294.136 204.298 293.773 204.298 294.634L204.835 299.918L206.902 298.004C206.826 288.795 206.481 287.148 206.481 287.148Z" fill="#686565"/>
<path d="M235.333 286.957L232.538 286.88C232.538 286.88 232.193 288.795 232.155 297.985L234.223 299.899L234.759 294.615C234.759 293.754 236.444 294.117 236.444 294.117C236.425 291.609 236.157 289.044 235.333 286.957Z" fill="#686565"/>
<path d="M202.901 294.079C201.293 294.347 200.048 295.055 200.967 300.378C201.886 305.7 203.016 305.949 204.624 305.681L202.901 294.079Z" fill="#F4BC95"/>
<path d="M236.118 294.079L234.395 305.681C236.003 305.949 237.133 305.7 238.052 300.378C238.952 295.055 237.726 294.366 236.118 294.079Z" fill="#F4BC95"/>
<path d="M231.408 293.562C230.087 292.241 227.656 291.801 226.335 291.628C226.105 291.609 225.875 291.59 225.665 291.571C225.588 291.571 225.454 291.705 225.454 291.705C225.454 291.705 225.378 291.552 225.32 291.552C224.267 291.494 223.387 291.552 222.927 291.648L222.85 291.667C222.334 291.782 221.702 291.916 221.912 292.662C222.027 293.045 222.295 293.294 222.678 293.332C222.755 293.332 222.85 293.332 222.927 293.332C223.042 293.313 223.195 293.275 223.348 293.237C223.425 293.217 223.521 293.198 223.597 293.179C223.693 293.16 223.789 293.141 223.903 293.122C224.037 293.103 224.306 292.758 224.306 292.758C224.306 292.758 224.593 293.045 224.727 293.045C225.339 293.007 226.009 293.026 226.699 293.103C228.575 293.313 230.068 293.888 230.451 294.079C230.719 294.213 230.93 294.29 231.102 294.309C231.408 294.347 231.523 294.194 231.562 294.117C231.638 293.945 231.581 293.734 231.408 293.562Z" fill="#686565"/>
<path d="M216.15 291.648L216.073 291.628C215.613 291.533 214.752 291.475 213.68 291.533C213.641 291.533 213.546 291.686 213.546 291.686C213.546 291.686 213.393 291.552 213.335 291.552C213.125 291.571 212.895 291.59 212.665 291.609C211.344 291.762 208.913 292.222 207.591 293.543C207.419 293.715 207.362 293.926 207.438 294.079C207.477 294.156 207.591 294.309 207.898 294.27C208.051 294.251 208.281 294.175 208.549 294.041C208.932 293.849 210.425 293.294 212.301 293.064C212.991 292.988 213.661 292.969 214.273 293.007C214.426 293.007 214.694 292.72 214.694 292.72C214.694 292.72 214.962 293.064 215.097 293.083C215.192 293.103 215.307 293.122 215.403 293.141C215.479 293.16 215.556 293.179 215.652 293.198C215.805 293.237 215.939 293.275 216.073 293.294C216.169 293.313 216.245 293.313 216.322 293.294C216.705 293.256 216.973 293.007 217.088 292.624C217.298 291.896 216.666 291.762 216.15 291.648Z" fill="#686565"/>
<path d="M212.512 295.591C210.31 295.515 209.2 297.066 209.2 297.066C209.2 297.066 210.77 298.444 212.914 298.253C214.809 298.08 216.284 297.391 216.284 297.391C216.284 297.391 215.097 295.687 212.512 295.591Z" fill="#CC9169"/>
<path d="M213.699 296.108C211.497 296.147 209.2 297.066 209.2 297.066C209.2 297.066 210.616 297.87 212.78 297.736C214.694 297.793 216.284 297.391 216.284 297.391C216.284 297.391 215.288 296.147 213.699 296.108Z" fill="#EADAD0"/>
<path d="M214.235 296.166C214.063 296.128 213.89 296.108 213.699 296.108C212.895 296.128 212.071 296.262 211.344 296.415C211.325 296.53 211.306 296.644 211.306 296.779C211.306 297.142 211.421 297.468 211.631 297.717C211.976 297.755 212.359 297.755 212.78 297.736C213.22 297.755 213.661 297.736 214.063 297.717C214.254 297.449 214.388 297.142 214.388 296.779C214.369 296.568 214.331 296.357 214.235 296.166Z" fill="#38251A"/>
<path d="M226.488 295.591C223.903 295.687 222.716 297.372 222.716 297.372C222.716 297.372 224.191 298.061 226.086 298.234C228.23 298.425 229.8 297.047 229.8 297.047C229.8 297.047 228.671 295.515 226.488 295.591Z" fill="#CC9169"/>
<path d="M225.301 296.108C223.712 296.147 222.716 297.391 222.716 297.391C222.716 297.391 224.306 297.812 226.22 297.736C228.364 297.87 229.8 297.066 229.8 297.066C229.8 297.066 227.503 296.147 225.301 296.108Z" fill="#EADAD0"/>
<path d="M227.656 296.415C226.928 296.242 226.105 296.128 225.301 296.108C225.11 296.108 224.937 296.128 224.765 296.166C224.688 296.357 224.631 296.568 224.631 296.779C224.631 297.123 224.746 297.449 224.956 297.717C225.359 297.736 225.78 297.755 226.239 297.736C226.641 297.755 227.024 297.755 227.388 297.717C227.599 297.449 227.713 297.123 227.713 296.779C227.694 296.644 227.675 296.53 227.656 296.415Z" fill="#38251A"/>
<path d="M219.5 271.698C209.927 271.698 183.909 288.776 182.856 289.388C183.794 289.101 204.241 287.895 219.5 287.895C235.123 287.895 256.145 289.465 256.145 289.465C256.202 289.35 229.264 271.698 219.5 271.698ZM182.856 289.388C182.836 289.388 182.817 289.407 182.817 289.407C182.817 289.407 182.836 289.407 182.856 289.388Z" fill="#E2A84B"/>
</g>
<path d="M190.059 406L193.077 387.818H199.212C200.395 387.818 201.348 388.025 202.07 388.44C202.792 388.854 203.29 389.419 203.562 390.135C203.84 390.851 203.899 391.665 203.739 392.577C203.615 393.334 203.381 393.982 203.038 394.521C202.695 395.054 202.278 395.489 201.786 395.826C201.301 396.157 200.777 396.397 200.215 396.545L200.188 396.687C200.768 396.729 201.304 396.936 201.795 397.309C202.286 397.676 202.653 398.19 202.896 398.853C203.145 399.516 203.195 400.309 203.047 401.233C202.893 402.15 202.55 402.97 202.017 403.692C201.49 404.408 200.768 404.973 199.851 405.387C198.939 405.796 197.833 406 196.531 406H190.059ZM191.967 404.509H196.779C198.182 404.509 199.271 404.198 200.046 403.576C200.822 402.955 201.292 402.174 201.458 401.233C201.57 400.54 201.505 399.913 201.263 399.35C201.02 398.782 200.623 398.333 200.073 398.001C199.522 397.67 198.839 397.504 198.022 397.504H193.139L191.967 404.509ZM193.388 396.03H198.013C198.729 396.03 199.38 395.882 199.966 395.586C200.552 395.29 201.038 394.882 201.422 394.361C201.807 393.84 202.053 393.246 202.159 392.577C202.325 391.612 202.144 390.828 201.618 390.224C201.097 389.614 200.212 389.31 198.963 389.31H194.489L193.388 396.03ZM222.643 397.007C222.329 398.883 221.725 400.513 220.831 401.898C219.938 403.283 218.846 404.355 217.556 405.112C216.265 405.87 214.863 406.249 213.347 406.249C211.791 406.249 210.477 405.861 209.406 405.086C208.34 404.304 207.586 403.209 207.142 401.801C206.698 400.386 206.633 398.723 206.947 396.811C207.26 394.935 207.864 393.305 208.758 391.92C209.651 390.535 210.746 389.464 212.042 388.706C213.339 387.948 214.747 387.57 216.268 387.57C217.807 387.57 219.109 387.957 220.175 388.733C221.24 389.508 221.997 390.603 222.447 392.017C222.897 393.426 222.962 395.089 222.643 397.007ZM221.053 396.811C221.326 395.19 221.29 393.808 220.947 392.665C220.61 391.523 220.03 390.65 219.207 390.047C218.384 389.437 217.387 389.132 216.215 389.132C215.002 389.132 213.862 389.446 212.797 390.073C211.732 390.695 210.823 391.594 210.072 392.772C209.32 393.944 208.805 395.355 208.527 397.007C208.26 398.623 208.296 400.004 208.633 401.153C208.971 402.295 209.551 403.171 210.373 403.781C211.202 404.384 212.205 404.686 213.383 404.686C214.602 404.686 215.744 404.372 216.81 403.745C217.875 403.118 218.781 402.218 219.526 401.046C220.278 399.868 220.787 398.457 221.053 396.811ZM225.626 387.818H227.517L231.485 396.447H231.662L238.472 387.818H240.398L232.124 398.125L230.819 406H229.168L230.464 398.125L225.626 387.818Z" fill="white"/>
<path d="M73.7986 56.8182H78.1044L82.2503 64.6484H82.4279L86.5738 56.8182H90.8796L84.2478 68.5724V75H80.4304V68.5724L73.7986 56.8182ZM108.589 65.9091C108.589 67.8918 108.213 69.5786 107.461 70.9695C106.715 72.3603 105.697 73.4227 104.407 74.1566C103.123 74.8846 101.679 75.2486 100.075 75.2486C98.459 75.2486 97.009 74.8816 95.7247 74.1477C94.4403 73.4138 93.4253 72.3514 92.6796 70.9606C91.9338 69.5697 91.5609 67.8859 91.5609 65.9091C91.5609 63.9264 91.9338 62.2396 92.6796 60.8487C93.4253 59.4579 94.4403 58.3984 95.7247 57.6705C97.009 56.9366 98.459 56.5696 100.075 56.5696C101.679 56.5696 103.123 56.9366 104.407 57.6705C105.697 58.3984 106.715 59.4579 107.461 60.8487C108.213 62.2396 108.589 63.9264 108.589 65.9091ZM104.691 65.9091C104.691 64.6248 104.499 63.5417 104.114 62.6598C103.735 61.7779 103.2 61.1091 102.507 60.6534C101.815 60.1977 101.004 59.9698 100.075 59.9698C99.1456 59.9698 98.3347 60.1977 97.6423 60.6534C96.9498 61.1091 96.4112 61.7779 96.0265 62.6598C95.6477 63.5417 95.4583 64.6248 95.4583 65.9091C95.4583 67.1934 95.6477 68.2765 96.0265 69.1584C96.4112 70.0402 96.9498 70.709 97.6423 71.1648C98.3347 71.6205 99.1456 71.8484 100.075 71.8484C101.004 71.8484 101.815 71.6205 102.507 71.1648C103.2 70.709 103.735 70.0402 104.114 69.1584C104.499 68.2765 104.691 67.1934 104.691 65.9091ZM122.667 56.8182H126.511V68.6257C126.511 69.9515 126.194 71.1115 125.561 72.1058C124.933 73.1001 124.055 73.8755 122.924 74.4318C121.794 74.9822 120.477 75.2575 118.973 75.2575C117.464 75.2575 116.144 74.9822 115.014 74.4318C113.884 73.8755 113.005 73.1001 112.377 72.1058C111.75 71.1115 111.436 69.9515 111.436 68.6257V56.8182H115.28V68.2972C115.28 68.9897 115.431 69.6052 115.733 70.1438C116.041 70.6824 116.473 71.1056 117.029 71.4134C117.586 71.7211 118.234 71.875 118.973 71.875C119.719 71.875 120.367 71.7211 120.918 71.4134C121.474 71.1056 121.903 70.6824 122.205 70.1438C122.513 69.6052 122.667 68.9897 122.667 68.2972V56.8182ZM135.46 56.8182H140.2L145.208 69.0341H145.421L150.428 56.8182H155.168V75H151.44V63.1658H151.289L146.584 74.9112H144.045L139.339 63.1214H139.188V75H135.46V56.8182ZM169.566 56.8182H173.41V68.6257C173.41 69.9515 173.094 71.1115 172.46 72.1058C171.833 73.1001 170.954 73.8755 169.824 74.4318C168.693 74.9822 167.376 75.2575 165.873 75.2575C164.364 75.2575 163.044 74.9822 161.913 74.4318C160.783 73.8755 159.904 73.1001 159.277 72.1058C158.649 71.1115 158.336 69.9515 158.336 68.6257V56.8182H162.18V68.2972C162.18 68.9897 162.331 69.6052 162.633 70.1438C162.94 70.6824 163.372 71.1056 163.929 71.4134C164.485 71.7211 165.133 71.875 165.873 71.875C166.619 71.875 167.267 71.7211 167.817 71.4134C168.374 71.1056 168.803 70.6824 169.104 70.1438C169.412 69.6052 169.566 68.9897 169.566 68.2972V56.8182ZM186.436 62.0472C186.365 61.3311 186.06 60.7747 185.522 60.3782C184.983 59.9817 184.252 59.7834 183.329 59.7834C182.702 59.7834 182.172 59.8722 181.74 60.0497C181.308 60.2214 180.976 60.4611 180.746 60.7688C180.521 61.0766 180.408 61.4258 180.408 61.8164C180.396 62.1419 180.464 62.426 180.612 62.6687C180.766 62.9113 180.976 63.1214 181.243 63.299C181.509 63.4706 181.817 63.6216 182.166 63.7518C182.515 63.8761 182.888 63.9826 183.285 64.0714L184.918 64.462C185.711 64.6396 186.439 64.8763 187.102 65.1722C187.765 65.4682 188.339 65.8321 188.824 66.2642C189.31 66.6963 189.686 67.2053 189.952 67.7912C190.224 68.3771 190.363 69.0489 190.369 69.8065C190.363 70.9192 190.079 71.8839 189.517 72.7006C188.96 73.5115 188.156 74.1418 187.102 74.5916C186.054 75.0355 184.791 75.2575 183.311 75.2575C181.843 75.2575 180.565 75.0326 179.476 74.5827C178.393 74.1329 177.547 73.4671 176.937 72.5852C176.333 71.6974 176.017 70.5996 175.987 69.2915H179.707C179.748 69.9012 179.923 70.4102 180.231 70.8185C180.544 71.221 180.962 71.5258 181.482 71.733C182.009 71.9342 182.604 72.0348 183.267 72.0348C183.918 72.0348 184.483 71.9401 184.962 71.7507C185.448 71.5613 185.824 71.2979 186.09 70.9606C186.356 70.6232 186.489 70.2356 186.489 69.7976C186.489 69.3892 186.368 69.0459 186.125 68.7678C185.889 68.4896 185.54 68.2528 185.078 68.0575C184.622 67.8622 184.063 67.6847 183.4 67.5249L181.42 67.0277C179.887 66.6548 178.677 66.0719 177.789 65.2788C176.901 64.4857 176.46 63.4174 176.466 62.0739C176.46 60.973 176.753 60.0112 177.345 59.1886C177.943 58.3659 178.763 57.7237 179.804 57.2621C180.846 56.8004 182.03 56.5696 183.356 56.5696C184.705 56.5696 185.883 56.8004 186.889 57.2621C187.901 57.7237 188.688 58.3659 189.25 59.1886C189.813 60.0112 190.103 60.9641 190.121 62.0472H186.436ZM192.262 59.9876V56.8182H207.195V59.9876H201.628V75H197.829V59.9876H192.262ZM227.496 62.6953C227.372 62.2633 227.197 61.8815 226.972 61.5501C226.748 61.2127 226.472 60.9286 226.147 60.6978C225.827 60.4611 225.46 60.2805 225.046 60.1562C224.638 60.032 224.185 59.9698 223.688 59.9698C222.758 59.9698 221.942 60.2006 221.237 60.6623C220.539 61.1239 219.994 61.7957 219.604 62.6776C219.213 63.5535 219.018 64.6248 219.018 65.8913C219.018 67.1579 219.21 68.2351 219.595 69.1229C219.98 70.0107 220.524 70.6883 221.228 71.1559C221.933 71.6175 222.764 71.8484 223.723 71.8484C224.593 71.8484 225.336 71.6945 225.951 71.3867C226.573 71.073 227.046 70.6321 227.372 70.0639C227.703 69.4957 227.869 68.824 227.869 68.0487L228.65 68.1641H223.963V65.2699H231.571V67.5604C231.571 69.1584 231.234 70.5315 230.559 71.6797C229.884 72.822 228.955 73.7038 227.771 74.3253C226.588 74.9408 225.232 75.2486 223.705 75.2486C222.001 75.2486 220.503 74.8728 219.213 74.1211C217.923 73.3635 216.917 72.2893 216.195 70.8984C215.479 69.5017 215.121 67.8445 215.121 65.9268C215.121 64.4531 215.334 63.1392 215.76 61.9851C216.192 60.825 216.795 59.8426 217.571 59.0376C218.346 58.2327 219.249 57.6201 220.279 57.1999C221.308 56.7797 222.424 56.5696 223.625 56.5696C224.655 56.5696 225.614 56.7205 226.502 57.0224C227.39 57.3183 228.177 57.7385 228.863 58.283C229.556 58.8275 230.121 59.4756 230.559 60.2273C230.997 60.973 231.278 61.7957 231.402 62.6953H227.496ZM251.167 65.9091C251.167 67.8918 250.791 69.5786 250.039 70.9695C249.294 72.3603 248.276 73.4227 246.985 74.1566C245.701 74.8846 244.257 75.2486 242.653 75.2486C241.037 75.2486 239.587 74.8816 238.303 74.1477C237.018 73.4138 236.003 72.3514 235.258 70.9606C234.512 69.5697 234.139 67.8859 234.139 65.9091C234.139 63.9264 234.512 62.2396 235.258 60.8487C236.003 59.4579 237.018 58.3984 238.303 57.6705C239.587 56.9366 241.037 56.5696 242.653 56.5696C244.257 56.5696 245.701 56.9366 246.985 57.6705C248.276 58.3984 249.294 59.4579 250.039 60.8487C250.791 62.2396 251.167 63.9264 251.167 65.9091ZM247.269 65.9091C247.269 64.6248 247.077 63.5417 246.692 62.6598C246.314 61.7779 245.778 61.1091 245.085 60.6534C244.393 60.1977 243.582 59.9698 242.653 59.9698C241.724 59.9698 240.913 60.1977 240.22 60.6534C239.528 61.1091 238.989 61.7779 238.605 62.6598C238.226 63.5417 238.036 64.6248 238.036 65.9091C238.036 67.1934 238.226 68.2765 238.605 69.1584C238.989 70.0402 239.528 70.709 240.22 71.1648C240.913 71.6205 241.724 71.8484 242.653 71.8484C243.582 71.8484 244.393 71.6205 245.085 71.1648C245.778 70.709 246.314 70.0402 246.692 69.1584C247.077 68.2765 247.269 67.1934 247.269 65.9091ZM259.108 59.9876V56.8182H274.041V59.9876H268.474V75H264.674V59.9876H259.108ZM292.378 65.9091C292.378 67.8918 292.002 69.5786 291.25 70.9695C290.504 72.3603 289.486 73.4227 288.196 74.1566C286.912 74.8846 285.468 75.2486 283.864 75.2486C282.248 75.2486 280.798 74.8816 279.514 74.1477C278.229 73.4138 277.214 72.3514 276.469 70.9606C275.723 69.5697 275.35 67.8859 275.35 65.9091C275.35 63.9264 275.723 62.2396 276.469 60.8487C277.214 59.4579 278.229 58.3984 279.514 57.6705C280.798 56.9366 282.248 56.5696 283.864 56.5696C285.468 56.5696 286.912 56.9366 288.196 57.6705C289.486 58.3984 290.504 59.4579 291.25 60.8487C292.002 62.2396 292.378 63.9264 292.378 65.9091ZM288.48 65.9091C288.48 64.6248 288.288 63.5417 287.903 62.6598C287.524 61.7779 286.989 61.1091 286.296 60.6534C285.604 60.1977 284.793 59.9698 283.864 59.9698C282.935 59.9698 282.124 60.1977 281.431 60.6534C280.739 61.1091 280.2 61.7779 279.816 62.6598C279.437 63.5417 279.247 64.6248 279.247 65.9091C279.247 67.1934 279.437 68.2765 279.816 69.1584C280.2 70.0402 280.739 70.709 281.431 71.1648C282.124 71.6205 282.935 71.8484 283.864 71.8484C284.793 71.8484 285.604 71.6205 286.296 71.1648C286.989 70.709 287.524 70.0402 287.903 69.1584C288.288 68.2765 288.48 67.1934 288.48 65.9091ZM305.104 75L299.902 56.8182H304.101L307.11 69.4513H307.261L310.582 56.8182H314.177L317.489 69.478H317.648L320.658 56.8182H324.857L319.655 75H315.908L312.446 63.1126H312.304L308.851 75H305.104ZM328.218 75H324.098L330.375 56.8182H335.329L341.596 75H337.477L332.923 60.973H332.781L328.218 75ZM327.96 67.8533H337.69V70.854H327.96V67.8533ZM343.785 75V56.8182H350.958C352.331 56.8182 353.503 57.0638 354.474 57.555C355.45 58.0404 356.193 58.7299 356.702 59.6236C357.217 60.5114 357.474 61.556 357.474 62.7575C357.474 63.9648 357.214 65.0036 356.693 65.8736C356.172 66.7377 355.418 67.4006 354.429 67.8622C353.447 68.3239 352.257 68.5547 350.86 68.5547H346.058V65.4652H350.239C350.973 65.4652 351.583 65.3646 352.068 65.1634C352.553 64.9621 352.914 64.6603 353.151 64.2578C353.394 63.8554 353.515 63.3552 353.515 62.7575C353.515 62.1538 353.394 61.6448 353.151 61.2305C352.914 60.8162 352.55 60.5025 352.059 60.2894C351.574 60.0704 350.961 59.9609 350.221 59.9609H347.629V75H343.785ZM353.604 66.7259L358.123 75H353.879L349.458 66.7259H353.604ZM364.639 56.8182L364.293 69.549H361.043L360.688 56.8182H364.639ZM362.668 75.2308C362.082 75.2308 361.579 75.0237 361.159 74.6094C360.739 74.1892 360.531 73.6861 360.537 73.1001C360.531 72.5201 360.739 72.023 361.159 71.6087C361.579 71.1944 362.082 70.9872 362.668 70.9872C363.23 70.9872 363.724 71.1944 364.151 71.6087C364.577 72.023 364.793 72.5201 364.799 73.1001C364.793 73.4908 364.689 73.8488 364.488 74.1744C364.293 74.494 364.035 74.7514 363.716 74.9467C363.396 75.1361 363.047 75.2308 362.668 75.2308Z" fill="white"/>
<defs>
<filter id="filter0_d_28_19" x="0" y="0" width="428" height="708" filterUnits="userSpaceOnUse" color-interpolation-filters="sRGB">
<feFlood flood-opacity="0" result="BackgroundImageFix"/>
<feColorMatrix in="SourceAlpha" type="matrix" values="0 0 0 0 0 0 0 0 0 0 0 0 0 0 0 0 0 0 127 0" result="hardAlpha"/>
<feOffset dy="4"/>
<feGaussianBlur stdDeviation="2"/>
<feComposite in2="hardAlpha" operator="out"/>
<feColorMatrix type="matrix" values="0 0 0 0 0 0 0 0 0 0 0 0 0 0 0 0 0 0 0.25 0"/>
<feBlend mode="normal" in2="BackgroundImageFix" result="effect1_dropShadow_28_19"/>
<feBlend mode="normal" in="SourceGraphic" in2="effect1_dropShadow_28_19" result="shape"/>
</filter>
<clipPath id="clip0_28_19">
<rect width="95" height="95" fill="white" transform="translate(172 260)"/>
</clipPath>
</defs>
</svg>
