<svg width="420" height="700" viewBox="0 0 420 700" fill="none" xmlns="http://www.w3.org/2000/svg">
<g style="mix-blend-mode:multiply">
<rect width="420" height="700" rx="20" fill="#6D82EE"/>
</g>
<ellipse cx="213.393" cy="323.889" rx="61.6071" ry="63.8889" fill="black" fill-opacity="0.5"/>
<path fill-rule="evenodd" clip-rule="evenodd" d="M213.392 377.777C241.423 377.777 264.286 354.068 264.286 324.999C264.286 295.931 241.423 272.222 213.392 272.222C185.362 272.222 162.5 295.931 162.5 324.999C162.5 354.068 185.362 377.777 213.392 377.777Z" fill="#E7962D"/>
<path fill-rule="evenodd" clip-rule="evenodd" d="M228.338 371.083L229.394 375.113C234.132 373.488 238.561 371.158 242.568 368.246L242.467 367.624C240.098 356.306 225.56 360.474 228.338 371.083Z" fill="#FBD9BD"/>
<path fill-rule="evenodd" clip-rule="evenodd" d="M243.042 367.897C242.064 359.202 235.369 360.065 232.16 363.626L234.035 373.251C237.223 371.783 240.239 369.984 243.042 367.897Z" fill="#2C8145"/>
<path fill-rule="evenodd" clip-rule="evenodd" d="M201.401 371.083L200.124 375.962C195.401 374.643 190.952 372.638 186.879 370.055L187.272 367.624C189.639 356.306 204.18 360.474 201.401 371.083Z" fill="#FBD9BD"/>
<path fill-rule="evenodd" clip-rule="evenodd" d="M186.652 368.327C187.457 359.173 194.317 360.008 197.577 363.626L195.477 374.411C193.061 373.468 190.735 372.34 188.51 371.045L186.652 368.327Z" fill="#2C8145"/>
<path fill-rule="evenodd" clip-rule="evenodd" d="M238.013 360.947L237.443 371.52C230.281 375.511 222.092 377.775 213.392 377.775C206.149 377.775 199.261 376.204 193.024 373.375L192.354 360.947H238.013V360.947Z" fill="#5EBE79"/>
<path fill-rule="evenodd" clip-rule="evenodd" d="M203.714 360.947H226.454C227.604 362.373 228.298 364.208 228.298 366.212C228.298 370.741 224.758 374.414 220.39 374.414C218.347 374.414 216.487 373.611 215.084 372.293C213.681 373.611 211.819 374.414 209.777 374.414C205.41 374.414 201.869 370.743 201.869 366.212C201.869 364.208 202.562 362.373 203.714 360.947Z" fill="#2C8145"/>
<path fill-rule="evenodd" clip-rule="evenodd" d="M239.94 304.161C222.879 288.609 207.265 293.39 201.82 299.349C204.845 302.8 224.513 315.14 239.94 304.161Z" fill="#A1400F"/>
<path fill-rule="evenodd" clip-rule="evenodd" d="M246.407 321.043C238.005 297.403 208.199 294.488 201.82 299.349C204.206 303.304 229.344 329.004 246.407 321.043Z" fill="#A1400F"/>
<path fill-rule="evenodd" clip-rule="evenodd" d="M244.673 332.48C241.519 309.111 208.836 295.546 201.821 299.349C203.601 303.633 226.644 337.671 244.673 332.48Z" fill="#A1400F"/>
<path fill-rule="evenodd" clip-rule="evenodd" d="M186.033 309.564C192.771 309.922 203.785 305.852 201.82 299.349C195.967 299.498 190.865 301.745 186.033 309.564Z" fill="#A1400F"/>
<path fill-rule="evenodd" clip-rule="evenodd" d="M183.508 323.576C192.646 320.701 201.611 307.526 201.82 299.349C197.746 301.322 186.141 307.579 183.508 323.576Z" fill="#A1400F"/>
<path fill-rule="evenodd" clip-rule="evenodd" d="M185.03 333.525C198.207 329.574 203.118 307.419 201.82 299.351C198.182 302.091 184.676 317.302 185.03 333.525Z" fill="#A1400F"/>
<path fill-rule="evenodd" clip-rule="evenodd" d="M239.567 346.079C245.944 319.275 209.284 296.613 201.82 299.351C202.999 303.851 221.012 348.572 239.567 346.079Z" fill="#A1400F"/>
<path fill-rule="evenodd" clip-rule="evenodd" d="M191.335 347.476C207.896 332.92 207.946 304.551 201.821 299.349C198.72 302.728 179.663 332.312 191.335 347.476Z" fill="#A1400F"/>
<path fill-rule="evenodd" clip-rule="evenodd" d="M199.801 357.418C213.816 340.223 208.69 303.43 201.82 299.349C199.3 303.213 185.873 344.461 199.801 357.418Z" fill="#A1400F"/>
<path fill-rule="evenodd" clip-rule="evenodd" d="M233.25 356.634C235.88 333.623 209.648 298.117 201.82 299.349C202.162 304.001 214.573 355.466 233.25 356.634Z" fill="#A1400F"/>
<path fill-rule="evenodd" clip-rule="evenodd" d="M208.197 357.077C219.574 337.904 209.201 302.32 201.821 299.349C199.886 303.56 192.556 346.426 208.197 357.077Z" fill="#A1400F"/>
<path fill-rule="evenodd" clip-rule="evenodd" d="M225.168 360.649C230.893 338.252 209.737 299.271 201.82 299.349C201.528 304.004 206.836 356.769 225.168 360.649Z" fill="#A1400F"/>
<path fill-rule="evenodd" clip-rule="evenodd" d="M224.041 337.779V360.947C224.041 372.186 206.329 372.008 206.329 360.947V337.779C206.328 325.629 224.041 325.631 224.041 337.779Z" fill="#FFDDCB"/>
<path fill-rule="evenodd" clip-rule="evenodd" d="M224.041 337.779V352.843C220.688 355.563 217.459 357.085 215.184 357.085C212.91 357.085 209.68 355.563 206.329 352.844V337.779C206.328 325.629 224.041 325.629 224.041 337.779Z" fill="#F6C4A9"/>
<path fill-rule="evenodd" clip-rule="evenodd" d="M215.183 353.343C209.418 353.343 197.238 343.942 193.471 330.478C189.669 316.884 196.83 297.384 215.183 297.384C233.536 297.384 240.698 316.882 236.895 330.478C233.129 343.942 220.95 353.343 215.183 353.343Z" fill="#FFDDCB"/>
<path fill-rule="evenodd" clip-rule="evenodd" d="M205.992 339.555C209.881 336.605 213.938 338.35 215.296 338.35C216.652 338.35 220.488 336.604 224.375 339.555C222.44 347.664 208.921 347.869 205.992 339.555Z" fill="#FF386A"/>
<path fill-rule="evenodd" clip-rule="evenodd" d="M206.108 339.511C209.719 338.193 212.91 340.777 215.18 340.777C217.452 340.777 220.651 337.305 224.259 339.645C220.029 344.115 210.367 343.873 206.108 339.511Z" fill="#A21F40"/>
<path fill-rule="evenodd" clip-rule="evenodd" d="M205.991 339.511C209.881 337.849 212.743 339.055 215.013 339.055C217.283 339.055 220.487 337.849 224.374 339.511C220.145 342.015 210.251 341.932 205.991 339.511Z" fill="black" fill-opacity="0.5"/>
<path fill-rule="evenodd" clip-rule="evenodd" d="M206.011 339.526C209.881 336.616 213.205 338.635 215.472 338.635C217.739 338.635 220.468 336.604 224.356 339.555C224.342 339.595 224.328 339.636 224.312 339.676C219.355 339.584 211.242 339.532 206.011 339.526Z" fill="#FF386A"/>
<path d="M195.246 331.8C193.868 328.474 191.248 326.447 189.394 327.274C187.539 328.1 187.152 331.466 188.53 334.792C189.908 338.118 192.528 340.145 194.383 339.319C196.238 338.492 196.624 335.126 195.246 331.8Z" fill="#FFDDCB"/>
<path d="M241.432 334.792C242.809 331.466 242.422 328.1 240.568 327.274C238.713 326.448 236.093 328.475 234.716 331.801C233.338 335.127 233.725 338.493 235.58 339.319C237.434 340.145 240.054 338.118 241.432 334.792Z" fill="#FFDDCB"/>
<path fill-rule="evenodd" clip-rule="evenodd" d="M192.882 329.701C187.881 305.9 203.976 295.492 215.443 295.492C228.36 295.492 240.474 310.136 238.296 328.368C231.616 325.088 227.225 320.813 221.019 313.226C221.554 315.578 226.444 323.813 231.251 326.616C223.438 327.933 208.884 317.876 201.128 307.353C199.277 314.835 196.286 324.886 192.882 329.701Z" fill="#A1400F"/>
<path opacity="0.2" fill-rule="evenodd" clip-rule="evenodd" d="M237.99 360.947L237.982 361.102C240.359 361.347 242.503 363.272 243.02 367.915C235.094 373.811 225.466 377.401 215.048 377.747V293.73C222.023 293.325 230.761 295.813 239.918 304.16C238.656 305.057 237.366 305.797 236.061 306.4C240.445 309.992 244.163 314.793 246.385 321.042C244.757 321.8 243.058 322.252 241.313 322.447C242.986 325.542 244.166 328.894 244.651 332.48C243.778 332.731 242.893 332.89 241.998 332.965C241.862 333.564 241.668 334.18 241.415 334.791C241.064 335.641 240.629 336.405 240.148 337.061C240.44 339.991 240.276 343.007 239.545 346.079C237.168 346.397 234.803 345.943 232.478 344.897C233.332 348.995 233.647 352.974 233.228 356.636C230.73 356.48 228.346 355.424 226.088 353.702C226.003 356.14 225.702 358.473 225.146 360.651C224.763 360.57 224.386 360.468 224.016 360.344V360.947H226.43H234.386C234.988 360.871 235.6 360.868 236.204 360.947H237.99Z" fill="black"/>
<path d="M195.98 419.5C195.921 418.89 195.785 418.322 195.572 417.795C195.358 417.263 195.06 416.798 194.675 416.402C194.29 416.005 193.814 415.694 193.246 415.469C192.683 415.245 192.02 415.132 191.257 415.132C190.126 415.132 189.032 415.431 187.972 416.029C186.919 416.627 186.004 417.505 185.229 418.665C184.459 419.82 183.936 421.234 183.657 422.909C183.385 424.549 183.412 425.948 183.737 427.108C184.063 428.268 184.64 429.156 185.469 429.772C186.297 430.381 187.33 430.686 188.567 430.686C189.68 430.686 190.715 430.437 191.674 429.94C192.633 429.437 193.441 428.724 194.098 427.801C194.755 426.877 195.181 425.783 195.376 424.516L195.873 424.685H190.049L190.325 423.193H197.223L196.948 424.685C196.699 426.241 196.169 427.585 195.358 428.715C194.548 429.846 193.541 430.719 192.34 431.334C191.139 431.944 189.831 432.249 188.416 432.249C186.83 432.249 185.504 431.867 184.439 431.103C183.379 430.334 182.636 429.251 182.21 427.854C181.784 426.457 181.731 424.809 182.051 422.909C182.275 421.483 182.672 420.195 183.24 419.047C183.808 417.899 184.507 416.92 185.335 416.109C186.17 415.292 187.099 414.665 188.123 414.227C189.153 413.789 190.242 413.57 191.39 413.57C192.384 413.57 193.269 413.726 194.045 414.04C194.82 414.354 195.477 414.786 196.015 415.336C196.554 415.881 196.962 416.511 197.241 417.227C197.525 417.937 197.673 418.695 197.684 419.5H195.98ZM204.558 413.818L201.54 432H199.879L202.898 413.818H204.558ZM206.374 432L209.392 413.818H215.26C216.551 413.818 217.589 414.049 218.376 414.511C219.17 414.972 219.717 415.614 220.019 416.437C220.327 417.254 220.395 418.195 220.223 419.26C220.045 420.314 219.667 421.246 219.087 422.057C218.513 422.868 217.755 423.504 216.814 423.966C215.873 424.421 214.763 424.649 213.485 424.649H208.495L208.753 423.131H213.698C214.651 423.131 215.467 422.974 216.148 422.661C216.829 422.347 217.373 421.9 217.782 421.32C218.19 420.74 218.459 420.053 218.59 419.26C218.72 418.461 218.675 417.766 218.456 417.174C218.243 416.582 217.847 416.123 217.267 415.798C216.693 415.472 215.926 415.31 214.967 415.31H210.804L208.034 432H206.374ZM215.749 423.797L218.865 432H216.956L213.893 423.797H215.749ZM222.145 432L225.164 413.818H226.824L224.054 430.509H232.719L232.47 432H222.145Z" fill="white"/>
<path d="M40.9588 60.8182H45.2645L49.4105 68.6484H49.588L53.734 60.8182H58.0397L51.408 72.5724V79H47.5905V72.5724L40.9588 60.8182ZM75.7488 69.9091C75.7488 71.8918 75.373 73.5786 74.6213 74.9695C73.8756 76.3603 72.8576 77.4227 71.5673 78.1566C70.283 78.8846 68.8389 79.2486 67.235 79.2486C65.6192 79.2486 64.1691 78.8816 62.8848 78.1477C61.6005 77.4138 60.5854 76.3514 59.8397 74.9606C59.094 73.5697 58.7211 71.8859 58.7211 69.9091C58.7211 67.9264 59.094 66.2396 59.8397 64.8487C60.5854 63.4579 61.6005 62.3984 62.8848 61.6705C64.1691 60.9366 65.6192 60.5696 67.235 60.5696C68.8389 60.5696 70.283 60.9366 71.5673 61.6705C72.8576 62.3984 73.8756 63.4579 74.6213 64.8487C75.373 66.2396 75.7488 67.9264 75.7488 69.9091ZM71.8514 69.9091C71.8514 68.6248 71.6591 67.5417 71.2744 66.6598C70.8956 65.7779 70.36 65.1091 69.6675 64.6534C68.975 64.1977 68.1642 63.9698 67.235 63.9698C66.3057 63.9698 65.4949 64.1977 64.8024 64.6534C64.11 65.1091 63.5714 65.7779 63.1867 66.6598C62.8079 67.5417 62.6185 68.6248 62.6185 69.9091C62.6185 71.1934 62.8079 72.2765 63.1867 73.1584C63.5714 74.0402 64.11 74.709 64.8024 75.1648C65.4949 75.6205 66.3057 75.8484 67.235 75.8484C68.1642 75.8484 68.975 75.6205 69.6675 75.1648C70.36 74.709 70.8956 74.0402 71.2744 73.1584C71.6591 72.2765 71.8514 71.1934 71.8514 69.9091ZM89.8268 60.8182H93.6709V72.6257C93.6709 73.9515 93.3543 75.1115 92.721 76.1058C92.0936 77.1001 91.2147 77.8755 90.0843 78.4318C88.9539 78.9822 87.637 79.2575 86.1337 79.2575C84.6244 79.2575 83.3046 78.9822 82.1741 78.4318C81.0437 77.8755 80.1648 77.1001 79.5374 76.1058C78.9101 75.1115 78.5964 73.9515 78.5964 72.6257V60.8182H82.4405V72.2972C82.4405 72.9897 82.5914 73.6052 82.8932 74.1438C83.201 74.6824 83.6331 75.1056 84.1894 75.4134C84.7458 75.7211 85.3938 75.875 86.1337 75.875C86.8794 75.875 87.5275 75.7211 88.0779 75.4134C88.6342 75.1056 89.0633 74.6824 89.3652 74.1438C89.673 73.6052 89.8268 72.9897 89.8268 72.2972V60.8182ZM106.712 79L101.51 60.8182H105.709L108.719 73.4513H108.87L112.19 60.8182H115.786L119.097 73.478H119.257L122.266 60.8182H126.466L121.263 79H117.517L114.054 67.1126H113.912L110.459 79H106.712ZM132.367 60.8182V79H128.523V60.8182H132.367ZM135.53 79V60.8182H139.374V75.8306H147.169V79H135.53ZM149.715 79V60.8182H153.559V75.8306H161.353V79H149.715ZM184.893 60.8182V79H181.573L173.663 67.5565H173.529V79H169.685V60.8182H173.059L180.907 72.2528H181.067V60.8182H184.893ZM204.777 69.9091C204.777 71.8918 204.401 73.5786 203.65 74.9695C202.904 76.3603 201.886 77.4227 200.596 78.1566C199.311 78.8846 197.867 79.2486 196.263 79.2486C194.648 79.2486 193.197 78.8816 191.913 78.1477C190.629 77.4138 189.614 76.3514 188.868 74.9606C188.122 73.5697 187.749 71.8859 187.749 69.9091C187.749 67.9264 188.122 66.2396 188.868 64.8487C189.614 63.4579 190.629 62.3984 191.913 61.6705C193.197 60.9366 194.648 60.5696 196.263 60.5696C197.867 60.5696 199.311 60.9366 200.596 61.6705C201.886 62.3984 202.904 63.4579 203.65 64.8487C204.401 66.2396 204.777 67.9264 204.777 69.9091ZM200.88 69.9091C200.88 68.6248 200.687 67.5417 200.303 66.6598C199.924 65.7779 199.388 65.1091 198.696 64.6534C198.003 64.1977 197.192 63.9698 196.263 63.9698C195.334 63.9698 194.523 64.1977 193.831 64.6534C193.138 65.1091 192.6 65.7779 192.215 66.6598C191.836 67.5417 191.647 68.6248 191.647 69.9091C191.647 71.1934 191.836 72.2765 192.215 73.1584C192.6 74.0402 193.138 74.709 193.831 75.1648C194.523 75.6205 195.334 75.8484 196.263 75.8484C197.192 75.8484 198.003 75.6205 198.696 75.1648C199.388 74.709 199.924 74.0402 200.303 73.1584C200.687 72.2765 200.88 71.1934 200.88 69.9091ZM206.102 63.9876V60.8182H221.035V63.9876H215.468V79H211.669V63.9876H206.102ZM241.336 66.6953C241.212 66.2633 241.037 65.8815 240.812 65.5501C240.587 65.2127 240.312 64.9286 239.987 64.6978C239.667 64.4611 239.3 64.2805 238.886 64.1562C238.477 64.032 238.025 63.9698 237.527 63.9698C236.598 63.9698 235.782 64.2006 235.077 64.6623C234.379 65.1239 233.834 65.7957 233.444 66.6776C233.053 67.5535 232.858 68.6248 232.858 69.8913C232.858 71.1579 233.05 72.2351 233.435 73.1229C233.819 74.0107 234.364 74.6883 235.068 75.1559C235.773 75.6175 236.604 75.8484 237.563 75.8484C238.433 75.8484 239.176 75.6945 239.791 75.3867C240.413 75.073 240.886 74.6321 241.212 74.0639C241.543 73.4957 241.709 72.824 241.709 72.0487L242.49 72.1641H237.803V69.2699H245.411V71.5604C245.411 73.1584 245.074 74.5315 244.399 75.6797C243.724 76.822 242.795 77.7038 241.611 78.3253C240.428 78.9408 239.072 79.2486 237.545 79.2486C235.841 79.2486 234.343 78.8728 233.053 78.1211C231.763 77.3635 230.757 76.2893 230.035 74.8984C229.318 73.5017 228.96 71.8445 228.96 69.9268C228.96 68.4531 229.173 67.1392 229.6 65.9851C230.032 64.825 230.635 63.8426 231.411 63.0376C232.186 62.2327 233.089 61.6201 234.118 61.1999C235.148 60.7797 236.264 60.5696 237.465 60.5696C238.495 60.5696 239.454 60.7205 240.342 61.0224C241.23 61.3183 242.017 61.7385 242.703 62.283C243.396 62.8275 243.961 63.4756 244.399 64.2273C244.837 64.973 245.118 65.7957 245.242 66.6953H241.336ZM265.007 69.9091C265.007 71.8918 264.631 73.5786 263.879 74.9695C263.133 76.3603 262.115 77.4227 260.825 78.1566C259.541 78.8846 258.097 79.2486 256.493 79.2486C254.877 79.2486 253.427 78.8816 252.143 78.1477C250.858 77.4138 249.843 76.3514 249.098 74.9606C248.352 73.5697 247.979 71.8859 247.979 69.9091C247.979 67.9264 248.352 66.2396 249.098 64.8487C249.843 63.4579 250.858 62.3984 252.143 61.6705C253.427 60.9366 254.877 60.5696 256.493 60.5696C258.097 60.5696 259.541 60.9366 260.825 61.6705C262.115 62.3984 263.133 63.4579 263.879 64.8487C264.631 66.2396 265.007 67.9264 265.007 69.9091ZM261.109 69.9091C261.109 68.6248 260.917 67.5417 260.532 66.6598C260.153 65.7779 259.618 65.1091 258.925 64.6534C258.233 64.1977 257.422 63.9698 256.493 63.9698C255.564 63.9698 254.753 64.1977 254.06 64.6534C253.368 65.1091 252.829 65.7779 252.444 66.6598C252.066 67.5417 251.876 68.6248 251.876 69.9091C251.876 71.1934 252.066 72.2765 252.444 73.1584C252.829 74.0402 253.368 74.709 254.06 75.1648C254.753 75.6205 255.564 75.8484 256.493 75.8484C257.422 75.8484 258.233 75.6205 258.925 75.1648C259.618 74.709 260.153 74.0402 260.532 73.1584C260.917 72.2765 261.109 71.1934 261.109 69.9091ZM272.948 63.9876V60.8182H287.88V63.9876H282.314V79H278.514V63.9876H272.948ZM306.218 69.9091C306.218 71.8918 305.842 73.5786 305.09 74.9695C304.344 76.3603 303.326 77.4227 302.036 78.1566C300.752 78.8846 299.308 79.2486 297.704 79.2486C296.088 79.2486 294.638 78.8816 293.354 78.1477C292.069 77.4138 291.054 76.3514 290.308 74.9606C289.563 73.5697 289.19 71.8859 289.19 69.9091C289.19 67.9264 289.563 66.2396 290.308 64.8487C291.054 63.4579 292.069 62.3984 293.354 61.6705C294.638 60.9366 296.088 60.5696 297.704 60.5696C299.308 60.5696 300.752 60.9366 302.036 61.6705C303.326 62.3984 304.344 63.4579 305.09 64.8487C305.842 66.2396 306.218 67.9264 306.218 69.9091ZM302.32 69.9091C302.32 68.6248 302.128 67.5417 301.743 66.6598C301.364 65.7779 300.829 65.1091 300.136 64.6534C299.444 64.1977 298.633 63.9698 297.704 63.9698C296.774 63.9698 295.964 64.1977 295.271 64.6534C294.579 65.1091 294.04 65.7779 293.655 66.6598C293.277 67.5417 293.087 68.6248 293.087 69.9091C293.087 71.1934 293.277 72.2765 293.655 73.1584C294.04 74.0402 294.579 74.709 295.271 75.1648C295.964 75.6205 296.774 75.8484 297.704 75.8484C298.633 75.8484 299.444 75.6205 300.136 75.1648C300.829 74.709 301.364 74.0402 301.743 73.1584C302.128 72.2765 302.32 71.1934 302.32 69.9091ZM318.944 79L313.742 60.8182H317.941L320.95 73.4513H321.101L324.422 60.8182H328.017L331.329 73.478H331.488L334.498 60.8182H338.697L333.495 79H329.748L326.286 67.1126H326.144L322.69 79H318.944ZM342.057 79H337.938L344.215 60.8182H349.169L355.436 79H351.317L346.763 64.973H346.621L342.057 79ZM341.8 71.8533H351.53V74.854H341.8V71.8533ZM357.625 79V60.8182H364.798C366.171 60.8182 367.343 61.0638 368.314 61.555C369.29 62.0404 370.033 62.7299 370.542 63.6236C371.057 64.5114 371.314 65.556 371.314 66.7575C371.314 67.9648 371.054 69.0036 370.533 69.8736C370.012 70.7377 369.258 71.4006 368.269 71.8622C367.287 72.3239 366.097 72.5547 364.7 72.5547H359.897V69.4652H364.079C364.813 69.4652 365.422 69.3646 365.908 69.1634C366.393 68.9621 366.754 68.6603 366.991 68.2578C367.233 67.8554 367.355 67.3552 367.355 66.7575C367.355 66.1538 367.233 65.6448 366.991 65.2305C366.754 64.8162 366.39 64.5025 365.899 64.2894C365.414 64.0704 364.801 63.9609 364.061 63.9609H361.469V79H357.625ZM367.444 70.7259L371.962 79H367.719L363.298 70.7259H367.444ZM378.479 60.8182L378.133 73.549H374.883L374.528 60.8182H378.479ZM376.508 79.2308C375.922 79.2308 375.419 79.0237 374.999 78.6094C374.578 78.1892 374.371 77.6861 374.377 77.1001C374.371 76.5201 374.578 76.023 374.999 75.6087C375.419 75.1944 375.922 74.9872 376.508 74.9872C377.07 74.9872 377.564 75.1944 377.99 75.6087C378.417 76.023 378.633 76.5201 378.639 77.1001C378.633 77.4908 378.529 77.8488 378.328 78.1744C378.133 78.494 377.875 78.7514 377.555 78.9467C377.236 79.1361 376.887 79.2308 376.508 79.2308Z" fill="white"/>
</svg>
