<svg width="225" height="31" viewBox="0 0 225 31" fill="none" xmlns="http://www.w3.org/2000/svg">
<path d="M0.5 0.5H198.5C206.784 0.5 213.5 7.21573 213.5 15.5C213.5 23.7843 206.784 30.5 198.5 30.5H0.5V0.5Z" fill="black" fill-opacity="0.4" stroke="black"/>
<path d="M7.82759 21V19.3381L11.7108 15.7425C12.041 15.4229 12.318 15.1353 12.5417 14.8796C12.769 14.6239 12.9412 14.3736 13.0584 14.1286C13.1756 13.88 13.2342 13.6119 13.2342 13.3242C13.2342 13.0046 13.1614 12.7294 13.0158 12.4986C12.8702 12.2642 12.6713 12.0849 12.4192 11.9606C12.1671 11.8327 11.8812 11.7688 11.5616 11.7688C11.2278 11.7688 10.9366 11.8363 10.688 11.9712C10.4395 12.1062 10.2477 12.2997 10.1127 12.5518C9.97781 12.804 9.91033 13.104 9.91033 13.4521H7.72106C7.72106 12.7383 7.88263 12.1186 8.20579 11.593C8.52894 11.0675 8.98171 10.6609 9.5641 10.3732C10.1465 10.0856 10.8176 9.94176 11.5776 9.94176C12.3588 9.94176 13.0389 10.0803 13.6177 10.3572C14.2001 10.6307 14.6529 11.0107 14.976 11.4972C15.2992 11.9837 15.4608 12.5412 15.4608 13.1697C15.4608 13.5817 15.3791 13.9883 15.2157 14.3896C15.0559 14.7908 14.7701 15.2365 14.3581 15.7266C13.9462 16.2131 13.3656 16.7972 12.6163 17.479L11.0236 19.0398V19.1143H15.6046V21H7.82759ZM18.6235 21.1385C18.2719 21.1385 17.9701 21.0142 17.718 20.7656C17.4694 20.5135 17.3451 20.2116 17.3451 19.8601C17.3451 19.5121 17.4694 19.2138 17.718 18.9652C17.9701 18.7166 18.2719 18.5923 18.6235 18.5923C18.9644 18.5923 19.2627 18.7166 19.5184 18.9652C19.7741 19.2138 19.9019 19.5121 19.9019 19.8601C19.9019 20.0945 19.8415 20.3093 19.7208 20.5046C19.6036 20.6964 19.4491 20.8509 19.2574 20.968C19.0656 21.0817 18.8543 21.1385 18.6235 21.1385ZM30.6845 13.2283C30.6419 12.7987 30.459 12.4648 30.1358 12.2269C29.8127 11.989 29.3741 11.87 28.8201 11.87C28.4437 11.87 28.1259 11.9233 27.8667 12.0298C27.6074 12.1328 27.4086 12.2766 27.2701 12.4613C27.1351 12.646 27.0676 12.8555 27.0676 13.0898C27.0605 13.2852 27.1014 13.4556 27.1902 13.6012C27.2825 13.7468 27.4086 13.8729 27.5684 13.9794C27.7282 14.0824 27.9128 14.1729 28.1223 14.2511C28.3319 14.3256 28.5556 14.3896 28.7935 14.4428L29.7736 14.6772C30.2495 14.7837 30.6863 14.9258 31.084 15.1033C31.4817 15.2809 31.8262 15.4993 32.1174 15.7585C32.4086 16.0178 32.6341 16.3232 32.7939 16.6747C32.9572 17.0263 33.0407 17.4293 33.0442 17.8839C33.0407 18.5515 32.8702 19.1303 32.5328 19.6204C32.199 20.1069 31.7161 20.4851 31.084 20.755C30.4554 21.0213 29.6973 21.1545 28.8095 21.1545C27.9288 21.1545 27.1618 21.0195 26.5083 20.7496C25.8585 20.4798 25.3507 20.0803 24.9849 19.5511C24.6227 19.0185 24.4327 18.3597 24.415 17.5749H26.6468C26.6717 17.9407 26.7765 18.2461 26.9611 18.4911C27.1493 18.7326 27.3997 18.9155 27.7122 19.0398C28.0282 19.1605 28.3851 19.2209 28.7828 19.2209C29.1735 19.2209 29.5126 19.1641 29.8002 19.0504C30.0914 18.9368 30.3169 18.7788 30.4767 18.5763C30.6365 18.3739 30.7164 18.1413 30.7164 17.8786C30.7164 17.6335 30.6436 17.4276 30.498 17.2607C30.356 17.0937 30.1465 16.9517 29.8695 16.8345C29.5961 16.7173 29.2605 16.6108 28.8627 16.5149L27.6749 16.2166C26.7551 15.9929 26.0289 15.6431 25.4963 15.1673C24.9636 14.6914 24.699 14.0504 24.7026 13.2443C24.699 12.5838 24.8748 12.0067 25.2299 11.5131C25.5886 11.0195 26.0804 10.6342 26.7054 10.3572C27.3304 10.0803 28.0407 9.94176 28.8361 9.94176C29.6458 9.94176 30.3525 10.0803 30.9561 10.3572C31.5634 10.6342 32.0357 11.0195 32.373 11.5131C32.7104 12.0067 32.8844 12.5785 32.8951 13.2283H30.6845ZM34.5956 21V10.0909H41.9465V11.9925H36.9021V14.592H41.5683V16.4936H36.9021V19.0984H41.9678V21H34.5956ZM43.7802 21V10.0909H46.0866V19.0984H50.7635V21H43.7802ZM52.2909 21V10.0909H59.6418V11.9925H54.5974V14.592H59.2636V16.4936H54.5974V19.0984H59.6631V21H52.2909ZM71.1009 13.9102H68.7678C68.7251 13.6083 68.6381 13.3402 68.5067 13.1058C68.3754 12.8679 68.2067 12.6655 68.0007 12.4986C67.7947 12.3317 67.5568 12.2038 67.2869 12.1151C67.0206 12.0263 66.7312 11.9819 66.4187 11.9819C65.854 11.9819 65.3622 12.1222 64.9432 12.4027C64.5241 12.6797 64.1992 13.0845 63.9684 13.6172C63.7376 14.1463 63.6222 14.7891 63.6222 15.5455C63.6222 16.3232 63.7376 16.9766 63.9684 17.5057C64.2028 18.0348 64.5295 18.4343 64.9485 18.7042C65.3675 18.9741 65.8523 19.109 66.4027 19.109C66.7116 19.109 66.9975 19.0682 67.2603 18.9865C67.5266 18.9048 67.7628 18.7859 67.9688 18.6296C68.1747 18.4698 68.3452 18.2763 68.4801 18.049C68.6186 17.8217 68.7145 17.5625 68.7678 17.2713L71.1009 17.282C71.0405 17.7827 70.8896 18.2656 70.6481 18.7308C70.4102 19.1925 70.0888 19.6062 69.6839 19.9719C69.2827 20.3342 68.8033 20.6218 68.2457 20.8349C67.6918 21.0444 67.065 21.1491 66.3654 21.1491C65.3924 21.1491 64.5224 20.929 63.7553 20.4886C62.9918 20.0483 62.3881 19.4109 61.9442 18.5763C61.5039 17.7418 61.2837 16.7315 61.2837 15.5455C61.2837 14.3558 61.5075 13.3438 61.9549 12.5092C62.4023 11.6747 63.0096 11.0391 63.7766 10.6023C64.5437 10.1619 65.4066 9.94176 66.3654 9.94176C66.9975 9.94176 67.5835 10.0305 68.1232 10.2081C68.6665 10.3857 69.1477 10.6449 69.5668 10.9858C69.9858 11.3232 70.3267 11.7369 70.5895 12.2269C70.8558 12.717 71.0263 13.2781 71.1009 13.9102ZM72.3393 11.9925V10.0909H81.2988V11.9925H77.959V21H75.6792V11.9925H72.3393ZM96.2709 15.5455C96.2709 16.7351 96.0454 17.7472 95.5944 18.5817C95.1469 19.4162 94.5361 20.0536 93.762 20.494C92.9914 20.9308 92.1249 21.1491 91.1626 21.1491C90.1931 21.1491 89.3231 20.929 88.5525 20.4886C87.7819 20.0483 87.1729 19.4109 86.7254 18.5763C86.278 17.7418 86.0542 16.7315 86.0542 15.5455C86.0542 14.3558 86.278 13.3438 86.7254 12.5092C87.1729 11.6747 87.7819 11.0391 88.5525 10.6023C89.3231 10.1619 90.1931 9.94176 91.1626 9.94176C92.1249 9.94176 92.9914 10.1619 93.762 10.6023C94.5361 11.0391 95.1469 11.6747 95.5944 12.5092C96.0454 13.3438 96.2709 14.3558 96.2709 15.5455ZM93.9324 15.5455C93.9324 14.7749 93.817 14.125 93.5862 13.5959C93.3589 13.0668 93.0376 12.6655 92.6221 12.392C92.2066 12.1186 91.7201 11.9819 91.1626 11.9819C90.605 11.9819 90.1185 12.1186 89.703 12.392C89.2876 12.6655 88.9644 13.0668 88.7336 13.5959C88.5063 14.125 88.3927 14.7749 88.3927 15.5455C88.3927 16.3161 88.5063 16.9659 88.7336 17.495C88.9644 18.0241 89.2876 18.4254 89.703 18.6989C90.1185 18.9723 90.605 19.109 91.1626 19.109C91.7201 19.109 92.2066 18.9723 92.6221 18.6989C93.0376 18.4254 93.3589 18.0241 93.5862 17.495C93.817 16.9659 93.9324 16.3161 93.9324 15.5455ZM97.9794 21V10.0909H102.283C103.111 10.0909 103.816 10.2489 104.398 10.565C104.98 10.8775 105.424 11.3125 105.73 11.87C106.039 12.424 106.193 13.0632 106.193 13.7876C106.193 14.5121 106.037 15.1513 105.724 15.7053C105.412 16.2592 104.959 16.6907 104.366 16.9996C103.777 17.3086 103.063 17.4631 102.225 17.4631H99.4815V15.6147H101.852C102.296 15.6147 102.662 15.5384 102.949 15.3857C103.24 15.2294 103.457 15.0146 103.599 14.7411C103.745 14.4641 103.817 14.1463 103.817 13.7876C103.817 13.4254 103.745 13.1094 103.599 12.8395C103.457 12.5661 103.24 12.3548 102.949 12.2056C102.658 12.0529 102.289 11.9766 101.841 11.9766H100.286V21H97.9794ZM107.276 11.9925V10.0909H116.235V11.9925H112.896V21H110.616V11.9925H107.276ZM120.017 10.0909V21H117.711V10.0909H120.017ZM131.94 15.5455C131.94 16.7351 131.714 17.7472 131.263 18.5817C130.816 19.4162 130.205 20.0536 129.431 20.494C128.66 20.9308 127.794 21.1491 126.831 21.1491C125.862 21.1491 124.992 20.929 124.221 20.4886C123.451 20.0483 122.842 19.4109 122.394 18.5763C121.947 17.7418 121.723 16.7315 121.723 15.5455C121.723 14.3558 121.947 13.3438 122.394 12.5092C122.842 11.6747 123.451 11.0391 124.221 10.6023C124.992 10.1619 125.862 9.94176 126.831 9.94176C127.794 9.94176 128.66 10.1619 129.431 10.6023C130.205 11.0391 130.816 11.6747 131.263 12.5092C131.714 13.3438 131.94 14.3558 131.94 15.5455ZM129.601 15.5455C129.601 14.7749 129.486 14.125 129.255 13.5959C129.028 13.0668 128.706 12.6655 128.291 12.392C127.876 12.1186 127.389 11.9819 126.831 11.9819C126.274 11.9819 125.787 12.1186 125.372 12.392C124.956 12.6655 124.633 13.0668 124.403 13.5959C124.175 14.125 124.062 14.7749 124.062 15.5455C124.062 16.3161 124.175 16.9659 124.403 17.495C124.633 18.0241 124.956 18.4254 125.372 18.6989C125.787 18.9723 126.274 19.109 126.831 19.109C127.389 19.109 127.876 18.9723 128.291 18.6989C128.706 18.4254 129.028 18.0241 129.255 17.495C129.486 16.9659 129.601 16.3161 129.601 15.5455ZM142.773 10.0909V21H140.781L136.035 14.1339H135.955V21H133.648V10.0909H135.672L140.381 16.9517H140.477V10.0909H142.773ZM150.597 13.2283C150.554 12.7987 150.371 12.4648 150.048 12.2269C149.725 11.989 149.286 11.87 148.732 11.87C148.356 11.87 148.038 11.9233 147.779 12.0298C147.52 12.1328 147.321 12.2766 147.182 12.4613C147.047 12.646 146.98 12.8555 146.98 13.0898C146.973 13.2852 147.013 13.4556 147.102 13.6012C147.195 13.7468 147.321 13.8729 147.48 13.9794C147.64 14.0824 147.825 14.1729 148.034 14.2511C148.244 14.3256 148.468 14.3896 148.706 14.4428L149.686 14.6772C150.162 14.7837 150.598 14.9258 150.996 15.1033C151.394 15.2809 151.738 15.4993 152.029 15.7585C152.321 16.0178 152.546 16.3232 152.706 16.6747C152.869 17.0263 152.953 17.4293 152.956 17.8839C152.953 18.5515 152.782 19.1303 152.445 19.6204C152.111 20.1069 151.628 20.4851 150.996 20.755C150.368 21.0213 149.609 21.1545 148.722 21.1545C147.841 21.1545 147.074 21.0195 146.42 20.7496C145.771 20.4798 145.263 20.0803 144.897 19.5511C144.535 19.0185 144.345 18.3597 144.327 17.5749H146.559C146.584 17.9407 146.689 18.2461 146.873 18.4911C147.061 18.7326 147.312 18.9155 147.624 19.0398C147.94 19.1605 148.297 19.2209 148.695 19.2209C149.086 19.2209 149.425 19.1641 149.712 19.0504C150.004 18.9368 150.229 18.7788 150.389 18.5763C150.549 18.3739 150.629 18.1413 150.629 17.8786C150.629 17.6335 150.556 17.4276 150.41 17.2607C150.268 17.0937 150.059 16.9517 149.782 16.8345C149.508 16.7173 149.173 16.6108 148.775 16.5149L147.587 16.2166C146.667 15.9929 145.941 15.6431 145.408 15.1673C144.876 14.6914 144.611 14.0504 144.615 13.2443C144.611 12.5838 144.787 12.0067 145.142 11.5131C145.501 11.0195 145.993 10.6342 146.618 10.3572C147.243 10.0803 147.953 9.94176 148.748 9.94176C149.558 9.94176 150.265 10.0803 150.868 10.3572C151.475 10.6342 151.948 11.0195 152.285 11.5131C152.623 12.0067 152.797 12.5785 152.807 13.2283H150.597Z" fill="white"/>
<path d="M7.82759 21H6.82759V22H7.82759V21ZM7.82759 19.3381L7.14818 18.6043L6.82759 18.9012V19.3381H7.82759ZM11.7108 15.7425L12.3902 16.4763L12.3983 16.4688L12.4062 16.4611L11.7108 15.7425ZM12.5417 14.8796L11.7943 14.2152L11.7891 14.2211L12.5417 14.8796ZM13.0584 14.1286L13.9606 14.56L13.9629 14.555L13.0584 14.1286ZM13.0158 12.4986L12.1663 13.0263L12.17 13.0321L13.0158 12.4986ZM12.4192 11.9606L11.967 12.8525L11.9771 12.8575L12.4192 11.9606ZM10.1127 12.5518L10.9944 13.0237L10.9944 13.0237L10.1127 12.5518ZM9.91033 13.4521V14.4521H10.9103V13.4521H9.91033ZM7.72106 13.4521H6.72106V14.4521H7.72106V13.4521ZM8.20579 11.593L9.05764 12.1168L9.05764 12.1168L8.20579 11.593ZM9.5641 10.3732L9.12126 9.47662L9.12126 9.47662L9.5641 10.3732ZM13.6177 10.3572L13.1861 11.2593L13.1927 11.2624L13.6177 10.3572ZM14.976 11.4972L14.143 12.0505L14.143 12.0505L14.976 11.4972ZM15.2157 14.3896L14.2895 14.0125L14.2867 14.0196L15.2157 14.3896ZM14.3581 15.7266L15.1213 16.3728L15.1236 16.37L14.3581 15.7266ZM12.6163 17.479L11.9433 16.7394L11.9296 16.7519L11.9164 16.7648L12.6163 17.479ZM11.0236 19.0398L10.3237 18.3255L10.0236 18.6196V19.0398H11.0236ZM11.0236 19.1143H10.0236V20.1143H11.0236V19.1143ZM15.6046 19.1143H16.6046V18.1143H15.6046V19.1143ZM15.6046 21V22H16.6046V21H15.6046ZM8.82759 21V19.3381H6.82759V21H8.82759ZM8.507 20.0718L12.3902 16.4763L11.0314 15.0088L7.14818 18.6043L8.507 20.0718ZM12.4062 16.4611C12.7499 16.1285 13.0473 15.8204 13.2943 15.5381L11.7891 14.2211C11.5887 14.4502 11.3321 14.7174 11.0153 15.0239L12.4062 16.4611ZM13.2891 15.544C13.5633 15.2355 13.7941 14.9081 13.9606 14.56L12.1563 13.6971C12.0884 13.8391 11.9747 14.0123 11.7943 14.2153L13.2891 15.544ZM13.9629 14.555C14.1459 14.1668 14.2342 13.7522 14.2342 13.3242H12.2342C12.2342 13.4715 12.2053 13.5932 12.1539 13.7021L13.9629 14.555ZM14.2342 13.3242C14.2342 12.8486 14.1241 12.3813 13.8616 11.9651L12.17 13.0321C12.1987 13.0775 12.2342 13.1606 12.2342 13.3242H14.2342ZM13.8652 11.9709C13.6191 11.5747 13.2778 11.2689 12.8614 11.0636L11.9771 12.8575C12.0649 12.9008 12.1213 12.9537 12.1664 13.0263L13.8652 11.9709ZM12.8714 11.0687C12.4618 10.861 12.0177 10.7688 11.5616 10.7688V12.7688C11.7448 12.7688 11.8724 12.8045 11.967 12.8525L12.8714 11.0687ZM11.5616 10.7688C11.0912 10.7688 10.6303 10.8647 10.2109 11.0924L11.1651 12.8501C11.2429 12.8078 11.3644 12.7688 11.5616 12.7688V10.7688ZM10.2109 11.0924C9.78863 11.3216 9.45714 11.6576 9.23108 12.08L10.9944 13.0237C11.0382 12.9418 11.0903 12.8907 11.1651 12.8501L10.2109 11.0924ZM9.23108 12.08C9.00332 12.5055 8.91033 12.9748 8.91033 13.4521H10.9103C10.9103 13.2333 10.9523 13.1024 10.9944 13.0237L9.23108 12.08ZM9.91033 12.4521H7.72106V14.4521H9.91033V12.4521ZM8.72106 13.4521C8.72106 12.8937 8.84574 12.4615 9.05764 12.1168L7.35393 11.0693C6.91953 11.7758 6.72106 12.5829 6.72106 13.4521H8.72106ZM9.05764 12.1168C9.27693 11.7602 9.58391 11.4788 10.0069 11.2698L9.12126 9.47662C8.37951 9.84297 7.78095 10.3748 7.35393 11.0693L9.05764 12.1168ZM10.0069 11.2698C10.43 11.0609 10.9452 10.9418 11.5776 10.9418V8.94176C10.6901 8.94176 9.86293 9.11031 9.12126 9.47662L10.0069 11.2698ZM11.5776 10.9418C12.2414 10.9418 12.7681 11.0593 13.1861 11.2593L14.0494 9.4552C13.3097 9.10124 12.4763 8.94176 11.5776 8.94176V10.9418ZM13.1927 11.2624C13.6268 11.4663 13.9312 11.7316 14.143 12.0505L15.809 10.9439C15.3745 10.2897 14.7734 9.7951 14.0427 9.45205L13.1927 11.2624ZM14.143 12.0505C14.3489 12.3604 14.4608 12.7223 14.4608 13.1697H16.4608C16.4608 12.3601 16.2495 11.607 15.809 10.9439L14.143 12.0505ZM14.4608 13.1697C14.4608 13.4458 14.4067 13.7247 14.2895 14.0125L16.1419 14.7666C16.3515 14.2519 16.4608 13.7176 16.4608 13.1697H14.4608ZM14.2867 14.0196C14.1806 14.286 13.9657 14.6393 13.5926 15.0831L15.1236 16.37C15.5745 15.8337 15.9313 15.2956 16.1448 14.7595L14.2867 14.0196ZM13.595 15.0804C13.2223 15.5204 12.6768 16.0719 11.9433 16.7394L13.2893 18.2187C14.0544 17.5225 14.6701 16.9057 15.1213 16.3728L13.595 15.0804ZM11.9164 16.7648L10.3237 18.3255L11.7235 19.754L13.3162 18.1933L11.9164 16.7648ZM10.0236 19.0398V19.1143H12.0236V19.0398H10.0236ZM11.0236 20.1143H15.6046V18.1143H11.0236V20.1143ZM14.6046 19.1143V21H16.6046V19.1143H14.6046ZM15.6046 20H7.82759V22H15.6046V20ZM17.718 20.7656L17.0058 21.4677L17.0108 21.4727L17.0159 21.4777L17.718 20.7656ZM17.718 18.9652L17.0159 18.2531L17.0108 18.2581L17.718 18.9652ZM19.5184 18.9652L18.8213 19.6822L18.8213 19.6822L19.5184 18.9652ZM19.7208 20.5046L18.8702 19.9788L18.8675 19.9832L19.7208 20.5046ZM19.2574 20.968L19.7672 21.8284L19.7788 21.8213L19.2574 20.968ZM18.6235 20.1385C18.5368 20.1385 18.4865 20.1191 18.42 20.0535L17.0159 21.4777C17.4536 21.9093 18.0071 22.1385 18.6235 22.1385V20.1385ZM18.4301 20.0636C18.3645 19.997 18.3451 19.9468 18.3451 19.8601H16.3451C16.3451 20.4765 16.5743 21.03 17.0058 21.4677L18.4301 20.0636ZM18.3451 19.8601C18.3451 19.7803 18.3619 19.7355 18.4251 19.6723L17.0108 18.2581C16.5769 18.6921 16.3451 19.2438 16.3451 19.8601H18.3451ZM18.42 19.6773C18.4865 19.6117 18.5368 19.5923 18.6235 19.5923V17.5923C18.0071 17.5923 17.4536 17.8215 17.0159 18.2531L18.42 19.6773ZM18.6235 19.5923C18.6911 19.5923 18.7427 19.6058 18.8213 19.6822L20.2155 18.2482C19.7826 17.8274 19.2377 17.5923 18.6235 17.5923V19.5923ZM18.8213 19.6822C18.8887 19.7477 18.9019 19.7896 18.9019 19.8601H20.9019C20.9019 19.2346 20.6594 18.6798 20.2155 18.2482L18.8213 19.6822ZM18.9019 19.8601C18.9019 19.9128 18.8912 19.9449 18.8702 19.9788L20.5714 21.0304C20.7919 20.6737 20.9019 20.2762 20.9019 19.8601H18.9019ZM18.8675 19.9832C18.833 20.0396 18.7923 20.0803 18.7359 20.1148L19.7788 21.8213C20.1059 21.6214 20.3742 21.3532 20.5741 21.0261L18.8675 19.9832ZM18.7476 20.1077C18.7158 20.1266 18.6816 20.1385 18.6235 20.1385V22.1385C19.027 22.1385 19.4154 22.0368 19.7672 21.8283L18.7476 20.1077ZM30.6845 13.2283L29.6894 13.327L29.7787 14.2283H30.6845V13.2283ZM27.8667 12.0298L28.2359 12.9592L28.2468 12.9548L27.8667 12.0298ZM27.2701 12.4613L26.47 11.8612L26.4627 11.8713L27.2701 12.4613ZM27.0676 13.0898L28.067 13.1262L28.0676 13.108V13.0898H27.0676ZM27.1902 13.6012L26.3364 14.1218L26.3409 14.1293L26.3457 14.1367L27.1902 13.6012ZM27.5684 13.9794L27.0137 14.8115L27.0201 14.8158L27.0267 14.82L27.5684 13.9794ZM28.1223 14.2511L27.773 15.188L27.78 15.1907L27.787 15.1932L28.1223 14.2511ZM28.7935 14.4428L29.0261 13.4702L29.019 13.4686L29.012 13.467L28.7935 14.4428ZM29.7736 14.6772L29.541 15.6498L29.5481 15.6515L29.5551 15.653L29.7736 14.6772ZM31.084 15.1033L30.6763 16.0165L30.6763 16.0165L31.084 15.1033ZM32.1174 15.7585L32.7823 15.0116L32.7823 15.0116L32.1174 15.7585ZM32.7939 16.6747L31.8835 17.0885L31.887 17.0961L32.7939 16.6747ZM33.0442 17.8839L34.0443 17.8892L34.0442 17.8761L33.0442 17.8839ZM32.5328 19.6204L31.7092 19.0533L31.7083 19.0546L32.5328 19.6204ZM31.084 20.755L31.4741 21.6757L31.4767 21.6747L31.084 20.755ZM26.5083 20.7496L26.1248 21.6732L26.1266 21.6739L26.5083 20.7496ZM24.9849 19.5511L24.158 20.1135L24.1623 20.1198L24.9849 19.5511ZM24.415 17.5749V16.5749H23.3921L23.4152 17.5975L24.415 17.5749ZM26.6468 17.5749L27.6445 17.5071L27.5812 16.5749H26.6468V17.5749ZM26.9611 18.4911L26.1625 19.093L26.1674 19.0995L26.1724 19.1059L26.9611 18.4911ZM27.7122 19.0398L27.3426 19.9691L27.3553 19.9739L27.7122 19.0398ZM29.8002 19.0504L29.4367 18.1188L29.4328 18.1204L29.8002 19.0504ZM30.4767 18.5763L31.2616 19.196L31.2616 19.196L30.4767 18.5763ZM30.498 17.2607L29.7365 17.9088L29.7445 17.918L30.498 17.2607ZM29.8695 16.8345L29.4756 17.7537L29.4799 17.7555L29.8695 16.8345ZM28.8627 16.5149L28.6192 17.4848L28.6284 17.4871L28.8627 16.5149ZM27.6749 16.2166L27.9185 15.2467L27.9112 15.245L27.6749 16.2166ZM25.4963 15.1673L24.8301 15.913L24.8301 15.913L25.4963 15.1673ZM24.7026 13.2443L25.7026 13.2487L25.7026 13.2389L24.7026 13.2443ZM25.2299 11.5131L24.4209 10.9253L24.4182 10.9291L25.2299 11.5131ZM30.9561 10.3572L30.5391 11.2661L30.5411 11.2671L30.9561 10.3572ZM32.373 11.5131L31.5474 12.0774L31.5474 12.0774L32.373 11.5131ZM32.8951 13.2283V14.2283H33.9116L33.8949 13.2119L32.8951 13.2283ZM31.6796 13.1296C31.6114 12.4422 31.2988 11.8413 30.7287 11.4216L29.5429 13.0322C29.6192 13.0883 29.6723 13.1551 29.6894 13.327L31.6796 13.1296ZM30.7287 11.4216C30.1793 11.0171 29.508 10.87 28.8201 10.87V12.87C29.2402 12.87 29.4461 12.9609 29.5429 13.0322L30.7287 11.4216ZM28.8201 10.87C28.3555 10.87 27.9 10.935 27.4865 11.1049L28.2468 12.9548C28.3517 12.9116 28.5319 12.87 28.8201 12.87V10.87ZM27.4975 11.1005C27.1029 11.2572 26.7401 11.5012 26.4701 11.8613L28.0701 13.0613C28.077 13.0521 28.112 13.0084 28.2359 12.9592L27.4975 11.1005ZM26.4627 11.8713C26.1993 12.2317 26.0676 12.649 26.0676 13.0898H28.0676C28.0676 13.0794 28.0684 13.0726 28.0689 13.069C28.0695 13.0654 28.07 13.0638 28.0701 13.0635C28.0702 13.0631 28.0704 13.0625 28.0711 13.0613C28.0718 13.0599 28.0736 13.0566 28.0775 13.0513L26.4627 11.8713ZM26.0683 13.0535C26.0552 13.4153 26.1312 13.7854 26.3364 14.1218L28.044 13.0806C28.0554 13.0994 28.0622 13.1178 28.0654 13.1312C28.0684 13.1436 28.0664 13.1435 28.067 13.1262L26.0683 13.0535ZM26.3457 14.1367C26.5209 14.4131 26.7509 14.6363 27.0137 14.8115L28.1231 13.1474C28.0662 13.1095 28.0441 13.0805 28.0347 13.0657L26.3457 14.1367ZM27.0267 14.82C27.2564 14.968 27.5075 15.0891 27.773 15.188L28.4717 13.3141C28.3181 13.2568 28.1999 13.1967 28.1101 13.1388L27.0267 14.82ZM27.787 15.1932C28.0382 15.2826 28.3012 15.3574 28.575 15.4187L29.012 13.467C28.8099 13.4217 28.6255 13.3687 28.4577 13.309L27.787 15.1932ZM28.5609 15.4154L29.541 15.6498L30.0062 13.7046L29.0261 13.4702L28.5609 15.4154ZM29.5551 15.653C29.9736 15.7467 30.3461 15.8691 30.6763 16.0165L31.4916 14.1902C31.0264 13.9825 30.5253 13.8207 29.9921 13.7014L29.5551 15.653ZM30.6763 16.0165C30.9911 16.157 31.2464 16.322 31.4524 16.5054L32.7823 15.0116C32.406 14.6766 31.9723 14.4048 31.4916 14.1902L30.6763 16.0165ZM31.4524 16.5054C31.6405 16.6729 31.782 16.8651 31.8835 17.0885L33.7042 16.2609C33.4862 15.7812 33.1766 15.3626 32.7823 15.0116L31.4524 16.5054ZM31.887 17.0961C31.9806 17.2976 32.0416 17.5556 32.0442 17.8917L34.0442 17.8761C34.0397 17.303 33.9338 16.755 33.7007 16.2533L31.887 17.0961ZM32.0442 17.8786C32.0416 18.3709 31.9191 18.7484 31.7092 19.0533L33.3565 20.1874C33.8213 19.5123 34.0397 18.7321 34.0442 17.8892L32.0442 17.8786ZM31.7083 19.0546C31.4986 19.3602 31.1781 19.6274 30.6913 19.8353L31.4767 21.6747C32.2541 21.3427 32.8994 20.8536 33.3574 20.1861L31.7083 19.0546ZM30.6938 19.8342C30.2198 20.0351 29.6017 20.1545 28.8095 20.1545V22.1545C29.7929 22.1545 30.6911 22.0075 31.4741 21.6757L30.6938 19.8342ZM28.8095 20.1545C28.0287 20.1545 27.3967 20.0346 26.8901 19.8254L26.1266 21.6739C26.9268 22.0044 27.8289 22.1545 28.8095 22.1545V20.1545ZM26.8919 19.8261C26.4021 19.6227 26.0538 19.3389 25.8075 18.9825L24.1623 20.1198C24.6475 20.8217 25.3149 21.3368 26.1248 21.6732L26.8919 19.8261ZM25.8118 18.9888C25.5797 18.6474 25.429 18.1868 25.4147 17.5523L23.4152 17.5975C23.4364 18.5327 23.6657 19.3895 24.158 20.1134L25.8118 18.9888ZM24.415 18.5749H26.6468V16.5749H24.415V18.5749ZM25.6491 17.6427C25.6846 18.1638 25.84 18.665 26.1625 19.093L27.7597 17.8893C27.7129 17.8272 27.6588 17.7176 27.6445 17.5071L25.6491 17.6427ZM26.1724 19.1059C26.4804 19.5011 26.8817 19.7856 27.3426 19.969L28.0817 18.1106C27.9177 18.0453 27.8182 17.9641 27.7498 17.8764L26.1724 19.1059ZM27.3553 19.9739C27.8034 20.1451 28.2841 20.2209 28.7828 20.2209V18.2209C28.4861 18.2209 28.2531 18.1759 28.069 18.1056L27.3553 19.9739ZM28.7828 20.2209C29.2675 20.2209 29.7367 20.1507 30.1677 19.9805L29.4328 18.1204C29.2885 18.1774 29.0795 18.2209 28.7828 18.2209V20.2209ZM30.1638 19.982C30.5856 19.8174 30.9704 19.5649 31.2616 19.196L29.6919 17.9567C29.6635 17.9926 29.5973 18.0562 29.4367 18.1188L30.1638 19.982ZM31.2616 19.196C31.5636 18.8135 31.7164 18.3616 31.7164 17.8786H29.7164C29.7164 17.907 29.7124 17.9204 29.7108 17.9252C29.7092 17.9298 29.7053 17.9396 29.6919 17.9567L31.2616 19.196ZM31.7164 17.8786C31.7164 17.4194 31.5734 16.9721 31.2516 16.6033L29.7445 17.918C29.7408 17.9138 29.7358 17.9073 29.7307 17.8986C29.7256 17.8898 29.7217 17.8812 29.719 17.8736C29.7133 17.8573 29.7164 17.8559 29.7164 17.8786H31.7164ZM31.2596 16.6125C30.9861 16.2912 30.6291 16.0701 30.2591 15.9135L29.4799 17.7555C29.6639 17.8333 29.7259 17.8963 29.7365 17.9088L31.2596 16.6125ZM30.2634 15.9154C29.9233 15.7696 29.5307 15.6473 29.0971 15.5428L28.6284 17.4871C28.9902 17.5743 29.2688 17.6651 29.4756 17.7537L30.2634 15.9154ZM29.1063 15.545L27.9185 15.2467L27.4313 17.1865L28.6192 17.4848L29.1063 15.545ZM27.9112 15.245C27.1012 15.0479 26.5393 14.7581 26.1625 14.4215L24.8301 15.913C25.5186 16.5281 26.4091 16.9379 27.4385 17.1883L27.9112 15.245ZM26.1625 14.4215C25.8721 14.1621 25.7001 13.8095 25.7026 13.2487L23.7026 13.2399C23.698 14.2914 24.0551 15.2207 24.8301 15.913L26.1625 14.4215ZM25.7026 13.2389C25.7001 12.7706 25.8208 12.4041 26.0417 12.0971L24.4182 10.9291C23.9288 11.6094 23.698 12.397 23.7026 13.2497L25.7026 13.2389ZM26.0389 12.101C26.282 11.7664 26.6268 11.4859 27.1106 11.2715L26.3003 9.443C25.5341 9.78256 24.8952 10.2727 24.4209 10.9253L26.0389 12.101ZM27.1106 11.2715C27.5888 11.0595 28.1576 10.9418 28.8361 10.9418V8.94176C27.9237 8.94176 27.072 9.10097 26.3003 9.443L27.1106 11.2715ZM28.8361 10.9418C29.5327 10.9418 30.0917 11.0608 30.5391 11.2661L31.3732 9.44835C30.6132 9.09967 29.7588 8.94176 28.8361 8.94176V10.9418ZM30.5411 11.2671C31.0024 11.4775 31.3245 11.7512 31.5474 12.0774L33.1986 10.9489C32.7468 10.2878 32.1244 9.791 31.3711 9.44742L30.5411 11.2671ZM31.5474 12.0774C31.7647 12.3953 31.8875 12.7728 31.8952 13.2447L33.8949 13.2119C33.8814 12.3841 33.6561 11.6182 33.1986 10.9489L31.5474 12.0774ZM32.8951 12.2283H30.6845V14.2283H32.8951V12.2283ZM34.5956 21H33.5956V22H34.5956V21ZM34.5956 10.0909V9.09091H33.5956V10.0909H34.5956ZM41.9465 10.0909H42.9465V9.09091H41.9465V10.0909ZM41.9465 11.9925V12.9925H42.9465V11.9925H41.9465ZM36.9021 11.9925V10.9925H35.9021V11.9925H36.9021ZM36.9021 14.592H35.9021V15.592H36.9021V14.592ZM41.5683 14.592H42.5683V13.592H41.5683V14.592ZM41.5683 16.4936V17.4936H42.5683V16.4936H41.5683ZM36.9021 16.4936V15.4936H35.9021V16.4936H36.9021ZM36.9021 19.0984H35.9021V20.0984H36.9021V19.0984ZM41.9678 19.0984H42.9678V18.0984H41.9678V19.0984ZM41.9678 21V22H42.9678V21H41.9678ZM35.5956 21V10.0909H33.5956V21H35.5956ZM34.5956 11.0909H41.9465V9.09091H34.5956V11.0909ZM40.9465 10.0909V11.9925H42.9465V10.0909H40.9465ZM41.9465 10.9925H36.9021V12.9925H41.9465V10.9925ZM35.9021 11.9925V14.592H37.9021V11.9925H35.9021ZM36.9021 15.592H41.5683V13.592H36.9021V15.592ZM40.5683 14.592V16.4936H42.5683V14.592H40.5683ZM41.5683 15.4936H36.9021V17.4936H41.5683V15.4936ZM35.9021 16.4936V19.0984H37.9021V16.4936H35.9021ZM36.9021 20.0984H41.9678V18.0984H36.9021V20.0984ZM40.9678 19.0984V21H42.9678V19.0984H40.9678ZM41.9678 20H34.5956V22H41.9678V20ZM43.7802 21H42.7802V22H43.7802V21ZM43.7802 10.0909V9.09091H42.7802V10.0909H43.7802ZM46.0866 10.0909H47.0866V9.09091H46.0866V10.0909ZM46.0866 19.0984H45.0866V20.0984H46.0866V19.0984ZM50.7635 19.0984H51.7635V18.0984H50.7635V19.0984ZM50.7635 21V22H51.7635V21H50.7635ZM44.7802 21V10.0909H42.7802V21H44.7802ZM43.7802 11.0909H46.0866V9.09091H43.7802V11.0909ZM45.0866 10.0909V19.0984H47.0866V10.0909H45.0866ZM46.0866 20.0984H50.7635V18.0984H46.0866V20.0984ZM49.7635 19.0984V21H51.7635V19.0984H49.7635ZM50.7635 20H43.7802V22H50.7635V20ZM52.2909 21H51.2909V22H52.2909V21ZM52.2909 10.0909V9.09091H51.2909V10.0909H52.2909ZM59.6418 10.0909H60.6418V9.09091H59.6418V10.0909ZM59.6418 11.9925V12.9925H60.6418V11.9925H59.6418ZM54.5974 11.9925V10.9925H53.5974V11.9925H54.5974ZM54.5974 14.592H53.5974V15.592H54.5974V14.592ZM59.2636 14.592H60.2636V13.592H59.2636V14.592ZM59.2636 16.4936V17.4936H60.2636V16.4936H59.2636ZM54.5974 16.4936V15.4936H53.5974V16.4936H54.5974ZM54.5974 19.0984H53.5974V20.0984H54.5974V19.0984ZM59.6631 19.0984H60.6631V18.0984H59.6631V19.0984ZM59.6631 21V22H60.6631V21H59.6631ZM53.2909 21V10.0909H51.2909V21H53.2909ZM52.2909 11.0909H59.6418V9.09091H52.2909V11.0909ZM58.6418 10.0909V11.9925H60.6418V10.0909H58.6418ZM59.6418 10.9925H54.5974V12.9925H59.6418V10.9925ZM53.5974 11.9925V14.592H55.5974V11.9925H53.5974ZM54.5974 15.592H59.2636V13.592H54.5974V15.592ZM58.2636 14.592V16.4936H60.2636V14.592H58.2636ZM59.2636 15.4936H54.5974V17.4936H59.2636V15.4936ZM53.5974 16.4936V19.0984H55.5974V16.4936H53.5974ZM54.5974 20.0984H59.6631V18.0984H54.5974V20.0984ZM58.6631 19.0984V21H60.6631V19.0984H58.6631ZM59.6631 20H52.2909V22H59.6631V20ZM71.1009 13.9102V14.9102H72.2258L72.094 13.793L71.1009 13.9102ZM68.7678 13.9102L67.7776 14.0499L67.899 14.9102H68.7678V13.9102ZM68.5067 13.1058L67.6313 13.5893L67.6345 13.5948L68.5067 13.1058ZM68.0007 12.4986L67.3711 13.2755L67.3711 13.2755L68.0007 12.4986ZM67.2869 12.1151L66.9707 13.0637L66.9745 13.065L67.2869 12.1151ZM64.9432 12.4027L65.4946 13.2369L65.4995 13.2337L64.9432 12.4027ZM63.9684 13.6172L64.885 14.017L64.886 14.0148L63.9684 13.6172ZM63.9684 17.5057L63.0518 17.9055L63.0541 17.9107L63.9684 17.5057ZM64.9485 18.7042L64.407 19.5449L64.407 19.5449L64.9485 18.7042ZM67.2603 18.9865L66.9671 18.0304L66.9635 18.0316L67.2603 18.9865ZM67.9688 18.6296L68.5732 19.4264L68.5817 19.4197L67.9688 18.6296ZM68.4801 18.049L67.6261 17.5286L67.6203 17.5385L68.4801 18.049ZM68.7678 17.2713L68.7723 16.2713L67.9348 16.2675L67.7841 17.0914L68.7678 17.2713ZM71.1009 17.282L72.0937 17.4017L72.228 16.2871L71.1054 16.282L71.1009 17.282ZM70.6481 18.7308L69.7605 18.2701L69.7592 18.2727L70.6481 18.7308ZM69.6839 19.9719L70.354 20.7143L70.3544 20.7139L69.6839 19.9719ZM68.2457 20.8349L68.5995 21.7702L68.6027 21.769L68.2457 20.8349ZM63.7553 20.4886L63.2557 21.3549L63.2575 21.3559L63.7553 20.4886ZM61.9442 18.5763L61.0598 19.043L61.0614 19.046L61.9442 18.5763ZM61.9549 12.5092L62.8362 12.9818L62.8362 12.9818L61.9549 12.5092ZM63.7766 10.6023L64.2715 11.4713L64.2745 11.4695L63.7766 10.6023ZM68.1232 10.2081L67.8107 11.158L67.8126 11.1586L68.1232 10.2081ZM69.5668 10.9858L68.9357 11.7615L68.9397 11.7647L69.5668 10.9858ZM70.5895 12.2269L69.7082 12.6995L69.7109 12.7044L70.5895 12.2269ZM71.1009 12.9102H68.7678V14.9102H71.1009V12.9102ZM69.7579 13.7704C69.7003 13.3622 69.5786 12.9728 69.379 12.6168L67.6345 13.5948C67.6977 13.7076 67.75 13.8544 67.7776 14.0499L69.7579 13.7704ZM69.3821 12.6224C69.1901 12.2746 68.9389 11.9717 68.6303 11.7216L67.3711 13.2755C67.4745 13.3593 67.5606 13.4612 67.6314 13.5892L69.3821 12.6224ZM68.6303 11.7216C68.3234 11.473 67.9763 11.2891 67.5994 11.1651L66.9745 13.065C67.1373 13.1186 67.2661 13.1904 67.3711 13.2755L68.6303 11.7216ZM67.6032 11.1664C67.224 11.04 66.8266 10.9819 66.4187 10.9819V12.9819C66.6357 12.9819 66.8172 13.0126 66.9707 13.0637L67.6032 11.1664ZM66.4187 10.9819C65.6805 10.9819 64.9898 11.1681 64.3869 11.5717L65.4995 13.2337C65.7346 13.0763 66.0276 12.9819 66.4187 12.9819V10.9819ZM64.3917 11.5685C63.7869 11.9683 63.3465 12.5373 63.0508 13.2196L64.886 14.0148C65.052 13.6317 65.2614 13.3911 65.4946 13.2369L64.3917 11.5685ZM63.0518 13.2173C62.7517 13.9052 62.6222 14.6922 62.6222 15.5455H64.6222C64.6222 14.886 64.7234 14.3874 64.885 14.017L63.0518 13.2173ZM62.6222 15.5455C62.6222 16.4156 62.7504 17.2146 63.0518 17.9055L64.885 17.1058C64.7247 16.7385 64.6222 16.2307 64.6222 15.5455H62.6222ZM63.0541 17.9107C63.3545 18.5889 63.7987 19.1531 64.407 19.5449L65.49 17.8635C65.2602 17.7155 65.051 17.4807 64.8827 17.1007L63.0541 17.9107ZM64.407 19.5449C65.0041 19.9295 65.681 20.109 66.4027 20.109V18.109C66.0235 18.109 65.731 18.0187 65.49 17.8635L64.407 19.5449ZM66.4027 20.109C66.8001 20.109 67.1872 20.0564 67.5571 19.9414L66.9635 18.0316C66.8078 18.08 66.6232 18.109 66.4027 18.109V20.109ZM67.5535 19.9426C67.9234 19.8291 68.2666 19.6589 68.5731 19.4263L67.3644 17.8329C67.259 17.9129 67.1299 17.9805 66.9671 18.0305L67.5535 19.9426ZM68.5817 19.4197C68.8882 19.1819 69.1419 18.8931 69.34 18.5595L67.6203 17.5385C67.5484 17.6594 67.4612 17.7577 67.3558 17.8395L68.5817 19.4197ZM69.3341 18.5694C69.543 18.2264 69.6786 17.8494 69.7514 17.4512L67.7841 17.0914C67.7504 17.2756 67.6942 17.417 67.6262 17.5286L69.3341 18.5694ZM68.7632 18.2713L71.0963 18.2819L71.1054 16.282L68.7723 16.2713L68.7632 18.2713ZM70.108 17.1623C70.0626 17.5393 69.949 17.9071 69.7605 18.2701L71.5356 19.1915C71.8302 18.6241 72.0184 18.0261 72.0937 17.4017L70.108 17.1623ZM69.7592 18.2727C69.5792 18.622 69.3336 18.9408 69.0135 19.2299L70.3544 20.7139C70.8439 20.2716 71.2411 19.7629 71.537 19.1889L69.7592 18.2727ZM69.0139 19.2296C68.7133 19.501 68.343 19.7272 67.8888 19.9008L68.6027 21.769C69.2636 21.5164 69.852 21.1674 70.354 20.7143L69.0139 19.2296ZM67.892 19.8995C67.4695 20.0593 66.9656 20.1491 66.3654 20.1491V22.1491C67.1644 22.1491 67.914 22.0295 68.5995 21.7702L67.892 19.8995ZM66.3654 20.1491C65.5491 20.1491 64.8539 19.9662 64.2532 19.6214L63.2575 21.3559C64.1909 21.8917 65.2357 22.1491 66.3654 22.1491V20.1491ZM64.2549 19.6224C63.6657 19.2825 63.1896 18.7882 62.8271 18.1067L61.0614 19.046C61.5867 20.0335 62.318 20.814 63.2557 21.3549L64.2549 19.6224ZM62.8287 18.1097C62.4813 17.4513 62.2837 16.6098 62.2837 15.5455H60.2837C60.2837 16.8533 60.5265 18.0324 61.0598 19.043L62.8287 18.1097ZM62.2837 15.5455C62.2837 14.4793 62.4842 13.6384 62.8362 12.9818L61.0736 12.0367C60.5308 13.0491 60.2837 14.2324 60.2837 15.5455H62.2837ZM62.8362 12.9818C63.2015 12.3006 63.68 11.8081 64.2715 11.4713L63.2818 9.73329C62.3392 10.27 61.6032 11.0489 61.0736 12.0367L62.8362 12.9818ZM64.2745 11.4695C64.8774 11.1234 65.5662 10.9418 66.3654 10.9418V8.94176C65.247 8.94176 64.2099 9.20046 63.2788 9.73502L64.2745 11.4695ZM66.3654 10.9418C66.9032 10.9418 67.3825 11.0171 67.8107 11.158L68.4357 9.25817C67.7844 9.04394 67.0918 8.94176 66.3654 8.94176V10.9418ZM67.8126 11.1586C68.2461 11.3003 68.6173 11.5025 68.9357 11.7615L70.1978 10.2101C69.6782 9.78731 69.087 9.471 68.4339 9.25757L67.8126 11.1586ZM68.9397 11.7647C69.2508 12.0152 69.5066 12.3235 69.7082 12.6995L71.4708 11.7543C71.1468 11.1502 70.7208 10.6311 70.1939 10.2069L68.9397 11.7647ZM69.7109 12.7044C69.9085 13.0681 70.046 13.5038 70.1077 14.0273L72.094 13.793C72.0066 13.0523 71.8031 12.3658 71.4681 11.7494L69.7109 12.7044ZM72.3393 11.9925H71.3393V12.9925H72.3393V11.9925ZM72.3393 10.0909V9.09091H71.3393V10.0909H72.3393ZM81.2988 10.0909H82.2988V9.09091H81.2988V10.0909ZM81.2988 11.9925V12.9925H82.2988V11.9925H81.2988ZM77.959 11.9925V10.9925H76.959V11.9925H77.959ZM77.959 21V22H78.959V21H77.959ZM75.6792 21H74.6792V22H75.6792V21ZM75.6792 11.9925H76.6792V10.9925H75.6792V11.9925ZM73.3393 11.9925V10.0909H71.3393V11.9925H73.3393ZM72.3393 11.0909H81.2988V9.09091H72.3393V11.0909ZM80.2988 10.0909V11.9925H82.2988V10.0909H80.2988ZM81.2988 10.9925H77.959V12.9925H81.2988V10.9925ZM76.959 11.9925V21H78.959V11.9925H76.959ZM77.959 20H75.6792V22H77.959V20ZM76.6792 21V11.9925H74.6792V21H76.6792ZM75.6792 10.9925H72.3393V12.9925H75.6792V10.9925ZM95.5944 18.5817L94.7146 18.1062L94.7131 18.1091L95.5944 18.5817ZM93.762 20.494L94.2551 21.3639L94.2564 21.3632L93.762 20.494ZM88.5525 20.4886L89.0486 19.6204L88.5525 20.4886ZM86.7254 18.5763L85.8441 19.0489L85.8441 19.0489L86.7254 18.5763ZM86.7254 12.5092L87.6067 12.9818L87.6067 12.9818L86.7254 12.5092ZM88.5525 10.6023L89.0456 11.4722L89.0486 11.4705L88.5525 10.6023ZM93.762 10.6023L93.2658 11.4705L93.2706 11.4732L93.762 10.6023ZM95.5944 12.5092L94.7131 12.9818L94.7146 12.9847L95.5944 12.5092ZM93.5862 13.5959L92.6674 13.9906L92.6696 13.9957L93.5862 13.5959ZM92.6221 12.392L92.0723 13.2274L92.0723 13.2274L92.6221 12.392ZM89.703 12.392L90.2528 13.2274L90.2528 13.2274L89.703 12.392ZM88.7336 13.5959L87.817 13.196L87.8148 13.2012L88.7336 13.5959ZM88.7336 17.495L87.8147 17.8897L87.817 17.8949L88.7336 17.495ZM89.703 18.6989L90.2528 17.8635L90.2528 17.8635L89.703 18.6989ZM92.6221 18.6989L92.0723 17.8635L92.0723 17.8635L92.6221 18.6989ZM93.5862 17.495L92.6696 17.0952L92.6674 17.1004L93.5862 17.495ZM95.2709 15.5455C95.2709 16.6105 95.0691 17.4503 94.7146 18.1062L96.4741 19.0571C97.0216 18.044 97.2709 16.8597 97.2709 15.5455H95.2709ZM94.7131 18.1091C94.3488 18.7886 93.8675 19.2835 93.2676 19.6247L94.2564 21.3632C95.2048 20.8237 95.9451 20.0438 96.4757 19.0542L94.7131 18.1091ZM93.2689 19.624C92.6615 19.9683 91.9674 20.1491 91.1626 20.1491V22.1491C92.2824 22.1491 93.3213 21.8932 94.2551 21.3639L93.2689 19.624ZM91.1626 20.1491C90.3506 20.1491 89.6544 19.9666 89.0486 19.6204L88.0563 21.3569C88.9917 21.8914 90.0356 22.1491 91.1626 22.1491V20.1491ZM89.0486 19.6204C88.452 19.2795 87.9717 18.7844 87.6067 18.1038L85.8441 19.0489C86.3741 20.0373 87.1117 20.8171 88.0563 21.3569L89.0486 19.6204ZM87.6067 18.1038C87.2545 17.4468 87.0542 16.6075 87.0542 15.5455H85.0542C85.0542 16.8555 85.3015 18.0369 85.8441 19.0489L87.6067 18.1038ZM87.0542 15.5455C87.0542 14.4793 87.2547 13.6384 87.6067 12.9818L85.8441 12.0367C85.3013 13.0491 85.0542 14.2324 85.0542 15.5455H87.0542ZM87.6067 12.9818C87.9713 12.3017 88.4508 11.8094 89.0456 11.4722L88.0594 9.73231C87.113 10.2687 86.3744 11.0477 85.8441 12.0367L87.6067 12.9818ZM89.0486 11.4705C89.6544 11.1244 90.3506 10.9418 91.1626 10.9418V8.94176C90.0356 8.94176 88.9917 9.19951 88.0563 9.73403L89.0486 11.4705ZM91.1626 10.9418C91.966 10.9418 92.659 11.1237 93.2658 11.4705L94.2581 9.73403C93.3238 9.20014 92.2838 8.94176 91.1626 8.94176V10.9418ZM93.2706 11.4732C93.8687 11.8107 94.3491 12.3029 94.7131 12.9818L96.4757 12.0367C95.9448 11.0465 95.2036 10.2674 94.2534 9.73134L93.2706 11.4732ZM94.7146 12.9847C95.0691 13.6406 95.2709 14.4804 95.2709 15.5455H97.2709C97.2709 14.2312 97.0216 13.0469 96.4741 12.0338L94.7146 12.9847ZM94.9324 15.5455C94.9324 14.6809 94.8038 13.8859 94.5028 13.196L92.6696 13.9957C92.8303 14.3641 92.9324 14.8688 92.9324 15.5455H94.9324ZM94.505 13.2012C94.213 12.5213 93.7754 11.9539 93.1718 11.5567L92.0723 13.2274C92.2997 13.377 92.5049 13.6122 92.6674 13.9905L94.505 13.2012ZM93.1718 11.5567C92.5738 11.1632 91.891 10.9819 91.1626 10.9819V12.9819C91.5491 12.9819 91.8394 13.0741 92.0723 13.2274L93.1718 11.5567ZM91.1626 10.9819C90.4341 10.9819 89.7513 11.1632 89.1533 11.5567L90.2528 13.2274C90.4858 13.0741 90.776 12.9819 91.1626 12.9819V10.9819ZM89.1533 11.5567C88.5512 11.9529 88.1126 12.5185 87.817 13.196L89.6502 13.9957C89.8162 13.6151 90.0239 13.378 90.2528 13.2274L89.1533 11.5567ZM87.8148 13.2012C87.5191 13.8895 87.3927 14.6826 87.3927 15.5455H89.3927C89.3927 14.8672 89.4935 14.3605 89.6524 13.9905L87.8148 13.2012ZM87.3927 15.5455C87.3927 16.4084 87.5191 17.2014 87.8148 17.8897L89.6524 17.1004C89.4935 16.7304 89.3927 16.2238 89.3927 15.5455H87.3927ZM87.817 17.8949C88.1126 18.5725 88.5512 19.138 89.1533 19.5342L90.2528 17.8635C90.0239 17.7129 89.8162 17.4758 89.6502 17.0952L87.817 17.8949ZM89.1533 19.5342C89.7513 19.9277 90.4341 20.109 91.1626 20.109V18.109C90.776 18.109 90.4858 18.0169 90.2528 17.8635L89.1533 19.5342ZM91.1626 20.109C91.891 20.109 92.5738 19.9277 93.1718 19.5342L92.0723 17.8635C91.8394 18.0169 91.5491 18.109 91.1626 18.109V20.109ZM93.1718 19.5342C93.7754 19.137 94.213 18.5696 94.505 17.8897L92.6674 17.1004C92.5049 17.4787 92.2997 17.7139 92.0723 17.8635L93.1718 19.5342ZM94.5028 17.8949C94.8038 17.205 94.9324 16.41 94.9324 15.5455H92.9324C92.9324 16.2221 92.8303 16.7268 92.6696 17.0952L94.5028 17.8949ZM97.9794 21H96.9794V22H97.9794V21ZM97.9794 10.0909V9.09091H96.9794V10.0909H97.9794ZM104.398 10.565L103.921 11.4439L103.925 11.4461L104.398 10.565ZM105.73 11.87L104.853 12.3505L104.856 12.3571L105.73 11.87ZM104.366 16.9996L103.904 16.1128L103.902 16.1139L104.366 16.9996ZM99.4815 17.4631H98.4815V18.4631H99.4815V17.4631ZM99.4815 15.6147V14.6147H98.4815V15.6147H99.4815ZM102.949 15.3857L103.418 16.2689L103.422 16.2668L102.949 15.3857ZM103.599 14.7411L102.714 14.2758L102.712 14.2801L103.599 14.7411ZM103.599 12.8395L102.712 13.3005L102.715 13.3074L102.719 13.3143L103.599 12.8395ZM102.949 12.2056L102.485 13.0913L102.493 13.0957L102.949 12.2056ZM100.286 11.9766V10.9766H99.2859V11.9766H100.286ZM100.286 21V22H101.286V21H100.286ZM98.9794 21V10.0909H96.9794V21H98.9794ZM97.9794 11.0909H102.283V9.09091H97.9794V11.0909ZM102.283 11.0909C102.985 11.0909 103.517 11.2247 103.921 11.4439L104.875 9.68607C104.114 9.27316 103.237 9.09091 102.283 9.09091V11.0909ZM103.925 11.4461C104.344 11.6709 104.644 11.9698 104.853 12.3504L106.607 11.3896C106.205 10.6552 105.617 10.0841 104.871 9.68383L103.925 11.4461ZM104.856 12.3571C105.071 12.7421 105.193 13.2092 105.193 13.7876H107.193C107.193 12.9173 107.006 12.1059 106.603 11.383L104.856 12.3571ZM105.193 13.7876C105.193 14.3642 105.07 14.8297 104.853 15.2139L106.595 16.1966C107.004 15.4728 107.193 14.6599 107.193 13.7876H105.193ZM104.853 15.2139C104.641 15.5904 104.335 15.8885 103.904 16.1128L104.828 17.8865C105.584 17.4929 106.183 16.9281 106.595 16.1966L104.853 15.2139ZM103.902 16.1139C103.488 16.3308 102.942 16.4631 102.225 16.4631V18.4631C103.184 18.4631 104.065 18.2863 104.83 17.8854L103.902 16.1139ZM102.225 16.4631H99.4815V18.4631H102.225V16.4631ZM100.482 17.4631V15.6147H98.4815V17.4631H100.482ZM99.4815 16.6147H101.852V14.6147H99.4815V16.6147ZM101.852 16.6147C102.403 16.6147 102.943 16.521 103.418 16.2689L102.48 14.5024C102.38 14.5557 102.189 14.6147 101.852 14.6147V16.6147ZM103.422 16.2668C103.877 16.0227 104.245 15.6673 104.486 15.2021L102.712 14.2801C102.669 14.3618 102.604 14.4361 102.476 14.5045L103.422 16.2668ZM104.484 15.2064C104.716 14.7662 104.817 14.2845 104.817 13.7876H102.817C102.817 14.0081 102.774 14.1621 102.714 14.2758L104.484 15.2064ZM104.817 13.7876C104.817 13.2897 104.717 12.8048 104.479 12.3647L102.719 13.3143C102.773 13.414 102.817 13.5611 102.817 13.7876H104.817ZM104.486 12.3785C104.243 11.909 103.869 11.5532 103.405 11.3156L102.493 13.0957C102.612 13.1563 102.671 13.2231 102.712 13.3005L104.486 12.3785ZM103.414 11.32C102.937 11.07 102.395 10.9766 101.841 10.9766V12.9766C102.183 12.9766 102.379 13.0358 102.485 13.0912L103.414 11.32ZM101.841 10.9766H100.286V12.9766H101.841V10.9766ZM99.2859 11.9766V21H101.286V11.9766H99.2859ZM100.286 20H97.9794V22H100.286V20ZM107.276 11.9925H106.276V12.9925H107.276V11.9925ZM107.276 10.0909V9.09091H106.276V10.0909H107.276ZM116.235 10.0909H117.235V9.09091H116.235V10.0909ZM116.235 11.9925V12.9925H117.235V11.9925H116.235ZM112.896 11.9925V10.9925H111.896V11.9925H112.896ZM112.896 21V22H113.896V21H112.896ZM110.616 21H109.616V22H110.616V21ZM110.616 11.9925H111.616V10.9925H110.616V11.9925ZM108.276 11.9925V10.0909H106.276V11.9925H108.276ZM107.276 11.0909H116.235V9.09091H107.276V11.0909ZM115.235 10.0909V11.9925H117.235V10.0909H115.235ZM116.235 10.9925H112.896V12.9925H116.235V10.9925ZM111.896 11.9925V21H113.896V11.9925H111.896ZM112.896 20H110.616V22H112.896V20ZM111.616 21V11.9925H109.616V21H111.616ZM110.616 10.9925H107.276V12.9925H110.616V10.9925ZM120.017 10.0909H121.017V9.09091H120.017V10.0909ZM120.017 21V22H121.017V21H120.017ZM117.711 21H116.711V22H117.711V21ZM117.711 10.0909V9.09091H116.711V10.0909H117.711ZM119.017 10.0909V21H121.017V10.0909H119.017ZM120.017 20H117.711V22H120.017V20ZM118.711 21V10.0909H116.711V21H118.711ZM117.711 11.0909H120.017V9.09091H117.711V11.0909ZM131.263 18.5817L130.384 18.1062L130.382 18.1091L131.263 18.5817ZM129.431 20.494L129.924 21.3639L129.925 21.3632L129.431 20.494ZM124.221 20.4886L124.718 19.6204L124.221 20.4886ZM122.394 18.5763L121.513 19.0489L121.513 19.0489L122.394 18.5763ZM122.394 12.5092L123.276 12.9818L123.276 12.9818L122.394 12.5092ZM124.221 10.6023L124.715 11.4722L124.718 11.4705L124.221 10.6023ZM129.431 10.6023L128.935 11.4705L128.94 11.4732L129.431 10.6023ZM131.263 12.5092L130.382 12.9818L130.384 12.9847L131.263 12.5092ZM129.255 13.5959L128.336 13.9906L128.339 13.9957L129.255 13.5959ZM128.291 12.392L127.741 13.2274L127.741 13.2274L128.291 12.392ZM125.372 12.392L125.922 13.2274L125.922 13.2274L125.372 12.392ZM124.403 13.5959L123.486 13.196L123.484 13.2012L124.403 13.5959ZM124.403 17.495L123.484 17.8897L123.486 17.8949L124.403 17.495ZM125.372 18.6989L125.922 17.8635L125.922 17.8635L125.372 18.6989ZM128.291 18.6989L127.741 17.8635L127.741 17.8635L128.291 18.6989ZM129.255 17.495L128.339 17.0952L128.336 17.1004L129.255 17.495ZM130.94 15.5455C130.94 16.6105 130.738 17.4503 130.384 18.1062L132.143 19.0571C132.691 18.044 132.94 16.8597 132.94 15.5455H130.94ZM130.382 18.1091C130.018 18.7886 129.536 19.2835 128.937 19.6247L129.925 21.3632C130.874 20.8237 131.614 20.0438 132.145 19.0542L130.382 18.1091ZM128.938 19.624C128.33 19.9683 127.636 20.1491 126.831 20.1491V22.1491C127.951 22.1491 128.99 21.8932 129.924 21.3639L128.938 19.624ZM126.831 20.1491C126.02 20.1491 125.323 19.9666 124.718 19.6204L123.725 21.3569C124.661 21.8914 125.705 22.1491 126.831 22.1491V20.1491ZM124.718 19.6204C124.121 19.2795 123.641 18.7844 123.276 18.1038L121.513 19.0489C122.043 20.0373 122.781 20.8171 123.725 21.3569L124.718 19.6204ZM123.276 18.1038C122.923 17.4468 122.723 16.6075 122.723 15.5455H120.723C120.723 16.8555 120.97 18.0369 121.513 19.0489L123.276 18.1038ZM122.723 15.5455C122.723 14.4793 122.924 13.6384 123.276 12.9818L121.513 12.0367C120.97 13.0491 120.723 14.2324 120.723 15.5455H122.723ZM123.276 12.9818C123.64 12.3017 124.12 11.8094 124.715 11.4722L123.728 9.73231C122.782 10.2687 122.043 11.0477 121.513 12.0367L123.276 12.9818ZM124.718 11.4705C125.323 11.1244 126.02 10.9418 126.831 10.9418V8.94176C125.705 8.94176 124.661 9.19951 123.725 9.73403L124.718 11.4705ZM126.831 10.9418C127.635 10.9418 128.328 11.1237 128.935 11.4705L129.927 9.73403C128.993 9.20014 127.953 8.94176 126.831 8.94176V10.9418ZM128.94 11.4732C129.538 11.8107 130.018 12.3029 130.382 12.9818L132.145 12.0367C131.614 11.0465 130.873 10.2674 129.922 9.73134L128.94 11.4732ZM130.384 12.9847C130.738 13.6406 130.94 14.4804 130.94 15.5455H132.94C132.94 14.2312 132.691 13.0469 132.143 12.0338L130.384 12.9847ZM130.601 15.5455C130.601 14.6809 130.473 13.8859 130.172 13.196L128.339 13.9957C128.499 14.3641 128.601 14.8688 128.601 15.5455H130.601ZM130.174 13.2012C129.882 12.5213 129.444 11.9539 128.841 11.5567L127.741 13.2274C127.969 13.377 128.174 13.6122 128.336 13.9905L130.174 13.2012ZM128.841 11.5567C128.243 11.1632 127.56 10.9819 126.831 10.9819V12.9819C127.218 12.9819 127.508 13.0741 127.741 13.2274L128.841 11.5567ZM126.831 10.9819C126.103 10.9819 125.42 11.1632 124.822 11.5567L125.922 13.2274C126.155 13.0741 126.445 12.9819 126.831 12.9819V10.9819ZM124.822 11.5567C124.22 11.9529 123.782 12.5185 123.486 13.196L125.319 13.9957C125.485 13.6151 125.693 13.378 125.922 13.2274L124.822 11.5567ZM123.484 13.2012C123.188 13.8895 123.062 14.6826 123.062 15.5455H125.062C125.062 14.8672 125.162 14.3605 125.321 13.9905L123.484 13.2012ZM123.062 15.5455C123.062 16.4084 123.188 17.2014 123.484 17.8897L125.321 17.1004C125.162 16.7304 125.062 16.2238 125.062 15.5455H123.062ZM123.486 17.8949C123.782 18.5725 124.22 19.138 124.822 19.5342L125.922 17.8635C125.693 17.7129 125.485 17.4758 125.319 17.0952L123.486 17.8949ZM124.822 19.5342C125.42 19.9277 126.103 20.109 126.831 20.109V18.109C126.445 18.109 126.155 18.0169 125.922 17.8635L124.822 19.5342ZM126.831 20.109C127.56 20.109 128.243 19.9277 128.841 19.5342L127.741 17.8635C127.508 18.0169 127.218 18.109 126.831 18.109V20.109ZM128.841 19.5342C129.444 19.137 129.882 18.5696 130.174 17.8897L128.336 17.1004C128.174 17.4787 127.969 17.7139 127.741 17.8635L128.841 19.5342ZM130.172 17.8949C130.473 17.205 130.601 16.41 130.601 15.5455H128.601C128.601 16.2221 128.499 16.7268 128.339 17.0952L130.172 17.8949ZM142.773 10.0909H143.773V9.09091H142.773V10.0909ZM142.773 21V22H143.773V21H142.773ZM140.781 21L139.958 21.5686L140.256 22H140.781V21ZM136.035 14.1339L136.857 13.5653L136.559 13.1339H136.035V14.1339ZM135.955 14.1339V13.1339H134.955V14.1339H135.955ZM135.955 21V22H136.955V21H135.955ZM133.648 21H132.648V22H133.648V21ZM133.648 10.0909V9.09091H132.648V10.0909H133.648ZM135.672 10.0909L136.497 9.52503L136.199 9.09091H135.672V10.0909ZM140.381 16.9517L139.557 17.5176L139.855 17.9517H140.381V16.9517ZM140.477 16.9517V17.9517H141.477V16.9517H140.477ZM140.477 10.0909V9.09091H139.477V10.0909H140.477ZM141.773 10.0909V21H143.773V10.0909H141.773ZM142.773 20H140.781V22H142.773V20ZM141.603 20.4314L136.857 13.5653L135.212 14.7025L139.958 21.5686L141.603 20.4314ZM136.035 13.1339H135.955V15.1339H136.035V13.1339ZM134.955 14.1339V21H136.955V14.1339H134.955ZM135.955 20H133.648V22H135.955V20ZM134.648 21V10.0909H132.648V21H134.648ZM133.648 11.0909H135.672V9.09091H133.648V11.0909ZM134.848 10.6568L139.557 17.5176L141.206 16.3858L136.497 9.52503L134.848 10.6568ZM140.381 17.9517H140.477V15.9517H140.381V17.9517ZM141.477 16.9517V10.0909H139.477V16.9517H141.477ZM140.477 11.0909H142.773V9.09091H140.477V11.0909ZM150.597 13.2283L149.601 13.327L149.691 14.2283H150.597V13.2283ZM147.779 12.0298L148.148 12.9592L148.159 12.9548L147.779 12.0298ZM147.182 12.4613L146.382 11.8612L146.375 11.8713L147.182 12.4613ZM146.98 13.0898L147.979 13.1262L147.98 13.108V13.0898H146.98ZM147.102 13.6012L146.248 14.1218L146.253 14.1293L146.258 14.1367L147.102 13.6012ZM147.48 13.9794L146.926 14.8115L146.932 14.8158L146.939 14.82L147.48 13.9794ZM148.034 14.2511L147.685 15.188L147.692 15.1907L147.699 15.1932L148.034 14.2511ZM148.706 14.4428L148.938 13.4702L148.931 13.4686L148.924 13.467L148.706 14.4428ZM149.686 14.6772L149.453 15.6498L149.46 15.6515L149.467 15.653L149.686 14.6772ZM150.996 15.1033L150.588 16.0165L150.588 16.0165L150.996 15.1033ZM152.029 15.7585L152.694 15.0116L152.694 15.0116L152.029 15.7585ZM152.706 16.6747L151.796 17.0885L151.799 17.0961L152.706 16.6747ZM152.956 17.8839L153.956 17.8892L153.956 17.8761L152.956 17.8839ZM152.445 19.6204L151.621 19.0533L151.62 19.0546L152.445 19.6204ZM150.996 20.755L151.386 21.6757L151.389 21.6747L150.996 20.755ZM146.42 20.7496L146.037 21.6732L146.039 21.6739L146.42 20.7496ZM144.897 19.5511L144.07 20.1135L144.074 20.1198L144.897 19.5511ZM144.327 17.5749V16.5749H143.304L143.327 17.5975L144.327 17.5749ZM146.559 17.5749L147.557 17.5071L147.493 16.5749H146.559V17.5749ZM146.873 18.4911L146.075 19.093L146.08 19.0995L146.084 19.1059L146.873 18.4911ZM147.624 19.0398L147.255 19.9691L147.267 19.9739L147.624 19.0398ZM149.712 19.0504L149.349 18.1188L149.345 18.1204L149.712 19.0504ZM150.389 18.5763L151.174 19.196L151.174 19.196L150.389 18.5763ZM150.41 17.2607L149.649 17.9088L149.657 17.918L150.41 17.2607ZM149.782 16.8345L149.388 17.7537L149.392 17.7555L149.782 16.8345ZM148.775 16.5149L148.531 17.4848L148.541 17.4871L148.775 16.5149ZM147.587 16.2166L147.831 15.2467L147.823 15.245L147.587 16.2166ZM145.408 15.1673L144.742 15.913L144.742 15.913L145.408 15.1673ZM144.615 13.2443L145.615 13.2487L145.615 13.2389L144.615 13.2443ZM145.142 11.5131L144.333 10.9253L144.33 10.9291L145.142 11.5131ZM150.868 10.3572L150.451 11.2661L150.453 11.2671L150.868 10.3572ZM152.285 11.5131L151.46 12.0774L151.46 12.0774L152.285 11.5131ZM152.807 13.2283V14.2283H153.824L153.807 13.2119L152.807 13.2283ZM151.592 13.1296C151.524 12.4422 151.211 11.8413 150.641 11.4216L149.455 13.0322C149.531 13.0883 149.584 13.1551 149.601 13.327L151.592 13.1296ZM150.641 11.4216C150.091 11.0171 149.42 10.87 148.732 10.87V12.87C149.152 12.87 149.358 12.9609 149.455 13.0322L150.641 11.4216ZM148.732 10.87C148.268 10.87 147.812 10.935 147.399 11.1049L148.159 12.9548C148.264 12.9116 148.444 12.87 148.732 12.87V10.87ZM147.41 11.1005C147.015 11.2572 146.652 11.5012 146.382 11.8613L147.982 13.0613C147.989 13.0521 148.024 13.0084 148.148 12.9592L147.41 11.1005ZM146.375 11.8713C146.111 12.2317 145.98 12.649 145.98 13.0898H147.98C147.98 13.0794 147.981 13.0726 147.981 13.069C147.982 13.0654 147.982 13.0638 147.982 13.0635C147.982 13.0631 147.983 13.0625 147.983 13.0613C147.984 13.0599 147.986 13.0566 147.99 13.0513L146.375 11.8713ZM145.98 13.0535C145.967 13.4153 146.043 13.7854 146.248 14.1218L147.956 13.0806C147.968 13.0994 147.974 13.1178 147.978 13.1312C147.981 13.1436 147.978 13.1435 147.979 13.1262L145.98 13.0535ZM146.258 14.1367C146.433 14.4131 146.663 14.6363 146.926 14.8115L148.035 13.1474C147.978 13.1095 147.956 13.0805 147.947 13.0657L146.258 14.1367ZM146.939 14.82C147.168 14.968 147.42 15.0891 147.685 15.188L148.384 13.3141C148.23 13.2568 148.112 13.1967 148.022 13.1388L146.939 14.82ZM147.699 15.1932C147.95 15.2826 148.213 15.3574 148.487 15.4187L148.924 13.467C148.722 13.4217 148.538 13.3687 148.37 13.309L147.699 15.1932ZM148.473 15.4154L149.453 15.6498L149.918 13.7046L148.938 13.4702L148.473 15.4154ZM149.467 15.653C149.886 15.7467 150.258 15.8691 150.588 16.0165L151.404 14.1902C150.938 13.9825 150.437 13.8207 149.904 13.7014L149.467 15.653ZM150.588 16.0165C150.903 16.157 151.158 16.322 151.365 16.5054L152.694 15.0116C152.318 14.6766 151.884 14.4048 151.404 14.1902L150.588 16.0165ZM151.365 16.5054C151.553 16.6729 151.694 16.8651 151.796 17.0885L153.616 16.2609C153.398 15.7812 153.089 15.3626 152.694 15.0116L151.365 16.5054ZM151.799 17.0961C151.893 17.2976 151.954 17.5556 151.956 17.8917L153.956 17.8761C153.952 17.303 153.846 16.755 153.613 16.2533L151.799 17.0961ZM151.956 17.8786C151.954 18.3709 151.831 18.7484 151.621 19.0533L153.269 20.1874C153.733 19.5123 153.952 18.7321 153.956 17.8892L151.956 17.8786ZM151.62 19.0546C151.411 19.3602 151.09 19.6274 150.603 19.8353L151.389 21.6747C152.166 21.3427 152.812 20.8536 153.27 20.1861L151.62 19.0546ZM150.606 19.8342C150.132 20.0351 149.514 20.1545 148.722 20.1545V22.1545C149.705 22.1545 150.603 22.0075 151.386 21.6757L150.606 19.8342ZM148.722 20.1545C147.941 20.1545 147.309 20.0346 146.802 19.8254L146.039 21.6739C146.839 22.0044 147.741 22.1545 148.722 22.1545V20.1545ZM146.804 19.8261C146.314 19.6227 145.966 19.3389 145.72 18.9825L144.074 20.1198C144.56 20.8217 145.227 21.3368 146.037 21.6732L146.804 19.8261ZM145.724 18.9888C145.492 18.6474 145.341 18.1868 145.327 17.5523L143.327 17.5975C143.348 18.5327 143.578 19.3895 144.07 20.1134L145.724 18.9888ZM144.327 18.5749H146.559V16.5749H144.327V18.5749ZM145.561 17.6427C145.597 18.1638 145.752 18.665 146.075 19.093L147.672 17.8893C147.625 17.8272 147.571 17.7176 147.557 17.5071L145.561 17.6427ZM146.084 19.1059C146.393 19.5011 146.794 19.7856 147.255 19.969L147.994 18.1106C147.83 18.0453 147.73 17.9641 147.662 17.8764L146.084 19.1059ZM147.267 19.9739C147.716 20.1451 148.196 20.2209 148.695 20.2209V18.2209C148.398 18.2209 148.165 18.1759 147.981 18.1056L147.267 19.9739ZM148.695 20.2209C149.18 20.2209 149.649 20.1507 150.08 19.9805L149.345 18.1204C149.201 18.1774 148.992 18.2209 148.695 18.2209V20.2209ZM150.076 19.982C150.498 19.8174 150.883 19.5649 151.174 19.196L149.604 17.9567C149.576 17.9926 149.509 18.0562 149.349 18.1188L150.076 19.982ZM151.174 19.196C151.476 18.8135 151.629 18.3616 151.629 17.8786H149.629C149.629 17.907 149.625 17.9204 149.623 17.9252C149.621 17.9298 149.617 17.9396 149.604 17.9567L151.174 19.196ZM151.629 17.8786C151.629 17.4194 151.485 16.9721 151.164 16.6033L149.657 17.918C149.653 17.9138 149.648 17.9073 149.643 17.8986C149.638 17.8898 149.634 17.8812 149.631 17.8736C149.625 17.8573 149.629 17.8559 149.629 17.8786H151.629ZM151.172 16.6125C150.898 16.2912 150.541 16.0701 150.171 15.9135L149.392 17.7555C149.576 17.8333 149.638 17.8963 149.649 17.9088L151.172 16.6125ZM150.176 15.9154C149.835 15.7696 149.443 15.6473 149.009 15.5428L148.541 17.4871C148.902 17.5743 149.181 17.6651 149.388 17.7537L150.176 15.9154ZM149.018 15.545L147.831 15.2467L147.343 17.1865L148.531 17.4848L149.018 15.545ZM147.823 15.245C147.013 15.0479 146.451 14.7581 146.075 14.4215L144.742 15.913C145.431 16.5281 146.321 16.9379 147.351 17.1883L147.823 15.245ZM146.075 14.4215C145.784 14.1621 145.612 13.8095 145.615 13.2487L143.615 13.2399C143.61 14.2914 143.967 15.2207 144.742 15.913L146.075 14.4215ZM145.615 13.2389C145.612 12.7706 145.733 12.4041 145.954 12.0971L144.33 10.9291C143.841 11.6094 143.61 12.397 143.615 13.2497L145.615 13.2389ZM145.951 12.101C146.194 11.7664 146.539 11.4859 147.023 11.2715L146.212 9.443C145.446 9.78256 144.807 10.2727 144.333 10.9253L145.951 12.101ZM147.023 11.2715C147.501 11.0595 148.07 10.9418 148.748 10.9418V8.94176C147.836 8.94176 146.984 9.10097 146.212 9.443L147.023 11.2715ZM148.748 10.9418C149.445 10.9418 150.004 11.0608 150.451 11.2661L151.285 9.44835C150.525 9.09967 149.671 8.94176 148.748 8.94176V10.9418ZM150.453 11.2671C150.915 11.4775 151.237 11.7512 151.46 12.0774L153.111 10.9489C152.659 10.2878 152.036 9.791 151.283 9.44742L150.453 11.2671ZM151.46 12.0774C151.677 12.3953 151.8 12.7728 151.807 13.2447L153.807 13.2119C153.793 12.3841 153.568 11.6182 153.111 10.9489L151.46 12.0774ZM152.807 12.2283H150.597V14.2283H152.807V12.2283Z" fill="black"/>
</svg>
