<svg width="225" height="31" viewBox="0 0 225 31" fill="none" xmlns="http://www.w3.org/2000/svg">
<path d="M0.5 0.5H198.5C206.784 0.5 213.5 7.21573 213.5 15.5C213.5 23.7843 206.784 30.5 198.5 30.5H0.5V0.5Z" fill="black" fill-opacity="0.4" stroke="black"/>
<path d="M11.8599 21.1491C11.0645 21.1491 10.356 21.0124 9.73455 20.739C9.11665 20.462 8.62837 20.082 8.26971 19.5991C7.9146 19.1126 7.73171 18.5515 7.72106 17.9158H10.0435C10.0577 18.1822 10.1447 18.4165 10.3045 18.619C10.4679 18.8178 10.6845 18.9723 10.9544 19.0824C11.2243 19.1925 11.5279 19.2475 11.8652 19.2475C12.2168 19.2475 12.5275 19.1854 12.7974 19.0611C13.0673 18.9368 13.2786 18.7646 13.4313 18.5444C13.584 18.3242 13.6603 18.0703 13.6603 17.7827C13.6603 17.4915 13.5787 17.234 13.4153 17.0103C13.2555 16.783 13.0247 16.6055 12.7228 16.4776C12.4245 16.3498 12.0694 16.2859 11.6575 16.2859H10.6401V14.592H11.6575C12.0055 14.592 12.3127 14.5316 12.579 14.4109C12.8489 14.2901 13.0584 14.1232 13.2076 13.9102C13.3567 13.6935 13.4313 13.4414 13.4313 13.1538C13.4313 12.8803 13.3656 12.6406 13.2342 12.4347C13.1064 12.2251 12.9252 12.0618 12.6909 11.9446C12.46 11.8274 12.1902 11.7688 11.8812 11.7688C11.5687 11.7688 11.2828 11.8256 11.0236 11.9393C10.7644 12.0494 10.5566 12.2074 10.4004 12.4134C10.2441 12.6193 10.1607 12.8608 10.15 13.1378H7.93945C7.95011 12.5092 8.12944 11.9553 8.47745 11.4759C8.82546 10.9964 9.29421 10.6218 9.8837 10.3519C10.4767 10.0785 11.1461 9.94176 11.8919 9.94176C12.6447 9.94176 13.3034 10.0785 13.8681 10.3519C14.4327 10.6254 14.8713 10.9947 15.1838 11.4599C15.4998 11.9215 15.6561 12.44 15.6525 13.0153C15.6561 13.6261 15.4661 14.1357 15.0826 14.544C14.7026 14.9524 14.2072 15.2116 13.5964 15.3217V15.407C14.399 15.5099 15.0098 15.7887 15.4288 16.2433C15.8514 16.6942 16.0609 17.2589 16.0574 17.9371C16.0609 18.5586 15.8816 19.1108 15.5194 19.5938C15.1607 20.0767 14.6653 20.4567 14.0332 20.7337C13.4011 21.0107 12.6767 21.1491 11.8599 21.1491ZM18.7553 21.1385C18.4038 21.1385 18.1019 21.0142 17.8498 20.7656C17.6012 20.5135 17.4769 20.2116 17.4769 19.8601C17.4769 19.5121 17.6012 19.2138 17.8498 18.9652C18.1019 18.7166 18.4038 18.5923 18.7553 18.5923C19.0962 18.5923 19.3945 18.7166 19.6502 18.9652C19.9059 19.2138 20.0337 19.5121 20.0337 19.8601C20.0337 20.0945 19.9734 20.3093 19.8526 20.5046C19.7354 20.6964 19.581 20.8509 19.3892 20.968C19.1974 21.0817 18.9862 21.1385 18.7553 21.1385ZM24.8983 21V10.0909H29.2023C30.0262 10.0909 30.7293 10.2383 31.3117 10.533C31.8976 10.8242 32.3433 11.2379 32.6487 11.7741C32.9577 12.3068 33.1121 12.9336 33.1121 13.6545C33.1121 14.3789 32.9559 15.0021 32.6434 15.5241C32.3309 16.0426 31.8781 16.4403 31.2851 16.7173C30.6956 16.9943 29.9818 17.1328 29.1437 17.1328H26.262V15.2791H28.7709C29.2112 15.2791 29.577 15.2187 29.8682 15.098C30.1594 14.9773 30.376 14.7962 30.518 14.5547C30.6636 14.3132 30.7364 14.0131 30.7364 13.6545C30.7364 13.2923 30.6636 12.9869 30.518 12.7383C30.376 12.4897 30.1576 12.3015 29.8628 12.1737C29.5716 12.0423 29.2041 11.9766 28.7602 11.9766H27.2048V21H24.8983ZM30.7897 16.0355L33.501 21H30.9548L28.3021 16.0355H30.7897ZM34.7421 21V10.0909H42.093V11.9925H37.0486V14.592H41.7148V16.4936H37.0486V19.0984H42.1143V21H34.7421ZM49.8446 13.2283C49.802 12.7987 49.6191 12.4648 49.296 12.2269C48.9728 11.989 48.5343 11.87 47.9803 11.87C47.6039 11.87 47.286 11.9233 47.0268 12.0298C46.7676 12.1328 46.5687 12.2766 46.4302 12.4613C46.2953 12.646 46.2278 12.8555 46.2278 13.0898C46.2207 13.2852 46.2615 13.4556 46.3503 13.6012C46.4426 13.7468 46.5687 13.8729 46.7285 13.9794C46.8883 14.0824 47.073 14.1729 47.2825 14.2511C47.492 14.3256 47.7157 14.3896 47.9537 14.4428L48.9338 14.6772C49.4096 14.7837 49.8464 14.9258 50.2441 15.1033C50.6419 15.2809 50.9863 15.4993 51.2775 15.7585C51.5687 16.0178 51.7942 16.3232 51.954 16.6747C52.1174 17.0263 52.2008 17.4293 52.2044 17.8839C52.2008 18.5515 52.0304 19.1303 51.693 19.6204C51.3592 20.1069 50.8762 20.4851 50.2441 20.755C49.6156 21.0213 48.8574 21.1545 47.9696 21.1545C47.089 21.1545 46.3219 21.0195 45.6685 20.7496C45.0186 20.4798 44.5108 20.0803 44.1451 19.5511C43.7828 19.0185 43.5929 18.3597 43.5751 17.5749H45.807C45.8319 17.9407 45.9366 18.2461 46.1213 18.4911C46.3095 18.7326 46.5598 18.9155 46.8723 19.0398C47.1884 19.1605 47.5453 19.2209 47.943 19.2209C48.3336 19.2209 48.6728 19.1641 48.9604 19.0504C49.2516 18.9368 49.4771 18.7788 49.6369 18.5763C49.7967 18.3739 49.8766 18.1413 49.8766 17.8786C49.8766 17.6335 49.8038 17.4276 49.6582 17.2607C49.5162 17.0937 49.3066 16.9517 49.0297 16.8345C48.7562 16.7173 48.4206 16.6108 48.0229 16.5149L46.835 16.2166C45.9153 15.9929 45.1891 15.6431 44.6564 15.1673C44.1238 14.6914 43.8592 14.0504 43.8627 13.2443C43.8592 12.5838 44.035 12.0067 44.3901 11.5131C44.7488 11.0195 45.2406 10.6342 45.8656 10.3572C46.4906 10.0803 47.2008 9.94176 47.9963 9.94176C48.8059 9.94176 49.5126 10.0803 50.1163 10.3572C50.7235 10.6342 51.1958 11.0195 51.5332 11.5131C51.8706 12.0067 52.0446 12.5785 52.0552 13.2283H49.8446ZM60.4941 10.0909H62.8005V17.1754C62.8005 17.9709 62.6105 18.6669 62.2306 19.2635C61.8541 19.8601 61.3268 20.3253 60.6485 20.6591C59.9703 20.9893 59.1801 21.1545 58.2781 21.1545C57.3726 21.1545 56.5807 20.9893 55.9024 20.6591C55.2242 20.3253 54.6968 19.8601 54.3204 19.2635C53.944 18.6669 53.7558 17.9709 53.7558 17.1754V10.0909H56.0622V16.9783C56.0622 17.3938 56.1528 17.7631 56.3339 18.0863C56.5186 18.4094 56.7778 18.6634 57.1116 18.848C57.4454 19.0327 57.8343 19.125 58.2781 19.125C58.7256 19.125 59.1144 19.0327 59.4447 18.848C59.7785 18.6634 60.036 18.4094 60.2171 18.0863C60.4017 17.7631 60.4941 17.3938 60.4941 16.9783V10.0909ZM64.6982 21V10.0909H67.0046V19.0984H71.6815V21H64.6982ZM71.4311 11.9925V10.0909H80.3906V11.9925H77.0508V21H74.771V11.9925H71.4311ZM87.7841 13.2283C87.7415 12.7987 87.5586 12.4648 87.2354 12.2269C86.9123 11.989 86.4737 11.87 85.9197 11.87C85.5433 11.87 85.2255 11.9233 84.9663 12.0298C84.707 12.1328 84.5082 12.2766 84.3697 12.4613C84.2347 12.646 84.1673 12.8555 84.1673 13.0898C84.1602 13.2852 84.201 13.4556 84.2898 13.6012C84.3821 13.7468 84.5082 13.8729 84.668 13.9794C84.8278 14.0824 85.0124 14.1729 85.2219 14.2511C85.4315 14.3256 85.6552 14.3896 85.8931 14.4428L86.8732 14.6772C87.3491 14.7837 87.7859 14.9258 88.1836 15.1033C88.5813 15.2809 88.9258 15.4993 89.217 15.7585C89.5082 16.0178 89.7337 16.3232 89.8935 16.6747C90.0568 17.0263 90.1403 17.4293 90.1438 17.8839C90.1403 18.5515 89.9698 19.1303 89.6325 19.6204C89.2987 20.1069 88.8157 20.4851 88.1836 20.755C87.555 21.0213 86.7969 21.1545 85.9091 21.1545C85.0284 21.1545 84.2614 21.0195 83.608 20.7496C82.9581 20.4798 82.4503 20.0803 82.0845 19.5511C81.7223 19.0185 81.5323 18.3597 81.5146 17.5749H83.7464C83.7713 17.9407 83.8761 18.2461 84.0607 18.4911C84.2489 18.7326 84.4993 18.9155 84.8118 19.0398C85.1278 19.1605 85.4847 19.2209 85.8825 19.2209C86.2731 19.2209 86.6122 19.1641 86.8999 19.0504C87.1911 18.9368 87.4165 18.7788 87.5763 18.5763C87.7362 18.3739 87.8161 18.1413 87.8161 17.8786C87.8161 17.6335 87.7433 17.4276 87.5977 17.2607C87.4556 17.0937 87.2461 16.9517 86.9691 16.8345C86.6957 16.7173 86.3601 16.6108 85.9624 16.5149L84.7745 16.2166C83.8548 15.9929 83.1286 15.6431 82.5959 15.1673C82.0632 14.6914 81.7987 14.0504 81.8022 13.2443C81.7987 12.5838 81.9744 12.0067 82.3295 11.5131C82.6882 11.0195 83.18 10.6342 83.805 10.3572C84.43 10.0803 85.1403 9.94176 85.9357 9.94176C86.7454 9.94176 87.4521 10.0803 88.0558 10.3572C88.663 10.6342 89.1353 11.0195 89.4727 11.5131C89.81 12.0067 89.984 12.5785 89.9947 13.2283H87.7841Z" fill="white"/>
<path d="M9.73455 20.739L9.32549 21.6515L9.33181 21.6543L9.73455 20.739ZM8.26971 19.5991L7.46197 20.1887L7.46688 20.1953L8.26971 19.5991ZM7.72106 17.9158V16.9158H6.70416L6.7212 17.9326L7.72106 17.9158ZM10.0435 17.9158L11.0421 17.8626L10.9916 16.9158H10.0435V17.9158ZM10.3045 18.619L9.51963 19.2386L9.52563 19.2462L9.53178 19.2537L10.3045 18.619ZM10.9544 19.0824L10.5767 20.0083L10.5767 20.0083L10.9544 19.0824ZM12.7974 19.0611L12.3791 18.1528L12.3791 18.1528L12.7974 19.0611ZM13.4313 18.5444L14.253 19.1143L14.253 19.1143L13.4313 18.5444ZM13.4153 17.0103L12.5973 17.5855L12.6024 17.5928L12.6077 17.6L13.4153 17.0103ZM12.7228 16.4776L12.3289 17.3968L12.3328 17.3984L12.7228 16.4776ZM10.6401 16.2859H9.64009V17.2859H10.6401V16.2859ZM10.6401 14.592V13.592H9.64009V14.592H10.6401ZM12.579 14.4109L12.1706 13.498L12.1661 13.5001L12.579 14.4109ZM13.2076 13.9102L14.0268 14.4836L14.0312 14.4773L13.2076 13.9102ZM13.2342 12.4347L12.3806 12.9555L12.3858 12.9641L12.3911 12.9725L13.2342 12.4347ZM12.6909 11.9446L12.2382 12.8363L12.2437 12.839L12.6909 11.9446ZM11.0236 11.9393L11.4145 12.8598L11.4251 12.8551L11.0236 11.9393ZM10.4004 12.4134L11.1971 13.0177L11.1971 13.0177L10.4004 12.4134ZM10.15 13.1378V14.1378H11.1123L11.1493 13.1762L10.15 13.1378ZM7.93945 13.1378L6.9396 13.1208L6.92236 14.1378H7.93945V13.1378ZM8.47745 11.4759L9.2867 12.0633L9.2867 12.0633L8.47745 11.4759ZM9.8837 10.3519L10.3 11.2612L10.3024 11.26L9.8837 10.3519ZM13.8681 10.3519L14.3039 9.4519L14.3039 9.4519L13.8681 10.3519ZM15.1838 11.4599L14.3536 12.0175L14.3586 12.0248L15.1838 11.4599ZM15.6525 13.0153L14.6525 13.0091L14.6525 13.0211L15.6525 13.0153ZM15.0826 14.544L14.3536 13.8595L14.3505 13.8629L15.0826 14.544ZM13.5964 15.3217L13.419 14.3376L12.5964 14.4859V15.3217H13.5964ZM13.5964 15.407H12.5964V16.2868L13.4691 16.3988L13.5964 15.407ZM15.4288 16.2433L14.6935 16.9211L14.6991 16.927L15.4288 16.2433ZM16.0574 17.9371L15.0573 17.9319L15.0574 17.9429L16.0574 17.9371ZM15.5194 19.5938L14.7193 18.9937L14.7165 18.9975L15.5194 19.5938ZM14.0332 20.7337L13.6318 19.8177L13.6318 19.8177L14.0332 20.7337ZM11.8599 20.1491C11.1796 20.1491 10.6119 20.0325 10.1373 19.8237L9.33181 21.6543C10.1001 21.9923 10.9493 22.1491 11.8599 22.1491V20.1491ZM10.1436 19.8265C9.6619 19.6105 9.31687 19.3319 9.07253 19.0029L7.46688 20.1953C7.93988 20.8322 8.57141 21.3135 9.3255 21.6515L10.1436 19.8265ZM9.07742 19.0095C8.85085 18.6991 8.72832 18.3407 8.72092 17.8991L6.7212 17.9326C6.7351 18.7623 6.97834 19.5261 7.46199 20.1886L9.07742 19.0095ZM7.72106 18.9158H10.0435V16.9158H7.72106V18.9158ZM9.04492 17.9691C9.06973 18.4342 9.2272 18.8682 9.51963 19.2386L11.0894 17.9993C11.0622 17.9649 11.0457 17.9301 11.0421 17.8626L9.04492 17.9691ZM9.53178 19.2537C9.81389 19.5971 10.1736 19.8439 10.5767 20.0083L11.3321 18.1565C11.1953 18.1007 11.1218 18.0385 11.0772 17.9842L9.53178 19.2537ZM10.5767 20.0083C10.9838 20.1744 11.4185 20.2475 11.8652 20.2475V18.2475C11.6372 18.2475 11.4647 18.2106 11.3321 18.1565L10.5767 20.0083ZM11.8652 20.2475C12.3351 20.2475 12.7928 20.1641 13.2157 19.9694L12.3791 18.1528C12.2622 18.2066 12.0985 18.2475 11.8652 18.2475V20.2475ZM13.2157 19.9694C13.6297 19.7787 13.9877 19.4969 14.253 19.1143L12.6096 17.9745C12.5695 18.0322 12.5049 18.0949 12.3791 18.1528L13.2157 19.9694ZM14.253 19.1143C14.5305 18.7142 14.6603 18.2582 14.6603 17.7827H12.6603C12.6603 17.8824 12.6375 17.9342 12.6096 17.9745L14.253 19.1143ZM14.6603 17.7827C14.6603 17.2911 14.5179 16.8246 14.2229 16.4206L12.6077 17.6C12.6394 17.6434 12.6603 17.6919 12.6603 17.7827H14.6603ZM14.2333 16.4351C13.9479 16.0292 13.5555 15.7443 13.1128 15.5568L12.3328 17.3984C12.4939 17.4667 12.5631 17.5368 12.5973 17.5855L14.2333 16.4351ZM13.1168 15.5585C12.6653 15.365 12.1697 15.2859 11.6575 15.2859V17.2859C11.9691 17.2859 12.1838 17.3346 12.3289 17.3968L13.1168 15.5585ZM11.6575 15.2859H10.6401V17.2859H11.6575V15.2859ZM11.6401 16.2859V14.592H9.64009V16.2859H11.6401ZM10.6401 15.592H11.6575V13.592H10.6401V15.592ZM11.6575 15.592C12.1212 15.592 12.5736 15.5113 12.9919 15.3216L12.1661 13.5001C12.0518 13.5519 11.8898 13.592 11.6575 13.592V15.592ZM12.9874 15.3237C13.3993 15.1394 13.7603 14.8643 14.0268 14.4836L12.3883 13.3367C12.3565 13.3822 12.2985 13.4409 12.1706 13.498L12.9874 15.3237ZM14.0312 14.4773C14.306 14.0782 14.4313 13.6241 14.4313 13.1538H12.4313C12.4313 13.2587 12.4074 13.3089 12.3839 13.3431L14.0312 14.4773ZM14.4313 13.1538C14.4313 12.7132 14.3231 12.2821 14.0773 11.8968L12.3911 12.9725C12.4081 12.9991 12.4313 13.0474 12.4313 13.1538H14.4313ZM14.0878 11.9138C13.8556 11.5331 13.5285 11.2454 13.1381 11.0502L12.2437 12.839C12.322 12.8782 12.3571 12.9171 12.3806 12.9555L14.0878 11.9138ZM13.1436 11.0529C12.7478 10.852 12.3173 10.7688 11.8812 10.7688V12.7688C12.0631 12.7688 12.1723 12.8028 12.2382 12.8363L13.1436 11.0529ZM11.8812 10.7688C11.445 10.7688 11.0206 10.8488 10.6221 11.0234L11.4251 12.8551C11.5451 12.8025 11.6924 12.7688 11.8812 12.7688V10.7688ZM10.6327 11.0188C10.2278 11.1908 9.87464 11.4518 9.6037 11.809L11.1971 13.0177C11.2386 12.963 11.301 12.9079 11.4145 12.8597L10.6327 11.0188ZM9.6037 11.809C9.31437 12.1904 9.16871 12.633 9.15077 13.0994L11.1493 13.1762C11.1527 13.0886 11.1739 13.0483 11.1971 13.0177L9.6037 11.809ZM10.15 12.1378H7.93945V14.1378H10.15V12.1378ZM8.93931 13.1547C8.94671 12.7181 9.06684 12.3662 9.2867 12.0633L7.6682 10.8884C7.19203 11.5443 6.9535 12.3003 6.9396 13.1208L8.93931 13.1547ZM9.2867 12.0633C9.52423 11.7361 9.85182 11.4663 10.3 11.2612L9.46742 9.44268C8.7366 9.77727 8.12669 10.2568 7.6682 10.8884L9.2867 12.0633ZM10.3024 11.26C10.7467 11.0552 11.2702 10.9418 11.8919 10.9418V8.94176C11.0221 8.94176 10.2067 9.10179 9.46499 9.4438L10.3024 11.26ZM11.8919 10.9418C12.5236 10.9418 13.028 11.0562 13.4322 11.2519L14.3039 9.4519C13.5789 9.10079 12.7659 8.94176 11.8919 8.94176V10.9418ZM13.4322 11.2519C13.8569 11.4576 14.1514 11.7163 14.3537 12.0175L16.0139 10.9023C15.5912 10.273 15.0085 9.79311 14.3039 9.4519L13.4322 11.2519ZM14.3586 12.0248C14.5562 12.3133 14.6549 12.6314 14.6525 13.0091L16.6525 13.0214C16.6573 12.2486 16.4435 11.5297 16.0089 10.895L14.3586 12.0248ZM14.6525 13.0211C14.6547 13.4008 14.5451 13.6556 14.3536 13.8595L15.8115 15.2286C16.3871 14.6157 16.6574 13.8513 16.6525 13.0095L14.6525 13.0211ZM14.3505 13.8629C14.1343 14.0951 13.8422 14.2613 13.419 14.3376L13.7738 16.3059C14.5722 16.162 15.2709 15.8097 15.8147 15.2252L14.3505 13.8629ZM12.5964 15.3217V15.407H14.5964V15.3217H12.5964ZM13.4691 16.3988C14.1115 16.4812 14.4776 16.6868 14.6936 16.9211L16.164 15.5654C15.5419 14.8906 14.6865 14.5386 13.7237 14.4151L13.4691 16.3988ZM14.6991 16.927C14.929 17.1724 15.0597 17.4822 15.0574 17.9319L17.0573 17.9424C17.0621 17.0355 16.7737 16.2161 16.1585 15.5595L14.6991 16.927ZM15.0574 17.9429C15.0597 18.3529 14.9465 18.6909 14.7194 18.9938L16.3194 20.1937C16.8167 19.5307 17.0621 18.7643 17.0573 17.9314L15.0574 17.9429ZM14.7165 18.9975C14.4761 19.3213 14.1284 19.6002 13.6318 19.8177L14.4346 21.6496C15.2022 21.3132 15.8453 20.8321 16.3222 20.19L14.7165 18.9975ZM13.6318 19.8177C13.1473 20.0301 12.5635 20.1491 11.8599 20.1491V22.1491C12.7898 22.1491 13.6549 21.9912 14.4346 21.6496L13.6318 19.8177ZM17.8498 20.7656L17.1377 21.4677L17.1427 21.4727L17.1477 21.4777L17.8498 20.7656ZM17.8498 18.9652L17.1477 18.2531L17.1427 18.2581L17.8498 18.9652ZM19.6502 18.9652L18.9531 19.6822L18.9531 19.6822L19.6502 18.9652ZM19.8526 20.5046L19.002 19.9788L18.9993 19.9832L19.8526 20.5046ZM19.3892 20.968L19.8991 21.8284L19.9107 21.8213L19.3892 20.968ZM18.7553 20.1385C18.6686 20.1385 18.6184 20.1191 18.5519 20.0535L17.1477 21.4777C17.5855 21.9093 18.1389 22.1385 18.7553 22.1385V20.1385ZM18.5619 20.0636C18.4963 19.997 18.4769 19.9468 18.4769 19.8601H16.4769C16.4769 20.4765 16.7061 21.03 17.1377 21.4677L18.5619 20.0636ZM18.4769 19.8601C18.4769 19.7803 18.4937 19.7355 18.5569 19.6723L17.1427 18.2581C16.7087 18.6921 16.4769 19.2438 16.4769 19.8601H18.4769ZM18.5519 19.6773C18.6184 19.6117 18.6686 19.5923 18.7553 19.5923V17.5923C18.1389 17.5923 17.5855 17.8215 17.1477 18.2531L18.5519 19.6773ZM18.7553 19.5923C18.8229 19.5923 18.8746 19.6058 18.9531 19.6822L20.3473 18.2482C19.9145 17.8274 19.3696 17.5923 18.7553 17.5923V19.5923ZM18.9531 19.6822C19.0205 19.7477 19.0337 19.7896 19.0337 19.8601H21.0337C21.0337 19.2346 20.7913 18.6798 20.3473 18.2482L18.9531 19.6822ZM19.0337 19.8601C19.0337 19.9128 19.023 19.9449 19.002 19.9788L20.7032 21.0304C20.9237 20.6737 21.0337 20.2762 21.0337 19.8601H19.0337ZM18.9993 19.9832C18.9649 20.0396 18.9242 20.0803 18.8678 20.1148L19.9107 21.8213C20.2378 21.6214 20.506 21.3532 20.7059 21.0261L18.9993 19.9832ZM18.8794 20.1077C18.8476 20.1266 18.8134 20.1385 18.7553 20.1385V22.1385C19.1589 22.1385 19.5473 22.0368 19.899 21.8283L18.8794 20.1077ZM24.8983 21H23.8983V22H24.8983V21ZM24.8983 10.0909V9.09091H23.8983V10.0909H24.8983ZM31.3117 10.533L30.8601 11.4253L30.8667 11.4285L31.3117 10.533ZM32.6487 11.7741L31.7797 12.2691L31.7837 12.2759L32.6487 11.7741ZM32.6434 15.5241L33.4998 16.0404L33.5014 16.0378L32.6434 15.5241ZM31.2851 16.7173L30.8619 15.8113L30.8598 15.8123L31.2851 16.7173ZM26.262 17.1328H25.262V18.1328H26.262V17.1328ZM26.262 15.2791V14.2791H25.262V15.2791H26.262ZM29.8682 15.098L30.2512 16.0218L30.2512 16.0218L29.8682 15.098ZM30.518 14.5547L29.6616 14.0383L29.6561 14.0477L30.518 14.5547ZM30.518 12.7383L29.6497 13.2344L29.6551 13.2437L30.518 12.7383ZM29.8628 12.1737L29.4515 13.0852L29.4582 13.0882L29.4649 13.0911L29.8628 12.1737ZM27.2048 11.9766V10.9766H26.2048V11.9766H27.2048ZM27.2048 21V22H28.2048V21H27.2048ZM30.7897 16.0355L31.6673 15.5562L31.383 15.0355H30.7897V16.0355ZM33.501 21V22H35.1865L34.3786 20.5207L33.501 21ZM30.9548 21L30.0728 21.4713L30.3553 22H30.9548V21ZM28.3021 16.0355V15.0355H26.634L27.4201 16.5068L28.3021 16.0355ZM25.8983 21V10.0909H23.8983V21H25.8983ZM24.8983 11.0909H29.2023V9.09091H24.8983V11.0909ZM29.2023 11.0909C29.9094 11.0909 30.4496 11.2175 30.8601 11.4253L31.7633 9.64078C31.009 9.25907 30.143 9.09091 29.2023 9.09091V11.0909ZM30.8667 11.4285C31.2859 11.6369 31.5788 11.9162 31.7798 12.269L33.5177 11.2792C33.1078 10.5597 32.5094 10.0115 31.7567 9.63752L30.8667 11.4285ZM31.7837 12.2759C31.9901 12.6318 32.1121 13.0795 32.1121 13.6545H34.1121C34.1121 12.7877 33.9252 11.9818 33.5137 11.2724L31.7837 12.2759ZM32.1121 13.6545C32.1121 14.2327 31.9886 14.671 31.7854 15.0105L33.5014 16.0378C33.9232 15.3332 34.1121 14.5251 34.1121 13.6545H32.1121ZM31.7869 15.0079C31.5853 15.3424 31.2903 15.6112 30.8619 15.8113L31.7083 17.6234C32.4659 17.2695 33.0764 16.7428 33.4998 16.0404L31.7869 15.0079ZM30.8598 15.8123C30.4358 16.0115 29.8754 16.1328 29.1437 16.1328V18.1328C30.0882 18.1328 30.9554 17.9771 31.7103 17.6224L30.8598 15.8123ZM29.1437 16.1328H26.262V18.1328H29.1437V16.1328ZM27.262 17.1328V15.2791H25.262V17.1328H27.262ZM26.262 16.2791H28.7709V14.2791H26.262V16.2791ZM28.7709 16.2791C29.2941 16.2791 29.8006 16.2086 30.2512 16.0218L29.4851 14.1743C29.3533 14.2289 29.1283 14.2791 28.7709 14.2791V16.2791ZM30.2512 16.0218C30.7167 15.8287 31.1141 15.5136 31.38 15.0617L29.6561 14.0477C29.6378 14.0787 29.602 14.1258 29.4851 14.1743L30.2512 16.0218ZM31.3744 15.071C31.6363 14.6366 31.7364 14.1463 31.7364 13.6545H29.7364C29.7364 13.88 29.6909 13.9898 29.6616 14.0383L31.3744 15.071ZM31.7364 13.6545C31.7364 13.1597 31.6366 12.6695 31.3809 12.2329L29.6551 13.2437C29.6906 13.3042 29.7364 13.4248 29.7364 13.6545H31.7364ZM31.3863 12.2421C31.1241 11.7833 30.7283 11.459 30.2608 11.2562L29.4649 13.0911C29.5869 13.144 29.6279 13.1961 29.6498 13.2344L31.3863 12.2421ZM30.2741 11.2621C29.8136 11.0544 29.2942 10.9766 28.7602 10.9766V12.9766C29.114 12.9766 29.3296 13.0302 29.4515 13.0852L30.2741 11.2621ZM28.7602 10.9766H27.2048V12.9766H28.7602V10.9766ZM26.2048 11.9766V21H28.2048V11.9766H26.2048ZM27.2048 20H24.8983V22H27.2048V20ZM29.912 16.5148L32.6233 21.4793L34.3786 20.5207L31.6673 15.5562L29.912 16.5148ZM33.501 20H30.9548V22H33.501V20ZM31.8368 20.5287L29.1841 15.5642L27.4201 16.5068L30.0728 21.4713L31.8368 20.5287ZM28.3021 17.0355H30.7897V15.0355H28.3021V17.0355ZM34.7421 21H33.7421V22H34.7421V21ZM34.7421 10.0909V9.09091H33.7421V10.0909H34.7421ZM42.093 10.0909H43.093V9.09091H42.093V10.0909ZM42.093 11.9925V12.9925H43.093V11.9925H42.093ZM37.0486 11.9925V10.9925H36.0486V11.9925H37.0486ZM37.0486 14.592H36.0486V15.592H37.0486V14.592ZM41.7148 14.592H42.7148V13.592H41.7148V14.592ZM41.7148 16.4936V17.4936H42.7148V16.4936H41.7148ZM37.0486 16.4936V15.4936H36.0486V16.4936H37.0486ZM37.0486 19.0984H36.0486V20.0984H37.0486V19.0984ZM42.1143 19.0984H43.1143V18.0984H42.1143V19.0984ZM42.1143 21V22H43.1143V21H42.1143ZM35.7421 21V10.0909H33.7421V21H35.7421ZM34.7421 11.0909H42.093V9.09091H34.7421V11.0909ZM41.093 10.0909V11.9925H43.093V10.0909H41.093ZM42.093 10.9925H37.0486V12.9925H42.093V10.9925ZM36.0486 11.9925V14.592H38.0486V11.9925H36.0486ZM37.0486 15.592H41.7148V13.592H37.0486V15.592ZM40.7148 14.592V16.4936H42.7148V14.592H40.7148ZM41.7148 15.4936H37.0486V17.4936H41.7148V15.4936ZM36.0486 16.4936V19.0984H38.0486V16.4936H36.0486ZM37.0486 20.0984H42.1143V18.0984H37.0486V20.0984ZM41.1143 19.0984V21H43.1143V19.0984H41.1143ZM42.1143 20H34.7421V22H42.1143V20ZM49.8446 13.2283L48.8495 13.327L48.9389 14.2283H49.8446V13.2283ZM47.0268 12.0298L47.396 12.9592L47.4069 12.9548L47.0268 12.0298ZM46.4302 12.4613L45.6302 11.8612L45.6228 11.8713L46.4302 12.4613ZM46.2278 13.0898L47.2271 13.1262L47.2278 13.108V13.0898H46.2278ZM46.3503 13.6012L45.4965 14.1218L45.5011 14.1293L45.5058 14.1367L46.3503 13.6012ZM46.7285 13.9794L46.1738 14.8115L46.1803 14.8158L46.1868 14.82L46.7285 13.9794ZM47.2825 14.2511L46.9331 15.188L46.9401 15.1907L46.9472 15.1932L47.2825 14.2511ZM47.9537 14.4428L48.1862 13.4702L48.1792 13.4686L48.1721 13.467L47.9537 14.4428ZM48.9338 14.6772L48.7012 15.6498L48.7082 15.6515L48.7153 15.653L48.9338 14.6772ZM50.2441 15.1033L49.8365 16.0165L49.8365 16.0165L50.2441 15.1033ZM51.2775 15.7585L51.9425 15.0116L51.9425 15.0116L51.2775 15.7585ZM51.954 16.6747L51.0436 17.0885L51.0471 17.0961L51.954 16.6747ZM52.2044 17.8839L53.2044 17.8892L53.2043 17.8761L52.2044 17.8839ZM51.693 19.6204L50.8693 19.0533L50.8684 19.0546L51.693 19.6204ZM50.2441 20.755L50.6343 21.6757L50.6368 21.6747L50.2441 20.755ZM45.6685 20.7496L45.285 21.6732L45.2867 21.6739L45.6685 20.7496ZM44.1451 19.5511L43.3181 20.1135L43.3225 20.1198L44.1451 19.5511ZM43.5751 17.5749V16.5749H42.5522L42.5754 17.5975L43.5751 17.5749ZM45.807 17.5749L46.8047 17.5071L46.7413 16.5749H45.807V17.5749ZM46.1213 18.4911L45.3227 19.093L45.3276 19.0995L45.3325 19.1059L46.1213 18.4911ZM46.8723 19.0398L46.5027 19.9691L46.5155 19.9739L46.8723 19.0398ZM48.9604 19.0504L48.5969 18.1188L48.593 18.1204L48.9604 19.0504ZM49.6369 18.5763L50.4218 19.196L50.4218 19.196L49.6369 18.5763ZM49.6582 17.2607L48.8966 17.9088L48.9046 17.918L49.6582 17.2607ZM49.0297 16.8345L48.6357 17.7537L48.64 17.7555L49.0297 16.8345ZM48.0229 16.5149L47.7793 17.4848L47.7885 17.4871L48.0229 16.5149ZM46.835 16.2166L47.0786 15.2467L47.0714 15.245L46.835 16.2166ZM44.6564 15.1673L43.9902 15.913L43.9902 15.913L44.6564 15.1673ZM43.8627 13.2443L44.8628 13.2487L44.8627 13.2389L43.8627 13.2443ZM44.3901 11.5131L43.5811 10.9253L43.5783 10.9291L44.3901 11.5131ZM50.1163 10.3572L49.6993 11.2661L49.7013 11.2671L50.1163 10.3572ZM51.5332 11.5131L50.7076 12.0774L50.7076 12.0774L51.5332 11.5131ZM52.0552 13.2283V14.2283H53.0717L53.0551 13.2119L52.0552 13.2283ZM50.8398 13.1296C50.7716 12.4422 50.4589 11.8413 49.8889 11.4216L48.7031 13.0322C48.7794 13.0883 48.8325 13.1551 48.8495 13.327L50.8398 13.1296ZM49.8889 11.4216C49.3394 11.0171 48.6682 10.87 47.9803 10.87V12.87C48.4004 12.87 48.6062 12.9609 48.7031 13.0322L49.8889 11.4216ZM47.9803 10.87C47.5156 10.87 47.0602 10.935 46.6467 11.1049L47.4069 12.9548C47.5119 12.9116 47.6921 12.87 47.9803 12.87V10.87ZM46.6576 11.1005C46.263 11.2572 45.9003 11.5012 45.6302 11.8613L47.2302 13.0613C47.2371 13.0521 47.2721 13.0084 47.396 12.9592L46.6576 11.1005ZM45.6228 11.8713C45.3594 12.2317 45.2278 12.649 45.2278 13.0898H47.2278C47.2278 13.0794 47.2285 13.0726 47.2291 13.069C47.2296 13.0654 47.2302 13.0638 47.2303 13.0635C47.2304 13.0631 47.2306 13.0625 47.2312 13.0613C47.2319 13.0599 47.2337 13.0566 47.2376 13.0513L45.6228 11.8713ZM45.2285 13.0535C45.2153 13.4153 45.2914 13.7854 45.4965 14.1218L47.2041 13.0806C47.2156 13.0994 47.2224 13.1178 47.2256 13.1312C47.2286 13.1436 47.2265 13.1435 47.2271 13.1262L45.2285 13.0535ZM45.5058 14.1367C45.6811 14.4131 45.9111 14.6363 46.1738 14.8115L47.2832 13.1474C47.2264 13.1095 47.2042 13.0805 47.1948 13.0657L45.5058 14.1367ZM46.1868 14.82C46.4165 14.968 46.6677 15.0891 46.9331 15.188L47.6319 13.3141C47.4783 13.2568 47.3601 13.1967 47.2702 13.1388L46.1868 14.82ZM46.9472 15.1932C47.1984 15.2826 47.4614 15.3574 47.7352 15.4187L48.1721 13.467C47.9701 13.4217 47.7857 13.3687 47.6178 13.309L46.9472 15.1932ZM47.7211 15.4154L48.7012 15.6498L49.1663 13.7046L48.1862 13.4702L47.7211 15.4154ZM48.7153 15.653C49.1338 15.7467 49.5063 15.8691 49.8365 16.0165L50.6518 14.1902C50.1865 13.9825 49.6855 13.8207 49.1522 13.7014L48.7153 15.653ZM49.8365 16.0165C50.1513 16.157 50.4065 16.322 50.6126 16.5054L51.9425 15.0116C51.5661 14.6766 51.1324 14.4048 50.6518 14.1902L49.8365 16.0165ZM50.6126 16.5054C50.8007 16.6729 50.9421 16.8651 51.0436 17.0885L52.8644 16.2609C52.6463 15.7812 52.3368 15.3626 51.9425 15.0116L50.6126 16.5054ZM51.0471 17.0961C51.1407 17.2976 51.2018 17.5556 51.2044 17.8917L53.2043 17.8761C53.1999 17.303 53.094 16.755 52.8609 16.2533L51.0471 17.0961ZM51.2044 17.8786C51.2018 18.3709 51.0793 18.7484 50.8693 19.0533L52.5167 20.1874C52.9815 19.5123 53.1999 18.7321 53.2044 17.8892L51.2044 17.8786ZM50.8684 19.0546C50.6588 19.3602 50.3383 19.6274 49.8515 19.8353L50.6368 21.6747C51.4142 21.3427 52.0596 20.8536 52.5176 20.1861L50.8684 19.0546ZM49.854 19.8342C49.3799 20.0351 48.7618 20.1545 47.9696 20.1545V22.1545C48.953 22.1545 49.8513 22.0075 50.6343 21.6757L49.854 19.8342ZM47.9696 20.1545C47.1888 20.1545 46.5568 20.0346 46.0503 19.8254L45.2867 21.6739C46.087 22.0044 46.9891 22.1545 47.9696 22.1545V20.1545ZM46.052 19.8261C45.5623 19.6227 45.214 19.3389 44.9677 18.9825L43.3225 20.1198C43.8077 20.8217 44.475 21.3368 45.285 21.6732L46.052 19.8261ZM44.972 18.9888C44.7398 18.6474 44.5892 18.1868 44.5749 17.5523L42.5754 17.5975C42.5965 18.5327 42.8258 19.3895 43.3181 20.1134L44.972 18.9888ZM43.5751 18.5749H45.807V16.5749H43.5751V18.5749ZM44.8093 17.6427C44.8447 18.1638 45.0001 18.665 45.3227 19.093L46.9199 17.8893C46.8731 17.8272 46.819 17.7176 46.8047 17.5071L44.8093 17.6427ZM45.3325 19.1059C45.6406 19.5011 46.0418 19.7856 46.5028 19.969L47.2419 18.1106C47.0779 18.0453 46.9784 17.9641 46.91 17.8764L45.3325 19.1059ZM46.5155 19.9739C46.9636 20.1451 47.4443 20.2209 47.943 20.2209V18.2209C47.6463 18.2209 47.4132 18.1759 47.2292 18.1056L46.5155 19.9739ZM47.943 20.2209C48.4276 20.2209 48.8969 20.1507 49.3278 19.9805L48.593 18.1204C48.4486 18.1774 48.2396 18.2209 47.943 18.2209V20.2209ZM49.3239 19.982C49.7457 19.8174 50.1306 19.5649 50.4218 19.196L48.852 17.9567C48.8236 17.9926 48.7575 18.0562 48.5969 18.1188L49.3239 19.982ZM50.4218 19.196C50.7238 18.8135 50.8766 18.3616 50.8766 17.8786H48.8766C48.8766 17.907 48.8726 17.9204 48.8709 17.9252C48.8693 17.9298 48.8655 17.9396 48.852 17.9567L50.4218 19.196ZM50.8766 17.8786C50.8766 17.4194 50.7335 16.9721 50.4118 16.6033L48.9046 17.918C48.901 17.9138 48.896 17.9073 48.8909 17.8986C48.8858 17.8898 48.8819 17.8812 48.8792 17.8736C48.8734 17.8573 48.8766 17.8559 48.8766 17.8786H50.8766ZM50.4197 16.6125C50.1463 16.2912 49.7892 16.0701 49.4193 15.9135L48.64 17.7555C48.8241 17.8333 48.8861 17.8963 48.8967 17.9088L50.4197 16.6125ZM49.4236 15.9154C49.0834 15.7696 48.6909 15.6473 48.2573 15.5428L47.7885 17.4871C48.1504 17.5743 48.429 17.6651 48.6357 17.7537L49.4236 15.9154ZM48.2665 15.545L47.0786 15.2467L46.5915 17.1865L47.7793 17.4848L48.2665 15.545ZM47.0714 15.245C46.2613 15.0479 45.6994 14.7581 45.3226 14.4215L43.9902 15.913C44.6788 16.5281 45.5693 16.9379 46.5987 17.1883L47.0714 15.245ZM45.3226 14.4215C45.0322 14.1621 44.8603 13.8095 44.8627 13.2487L42.8628 13.2399C42.8581 14.2914 43.2153 15.2207 43.9902 15.913L45.3226 14.4215ZM44.8627 13.2389C44.8602 12.7706 44.981 12.4041 45.2018 12.0971L43.5783 10.9291C43.089 11.6094 42.8582 12.397 42.8628 13.2497L44.8627 13.2389ZM45.1991 12.101C45.4422 11.7664 45.7869 11.4859 46.2708 11.2715L45.4604 9.443C44.6942 9.78256 44.0553 10.2727 43.5811 10.9253L45.1991 12.101ZM46.2708 11.2715C46.749 11.0595 47.3177 10.9418 47.9963 10.9418V8.94176C47.0839 8.94176 46.2322 9.10097 45.4604 9.443L46.2708 11.2715ZM47.9963 10.9418C48.6929 10.9418 49.2518 11.0608 49.6993 11.2661L50.5333 9.44835C49.7734 9.09967 48.919 8.94176 47.9963 8.94176V10.9418ZM49.7013 11.2671C50.1626 11.4775 50.4847 11.7512 50.7076 12.0774L52.3588 10.9489C51.907 10.2878 51.2845 9.791 50.5313 9.44742L49.7013 11.2671ZM50.7076 12.0774C50.9249 12.3953 51.0476 12.7728 51.0554 13.2447L53.0551 13.2119C53.0415 12.3841 52.8163 11.6182 52.3588 10.9489L50.7076 12.0774ZM52.0552 12.2283H49.8446V14.2283H52.0552V12.2283ZM60.4941 10.0909V9.09091H59.4941V10.0909H60.4941ZM62.8005 10.0909H63.8005V9.09091H62.8005V10.0909ZM62.2306 19.2635L61.3871 18.7263L61.3848 18.7299L62.2306 19.2635ZM60.6485 20.6591L61.0863 21.5582L61.0901 21.5563L60.6485 20.6591ZM55.9024 20.6591L55.4609 21.5563L55.4647 21.5582L55.9024 20.6591ZM54.3204 19.2635L53.4747 19.7971L53.4747 19.7971L54.3204 19.2635ZM53.7558 10.0909V9.09091H52.7558V10.0909H53.7558ZM56.0622 10.0909H57.0622V9.09091H56.0622V10.0909ZM56.3339 18.0863L55.4615 18.5752L55.4657 18.5824L56.3339 18.0863ZM57.1116 18.848L56.6275 19.723L56.6275 19.723L57.1116 18.848ZM59.4447 18.848L58.9606 17.973L58.9567 17.9752L59.4447 18.848ZM60.2171 18.0863L59.3488 17.5901L59.3447 17.5974L60.2171 18.0863ZM60.4941 11.0909H62.8005V9.09091H60.4941V11.0909ZM61.8005 10.0909V17.1754H63.8005V10.0909H61.8005ZM61.8005 17.1754C61.8005 17.805 61.6525 18.3097 61.3871 18.7263L63.074 19.8007C63.5686 19.0242 63.8005 18.1368 63.8005 17.1754H61.8005ZM61.3848 18.7299C61.1141 19.159 60.7319 19.5035 60.207 19.7619L61.0901 21.5563C61.9217 21.147 62.5942 20.5611 63.0763 19.7971L61.3848 18.7299ZM60.2108 19.76C59.693 20.0121 59.0578 20.1545 58.2781 20.1545V22.1545C59.3025 22.1545 60.2475 21.9666 61.0863 21.5582L60.2108 19.76ZM58.2781 20.1545C57.4943 20.1545 56.8575 20.0119 56.3402 19.76L55.4647 21.5582C56.3039 21.9668 57.2509 22.1545 58.2781 22.1545V20.1545ZM56.344 19.7619C55.8191 19.5035 55.4369 19.159 55.1661 18.7299L53.4747 19.7971C53.9567 20.5611 54.6292 21.147 55.4609 21.5563L56.344 19.7619ZM55.1661 18.7299C54.903 18.3128 54.7558 17.8068 54.7558 17.1754H52.7558C52.7558 18.135 52.985 19.021 53.4747 19.7971L55.1661 18.7299ZM54.7558 17.1754V10.0909H52.7558V17.1754H54.7558ZM53.7558 11.0909H56.0622V9.09091H53.7558V11.0909ZM55.0622 10.0909V16.9783H57.0622V10.0909H55.0622ZM55.0622 16.9783C55.0622 17.5438 55.187 18.0852 55.4616 18.5752L57.2062 17.5974C57.1186 17.4411 57.0622 17.2438 57.0622 16.9783H55.0622ZM55.4657 18.5824C55.7436 19.0688 56.1376 19.452 56.6275 19.723L57.5957 17.973C57.418 17.8747 57.2935 17.7501 57.2021 17.5902L55.4657 18.5824ZM56.6275 19.723C57.1321 20.0022 57.6928 20.125 58.2781 20.125V18.125C57.9757 18.125 57.7587 18.0632 57.5957 17.973L56.6275 19.723ZM58.2781 20.125C58.8652 20.125 59.4282 20.0029 59.9327 19.7208L58.9567 17.9752C58.8007 18.0624 58.586 18.125 58.2781 18.125V20.125ZM59.9288 19.723C60.4203 19.4511 60.8145 19.0657 61.0894 18.5752L59.3447 17.5974C59.2574 17.7532 59.1367 17.8756 58.9606 17.973L59.9288 19.723ZM61.0853 18.5824C61.366 18.0912 61.4941 17.5472 61.4941 16.9783H59.4941C59.4941 17.2405 59.4374 17.4351 59.3488 17.5902L61.0853 18.5824ZM61.4941 16.9783V10.0909H59.4941V16.9783H61.4941ZM64.6982 21H63.6982V22H64.6982V21ZM64.6982 10.0909V9.09091H63.6982V10.0909H64.6982ZM67.0046 10.0909H68.0046V9.09091H67.0046V10.0909ZM67.0046 19.0984H66.0046V20.0984H67.0046V19.0984ZM71.6815 19.0984H72.6815V18.0984H71.6815V19.0984ZM71.6815 21V22H72.6815V21H71.6815ZM65.6982 21V10.0909H63.6982V21H65.6982ZM64.6982 11.0909H67.0046V9.09091H64.6982V11.0909ZM66.0046 10.0909V19.0984H68.0046V10.0909H66.0046ZM67.0046 20.0984H71.6815V18.0984H67.0046V20.0984ZM70.6815 19.0984V21H72.6815V19.0984H70.6815ZM71.6815 20H64.6982V22H71.6815V20ZM71.4311 11.9925H70.4311V12.9925H71.4311V11.9925ZM71.4311 10.0909V9.09091H70.4311V10.0909H71.4311ZM80.3906 10.0909H81.3906V9.09091H80.3906V10.0909ZM80.3906 11.9925V12.9925H81.3906V11.9925H80.3906ZM77.0508 11.9925V10.9925H76.0508V11.9925H77.0508ZM77.0508 21V22H78.0508V21H77.0508ZM74.771 21H73.771V22H74.771V21ZM74.771 11.9925H75.771V10.9925H74.771V11.9925ZM72.4311 11.9925V10.0909H70.4311V11.9925H72.4311ZM71.4311 11.0909H80.3906V9.09091H71.4311V11.0909ZM79.3906 10.0909V11.9925H81.3906V10.0909H79.3906ZM80.3906 10.9925H77.0508V12.9925H80.3906V10.9925ZM76.0508 11.9925V21H78.0508V11.9925H76.0508ZM77.0508 20H74.771V22H77.0508V20ZM75.771 21V11.9925H73.771V21H75.771ZM74.771 10.9925H71.4311V12.9925H74.771V10.9925ZM87.7841 13.2283L86.789 13.327L86.8784 14.2283H87.7841V13.2283ZM84.9663 12.0298L85.3355 12.9592L85.3464 12.9548L84.9663 12.0298ZM84.3697 12.4613L83.5696 11.8612L83.5623 11.8713L84.3697 12.4613ZM84.1673 13.0898L85.1666 13.1262L85.1673 13.108V13.0898H84.1673ZM84.2898 13.6012L83.436 14.1218L83.4406 14.1293L83.4453 14.1367L84.2898 13.6012ZM84.668 13.9794L84.1133 14.8115L84.1197 14.8158L84.1263 14.82L84.668 13.9794ZM85.2219 14.2511L84.8726 15.188L84.8796 15.1907L84.8866 15.1932L85.2219 14.2511ZM85.8931 14.4428L86.1257 13.4702L86.1186 13.4686L86.1116 13.467L85.8931 14.4428ZM86.8732 14.6772L86.6407 15.6498L86.6477 15.6515L86.6548 15.653L86.8732 14.6772ZM88.1836 15.1033L87.7759 16.0165L87.7759 16.0165L88.1836 15.1033ZM89.217 15.7585L89.8819 15.0116L89.8819 15.0116L89.217 15.7585ZM89.8935 16.6747L88.9831 17.0885L88.9866 17.0961L89.8935 16.6747ZM90.1438 17.8839L91.1439 17.8892L91.1438 17.8761L90.1438 17.8839ZM89.6325 19.6204L88.8088 19.0533L88.8079 19.0546L89.6325 19.6204ZM88.1836 20.755L88.5737 21.6757L88.5763 21.6747L88.1836 20.755ZM83.608 20.7496L83.2244 21.6732L83.2262 21.6739L83.608 20.7496ZM82.0845 19.5511L81.2576 20.1135L81.2619 20.1198L82.0845 19.5511ZM81.5146 17.5749V16.5749H80.4917L80.5148 17.5975L81.5146 17.5749ZM83.7464 17.5749L84.7441 17.5071L84.6808 16.5749H83.7464V17.5749ZM84.0607 18.4911L83.2621 19.093L83.267 19.0995L83.272 19.1059L84.0607 18.4911ZM84.8118 19.0398L84.4422 19.9691L84.4549 19.9739L84.8118 19.0398ZM86.8999 19.0504L86.5363 18.1188L86.5324 18.1204L86.8999 19.0504ZM87.5763 18.5763L88.3612 19.196L88.3612 19.196L87.5763 18.5763ZM87.5977 17.2607L86.8361 17.9088L86.8441 17.918L87.5977 17.2607ZM86.9691 16.8345L86.5752 17.7537L86.5795 17.7555L86.9691 16.8345ZM85.9624 16.5149L85.7188 17.4848L85.728 17.4871L85.9624 16.5149ZM84.7745 16.2166L85.0181 15.2467L85.0109 15.245L84.7745 16.2166ZM82.5959 15.1673L81.9297 15.913L81.9297 15.913L82.5959 15.1673ZM81.8022 13.2443L82.8022 13.2487L82.8022 13.2389L81.8022 13.2443ZM82.3295 11.5131L81.5205 10.9253L81.5178 10.9291L82.3295 11.5131ZM88.0558 10.3572L87.6387 11.2661L87.6407 11.2671L88.0558 10.3572ZM89.4727 11.5131L88.6471 12.0774L88.6471 12.0774L89.4727 11.5131ZM89.9947 13.2283V14.2283H91.0112L90.9945 13.2119L89.9947 13.2283ZM88.7792 13.1296C88.711 12.4422 88.3984 11.8413 87.8283 11.4216L86.6425 13.0322C86.7188 13.0883 86.7719 13.1551 86.789 13.327L88.7792 13.1296ZM87.8283 11.4216C87.2789 11.0171 86.6076 10.87 85.9197 10.87V12.87C86.3398 12.87 86.5457 12.9609 86.6425 13.0322L87.8283 11.4216ZM85.9197 10.87C85.4551 10.87 84.9997 10.935 84.5862 11.1049L85.3464 12.9548C85.4513 12.9116 85.6316 12.87 85.9197 12.87V10.87ZM84.5971 11.1005C84.2025 11.2572 83.8397 11.5012 83.5697 11.8613L85.1697 13.0613C85.1766 13.0521 85.2116 13.0084 85.3355 12.9592L84.5971 11.1005ZM83.5623 11.8713C83.2989 12.2317 83.1673 12.649 83.1673 13.0898H85.1673C85.1673 13.0794 85.168 13.0726 85.1686 13.069C85.1691 13.0654 85.1696 13.0638 85.1697 13.0635C85.1698 13.0631 85.17 13.0625 85.1707 13.0613C85.1714 13.0599 85.1732 13.0566 85.1771 13.0513L83.5623 11.8713ZM83.1679 13.0535C83.1548 13.4153 83.2308 13.7854 83.436 14.1218L85.1436 13.0806C85.155 13.0994 85.1618 13.1178 85.165 13.1312C85.168 13.1436 85.166 13.1435 85.1666 13.1262L83.1679 13.0535ZM83.4453 14.1367C83.6205 14.4131 83.8505 14.6363 84.1133 14.8115L85.2227 13.1474C85.1658 13.1095 85.1437 13.0805 85.1343 13.0657L83.4453 14.1367ZM84.1263 14.82C84.356 14.968 84.6071 15.0891 84.8726 15.188L85.5713 13.3141C85.4177 13.2568 85.2995 13.1967 85.2097 13.1388L84.1263 14.82ZM84.8866 15.1932C85.1378 15.2826 85.4008 15.3574 85.6746 15.4187L86.1116 13.467C85.9095 13.4217 85.7251 13.3687 85.5573 13.309L84.8866 15.1932ZM85.6605 15.4154L86.6407 15.6498L87.1058 13.7046L86.1257 13.4702L85.6605 15.4154ZM86.6548 15.653C87.0732 15.7467 87.4457 15.8691 87.7759 16.0165L88.5912 14.1902C88.126 13.9825 87.6249 13.8207 87.0917 13.7014L86.6548 15.653ZM87.7759 16.0165C88.0907 16.157 88.346 16.322 88.552 16.5054L89.8819 15.0116C89.5056 14.6766 89.0719 14.4048 88.5912 14.1902L87.7759 16.0165ZM88.552 16.5054C88.7401 16.6729 88.8816 16.8651 88.9831 17.0885L90.8038 16.2609C90.5858 15.7812 90.2762 15.3626 89.8819 15.0116L88.552 16.5054ZM88.9866 17.0961C89.0802 17.2976 89.1412 17.5556 89.1439 17.8917L91.1438 17.8761C91.1393 17.303 91.0334 16.755 90.8003 16.2533L88.9866 17.0961ZM89.1438 17.8786C89.1412 18.3709 89.0187 18.7484 88.8088 19.0533L90.4562 20.1874C90.9209 19.5123 91.1393 18.7321 91.1438 17.8892L89.1438 17.8786ZM88.8079 19.0546C88.5983 19.3602 88.2777 19.6274 87.7909 19.8353L88.5763 21.6747C89.3537 21.3427 89.999 20.8536 90.457 20.1861L88.8079 19.0546ZM87.7934 19.8342C87.3194 20.0351 86.7013 20.1545 85.9091 20.1545V22.1545C86.8925 22.1545 87.7907 22.0075 88.5737 21.6757L87.7934 19.8342ZM85.9091 20.1545C85.1283 20.1545 84.4963 20.0346 83.9897 19.8254L83.2262 21.6739C84.0264 22.0044 84.9285 22.1545 85.9091 22.1545V20.1545ZM83.9915 19.8261C83.5017 19.6227 83.1534 19.3389 82.9071 18.9825L81.2619 20.1198C81.7471 20.8217 82.4145 21.3368 83.2244 21.6732L83.9915 19.8261ZM82.9114 18.9888C82.6793 18.6474 82.5287 18.1868 82.5143 17.5523L80.5148 17.5975C80.536 18.5327 80.7653 19.3895 81.2576 20.1134L82.9114 18.9888ZM81.5146 18.5749H83.7464V16.5749H81.5146V18.5749ZM82.7488 17.6427C82.7842 18.1638 82.9396 18.665 83.2621 19.093L84.8593 17.8893C84.8125 17.8272 84.7585 17.7176 84.7441 17.5071L82.7488 17.6427ZM83.272 19.1059C83.5801 19.5011 83.9813 19.7856 84.4422 19.969L85.1814 18.1106C85.0173 18.0453 84.9178 17.9641 84.8495 17.8764L83.272 19.1059ZM84.4549 19.9739C84.903 20.1451 85.3838 20.2209 85.8825 20.2209V18.2209C85.5857 18.2209 85.3527 18.1759 85.1687 18.1056L84.4549 19.9739ZM85.8825 20.2209C86.3671 20.2209 86.8364 20.1507 87.2673 19.9805L86.5324 18.1204C86.3881 18.1774 86.1791 18.2209 85.8825 18.2209V20.2209ZM87.2634 19.982C87.6852 19.8174 88.07 19.5649 88.3612 19.196L86.7915 17.9567C86.7631 17.9926 86.6969 18.0562 86.5363 18.1188L87.2634 19.982ZM88.3612 19.196C88.6632 18.8135 88.8161 18.3616 88.8161 17.8786H86.8161C86.8161 17.907 86.812 17.9204 86.8104 17.9252C86.8088 17.9298 86.8049 17.9396 86.7915 17.9567L88.3612 19.196ZM88.8161 17.8786C88.8161 17.4194 88.673 16.9721 88.3512 16.6033L86.8441 17.918C86.8404 17.9138 86.8354 17.9073 86.8303 17.8986C86.8252 17.8898 86.8213 17.8812 86.8186 17.8736C86.8129 17.8573 86.8161 17.8559 86.8161 17.8786H88.8161ZM88.3592 16.6125C88.0857 16.2912 87.7287 16.0701 87.3587 15.9135L86.5795 17.7555C86.7635 17.8333 86.8255 17.8963 86.8361 17.9088L88.3592 16.6125ZM87.363 15.9154C87.0229 15.7696 86.6303 15.6473 86.1967 15.5428L85.728 17.4871C86.0899 17.5743 86.3684 17.6651 86.5752 17.7537L87.363 15.9154ZM86.2059 15.545L85.0181 15.2467L84.5309 17.1865L85.7188 17.4848L86.2059 15.545ZM85.0109 15.245C84.2008 15.0479 83.6389 14.7581 83.2621 14.4215L81.9297 15.913C82.6182 16.5281 83.5087 16.9379 84.5382 17.1883L85.0109 15.245ZM83.2621 14.4215C82.9717 14.1621 82.7997 13.8095 82.8022 13.2487L80.8022 13.2399C80.7976 14.2914 81.1547 15.2207 81.9297 15.913L83.2621 14.4215ZM82.8022 13.2389C82.7997 12.7706 82.9204 12.4041 83.1413 12.0971L81.5178 10.9291C81.0284 11.6094 80.7976 12.397 80.8022 13.2497L82.8022 13.2389ZM83.1385 12.101C83.3816 11.7664 83.7264 11.4859 84.2102 11.2715L83.3999 9.443C82.6337 9.78256 81.9948 10.2727 81.5206 10.9253L83.1385 12.101ZM84.2102 11.2715C84.6884 11.0595 85.2572 10.9418 85.9357 10.9418V8.94176C85.0233 8.94176 84.1716 9.10097 83.3999 9.443L84.2102 11.2715ZM85.9357 10.9418C86.6323 10.9418 87.1913 11.0608 87.6387 11.2661L88.4728 9.44835C87.7128 9.09967 86.8585 8.94176 85.9357 8.94176V10.9418ZM87.6407 11.2671C88.102 11.4775 88.4242 11.7512 88.6471 12.0774L90.2983 10.9489C89.8464 10.2878 89.224 9.791 88.4708 9.44742L87.6407 11.2671ZM88.6471 12.0774C88.8643 12.3953 88.9871 12.7728 88.9948 13.2447L90.9945 13.2119C90.981 12.3841 90.7557 11.6182 90.2983 10.9489L88.6471 12.0774ZM89.9947 12.2283H87.7841V14.2283H89.9947V12.2283Z" fill="black"/>
</svg>
