<svg width="260" height="31" viewBox="0 0 260 31" fill="none" xmlns="http://www.w3.org/2000/svg">
<path d="M0.5 0.5H229.5C237.784 0.5 244.5 7.21573 244.5 15.5C244.5 23.7843 237.784 30.5 229.5 30.5H0.5V0.5Z" fill="black" fill-opacity="0.4" stroke="black"/>
<path d="M19.102 10.0909V21H16.7955V12.2802H16.7316L14.2334 13.8462V11.8008L16.934 10.0909H19.102ZM22.4565 21.1385C22.1049 21.1385 21.8031 21.0142 21.551 20.7656C21.3024 20.5135 21.1781 20.2116 21.1781 19.8601C21.1781 19.5121 21.3024 19.2138 21.551 18.9652C21.8031 18.7166 22.1049 18.5923 22.4565 18.5923C22.7974 18.5923 23.0957 18.7166 23.3514 18.9652C23.6071 19.2138 23.7349 19.5121 23.7349 19.8601C23.7349 20.0945 23.6745 20.3093 23.5538 20.5046C23.4366 20.6964 23.2821 20.8509 23.0904 20.968C22.8986 21.0817 22.6873 21.1385 22.4565 21.1385ZM37.9892 13.2283C37.9466 12.7987 37.7637 12.4648 37.4405 12.2269C37.1174 11.989 36.6788 11.87 36.1248 11.87C35.7484 11.87 35.4306 11.9233 35.1713 12.0298C34.9121 12.1328 34.7132 12.2766 34.5748 12.4613C34.4398 12.646 34.3723 12.8555 34.3723 13.0898C34.3652 13.2852 34.4061 13.4556 34.4949 13.6012C34.5872 13.7468 34.7132 13.8729 34.873 13.9794C35.0328 14.0824 35.2175 14.1729 35.427 14.2511C35.6365 14.3256 35.8603 14.3896 36.0982 14.4428L37.0783 14.6772C37.5542 14.7837 37.9909 14.9258 38.3887 15.1033C38.7864 15.2809 39.1309 15.4993 39.4221 15.7585C39.7132 16.0178 39.9387 16.3232 40.0985 16.6747C40.2619 17.0263 40.3453 17.4293 40.3489 17.8839C40.3453 18.5515 40.1749 19.1303 39.8375 19.6204C39.5037 20.1069 39.0208 20.4851 38.3887 20.755C37.7601 21.0213 37.002 21.1545 36.1142 21.1545C35.2335 21.1545 34.4664 21.0195 33.813 20.7496C33.1632 20.4798 32.6554 20.0803 32.2896 19.5511C31.9274 19.0185 31.7374 18.3597 31.7196 17.5749H33.9515C33.9764 17.9407 34.0811 18.2461 34.2658 18.4911C34.454 18.7326 34.7044 18.9155 35.0169 19.0398C35.3329 19.1605 35.6898 19.2209 36.0875 19.2209C36.4782 19.2209 36.8173 19.1641 37.1049 19.0504C37.3961 18.9368 37.6216 18.7788 37.7814 18.5763C37.9412 18.3739 38.0211 18.1413 38.0211 17.8786C38.0211 17.6335 37.9483 17.4276 37.8027 17.2607C37.6607 17.0937 37.4512 16.9517 37.1742 16.8345C36.9007 16.7173 36.5652 16.6108 36.1674 16.5149L34.9796 16.2166C34.0598 15.9929 33.3336 15.6431 32.801 15.1673C32.2683 14.6914 32.0037 14.0504 32.0073 13.2443C32.0037 12.5838 32.1795 12.0067 32.5346 11.5131C32.8933 11.0195 33.3851 10.6342 34.0101 10.3572C34.6351 10.0803 35.3453 9.94176 36.1408 9.94176C36.9505 9.94176 37.6571 10.0803 38.2608 10.3572C38.8681 10.6342 39.3404 11.0195 39.6777 11.5131C40.0151 12.0067 40.1891 12.5785 40.1998 13.2283H37.9892ZM41.9003 21V10.0909H49.2512V11.9925H44.2068V14.592H48.873V16.4936H44.2068V19.0984H49.2725V21H41.9003ZM51.0849 21V10.0909H53.3913V19.0984H58.0682V21H51.0849ZM59.5956 21V10.0909H66.9465V11.9925H61.9021V14.592H66.5683V16.4936H61.9021V19.0984H66.9678V21H59.5956ZM78.4055 13.9102H76.0724C76.0298 13.6083 75.9428 13.3402 75.8114 13.1058C75.68 12.8679 75.5114 12.6655 75.3054 12.4986C75.0994 12.3317 74.8615 12.2038 74.5916 12.1151C74.3253 12.0263 74.0359 11.9819 73.7234 11.9819C73.1587 11.9819 72.6669 12.1222 72.2479 12.4027C71.8288 12.6797 71.5039 13.0845 71.2731 13.6172C71.0423 14.1463 70.9268 14.7891 70.9268 15.5455C70.9268 16.3232 71.0423 16.9766 71.2731 17.5057C71.5075 18.0348 71.8342 18.4343 72.2532 18.7042C72.6722 18.9741 73.157 19.109 73.7074 19.109C74.0163 19.109 74.3022 19.0682 74.565 18.9865C74.8313 18.9048 75.0675 18.7859 75.2734 18.6296C75.4794 18.4698 75.6499 18.2763 75.7848 18.049C75.9233 17.8217 76.0192 17.5625 76.0724 17.2713L78.4055 17.282C78.3452 17.7827 78.1942 18.2656 77.9528 18.7308C77.7148 19.1925 77.3935 19.6062 76.9886 19.9719C76.5874 20.3342 76.108 20.6218 75.5504 20.8349C74.9964 21.0444 74.3697 21.1491 73.6701 21.1491C72.6971 21.1491 71.8271 20.929 71.06 20.4886C70.2965 20.0483 69.6928 19.4109 69.2489 18.5763C68.8086 17.7418 68.5884 16.7315 68.5884 15.5455C68.5884 14.3558 68.8121 13.3438 69.2596 12.5092C69.707 11.6747 70.3143 11.0391 71.0813 10.6023C71.8484 10.1619 72.7113 9.94176 73.6701 9.94176C74.3022 9.94176 74.8881 10.0305 75.4279 10.2081C75.9712 10.3857 76.4524 10.6449 76.8714 10.9858C77.2905 11.3232 77.6314 11.7369 77.8942 12.2269C78.1605 12.717 78.331 13.2781 78.4055 13.9102ZM79.644 11.9925V10.0909H88.6035V11.9925H85.2637V21H82.9838V11.9925H79.644ZM92.9115 10.0909H95.4949L97.9825 14.7891H98.089L100.577 10.0909H103.16L99.181 17.1435V21H96.8905V17.1435L92.9115 10.0909ZM113.786 15.5455C113.786 16.7351 113.56 17.7472 113.109 18.5817C112.662 19.4162 112.051 20.0536 111.277 20.494C110.506 20.9308 109.64 21.1491 108.677 21.1491C107.708 21.1491 106.838 20.929 106.067 20.4886C105.297 20.0483 104.688 19.4109 104.24 18.5763C103.793 17.7418 103.569 16.7315 103.569 15.5455C103.569 14.3558 103.793 13.3438 104.24 12.5092C104.688 11.6747 105.297 11.0391 106.067 10.6023C106.838 10.1619 107.708 9.94176 108.677 9.94176C109.64 9.94176 110.506 10.1619 111.277 10.6023C112.051 11.0391 112.662 11.6747 113.109 12.5092C113.56 13.3438 113.786 14.3558 113.786 15.5455ZM111.447 15.5455C111.447 14.7749 111.332 14.125 111.101 13.5959C110.874 13.0668 110.552 12.6655 110.137 12.392C109.721 12.1186 109.235 11.9819 108.677 11.9819C108.12 11.9819 107.633 12.1186 107.218 12.392C106.802 12.6655 106.479 13.0668 106.248 13.5959C106.021 14.125 105.907 14.7749 105.907 15.5455C105.907 16.3161 106.021 16.9659 106.248 17.495C106.479 18.0241 106.802 18.4254 107.218 18.6989C107.633 18.9723 108.12 19.109 108.677 19.109C109.235 19.109 109.721 18.9723 110.137 18.6989C110.552 18.4254 110.874 18.0241 111.101 17.495C111.332 16.9659 111.447 16.3161 111.447 15.5455ZM122.232 10.0909H124.539V17.1754C124.539 17.9709 124.349 18.6669 123.969 19.2635C123.592 19.8601 123.065 20.3253 122.387 20.6591C121.709 20.9893 120.918 21.1545 120.016 21.1545C119.111 21.1545 118.319 20.9893 117.641 20.6591C116.962 20.3253 116.435 19.8601 116.059 19.2635C115.682 18.6669 115.494 17.9709 115.494 17.1754V10.0909H117.801V16.9783C117.801 17.3938 117.891 17.7631 118.072 18.0863C118.257 18.4094 118.516 18.6634 118.85 18.848C119.184 19.0327 119.573 19.125 120.016 19.125C120.464 19.125 120.853 19.0327 121.183 18.848C121.517 18.6634 121.774 18.4094 121.955 18.0863C122.14 17.7631 122.232 17.3938 122.232 16.9783V10.0909ZM126.436 21V10.0909H130.74C131.564 10.0909 132.267 10.2383 132.85 10.533C133.436 10.8242 133.881 11.2379 134.187 11.7741C134.496 12.3068 134.65 12.9336 134.65 13.6545C134.65 14.3789 134.494 15.0021 134.181 15.5241C133.869 16.0426 133.416 16.4403 132.823 16.7173C132.234 16.9943 131.52 17.1328 130.682 17.1328H127.8V15.2791H130.309C130.749 15.2791 131.115 15.2187 131.406 15.098C131.697 14.9773 131.914 14.7962 132.056 14.5547C132.202 14.3132 132.275 14.0131 132.275 13.6545C132.275 13.2923 132.202 12.9869 132.056 12.7383C131.914 12.4897 131.696 12.3015 131.401 12.1737C131.11 12.0423 130.742 11.9766 130.298 11.9766H128.743V21H126.436ZM132.328 16.0355L135.039 21H132.493L129.84 16.0355H132.328ZM149.377 13.9102H147.044C147.002 13.6083 146.915 13.3402 146.783 13.1058C146.652 12.8679 146.483 12.6655 146.277 12.4986C146.071 12.3317 145.833 12.2038 145.563 12.1151C145.297 12.0263 145.008 11.9819 144.695 11.9819C144.13 11.9819 143.639 12.1222 143.22 12.4027C142.801 12.6797 142.476 13.0845 142.245 13.6172C142.014 14.1463 141.899 14.7891 141.899 15.5455C141.899 16.3232 142.014 16.9766 142.245 17.5057C142.479 18.0348 142.806 18.4343 143.225 18.7042C143.644 18.9741 144.129 19.109 144.679 19.109C144.988 19.109 145.274 19.0682 145.537 18.9865C145.803 18.9048 146.039 18.7859 146.245 18.6296C146.451 18.4698 146.622 18.2763 146.756 18.049C146.895 17.8217 146.991 17.5625 147.044 17.2713L149.377 17.282C149.317 17.7827 149.166 18.2656 148.924 18.7308C148.687 19.1925 148.365 19.6062 147.96 19.9719C147.559 20.3342 147.08 20.6218 146.522 20.8349C145.968 21.0444 145.341 21.1491 144.642 21.1491C143.669 21.1491 142.799 20.929 142.032 20.4886C141.268 20.0483 140.665 19.4109 140.221 18.5763C139.78 17.7418 139.56 16.7315 139.56 15.5455C139.56 14.3558 139.784 13.3438 140.231 12.5092C140.679 11.6747 141.286 11.0391 142.053 10.6023C142.82 10.1619 143.683 9.94176 144.642 9.94176C145.274 9.94176 145.86 10.0305 146.4 10.2081C146.943 10.3857 147.424 10.6449 147.843 10.9858C148.262 11.3232 148.603 11.7369 148.866 12.2269C149.132 12.717 149.303 13.2781 149.377 13.9102ZM151.031 21V10.0909H153.338V14.592H158.02V10.0909H160.321V21H158.02V16.4936H153.338V21H151.031ZM164.103 21H161.631L165.397 10.0909H168.37L172.13 21H169.659L166.926 12.5838H166.841L164.103 21ZM163.948 16.712H169.786V18.5124H163.948V16.712ZM173.443 21V10.0909H177.747C178.571 10.0909 179.274 10.2383 179.857 10.533C180.443 10.8242 180.888 11.2379 181.194 11.7741C181.503 12.3068 181.657 12.9336 181.657 13.6545C181.657 14.3789 181.501 15.0021 181.188 15.5241C180.876 16.0426 180.423 16.4403 179.83 16.7173C179.241 16.9943 178.527 17.1328 177.689 17.1328H174.807V15.2791H177.316C177.756 15.2791 178.122 15.2187 178.413 15.098C178.704 14.9773 178.921 14.7962 179.063 14.5547C179.209 14.3132 179.281 14.0131 179.281 13.6545C179.281 13.2923 179.209 12.9869 179.063 12.7383C178.921 12.4897 178.703 12.3015 178.408 12.1737C178.117 12.0423 177.749 11.9766 177.305 11.9766H175.75V21H173.443ZM179.335 16.0355L182.046 21H179.5L176.847 16.0355H179.335ZM185.167 21H182.696L186.462 10.0909H189.434L193.195 21H190.723L187.991 12.5838H187.905L185.167 21ZM185.013 16.712H190.851V18.5124H185.013V16.712ZM203.62 13.9102H201.287C201.245 13.6083 201.158 13.3402 201.026 13.1058C200.895 12.8679 200.726 12.6655 200.52 12.4986C200.314 12.3317 200.076 12.2038 199.806 12.1151C199.54 12.0263 199.251 11.9819 198.938 11.9819C198.374 11.9819 197.882 12.1222 197.463 12.4027C197.044 12.6797 196.719 13.0845 196.488 13.6172C196.257 14.1463 196.142 14.7891 196.142 15.5455C196.142 16.3232 196.257 16.9766 196.488 17.5057C196.722 18.0348 197.049 18.4343 197.468 18.7042C197.887 18.9741 198.372 19.109 198.922 19.109C199.231 19.109 199.517 19.0682 199.78 18.9865C200.046 18.9048 200.282 18.7859 200.488 18.6296C200.694 18.4698 200.865 18.2763 201 18.049C201.138 17.8217 201.234 17.5625 201.287 17.2713L203.62 17.282C203.56 17.7827 203.409 18.2656 203.168 18.7308C202.93 19.1925 202.608 19.6062 202.203 19.9719C201.802 20.3342 201.323 20.6218 200.765 20.8349C200.211 21.0444 199.585 21.1491 198.885 21.1491C197.912 21.1491 197.042 20.929 196.275 20.4886C195.511 20.0483 194.908 19.4109 194.464 18.5763C194.023 17.7418 193.803 16.7315 193.803 15.5455C193.803 14.3558 194.027 13.3438 194.474 12.5092C194.922 11.6747 195.529 11.0391 196.296 10.6023C197.063 10.1619 197.926 9.94176 198.885 9.94176C199.517 9.94176 200.103 10.0305 200.643 10.2081C201.186 10.3857 201.667 10.6449 202.086 10.9858C202.505 11.3232 202.846 11.7369 203.109 12.2269C203.375 12.717 203.546 13.2781 203.62 13.9102ZM204.859 11.9925V10.0909H213.818V11.9925H210.479V21H208.199V11.9925H204.859ZM215.294 21V10.0909H222.645V11.9925H217.6V14.592H222.267V16.4936H217.6V19.0984H222.666V21H215.294ZM224.478 21V10.0909H228.782C229.606 10.0909 230.309 10.2383 230.892 10.533C231.478 10.8242 231.923 11.2379 232.229 11.7741C232.538 12.3068 232.692 12.9336 232.692 13.6545C232.692 14.3789 232.536 15.0021 232.223 15.5241C231.911 16.0426 231.458 16.4403 230.865 16.7173C230.276 16.9943 229.562 17.1328 228.724 17.1328H225.842V15.2791H228.351C228.791 15.2791 229.157 15.2187 229.448 15.098C229.739 14.9773 229.956 14.7962 230.098 14.5547C230.244 14.3132 230.316 14.0131 230.316 13.6545C230.316 13.2923 230.244 12.9869 230.098 12.7383C229.956 12.4897 229.738 12.3015 229.443 12.1737C229.152 12.0423 228.784 11.9766 228.34 11.9766H226.785V21H224.478ZM230.37 16.0355L233.081 21H230.535L227.882 16.0355H230.37Z" fill="white"/>
<path d="M19.102 10.0909H20.102V9.09091H19.102V10.0909ZM19.102 21V22H20.102V21H19.102ZM16.7955 21H15.7955V22H16.7955V21ZM16.7955 12.2802H17.7955V11.2802H16.7955V12.2802ZM16.7316 12.2802V11.2802H16.4441L16.2005 11.4329L16.7316 12.2802ZM14.2334 13.8462H13.2334V15.6533L14.7645 14.6935L14.2334 13.8462ZM14.2334 11.8008L13.6985 10.9559L13.2334 11.2503V11.8008H14.2334ZM16.934 10.0909V9.09091H16.6441L16.3991 9.24601L16.934 10.0909ZM18.102 10.0909V21H20.102V10.0909H18.102ZM19.102 20H16.7955V22H19.102V20ZM17.7955 21V12.2802H15.7955V21H17.7955ZM16.7955 11.2802H16.7316V13.2802H16.7955V11.2802ZM16.2005 11.4329L13.7023 12.9989L14.7645 14.6935L17.2628 13.1275L16.2005 11.4329ZM15.2334 13.8462V11.8008H13.2334V13.8462H15.2334ZM14.7683 12.6457L17.469 10.9358L16.3991 9.24601L13.6985 10.9559L14.7683 12.6457ZM16.934 11.0909H19.102V9.09091H16.934V11.0909ZM21.551 20.7656L20.8389 21.4677L20.8438 21.4727L20.8489 21.4777L21.551 20.7656ZM21.551 18.9652L20.8489 18.2531L20.8439 18.2581L21.551 18.9652ZM23.3514 18.9652L22.6543 19.6822L22.6543 19.6822L23.3514 18.9652ZM23.5538 20.5046L22.7032 19.9788L22.7005 19.9832L23.5538 20.5046ZM23.0904 20.968L23.6002 21.8284L23.6118 21.8213L23.0904 20.968ZM22.4565 20.1385C22.3698 20.1385 22.3195 20.1191 22.253 20.0535L20.8489 21.4777C21.2866 21.9093 21.8401 22.1385 22.4565 22.1385V20.1385ZM22.2631 20.0636C22.1975 19.997 22.1781 19.9468 22.1781 19.8601H20.1781C20.1781 20.4765 20.4073 21.03 20.8389 21.4677L22.2631 20.0636ZM22.1781 19.8601C22.1781 19.7803 22.1949 19.7355 22.2581 19.6723L20.8439 18.2581C20.4099 18.6921 20.1781 19.2438 20.1781 19.8601H22.1781ZM22.253 19.6773C22.3195 19.6117 22.3698 19.5923 22.4565 19.5923V17.5923C21.8401 17.5923 21.2866 17.8215 20.8489 18.2531L22.253 19.6773ZM22.4565 19.5923C22.5241 19.5923 22.5758 19.6058 22.6543 19.6822L24.0485 18.2482C23.6156 17.8274 23.0707 17.5923 22.4565 17.5923V19.5923ZM22.6543 19.6822C22.7217 19.7477 22.7349 19.7896 22.7349 19.8601H24.7349C24.7349 19.2346 24.4924 18.6798 24.0485 18.2482L22.6543 19.6822ZM22.7349 19.8601C22.7349 19.9128 22.7242 19.9449 22.7032 19.9788L24.4044 21.0304C24.6249 20.6737 24.7349 20.2762 24.7349 19.8601H22.7349ZM22.7005 19.9832C22.6661 20.0396 22.6253 20.0803 22.5689 20.1148L23.6118 21.8213C23.939 21.6214 24.2072 21.3532 24.4071 21.0261L22.7005 19.9832ZM22.5806 20.1077C22.5488 20.1266 22.5146 20.1385 22.4565 20.1385V22.1385C22.86 22.1385 23.2485 22.0368 23.6002 21.8283L22.5806 20.1077ZM37.9892 13.2283L36.9941 13.327L37.0834 14.2283H37.9892V13.2283ZM35.1713 12.0298L35.5406 12.9592L35.5515 12.9548L35.1713 12.0298ZM34.5748 12.4613L33.7747 11.8612L33.7674 11.8713L34.5748 12.4613ZM34.3723 13.0898L35.3717 13.1262L35.3723 13.108V13.0898H34.3723ZM34.4949 13.6012L33.6411 14.1218L33.6456 14.1293L33.6503 14.1367L34.4949 13.6012ZM34.873 13.9794L34.3183 14.8115L34.3248 14.8158L34.3313 14.82L34.873 13.9794ZM35.427 14.2511L35.0776 15.188L35.0847 15.1907L35.0917 15.1932L35.427 14.2511ZM36.0982 14.4428L36.3308 13.4702L36.3237 13.4686L36.3167 13.467L36.0982 14.4428ZM37.0783 14.6772L36.8457 15.6498L36.8528 15.6515L36.8598 15.653L37.0783 14.6772ZM38.3887 15.1033L37.981 16.0165L37.981 16.0165L38.3887 15.1033ZM39.4221 15.7585L40.087 15.0116L40.087 15.0116L39.4221 15.7585ZM40.0985 16.6747L39.1881 17.0885L39.1917 17.0961L40.0985 16.6747ZM40.3489 17.8839L41.349 17.8892L41.3489 17.8761L40.3489 17.8839ZM39.8375 19.6204L39.0138 19.0533L39.013 19.0546L39.8375 19.6204ZM38.3887 20.755L38.7788 21.6757L38.7813 21.6747L38.3887 20.755ZM33.813 20.7496L33.4295 21.6732L33.4313 21.6739L33.813 20.7496ZM32.2896 19.5511L31.4626 20.1135L31.467 20.1198L32.2896 19.5511ZM31.7196 17.5749V16.5749H30.6968L30.7199 17.5975L31.7196 17.5749ZM33.9515 17.5749L34.9492 17.5071L34.8859 16.5749H33.9515V17.5749ZM34.2658 18.4911L33.4672 19.093L33.4721 19.0995L33.4771 19.1059L34.2658 18.4911ZM35.0169 19.0398L34.6473 19.9691L34.66 19.9739L35.0169 19.0398ZM37.1049 19.0504L36.7414 18.1188L36.7375 18.1204L37.1049 19.0504ZM37.7814 18.5763L38.5663 19.196L38.5663 19.196L37.7814 18.5763ZM37.8027 17.2607L37.0411 17.9088L37.0492 17.918L37.8027 17.2607ZM37.1742 16.8345L36.7803 17.7537L36.7845 17.7555L37.1742 16.8345ZM36.1674 16.5149L35.9239 17.4848L35.9331 17.4871L36.1674 16.5149ZM34.9796 16.2166L35.2231 15.2467L35.2159 15.245L34.9796 16.2166ZM32.801 15.1673L32.1347 15.913L32.1347 15.913L32.801 15.1673ZM32.0073 13.2443L33.0073 13.2487L33.0073 13.2389L32.0073 13.2443ZM32.5346 11.5131L31.7256 10.9253L31.7229 10.9291L32.5346 11.5131ZM38.2608 10.3572L37.8438 11.2661L37.8458 11.2671L38.2608 10.3572ZM39.6777 11.5131L38.8521 12.0774L38.8521 12.0774L39.6777 11.5131ZM40.1998 13.2283V14.2283H41.2163L41.1996 13.2119L40.1998 13.2283ZM38.9843 13.1296C38.9161 12.4422 38.6035 11.8413 38.0334 11.4216L36.8476 13.0322C36.9239 13.0883 36.977 13.1551 36.9941 13.327L38.9843 13.1296ZM38.0334 11.4216C37.484 11.0171 36.8127 10.87 36.1248 10.87V12.87C36.5449 12.87 36.7508 12.9609 36.8476 13.0322L38.0334 11.4216ZM36.1248 10.87C35.6602 10.87 35.2047 10.935 34.7912 11.1049L35.5515 12.9548C35.6564 12.9116 35.8366 12.87 36.1248 12.87V10.87ZM34.8021 11.1005C34.4076 11.2572 34.0448 11.5012 33.7748 11.8613L35.3748 13.0613C35.3817 13.0521 35.4167 13.0084 35.5405 12.9592L34.8021 11.1005ZM33.7674 11.8713C33.504 12.2317 33.3723 12.649 33.3723 13.0898H35.3723C35.3723 13.0794 35.3731 13.0726 35.3736 13.069C35.3742 13.0654 35.3747 13.0638 35.3748 13.0635C35.3749 13.0631 35.3751 13.0625 35.3758 13.0613C35.3764 13.0599 35.3782 13.0566 35.3821 13.0513L33.7674 11.8713ZM33.373 13.0535C33.3598 13.4153 33.4359 13.7854 33.6411 14.1218L35.3486 13.0806C35.3601 13.0994 35.3669 13.1178 35.3701 13.1312C35.3731 13.1436 35.371 13.1435 35.3717 13.1262L33.373 13.0535ZM33.6503 14.1367C33.8256 14.4131 34.0556 14.6363 34.3183 14.8115L35.4277 13.1474C35.3709 13.1095 35.3487 13.0805 35.3394 13.0657L33.6503 14.1367ZM34.3313 14.82C34.5611 14.968 34.8122 15.0891 35.0776 15.188L35.7764 13.3141C35.6228 13.2568 35.5046 13.1967 35.4147 13.1388L34.3313 14.82ZM35.0917 15.1932C35.3429 15.2826 35.6059 15.3574 35.8797 15.4187L36.3167 13.467C36.1146 13.4217 35.9302 13.3687 35.7623 13.309L35.0917 15.1932ZM35.8656 15.4154L36.8457 15.6498L37.3109 13.7046L36.3308 13.4702L35.8656 15.4154ZM36.8598 15.653C37.2783 15.7467 37.6508 15.8691 37.981 16.0165L38.7963 14.1902C38.3311 13.9825 37.83 13.8207 37.2968 13.7014L36.8598 15.653ZM37.981 16.0165C38.2958 16.157 38.5511 16.322 38.7571 16.5054L40.087 15.0116C39.7107 14.6766 39.277 14.4048 38.7963 14.1902L37.981 16.0165ZM38.7571 16.5054C38.9452 16.6729 39.0866 16.8651 39.1882 17.0885L41.0089 16.2609C40.7908 15.7812 40.4813 15.3626 40.087 15.0116L38.7571 16.5054ZM39.1917 17.0961C39.2853 17.2976 39.3463 17.5556 39.3489 17.8917L41.3489 17.8761C41.3444 17.303 41.2385 16.755 41.0054 16.2533L39.1917 17.0961ZM39.3489 17.8786C39.3463 18.3709 39.2238 18.7484 39.0138 19.0533L40.6612 20.1874C41.126 19.5123 41.3444 18.7321 41.3489 17.8892L39.3489 17.8786ZM39.013 19.0546C38.8033 19.3602 38.4828 19.6274 37.996 19.8353L38.7813 21.6747C39.5587 21.3427 40.2041 20.8536 40.6621 20.1861L39.013 19.0546ZM37.9985 19.8342C37.5245 20.0351 36.9063 20.1545 36.1142 20.1545V22.1545C37.0976 22.1545 37.9958 22.0075 38.7788 21.6757L37.9985 19.8342ZM36.1142 20.1545C35.3334 20.1545 34.7014 20.0346 34.1948 19.8254L33.4313 21.6739C34.2315 22.0044 35.1336 22.1545 36.1142 22.1545V20.1545ZM34.1966 19.8261C33.7068 19.6227 33.3585 19.3389 33.1122 18.9825L31.467 20.1198C31.9522 20.8217 32.6196 21.3368 33.4295 21.6732L34.1966 19.8261ZM33.1165 18.9888C32.8844 18.6474 32.7337 18.1868 32.7194 17.5523L30.7199 17.5975C30.7411 18.5327 30.9704 19.3895 31.4627 20.1134L33.1165 18.9888ZM31.7196 18.5749H33.9515V16.5749H31.7196V18.5749ZM32.9538 17.6427C32.9892 18.1638 33.1447 18.665 33.4672 19.093L35.0644 17.8893C35.0176 17.8272 34.9635 17.7176 34.9492 17.5071L32.9538 17.6427ZM33.4771 19.1059C33.7851 19.5011 34.1863 19.7856 34.6473 19.969L35.3864 18.1106C35.2224 18.0453 35.1229 17.9641 35.0545 17.8764L33.4771 19.1059ZM34.66 19.9739C35.1081 20.1451 35.5888 20.2209 36.0875 20.2209V18.2209C35.7908 18.2209 35.5577 18.1759 35.3737 18.1056L34.66 19.9739ZM36.0875 20.2209C36.5722 20.2209 37.0414 20.1507 37.4724 19.9805L36.7375 18.1204C36.5932 18.1774 36.3841 18.2209 36.0875 18.2209V20.2209ZM37.4685 19.982C37.8903 19.8174 38.2751 19.5649 38.5663 19.196L36.9965 17.9567C36.9682 17.9926 36.902 18.0562 36.7414 18.1188L37.4685 19.982ZM38.5663 19.196C38.8683 18.8135 39.0211 18.3616 39.0211 17.8786H37.0211C37.0211 17.907 37.0171 17.9204 37.0154 17.9252C37.0139 17.9298 37.01 17.9396 36.9965 17.9567L38.5663 19.196ZM39.0211 17.8786C39.0211 17.4194 38.878 16.9721 38.5563 16.6033L37.0492 17.918C37.0455 17.9138 37.0405 17.9073 37.0354 17.8986C37.0303 17.8898 37.0264 17.8812 37.0237 17.8736C37.018 17.8573 37.0211 17.8559 37.0211 17.8786H39.0211ZM38.5643 16.6125C38.2908 16.2912 37.9338 16.0701 37.5638 15.9135L36.7845 17.7555C36.9686 17.8333 37.0306 17.8963 37.0412 17.9088L38.5643 16.6125ZM37.5681 15.9154C37.228 15.7696 36.8354 15.6473 36.4018 15.5428L35.9331 17.4871C36.2949 17.5743 36.5735 17.6651 36.7803 17.7537L37.5681 15.9154ZM36.411 15.545L35.2231 15.2467L34.736 17.1865L35.9239 17.4848L36.411 15.545ZM35.2159 15.245C34.4059 15.0479 33.8439 14.7581 33.4672 14.4215L32.1347 15.913C32.8233 16.5281 33.7138 16.9379 34.7432 17.1883L35.2159 15.245ZM33.4672 14.4215C33.1768 14.1621 33.0048 13.8095 33.0073 13.2487L31.0073 13.2399C31.0027 14.2914 31.3598 15.2207 32.1347 15.913L33.4672 14.4215ZM33.0073 13.2389C33.0047 12.7706 33.1255 12.4041 33.3464 12.0971L31.7229 10.9291C31.2335 11.6094 31.0027 12.397 31.0073 13.2497L33.0073 13.2389ZM33.3436 12.101C33.5867 11.7664 33.9315 11.4859 34.4153 11.2715L33.6049 9.443C32.8388 9.78256 32.1999 10.2727 31.7256 10.9253L33.3436 12.101ZM34.4153 11.2715C34.8935 11.0595 35.4623 10.9418 36.1408 10.9418V8.94176C35.2284 8.94176 34.3767 9.10097 33.6049 9.443L34.4153 11.2715ZM36.1408 10.9418C36.8374 10.9418 37.3964 11.0608 37.8438 11.2661L38.6779 9.44835C37.9179 9.09967 37.0635 8.94176 36.1408 8.94176V10.9418ZM37.8458 11.2671C38.3071 11.4775 38.6292 11.7512 38.8521 12.0774L40.5033 10.9489C40.0515 10.2878 39.4291 9.791 38.6758 9.44742L37.8458 11.2671ZM38.8521 12.0774C39.0694 12.3953 39.1921 12.7728 39.1999 13.2447L41.1996 13.2119C41.186 12.3841 40.9608 11.6182 40.5033 10.9489L38.8521 12.0774ZM40.1998 12.2283H37.9892V14.2283H40.1998V12.2283ZM41.9003 21H40.9003V22H41.9003V21ZM41.9003 10.0909V9.09091H40.9003V10.0909H41.9003ZM49.2512 10.0909H50.2512V9.09091H49.2512V10.0909ZM49.2512 11.9925V12.9925H50.2512V11.9925H49.2512ZM44.2068 11.9925V10.9925H43.2068V11.9925H44.2068ZM44.2068 14.592H43.2068V15.592H44.2068V14.592ZM48.873 14.592H49.873V13.592H48.873V14.592ZM48.873 16.4936V17.4936H49.873V16.4936H48.873ZM44.2068 16.4936V15.4936H43.2068V16.4936H44.2068ZM44.2068 19.0984H43.2068V20.0984H44.2068V19.0984ZM49.2725 19.0984H50.2725V18.0984H49.2725V19.0984ZM49.2725 21V22H50.2725V21H49.2725ZM42.9003 21V10.0909H40.9003V21H42.9003ZM41.9003 11.0909H49.2512V9.09091H41.9003V11.0909ZM48.2512 10.0909V11.9925H50.2512V10.0909H48.2512ZM49.2512 10.9925H44.2068V12.9925H49.2512V10.9925ZM43.2068 11.9925V14.592H45.2068V11.9925H43.2068ZM44.2068 15.592H48.873V13.592H44.2068V15.592ZM47.873 14.592V16.4936H49.873V14.592H47.873ZM48.873 15.4936H44.2068V17.4936H48.873V15.4936ZM43.2068 16.4936V19.0984H45.2068V16.4936H43.2068ZM44.2068 20.0984H49.2725V18.0984H44.2068V20.0984ZM48.2725 19.0984V21H50.2725V19.0984H48.2725ZM49.2725 20H41.9003V22H49.2725V20ZM51.0849 21H50.0849V22H51.0849V21ZM51.0849 10.0909V9.09091H50.0849V10.0909H51.0849ZM53.3913 10.0909H54.3913V9.09091H53.3913V10.0909ZM53.3913 19.0984H52.3913V20.0984H53.3913V19.0984ZM58.0682 19.0984H59.0682V18.0984H58.0682V19.0984ZM58.0682 21V22H59.0682V21H58.0682ZM52.0849 21V10.0909H50.0849V21H52.0849ZM51.0849 11.0909H53.3913V9.09091H51.0849V11.0909ZM52.3913 10.0909V19.0984H54.3913V10.0909H52.3913ZM53.3913 20.0984H58.0682V18.0984H53.3913V20.0984ZM57.0682 19.0984V21H59.0682V19.0984H57.0682ZM58.0682 20H51.0849V22H58.0682V20ZM59.5956 21H58.5956V22H59.5956V21ZM59.5956 10.0909V9.09091H58.5956V10.0909H59.5956ZM66.9465 10.0909H67.9465V9.09091H66.9465V10.0909ZM66.9465 11.9925V12.9925H67.9465V11.9925H66.9465ZM61.9021 11.9925V10.9925H60.9021V11.9925H61.9021ZM61.9021 14.592H60.9021V15.592H61.9021V14.592ZM66.5683 14.592H67.5683V13.592H66.5683V14.592ZM66.5683 16.4936V17.4936H67.5683V16.4936H66.5683ZM61.9021 16.4936V15.4936H60.9021V16.4936H61.9021ZM61.9021 19.0984H60.9021V20.0984H61.9021V19.0984ZM66.9678 19.0984H67.9678V18.0984H66.9678V19.0984ZM66.9678 21V22H67.9678V21H66.9678ZM60.5956 21V10.0909H58.5956V21H60.5956ZM59.5956 11.0909H66.9465V9.09091H59.5956V11.0909ZM65.9465 10.0909V11.9925H67.9465V10.0909H65.9465ZM66.9465 10.9925H61.9021V12.9925H66.9465V10.9925ZM60.9021 11.9925V14.592H62.9021V11.9925H60.9021ZM61.9021 15.592H66.5683V13.592H61.9021V15.592ZM65.5683 14.592V16.4936H67.5683V14.592H65.5683ZM66.5683 15.4936H61.9021V17.4936H66.5683V15.4936ZM60.9021 16.4936V19.0984H62.9021V16.4936H60.9021ZM61.9021 20.0984H66.9678V18.0984H61.9021V20.0984ZM65.9678 19.0984V21H67.9678V19.0984H65.9678ZM66.9678 20H59.5956V22H66.9678V20ZM78.4055 13.9102V14.9102H79.5305L79.3987 13.793L78.4055 13.9102ZM76.0724 13.9102L75.0823 14.0499L75.2037 14.9102H76.0724V13.9102ZM75.8114 13.1058L74.936 13.5893L74.9392 13.5948L75.8114 13.1058ZM75.3054 12.4986L74.6758 13.2755L74.6758 13.2755L75.3054 12.4986ZM74.5916 12.1151L74.2754 13.0637L74.2791 13.065L74.5916 12.1151ZM72.2479 12.4027L72.7993 13.2369L72.8042 13.2337L72.2479 12.4027ZM71.2731 13.6172L72.1897 14.017L72.1906 14.0148L71.2731 13.6172ZM71.2731 17.5057L70.3565 17.9055L70.3588 17.9107L71.2731 17.5057ZM72.2532 18.7042L71.7117 19.5449L71.7117 19.5449L72.2532 18.7042ZM74.565 18.9865L74.2718 18.0304L74.2682 18.0316L74.565 18.9865ZM75.2734 18.6296L75.8779 19.4264L75.8864 19.4197L75.2734 18.6296ZM75.7848 18.049L74.9308 17.5286L74.9249 17.5385L75.7848 18.049ZM76.0724 17.2713L76.077 16.2713L75.2395 16.2675L75.0888 17.0914L76.0724 17.2713ZM78.4055 17.282L79.3983 17.4017L79.5327 16.2871L78.4101 16.282L78.4055 17.282ZM77.9528 18.7308L77.0652 18.2701L77.0639 18.2727L77.9528 18.7308ZM76.9886 19.9719L77.6587 20.7143L77.659 20.7139L76.9886 19.9719ZM75.5504 20.8349L75.9042 21.7702L75.9074 21.769L75.5504 20.8349ZM71.06 20.4886L70.5604 21.3549L70.5621 21.3559L71.06 20.4886ZM69.2489 18.5763L68.3645 19.043L68.3661 19.046L69.2489 18.5763ZM69.2596 12.5092L70.1409 12.9818L70.1409 12.9818L69.2596 12.5092ZM71.0813 10.6023L71.5762 11.4713L71.5792 11.4695L71.0813 10.6023ZM75.4279 10.2081L75.1154 11.158L75.1173 11.1586L75.4279 10.2081ZM76.8714 10.9858L76.2404 11.7615L76.2443 11.7647L76.8714 10.9858ZM77.8942 12.2269L77.0129 12.6995L77.0156 12.7044L77.8942 12.2269ZM78.4055 12.9102H76.0724V14.9102H78.4055V12.9102ZM77.0626 13.7704C77.005 13.3622 76.8833 12.9728 76.6837 12.6168L74.9392 13.5948C75.0024 13.7076 75.0547 13.8544 75.0823 14.0499L77.0626 13.7704ZM76.6868 12.6224C76.4948 12.2746 76.2436 11.9717 75.935 11.7216L74.6758 13.2755C74.7792 13.3593 74.8653 13.4612 74.936 13.5892L76.6868 12.6224ZM75.935 11.7216C75.6281 11.473 75.281 11.2891 74.9041 11.1651L74.2791 13.065C74.442 13.1186 74.5708 13.1904 74.6758 13.2755L75.935 11.7216ZM74.9078 11.1664C74.5287 11.04 74.1313 10.9819 73.7234 10.9819V12.9819C73.9404 12.9819 74.1219 13.0126 74.2754 13.0637L74.9078 11.1664ZM73.7234 10.9819C72.9852 10.9819 72.2945 11.1681 71.6915 11.5717L72.8042 13.2337C73.0393 13.0763 73.3322 12.9819 73.7234 12.9819V10.9819ZM71.6964 11.5685C71.0916 11.9683 70.6512 12.5373 70.3555 13.2196L72.1906 14.0148C72.3566 13.6317 72.5661 13.3911 72.7993 13.2369L71.6964 11.5685ZM70.3565 13.2173C70.0564 13.9052 69.9268 14.6922 69.9268 15.5455H71.9268C71.9268 14.886 72.0281 14.3874 72.1897 14.017L70.3565 13.2173ZM69.9268 15.5455C69.9268 16.4156 70.0551 17.2146 70.3565 17.9055L72.1897 17.1058C72.0294 16.7385 71.9268 16.2307 71.9268 15.5455H69.9268ZM70.3588 17.9107C70.6592 18.5889 71.1034 19.1531 71.7117 19.5449L72.7947 17.8635C72.5649 17.7155 72.3557 17.4807 72.1874 17.1007L70.3588 17.9107ZM71.7117 19.5449C72.3088 19.9295 72.9857 20.109 73.7074 20.109V18.109C73.3282 18.109 73.0356 18.0187 72.7947 17.8635L71.7117 19.5449ZM73.7074 20.109C74.1048 20.109 74.4919 20.0564 74.8618 19.9414L74.2682 18.0316C74.1125 18.08 73.9279 18.109 73.7074 18.109V20.109ZM74.8582 19.9426C75.2281 19.8291 75.5713 19.6589 75.8778 19.4263L74.6691 17.8329C74.5637 17.9129 74.4346 17.9805 74.2718 18.0305L74.8582 19.9426ZM75.8864 19.4197C76.1929 19.1819 76.4466 18.8931 76.6447 18.5595L74.9249 17.5385C74.8531 17.6594 74.7659 17.7577 74.6604 17.8395L75.8864 19.4197ZM76.6387 18.5694C76.8477 18.2264 76.9833 17.8494 77.0561 17.4512L75.0888 17.0914C75.0551 17.2756 74.9989 17.417 74.9309 17.5286L76.6387 18.5694ZM76.0679 18.2713L78.401 18.2819L78.4101 16.282L76.077 16.2713L76.0679 18.2713ZM77.4127 17.1623C77.3673 17.5393 77.2536 17.9071 77.0652 18.2701L78.8403 19.1915C79.1348 18.6241 79.3231 18.0261 79.3983 17.4017L77.4127 17.1623ZM77.0639 18.2727C76.8839 18.622 76.6383 18.9408 76.3182 19.2299L77.659 20.7139C78.1486 20.2716 78.5458 19.7629 78.8417 19.1889L77.0639 18.2727ZM76.3186 19.2296C76.018 19.501 75.6477 19.7272 75.1934 19.9008L75.9074 21.769C76.5682 21.5164 77.1567 21.1674 77.6587 20.7143L76.3186 19.2296ZM75.1967 19.8995C74.7742 20.0593 74.2702 20.1491 73.6701 20.1491V22.1491C74.4691 22.1491 75.2187 22.0295 75.9042 21.7702L75.1967 19.8995ZM73.6701 20.1491C72.8538 20.1491 72.1586 19.9662 71.5579 19.6214L70.5621 21.3559C71.4956 21.8917 72.5403 22.1491 73.6701 22.1491V20.1491ZM71.5596 19.6224C70.9704 19.2825 70.4943 18.7882 70.1318 18.1067L68.3661 19.046C68.8914 20.0335 69.6227 20.814 70.5604 21.3549L71.5596 19.6224ZM70.1334 18.1097C69.786 17.4513 69.5884 16.6098 69.5884 15.5455H67.5884C67.5884 16.8533 67.8312 18.0324 68.3645 19.043L70.1334 18.1097ZM69.5884 15.5455C69.5884 14.4793 69.7888 13.6384 70.1409 12.9818L68.3783 12.0367C67.8354 13.0491 67.5884 14.2324 67.5884 15.5455H69.5884ZM70.1409 12.9818C70.5061 12.3006 70.9847 11.8081 71.5762 11.4713L70.5865 9.73329C69.6439 10.27 68.9079 11.0489 68.3783 12.0367L70.1409 12.9818ZM71.5792 11.4695C72.1821 11.1234 72.8709 10.9418 73.6701 10.9418V8.94176C72.5517 8.94176 71.5146 9.20046 70.5835 9.73502L71.5792 11.4695ZM73.6701 10.9418C74.2079 10.9418 74.6872 11.0171 75.1154 11.158L75.7404 9.25817C75.0891 9.04394 74.3965 8.94176 73.6701 8.94176V10.9418ZM75.1173 11.1586C75.5508 11.3003 75.922 11.5025 76.2404 11.7615L77.5025 10.2101C76.9829 9.78731 76.3917 9.471 75.7385 9.25757L75.1173 11.1586ZM76.2443 11.7647C76.5554 12.0152 76.8113 12.3235 77.0129 12.6995L78.7755 11.7543C78.4515 11.1502 78.0255 10.6311 77.4986 10.2069L76.2443 11.7647ZM77.0156 12.7044C77.2132 13.0681 77.3507 13.5038 77.4124 14.0273L79.3987 13.793C79.3113 13.0523 79.1078 12.3658 78.7728 11.7494L77.0156 12.7044ZM79.644 11.9925H78.644V12.9925H79.644V11.9925ZM79.644 10.0909V9.09091H78.644V10.0909H79.644ZM88.6035 10.0909H89.6035V9.09091H88.6035V10.0909ZM88.6035 11.9925V12.9925H89.6035V11.9925H88.6035ZM85.2637 11.9925V10.9925H84.2637V11.9925H85.2637ZM85.2637 21V22H86.2637V21H85.2637ZM82.9838 21H81.9838V22H82.9838V21ZM82.9838 11.9925H83.9838V10.9925H82.9838V11.9925ZM80.644 11.9925V10.0909H78.644V11.9925H80.644ZM79.644 11.0909H88.6035V9.09091H79.644V11.0909ZM87.6035 10.0909V11.9925H89.6035V10.0909H87.6035ZM88.6035 10.9925H85.2637V12.9925H88.6035V10.9925ZM84.2637 11.9925V21H86.2637V11.9925H84.2637ZM85.2637 20H82.9838V22H85.2637V20ZM83.9838 21V11.9925H81.9838V21H83.9838ZM82.9838 10.9925H79.644V12.9925H82.9838V10.9925ZM92.9115 10.0909V9.09091H91.1991L92.0405 10.5823L92.9115 10.0909ZM95.4949 10.0909L96.3787 9.62298L96.097 9.09091H95.4949V10.0909ZM97.9825 14.7891L97.0987 15.257L97.3805 15.7891H97.9825V14.7891ZM98.089 14.7891V15.7891H98.6911L98.9728 15.257L98.089 14.7891ZM100.577 10.0909V9.09091H99.9746L99.6929 9.62298L100.577 10.0909ZM103.16 10.0909L104.031 10.5823L104.872 9.09091H103.16V10.0909ZM99.181 17.1435L98.3101 16.6521L98.181 16.8808V17.1435H99.181ZM99.181 21V22H100.181V21H99.181ZM96.8905 21H95.8905V22H96.8905V21ZM96.8905 17.1435H97.8905V16.8808L97.7615 16.6521L96.8905 17.1435ZM92.9115 11.0909H95.4949V9.09091H92.9115V11.0909ZM94.6112 10.5588L97.0987 15.257L98.8663 14.3211L96.3787 9.62298L94.6112 10.5588ZM97.9825 15.7891H98.089V13.7891H97.9825V15.7891ZM98.9728 15.257L101.46 10.5588L99.6929 9.62298L97.2053 14.3211L98.9728 15.257ZM100.577 11.0909H103.16V9.09091H100.577V11.0909ZM102.289 9.59952L98.3101 16.6521L100.052 17.6349L104.031 10.5823L102.289 9.59952ZM98.181 17.1435V21H100.181V17.1435H98.181ZM99.181 20H96.8905V22H99.181V20ZM97.8905 21V17.1435H95.8905V21H97.8905ZM97.7615 16.6521L93.7824 9.59952L92.0405 10.5823L96.0196 17.6349L97.7615 16.6521ZM113.109 18.5817L112.229 18.1062L112.228 18.1091L113.109 18.5817ZM111.277 20.494L111.77 21.3639L111.771 21.3632L111.277 20.494ZM106.067 20.4886L106.563 19.6204L106.067 20.4886ZM104.24 18.5763L103.359 19.0489L103.359 19.0489L104.24 18.5763ZM104.24 12.5092L105.121 12.9818L105.121 12.9818L104.24 12.5092ZM106.067 10.6023L106.56 11.4722L106.563 11.4705L106.067 10.6023ZM111.277 10.6023L110.78 11.4705L110.785 11.4732L111.277 10.6023ZM113.109 12.5092L112.228 12.9818L112.229 12.9847L113.109 12.5092ZM111.101 13.5959L110.182 13.9906L110.184 13.9957L111.101 13.5959ZM110.137 12.392L109.587 13.2274L109.587 13.2274L110.137 12.392ZM107.218 12.392L107.767 13.2274L107.767 13.2274L107.218 12.392ZM106.248 13.5959L105.332 13.196L105.329 13.2012L106.248 13.5959ZM106.248 17.495L105.329 17.8897L105.332 17.8949L106.248 17.495ZM107.218 18.6989L107.767 17.8635L107.767 17.8635L107.218 18.6989ZM110.137 18.6989L109.587 17.8635L109.587 17.8635L110.137 18.6989ZM111.101 17.495L110.184 17.0952L110.182 17.1004L111.101 17.495ZM112.786 15.5455C112.786 16.6105 112.584 17.4503 112.229 18.1062L113.989 19.0571C114.536 18.044 114.786 16.8597 114.786 15.5455H112.786ZM112.228 18.1091C111.863 18.7886 111.382 19.2835 110.782 19.6247L111.771 21.3632C112.719 20.8237 113.46 20.0438 113.99 19.0542L112.228 18.1091ZM110.784 19.624C110.176 19.9683 109.482 20.1491 108.677 20.1491V22.1491C109.797 22.1491 110.836 21.8932 111.77 21.3639L110.784 19.624ZM108.677 20.1491C107.865 20.1491 107.169 19.9666 106.563 19.6204L105.571 21.3569C106.506 21.8914 107.55 22.1491 108.677 22.1491V20.1491ZM106.563 19.6204C105.967 19.2795 105.486 18.7844 105.121 18.1038L103.359 19.0489C103.889 20.0373 104.626 20.8171 105.571 21.3569L106.563 19.6204ZM105.121 18.1038C104.769 17.4468 104.569 16.6075 104.569 15.5455H102.569C102.569 16.8555 102.816 18.0369 103.359 19.0489L105.121 18.1038ZM104.569 15.5455C104.569 14.4793 104.769 13.6384 105.121 12.9818L103.359 12.0367C102.816 13.0491 102.569 14.2324 102.569 15.5455H104.569ZM105.121 12.9818C105.486 12.3017 105.965 11.8094 106.56 11.4722L105.574 9.73231C104.628 10.2687 103.889 11.0477 103.359 12.0367L105.121 12.9818ZM106.563 11.4705C107.169 11.1244 107.865 10.9418 108.677 10.9418V8.94176C107.55 8.94176 106.506 9.19951 105.571 9.73403L106.563 11.4705ZM108.677 10.9418C109.481 10.9418 110.174 11.1237 110.78 11.4705L111.773 9.73403C110.838 9.20014 109.798 8.94176 108.677 8.94176V10.9418ZM110.785 11.4732C111.383 11.8107 111.864 12.3029 112.228 12.9818L113.99 12.0367C113.459 11.0465 112.718 10.2674 111.768 9.73134L110.785 11.4732ZM112.229 12.9847C112.584 13.6406 112.786 14.4804 112.786 15.5455H114.786C114.786 14.2312 114.536 13.0469 113.989 12.0338L112.229 12.9847ZM112.447 15.5455C112.447 14.6809 112.318 13.8859 112.017 13.196L110.184 13.9957C110.345 14.3641 110.447 14.8688 110.447 15.5455H112.447ZM112.02 13.2012C111.728 12.5213 111.29 11.9539 110.686 11.5567L109.587 13.2274C109.814 13.377 110.02 13.6122 110.182 13.9905L112.02 13.2012ZM110.686 11.5567C110.088 11.1632 109.406 10.9819 108.677 10.9819V12.9819C109.064 12.9819 109.354 13.0741 109.587 13.2274L110.686 11.5567ZM108.677 10.9819C107.949 10.9819 107.266 11.1632 106.668 11.5567L107.767 13.2274C108 13.0741 108.291 12.9819 108.677 12.9819V10.9819ZM106.668 11.5567C106.066 11.9529 105.627 12.5185 105.332 13.196L107.165 13.9957C107.331 13.6151 107.539 13.378 107.767 13.2274L106.668 11.5567ZM105.329 13.2012C105.034 13.8895 104.907 14.6826 104.907 15.5455H106.907C106.907 14.8672 107.008 14.3605 107.167 13.9905L105.329 13.2012ZM104.907 15.5455C104.907 16.4084 105.034 17.2014 105.329 17.8897L107.167 17.1004C107.008 16.7304 106.907 16.2238 106.907 15.5455H104.907ZM105.332 17.8949C105.627 18.5725 106.066 19.138 106.668 19.5342L107.767 17.8635C107.539 17.7129 107.331 17.4758 107.165 17.0952L105.332 17.8949ZM106.668 19.5342C107.266 19.9277 107.949 20.109 108.677 20.109V18.109C108.291 18.109 108 18.0169 107.767 17.8635L106.668 19.5342ZM108.677 20.109C109.406 20.109 110.088 19.9277 110.686 19.5342L109.587 17.8635C109.354 18.0169 109.064 18.109 108.677 18.109V20.109ZM110.686 19.5342C111.29 19.137 111.728 18.5696 112.02 17.8897L110.182 17.1004C110.02 17.4787 109.814 17.7139 109.587 17.8635L110.686 19.5342ZM112.017 17.8949C112.318 17.205 112.447 16.41 112.447 15.5455H110.447C110.447 16.2221 110.345 16.7268 110.184 17.0952L112.017 17.8949ZM122.232 10.0909V9.09091H121.232V10.0909H122.232ZM124.539 10.0909H125.539V9.09091H124.539V10.0909ZM123.969 19.2635L123.125 18.7263L123.123 18.7299L123.969 19.2635ZM122.387 20.6591L122.825 21.5582L122.828 21.5563L122.387 20.6591ZM117.641 20.6591L117.199 21.5563L117.203 21.5582L117.641 20.6591ZM116.059 19.2635L115.213 19.7971L115.213 19.7971L116.059 19.2635ZM115.494 10.0909V9.09091H114.494V10.0909H115.494ZM117.801 10.0909H118.801V9.09091H117.801V10.0909ZM118.072 18.0863L117.2 18.5752L117.204 18.5824L118.072 18.0863ZM118.85 18.848L118.366 19.723L118.366 19.723L118.85 18.848ZM121.183 18.848L120.699 17.973L120.695 17.9752L121.183 18.848ZM121.955 18.0863L121.087 17.5901L121.083 17.5974L121.955 18.0863ZM122.232 11.0909H124.539V9.09091H122.232V11.0909ZM123.539 10.0909V17.1754H125.539V10.0909H123.539ZM123.539 17.1754C123.539 17.805 123.391 18.3097 123.125 18.7263L124.812 19.8007C125.307 19.0242 125.539 18.1368 125.539 17.1754H123.539ZM123.123 18.7299C122.852 19.159 122.47 19.5035 121.945 19.7619L122.828 21.5563C123.66 21.147 124.332 20.5611 124.815 19.7971L123.123 18.7299ZM121.949 19.76C121.431 20.0121 120.796 20.1545 120.016 20.1545V22.1545C121.041 22.1545 121.986 21.9666 122.825 21.5582L121.949 19.76ZM120.016 20.1545C119.233 20.1545 118.596 20.0119 118.078 19.76L117.203 21.5582C118.042 21.9668 118.989 22.1545 120.016 22.1545V20.1545ZM118.082 19.7619C117.557 19.5035 117.175 19.159 116.904 18.7299L115.213 19.7971C115.695 20.5611 116.368 21.147 117.199 21.5563L118.082 19.7619ZM116.904 18.7299C116.641 18.3128 116.494 17.8068 116.494 17.1754H114.494C114.494 18.135 114.723 19.021 115.213 19.7971L116.904 18.7299ZM116.494 17.1754V10.0909H114.494V17.1754H116.494ZM115.494 11.0909H117.801V9.09091H115.494V11.0909ZM116.801 10.0909V16.9783H118.801V10.0909H116.801ZM116.801 16.9783C116.801 17.5438 116.925 18.0852 117.2 18.5752L118.945 17.5974C118.857 17.4411 118.801 17.2438 118.801 16.9783H116.801ZM117.204 18.5824C117.482 19.0688 117.876 19.452 118.366 19.723L119.334 17.973C119.156 17.8747 119.032 17.7501 118.94 17.5902L117.204 18.5824ZM118.366 19.723C118.87 20.0022 119.431 20.125 120.016 20.125V18.125C119.714 18.125 119.497 18.0632 119.334 17.973L118.366 19.723ZM120.016 20.125C120.603 20.125 121.166 20.0029 121.671 19.7208L120.695 17.9752C120.539 18.0624 120.324 18.125 120.016 18.125V20.125ZM121.667 19.723C122.159 19.4511 122.553 19.0657 122.828 18.5752L121.083 17.5974C120.996 17.7532 120.875 17.8756 120.699 17.973L121.667 19.723ZM122.824 18.5824C123.104 18.0912 123.232 17.5472 123.232 16.9783H121.232C121.232 17.2405 121.176 17.4351 121.087 17.5902L122.824 18.5824ZM123.232 16.9783V10.0909H121.232V16.9783H123.232ZM126.436 21H125.436V22H126.436V21ZM126.436 10.0909V9.09091H125.436V10.0909H126.436ZM132.85 10.533L132.398 11.4253L132.405 11.4285L132.85 10.533ZM134.187 11.7741L133.318 12.2691L133.322 12.2759L134.187 11.7741ZM134.181 15.5241L135.038 16.0404L135.039 16.0378L134.181 15.5241ZM132.823 16.7173L132.4 15.8113L132.398 15.8123L132.823 16.7173ZM127.8 17.1328H126.8V18.1328H127.8V17.1328ZM127.8 15.2791V14.2791H126.8V15.2791H127.8ZM131.406 15.098L131.789 16.0218L131.789 16.0218L131.406 15.098ZM132.056 14.5547L131.2 14.0383L131.194 14.0477L132.056 14.5547ZM132.056 12.7383L131.188 13.2344L131.193 13.2437L132.056 12.7383ZM131.401 12.1737L130.99 13.0852L130.996 13.0882L131.003 13.0911L131.401 12.1737ZM128.743 11.9766V10.9766H127.743V11.9766H128.743ZM128.743 21V22H129.743V21H128.743ZM132.328 16.0355L133.205 15.5562L132.921 15.0355H132.328V16.0355ZM135.039 21V22H136.725L135.917 20.5207L135.039 21ZM132.493 21L131.611 21.4713L131.893 22H132.493V21ZM129.84 16.0355V15.0355H128.172L128.958 16.5068L129.84 16.0355ZM127.436 21V10.0909H125.436V21H127.436ZM126.436 11.0909H130.74V9.09091H126.436V11.0909ZM130.74 11.0909C131.447 11.0909 131.988 11.2175 132.398 11.4253L133.301 9.64078C132.547 9.25907 131.681 9.09091 130.74 9.09091V11.0909ZM132.405 11.4285C132.824 11.6369 133.117 11.9162 133.318 12.269L135.056 11.2792C134.646 10.5597 134.047 10.0115 133.295 9.63752L132.405 11.4285ZM133.322 12.2759C133.528 12.6318 133.65 13.0795 133.65 13.6545H135.65C135.65 12.7877 135.463 11.9818 135.052 11.2724L133.322 12.2759ZM133.65 13.6545C133.65 14.2327 133.527 14.671 133.323 15.0105L135.039 16.0378C135.461 15.3332 135.65 14.5251 135.65 13.6545H133.65ZM133.325 15.0079C133.123 15.3424 132.828 15.6112 132.4 15.8113L133.246 17.6234C134.004 17.2695 134.615 16.7428 135.038 16.0404L133.325 15.0079ZM132.398 15.8123C131.974 16.0115 131.413 16.1328 130.682 16.1328V18.1328C131.626 18.1328 132.493 17.9771 133.248 17.6224L132.398 15.8123ZM130.682 16.1328H127.8V18.1328H130.682V16.1328ZM128.8 17.1328V15.2791H126.8V17.1328H128.8ZM127.8 16.2791H130.309V14.2791H127.8V16.2791ZM130.309 16.2791C130.832 16.2791 131.339 16.2086 131.789 16.0218L131.023 14.1743C130.891 14.2289 130.666 14.2791 130.309 14.2791V16.2791ZM131.789 16.0218C132.255 15.8287 132.652 15.5136 132.918 15.0617L131.194 14.0477C131.176 14.0787 131.14 14.1258 131.023 14.1743L131.789 16.0218ZM132.912 15.071C133.174 14.6366 133.275 14.1463 133.275 13.6545H131.275C131.275 13.88 131.229 13.9898 131.2 14.0383L132.912 15.071ZM133.275 13.6545C133.275 13.1597 133.175 12.6695 132.919 12.2329L131.193 13.2437C131.229 13.3042 131.275 13.4248 131.275 13.6545H133.275ZM132.924 12.2421C132.662 11.7833 132.266 11.459 131.799 11.2562L131.003 13.0911C131.125 13.144 131.166 13.1961 131.188 13.2344L132.924 12.2421ZM131.812 11.2621C131.352 11.0544 130.832 10.9766 130.298 10.9766V12.9766C130.652 12.9766 130.868 13.0302 130.99 13.0852L131.812 11.2621ZM130.298 10.9766H128.743V12.9766H130.298V10.9766ZM127.743 11.9766V21H129.743V11.9766H127.743ZM128.743 20H126.436V22H128.743V20ZM131.45 16.5148L134.161 21.4793L135.917 20.5207L133.205 15.5562L131.45 16.5148ZM135.039 20H132.493V22H135.039V20ZM133.375 20.5287L130.722 15.5642L128.958 16.5068L131.611 21.4713L133.375 20.5287ZM129.84 17.0355H132.328V15.0355H129.84V17.0355ZM149.377 13.9102V14.9102H150.502L150.37 13.793L149.377 13.9102ZM147.044 13.9102L146.054 14.0499L146.175 14.9102H147.044V13.9102ZM146.783 13.1058L145.908 13.5893L145.911 13.5948L146.783 13.1058ZM146.277 12.4986L145.647 13.2755L145.647 13.2755L146.277 12.4986ZM145.563 12.1151L145.247 13.0637L145.251 13.065L145.563 12.1151ZM143.22 12.4027L143.771 13.2369L143.776 13.2337L143.22 12.4027ZM142.245 13.6172L143.161 14.017L143.162 14.0148L142.245 13.6172ZM142.245 17.5057L141.328 17.9055L141.33 17.9107L142.245 17.5057ZM143.225 18.7042L142.683 19.5449L142.683 19.5449L143.225 18.7042ZM145.537 18.9865L145.243 18.0304L145.24 18.0316L145.537 18.9865ZM146.245 18.6296L146.85 19.4264L146.858 19.4197L146.245 18.6296ZM146.756 18.049L145.902 17.5286L145.897 17.5385L146.756 18.049ZM147.044 17.2713L147.049 16.2713L146.211 16.2675L146.06 17.0914L147.044 17.2713ZM149.377 17.282L150.37 17.4017L150.504 16.2871L149.382 16.282L149.377 17.282ZM148.924 18.7308L148.037 18.2701L148.036 18.2727L148.924 18.7308ZM147.96 19.9719L148.63 20.7143L148.631 20.7139L147.96 19.9719ZM146.522 20.8349L146.876 21.7702L146.879 21.769L146.522 20.8349ZM142.032 20.4886L141.532 21.3549L141.534 21.3559L142.032 20.4886ZM140.221 18.5763L139.336 19.043L139.338 19.046L140.221 18.5763ZM140.231 12.5092L141.113 12.9818L141.113 12.9818L140.231 12.5092ZM142.053 10.6023L142.548 11.4713L142.551 11.4695L142.053 10.6023ZM146.4 10.2081L146.087 11.158L146.089 11.1586L146.4 10.2081ZM147.843 10.9858L147.212 11.7615L147.216 11.7647L147.843 10.9858ZM148.866 12.2269L147.985 12.6995L147.987 12.7044L148.866 12.2269ZM149.377 12.9102H147.044V14.9102H149.377V12.9102ZM148.034 13.7704C147.977 13.3622 147.855 12.9728 147.655 12.6168L145.911 13.5948C145.974 13.7076 146.026 13.8544 146.054 14.0499L148.034 13.7704ZM147.659 12.6224C147.466 12.2746 147.215 11.9717 146.907 11.7216L145.647 13.2755C145.751 13.3593 145.837 13.4612 145.908 13.5892L147.659 12.6224ZM146.907 11.7216C146.6 11.473 146.253 11.2891 145.876 11.1651L145.251 13.065C145.414 13.1186 145.542 13.1904 145.647 13.2755L146.907 11.7216ZM145.88 11.1664C145.5 11.04 145.103 10.9819 144.695 10.9819V12.9819C144.912 12.9819 145.094 13.0126 145.247 13.0637L145.88 11.1664ZM144.695 10.9819C143.957 10.9819 143.266 11.1681 142.663 11.5717L143.776 13.2337C144.011 13.0763 144.304 12.9819 144.695 12.9819V10.9819ZM142.668 11.5685C142.063 11.9683 141.623 12.5373 141.327 13.2196L143.162 14.0148C143.328 13.6317 143.538 13.3911 143.771 13.2369L142.668 11.5685ZM141.328 13.2173C141.028 13.9052 140.899 14.6922 140.899 15.5455H142.899C142.899 14.886 143 14.3874 143.161 14.017L141.328 13.2173ZM140.899 15.5455C140.899 16.4156 141.027 17.2146 141.328 17.9055L143.161 17.1058C143.001 16.7385 142.899 16.2307 142.899 15.5455H140.899ZM141.33 17.9107C141.631 18.5889 142.075 19.1531 142.683 19.5449L143.766 17.8635C143.537 17.7155 143.327 17.4807 143.159 17.1007L141.33 17.9107ZM142.683 19.5449C143.281 19.9295 143.957 20.109 144.679 20.109V18.109C144.3 18.109 144.007 18.0187 143.766 17.8635L142.683 19.5449ZM144.679 20.109C145.076 20.109 145.464 20.0564 145.833 19.9414L145.24 18.0316C145.084 18.08 144.9 18.109 144.679 18.109V20.109ZM145.83 19.9426C146.2 19.8291 146.543 19.6589 146.85 19.4263L145.641 17.8329C145.535 17.9129 145.406 17.9805 145.243 18.0305L145.83 19.9426ZM146.858 19.4197C147.165 19.1819 147.418 18.8931 147.616 18.5595L145.897 17.5385C145.825 17.6594 145.738 17.7577 145.632 17.8395L146.858 19.4197ZM147.61 18.5694C147.819 18.2264 147.955 17.8494 148.028 17.4512L146.06 17.0914C146.027 17.2756 145.971 17.417 145.903 17.5286L147.61 18.5694ZM147.04 18.2713L149.373 18.2819L149.382 16.282L147.049 16.2713L147.04 18.2713ZM148.384 17.1623C148.339 17.5393 148.225 17.9071 148.037 18.2701L149.812 19.1915C150.107 18.6241 150.295 18.0261 150.37 17.4017L148.384 17.1623ZM148.036 18.2727C147.856 18.622 147.61 18.9408 147.29 19.2299L148.631 20.7139C149.12 20.2716 149.518 19.7629 149.813 19.1889L148.036 18.2727ZM147.29 19.2296C146.99 19.501 146.619 19.7272 146.165 19.9008L146.879 21.769C147.54 21.5164 148.128 21.1674 148.63 20.7143L147.29 19.2296ZM146.168 19.8995C145.746 20.0593 145.242 20.1491 144.642 20.1491V22.1491C145.441 22.1491 146.19 22.0295 146.876 21.7702L146.168 19.8995ZM144.642 20.1491C143.826 20.1491 143.13 19.9662 142.53 19.6214L141.534 21.3559C142.467 21.8917 143.512 22.1491 144.642 22.1491V20.1491ZM142.531 19.6224C141.942 19.2825 141.466 18.7882 141.103 18.1067L139.338 19.046C139.863 20.0335 140.594 20.814 141.532 21.3549L142.531 19.6224ZM141.105 18.1097C140.758 17.4513 140.56 16.6098 140.56 15.5455H138.56C138.56 16.8533 138.803 18.0324 139.336 19.043L141.105 18.1097ZM140.56 15.5455C140.56 14.4793 140.761 13.6384 141.113 12.9818L139.35 12.0367C138.807 13.0491 138.56 14.2324 138.56 15.5455H140.56ZM141.113 12.9818C141.478 12.3006 141.956 11.8081 142.548 11.4713L141.558 9.73329C140.616 10.27 139.88 11.0489 139.35 12.0367L141.113 12.9818ZM142.551 11.4695C143.154 11.1234 143.843 10.9418 144.642 10.9418V8.94176C143.523 8.94176 142.486 9.20046 141.555 9.73502L142.551 11.4695ZM144.642 10.9418C145.18 10.9418 145.659 11.0171 146.087 11.158L146.712 9.25817C146.061 9.04394 145.368 8.94176 144.642 8.94176V10.9418ZM146.089 11.1586C146.522 11.3003 146.894 11.5025 147.212 11.7615L148.474 10.2101C147.955 9.78731 147.363 9.471 146.71 9.25757L146.089 11.1586ZM147.216 11.7647C147.527 12.0152 147.783 12.3235 147.985 12.6995L149.747 11.7543C149.423 11.1502 148.997 10.6311 148.47 10.2069L147.216 11.7647ZM147.987 12.7044C148.185 13.0681 148.322 13.5038 148.384 14.0273L150.37 13.793C150.283 13.0523 150.08 12.3658 149.744 11.7494L147.987 12.7044ZM151.031 21H150.031V22H151.031V21ZM151.031 10.0909V9.09091H150.031V10.0909H151.031ZM153.338 10.0909H154.338V9.09091H153.338V10.0909ZM153.338 14.592H152.338V15.592H153.338V14.592ZM158.02 14.592V15.592H159.02V14.592H158.02ZM158.02 10.0909V9.09091H157.02V10.0909H158.02ZM160.321 10.0909H161.321V9.09091H160.321V10.0909ZM160.321 21V22H161.321V21H160.321ZM158.02 21H157.02V22H158.02V21ZM158.02 16.4936H159.02V15.4936H158.02V16.4936ZM153.338 16.4936V15.4936H152.338V16.4936H153.338ZM153.338 21V22H154.338V21H153.338ZM152.031 21V10.0909H150.031V21H152.031ZM151.031 11.0909H153.338V9.09091H151.031V11.0909ZM152.338 10.0909V14.592H154.338V10.0909H152.338ZM153.338 15.592H158.02V13.592H153.338V15.592ZM159.02 14.592V10.0909H157.02V14.592H159.02ZM158.02 11.0909H160.321V9.09091H158.02V11.0909ZM159.321 10.0909V21H161.321V10.0909H159.321ZM160.321 20H158.02V22H160.321V20ZM159.02 21V16.4936H157.02V21H159.02ZM158.02 15.4936H153.338V17.4936H158.02V15.4936ZM152.338 16.4936V21H154.338V16.4936H152.338ZM153.338 20H151.031V22H153.338V20ZM164.103 21V22H164.829L165.054 21.3094L164.103 21ZM161.631 21L160.686 20.6737L160.228 22H161.631V21ZM165.397 10.0909V9.09091H164.685L164.452 9.76459L165.397 10.0909ZM168.37 10.0909L169.315 9.765L169.083 9.09091H168.37V10.0909ZM172.13 21V22H173.533L173.076 20.6741L172.13 21ZM169.659 21L168.708 21.3088L168.932 22H169.659V21ZM166.926 12.5838L167.877 12.275L167.653 11.5838H166.926V12.5838ZM166.841 12.5838V11.5838H166.115L165.89 12.2744L166.841 12.5838ZM163.948 16.712V15.712H162.948V16.712H163.948ZM169.786 16.712H170.786V15.712H169.786V16.712ZM169.786 18.5124V19.5124H170.786V18.5124H169.786ZM163.948 18.5124H162.948V19.5124H163.948V18.5124ZM164.103 20H161.631V22H164.103V20ZM162.577 21.3263L166.343 10.4172L164.452 9.76459L160.686 20.6737L162.577 21.3263ZM165.397 11.0909H168.37V9.09091H165.397V11.0909ZM167.424 10.4168L171.185 21.3259L173.076 20.6741L169.315 9.765L167.424 10.4168ZM172.13 20H169.659V22H172.13V20ZM170.61 20.6912L167.877 12.275L165.975 12.8926L168.708 21.3088L170.61 20.6912ZM166.926 11.5838H166.841V13.5838H166.926V11.5838ZM165.89 12.2744L163.152 20.6906L165.054 21.3094L167.792 12.8932L165.89 12.2744ZM163.948 17.712H169.786V15.712H163.948V17.712ZM168.786 16.712V18.5124H170.786V16.712H168.786ZM169.786 17.5124H163.948V19.5124H169.786V17.5124ZM164.948 18.5124V16.712H162.948V18.5124H164.948ZM173.443 21H172.443V22H173.443V21ZM173.443 10.0909V9.09091H172.443V10.0909H173.443ZM179.857 10.533L179.405 11.4253L179.412 11.4285L179.857 10.533ZM181.194 11.7741L180.325 12.2691L180.329 12.2759L181.194 11.7741ZM181.188 15.5241L182.045 16.0404L182.046 16.0378L181.188 15.5241ZM179.83 16.7173L179.407 15.8113L179.405 15.8123L179.83 16.7173ZM174.807 17.1328H173.807V18.1328H174.807V17.1328ZM174.807 15.2791V14.2791H173.807V15.2791H174.807ZM178.413 15.098L178.796 16.0218L178.796 16.0218L178.413 15.098ZM179.063 14.5547L178.207 14.0383L178.201 14.0477L179.063 14.5547ZM179.063 12.7383L178.195 13.2344L178.2 13.2437L179.063 12.7383ZM178.408 12.1737L177.996 13.0852L178.003 13.0882L178.01 13.0911L178.408 12.1737ZM175.75 11.9766V10.9766H174.75V11.9766H175.75ZM175.75 21V22H176.75V21H175.75ZM179.335 16.0355L180.212 15.5562L179.928 15.0355H179.335V16.0355ZM182.046 21V22H183.731L182.924 20.5207L182.046 21ZM179.5 21L178.618 21.4713L178.9 22H179.5V21ZM176.847 16.0355V15.0355H175.179L175.965 16.5068L176.847 16.0355ZM174.443 21V10.0909H172.443V21H174.443ZM173.443 11.0909H177.747V9.09091H173.443V11.0909ZM177.747 11.0909C178.454 11.0909 178.995 11.2175 179.405 11.4253L180.308 9.64078C179.554 9.25907 178.688 9.09091 177.747 9.09091V11.0909ZM179.412 11.4285C179.831 11.6369 180.124 11.9162 180.325 12.269L182.063 11.2792C181.653 10.5597 181.054 10.0115 180.302 9.63752L179.412 11.4285ZM180.329 12.2759C180.535 12.6318 180.657 13.0795 180.657 13.6545H182.657C182.657 12.7877 182.47 11.9818 182.059 11.2724L180.329 12.2759ZM180.657 13.6545C180.657 14.2327 180.534 14.671 180.33 15.0105L182.046 16.0378C182.468 15.3332 182.657 14.5251 182.657 13.6545H180.657ZM180.332 15.0079C180.13 15.3424 179.835 15.6112 179.407 15.8113L180.253 17.6234C181.011 17.2695 181.621 16.7428 182.045 16.0404L180.332 15.0079ZM179.405 15.8123C178.981 16.0115 178.42 16.1328 177.689 16.1328V18.1328C178.633 18.1328 179.5 17.9771 180.255 17.6224L179.405 15.8123ZM177.689 16.1328H174.807V18.1328H177.689V16.1328ZM175.807 17.1328V15.2791H173.807V17.1328H175.807ZM174.807 16.2791H177.316V14.2791H174.807V16.2791ZM177.316 16.2791C177.839 16.2791 178.346 16.2086 178.796 16.0218L178.03 14.1743C177.898 14.2289 177.673 14.2791 177.316 14.2791V16.2791ZM178.796 16.0218C179.262 15.8287 179.659 15.5136 179.925 15.0617L178.201 14.0477C178.183 14.0787 178.147 14.1258 178.03 14.1743L178.796 16.0218ZM179.919 15.071C180.181 14.6366 180.281 14.1463 180.281 13.6545H178.281C178.281 13.88 178.236 13.9898 178.207 14.0383L179.919 15.071ZM180.281 13.6545C180.281 13.1597 180.182 12.6695 179.926 12.2329L178.2 13.2437C178.236 13.3042 178.281 13.4248 178.281 13.6545H180.281ZM179.931 12.2421C179.669 11.7833 179.273 11.459 178.806 11.2562L178.01 13.0911C178.132 13.144 178.173 13.1961 178.195 13.2344L179.931 12.2421ZM178.819 11.2621C178.359 11.0544 177.839 10.9766 177.305 10.9766V12.9766C177.659 12.9766 177.875 13.0302 177.996 13.0852L178.819 11.2621ZM177.305 10.9766H175.75V12.9766H177.305V10.9766ZM174.75 11.9766V21H176.75V11.9766H174.75ZM175.75 20H173.443V22H175.75V20ZM178.457 16.5148L181.168 21.4793L182.924 20.5207L180.212 15.5562L178.457 16.5148ZM182.046 20H179.5V22H182.046V20ZM180.382 20.5287L177.729 15.5642L175.965 16.5068L178.618 21.4713L180.382 20.5287ZM176.847 17.0355H179.335V15.0355H176.847V17.0355ZM185.167 21V22H185.894L186.118 21.3094L185.167 21ZM182.696 21L181.75 20.6737L181.293 22H182.696V21ZM186.462 10.0909V9.09091H185.749L185.516 9.76459L186.462 10.0909ZM189.434 10.0909L190.379 9.765L190.147 9.09091H189.434V10.0909ZM193.195 21V22H194.597L194.14 20.6741L193.195 21ZM190.723 21L189.772 21.3088L189.996 22H190.723V21ZM187.991 12.5838L188.942 12.275L188.717 11.5838H187.991V12.5838ZM187.905 12.5838V11.5838H187.179L186.954 12.2744L187.905 12.5838ZM185.013 16.712V15.712H184.013V16.712H185.013ZM190.851 16.712H191.851V15.712H190.851V16.712ZM190.851 18.5124V19.5124H191.851V18.5124H190.851ZM185.013 18.5124H184.013V19.5124H185.013V18.5124ZM185.167 20H182.696V22H185.167V20ZM183.641 21.3263L187.407 10.4172L185.516 9.76459L181.75 20.6737L183.641 21.3263ZM186.462 11.0909H189.434V9.09091H186.462V11.0909ZM188.489 10.4168L192.249 21.3259L194.14 20.6741L190.379 9.765L188.489 10.4168ZM193.195 20H190.723V22H193.195V20ZM191.674 20.6912L188.942 12.275L187.039 12.8926L189.772 21.3088L191.674 20.6912ZM187.991 11.5838H187.905V13.5838H187.991V11.5838ZM186.954 12.2744L184.216 20.6906L186.118 21.3094L188.856 12.8932L186.954 12.2744ZM185.013 17.712H190.851V15.712H185.013V17.712ZM189.851 16.712V18.5124H191.851V16.712H189.851ZM190.851 17.5124H185.013V19.5124H190.851V17.5124ZM186.013 18.5124V16.712H184.013V18.5124H186.013ZM203.62 13.9102V14.9102H204.745L204.613 13.793L203.62 13.9102ZM201.287 13.9102L200.297 14.0499L200.419 14.9102H201.287V13.9102ZM201.026 13.1058L200.151 13.5893L200.154 13.5948L201.026 13.1058ZM200.52 12.4986L199.891 13.2755L199.891 13.2755L200.52 12.4986ZM199.806 12.1151L199.49 13.0637L199.494 13.065L199.806 12.1151ZM197.463 12.4027L198.014 13.2369L198.019 13.2337L197.463 12.4027ZM196.488 13.6172L197.405 14.017L197.405 14.0148L196.488 13.6172ZM196.488 17.5057L195.571 17.9055L195.574 17.9107L196.488 17.5057ZM197.468 18.7042L196.927 19.5449L196.927 19.5449L197.468 18.7042ZM199.78 18.9865L199.487 18.0304L199.483 18.0316L199.78 18.9865ZM200.488 18.6296L201.093 19.4264L201.101 19.4197L200.488 18.6296ZM201 18.049L200.146 17.5286L200.14 17.5385L201 18.049ZM201.287 17.2713L201.292 16.2713L200.454 16.2675L200.304 17.0914L201.287 17.2713ZM203.62 17.282L204.613 17.4017L204.748 16.2871L203.625 16.282L203.62 17.282ZM203.168 18.7308L202.28 18.2701L202.279 18.2727L203.168 18.7308ZM202.203 19.9719L202.874 20.7143L202.874 20.7139L202.203 19.9719ZM200.765 20.8349L201.119 21.7702L201.122 21.769L200.765 20.8349ZM196.275 20.4886L195.775 21.3549L195.777 21.3559L196.275 20.4886ZM194.464 18.5763L193.579 19.043L193.581 19.046L194.464 18.5763ZM194.474 12.5092L195.356 12.9818L195.356 12.9818L194.474 12.5092ZM196.296 10.6023L196.791 11.4713L196.794 11.4695L196.296 10.6023ZM200.643 10.2081L200.33 11.158L200.332 11.1586L200.643 10.2081ZM202.086 10.9858L201.455 11.7615L201.459 11.7647L202.086 10.9858ZM203.109 12.2269L202.228 12.6995L202.23 12.7044L203.109 12.2269ZM203.62 12.9102H201.287V14.9102H203.62V12.9102ZM202.277 13.7704C202.22 13.3622 202.098 12.9728 201.899 12.6168L200.154 13.5948C200.217 13.7076 200.27 13.8544 200.297 14.0499L202.277 13.7704ZM201.902 12.6224C201.71 12.2746 201.458 11.9717 201.15 11.7216L199.891 13.2755C199.994 13.3593 200.08 13.4612 200.151 13.5892L201.902 12.6224ZM201.15 11.7216C200.843 11.473 200.496 11.2891 200.119 11.1651L199.494 13.065C199.657 13.1186 199.786 13.1904 199.891 13.2755L201.15 11.7216ZM200.123 11.1664C199.744 11.04 199.346 10.9819 198.938 10.9819V12.9819C199.155 12.9819 199.337 13.0126 199.49 13.0637L200.123 11.1664ZM198.938 10.9819C198.2 10.9819 197.509 11.1681 196.906 11.5717L198.019 13.2337C198.254 13.0763 198.547 12.9819 198.938 12.9819V10.9819ZM196.911 11.5685C196.306 11.9683 195.866 12.5373 195.57 13.2196L197.405 14.0148C197.571 13.6317 197.781 13.3911 198.014 13.2369L196.911 11.5685ZM195.571 13.2173C195.271 13.9052 195.142 14.6922 195.142 15.5455H197.142C197.142 14.886 197.243 14.3874 197.405 14.017L195.571 13.2173ZM195.142 15.5455C195.142 16.4156 195.27 17.2146 195.571 17.9055L197.405 17.1058C197.244 16.7385 197.142 16.2307 197.142 15.5455H195.142ZM195.574 17.9107C195.874 18.5889 196.318 19.1531 196.927 19.5449L198.01 17.8635C197.78 17.7155 197.571 17.4807 197.402 17.1007L195.574 17.9107ZM196.927 19.5449C197.524 19.9295 198.201 20.109 198.922 20.109V18.109C198.543 18.109 198.25 18.0187 198.01 17.8635L196.927 19.5449ZM198.922 20.109C199.32 20.109 199.707 20.0564 200.077 19.9414L199.483 18.0316C199.327 18.08 199.143 18.109 198.922 18.109V20.109ZM200.073 19.9426C200.443 19.8291 200.786 19.6589 201.093 19.4263L199.884 17.8329C199.779 17.9129 199.649 17.9805 199.487 18.0305L200.073 19.9426ZM201.101 19.4197C201.408 19.1819 201.661 18.8931 201.86 18.5595L200.14 17.5385C200.068 17.6594 199.981 17.7577 199.875 17.8395L201.101 19.4197ZM201.854 18.5694C202.063 18.2264 202.198 17.8494 202.271 17.4512L200.304 17.0914C200.27 17.2756 200.214 17.417 200.146 17.5286L201.854 18.5694ZM201.283 18.2713L203.616 18.2819L203.625 16.282L201.292 16.2713L201.283 18.2713ZM202.628 17.1623C202.582 17.5393 202.468 17.9071 202.28 18.2701L204.055 19.1915C204.35 18.6241 204.538 18.0261 204.613 17.4017L202.628 17.1623ZM202.279 18.2727C202.099 18.622 201.853 18.9408 201.533 19.2299L202.874 20.7139C203.363 20.2716 203.761 19.7629 204.057 19.1889L202.279 18.2727ZM201.533 19.2296C201.233 19.501 200.863 19.7272 200.408 19.9008L201.122 21.769C201.783 21.5164 202.372 21.1674 202.874 20.7143L201.533 19.2296ZM200.412 19.8995C199.989 20.0593 199.485 20.1491 198.885 20.1491V22.1491C199.684 22.1491 200.434 22.0295 201.119 21.7702L200.412 19.8995ZM198.885 20.1491C198.069 20.1491 197.373 19.9662 196.773 19.6214L195.777 21.3559C196.71 21.8917 197.755 22.1491 198.885 22.1491V20.1491ZM196.774 19.6224C196.185 19.2825 195.709 18.7882 195.347 18.1067L193.581 19.046C194.106 20.0335 194.838 20.814 195.775 21.3549L196.774 19.6224ZM195.348 18.1097C195.001 17.4513 194.803 16.6098 194.803 15.5455H192.803C192.803 16.8533 193.046 18.0324 193.579 19.043L195.348 18.1097ZM194.803 15.5455C194.803 14.4793 195.004 13.6384 195.356 12.9818L193.593 12.0367C193.05 13.0491 192.803 14.2324 192.803 15.5455H194.803ZM195.356 12.9818C195.721 12.3006 196.2 11.8081 196.791 11.4713L195.801 9.73329C194.859 10.27 194.123 11.0489 193.593 12.0367L195.356 12.9818ZM196.794 11.4695C197.397 11.1234 198.086 10.9418 198.885 10.9418V8.94176C197.767 8.94176 196.729 9.20046 195.798 9.73502L196.794 11.4695ZM198.885 10.9418C199.423 10.9418 199.902 11.0171 200.33 11.158L200.955 9.25817C200.304 9.04394 199.611 8.94176 198.885 8.94176V10.9418ZM200.332 11.1586C200.766 11.3003 201.137 11.5025 201.455 11.7615L202.717 10.2101C202.198 9.78731 201.606 9.471 200.953 9.25757L200.332 11.1586ZM201.459 11.7647C201.77 12.0152 202.026 12.3235 202.228 12.6995L203.99 11.7543C203.666 11.1502 203.24 10.6311 202.713 10.2069L201.459 11.7647ZM202.23 12.7044C202.428 13.0681 202.566 13.5038 202.627 14.0273L204.613 13.793C204.526 13.0523 204.323 12.3658 203.988 11.7494L202.23 12.7044ZM204.859 11.9925H203.859V12.9925H204.859V11.9925ZM204.859 10.0909V9.09091H203.859V10.0909H204.859ZM213.818 10.0909H214.818V9.09091H213.818V10.0909ZM213.818 11.9925V12.9925H214.818V11.9925H213.818ZM210.479 11.9925V10.9925H209.479V11.9925H210.479ZM210.479 21V22H211.479V21H210.479ZM208.199 21H207.199V22H208.199V21ZM208.199 11.9925H209.199V10.9925H208.199V11.9925ZM205.859 11.9925V10.0909H203.859V11.9925H205.859ZM204.859 11.0909H213.818V9.09091H204.859V11.0909ZM212.818 10.0909V11.9925H214.818V10.0909H212.818ZM213.818 10.9925H210.479V12.9925H213.818V10.9925ZM209.479 11.9925V21H211.479V11.9925H209.479ZM210.479 20H208.199V22H210.479V20ZM209.199 21V11.9925H207.199V21H209.199ZM208.199 10.9925H204.859V12.9925H208.199V10.9925ZM215.294 21H214.294V22H215.294V21ZM215.294 10.0909V9.09091H214.294V10.0909H215.294ZM222.645 10.0909H223.645V9.09091H222.645V10.0909ZM222.645 11.9925V12.9925H223.645V11.9925H222.645ZM217.6 11.9925V10.9925H216.6V11.9925H217.6ZM217.6 14.592H216.6V15.592H217.6V14.592ZM222.267 14.592H223.267V13.592H222.267V14.592ZM222.267 16.4936V17.4936H223.267V16.4936H222.267ZM217.6 16.4936V15.4936H216.6V16.4936H217.6ZM217.6 19.0984H216.6V20.0984H217.6V19.0984ZM222.666 19.0984H223.666V18.0984H222.666V19.0984ZM222.666 21V22H223.666V21H222.666ZM216.294 21V10.0909H214.294V21H216.294ZM215.294 11.0909H222.645V9.09091H215.294V11.0909ZM221.645 10.0909V11.9925H223.645V10.0909H221.645ZM222.645 10.9925H217.6V12.9925H222.645V10.9925ZM216.6 11.9925V14.592H218.6V11.9925H216.6ZM217.6 15.592H222.267V13.592H217.6V15.592ZM221.267 14.592V16.4936H223.267V14.592H221.267ZM222.267 15.4936H217.6V17.4936H222.267V15.4936ZM216.6 16.4936V19.0984H218.6V16.4936H216.6ZM217.6 20.0984H222.666V18.0984H217.6V20.0984ZM221.666 19.0984V21H223.666V19.0984H221.666ZM222.666 20H215.294V22H222.666V20ZM224.478 21H223.478V22H224.478V21ZM224.478 10.0909V9.09091H223.478V10.0909H224.478ZM230.892 10.533L230.44 11.4253L230.447 11.4285L230.892 10.533ZM232.229 11.7741L231.36 12.2691L231.364 12.2759L232.229 11.7741ZM232.223 15.5241L233.08 16.0404L233.081 16.0378L232.223 15.5241ZM230.865 16.7173L230.442 15.8113L230.44 15.8123L230.865 16.7173ZM225.842 17.1328H224.842V18.1328H225.842V17.1328ZM225.842 15.2791V14.2791H224.842V15.2791H225.842ZM229.448 15.098L229.831 16.0218L229.831 16.0218L229.448 15.098ZM230.098 14.5547L229.242 14.0383L229.236 14.0477L230.098 14.5547ZM230.098 12.7383L229.23 13.2344L229.235 13.2437L230.098 12.7383ZM229.443 12.1737L229.032 13.0852L229.038 13.0882L229.045 13.0911L229.443 12.1737ZM226.785 11.9766V10.9766H225.785V11.9766H226.785ZM226.785 21V22H227.785V21H226.785ZM230.37 16.0355L231.247 15.5562L230.963 15.0355H230.37V16.0355ZM233.081 21V22H234.767L233.959 20.5207L233.081 21ZM230.535 21L229.653 21.4713L229.935 22H230.535V21ZM227.882 16.0355V15.0355H226.214L227 16.5068L227.882 16.0355ZM225.478 21V10.0909H223.478V21H225.478ZM224.478 11.0909H228.782V9.09091H224.478V11.0909ZM228.782 11.0909C229.489 11.0909 230.03 11.2175 230.44 11.4253L231.343 9.64078C230.589 9.25907 229.723 9.09091 228.782 9.09091V11.0909ZM230.447 11.4285C230.866 11.6369 231.159 11.9162 231.36 12.269L233.098 11.2792C232.688 10.5597 232.089 10.0115 231.337 9.63752L230.447 11.4285ZM231.364 12.2759C231.57 12.6318 231.692 13.0795 231.692 13.6545H233.692C233.692 12.7877 233.505 11.9818 233.094 11.2724L231.364 12.2759ZM231.692 13.6545C231.692 14.2327 231.569 14.671 231.365 15.0105L233.081 16.0378C233.503 15.3332 233.692 14.5251 233.692 13.6545H231.692ZM231.367 15.0079C231.165 15.3424 230.87 15.6112 230.442 15.8113L231.288 17.6234C232.046 17.2695 232.657 16.7428 233.08 16.0404L231.367 15.0079ZM230.44 15.8123C230.016 16.0115 229.455 16.1328 228.724 16.1328V18.1328C229.668 18.1328 230.535 17.9771 231.29 17.6224L230.44 15.8123ZM228.724 16.1328H225.842V18.1328H228.724V16.1328ZM226.842 17.1328V15.2791H224.842V17.1328H226.842ZM225.842 16.2791H228.351V14.2791H225.842V16.2791ZM228.351 16.2791C228.874 16.2791 229.381 16.2086 229.831 16.0218L229.065 14.1743C228.933 14.2289 228.708 14.2791 228.351 14.2791V16.2791ZM229.831 16.0218C230.297 15.8287 230.694 15.5136 230.96 15.0617L229.236 14.0477C229.218 14.0787 229.182 14.1258 229.065 14.1743L229.831 16.0218ZM230.954 15.071C231.216 14.6366 231.316 14.1463 231.316 13.6545H229.316C229.316 13.88 229.271 13.9898 229.242 14.0383L230.954 15.071ZM231.316 13.6545C231.316 13.1597 231.217 12.6695 230.961 12.2329L229.235 13.2437C229.271 13.3042 229.316 13.4248 229.316 13.6545H231.316ZM230.966 12.2421C230.704 11.7833 230.308 11.459 229.841 11.2562L229.045 13.0911C229.167 13.144 229.208 13.1961 229.23 13.2344L230.966 12.2421ZM229.854 11.2621C229.394 11.0544 228.874 10.9766 228.34 10.9766V12.9766C228.694 12.9766 228.91 13.0302 229.032 13.0852L229.854 11.2621ZM228.34 10.9766H226.785V12.9766H228.34V10.9766ZM225.785 11.9766V21H227.785V11.9766H225.785ZM226.785 20H224.478V22H226.785V20ZM229.492 16.5148L232.203 21.4793L233.959 20.5207L231.247 15.5562L229.492 16.5148ZM233.081 20H230.535V22H233.081V20ZM231.417 20.5287L228.764 15.5642L227 16.5068L229.653 21.4713L231.417 20.5287ZM227.882 17.0355H230.37V15.0355H227.882V17.0355Z" fill="black"/>
</svg>
