<svg width="420" height="700" viewBox="0 0 420 700" fill="none" xmlns="http://www.w3.org/2000/svg">
<rect width="420" height="700" rx="20" fill="white"/>
<rect x="16.5" y="158.5" width="180" height="57" rx="8.5" fill="#464444" stroke="#FADF38" stroke-width="3"/>
<rect x="16.5" y="233.5" width="180" height="57" rx="8.5" fill="#464444" stroke="#FADF38" stroke-width="3"/>
<rect x="218.5" y="158.5" width="182" height="57" rx="8.5" fill="#464444" stroke="#FADF38" stroke-width="3"/>
<rect x="218.5" y="233.5" width="182" height="57" rx="8.5" fill="#464444" stroke="#FADF38" stroke-width="3"/>
<rect x="24.5" y="123.5" width="17" height="17" fill="#464444" stroke="#FADF38" stroke-width="3"/>
<rect x="18.5" y="584.5" width="17" height="17" fill="#464444" stroke="#FADF38" stroke-width="3"/>
<path d="M175.215 56.9091C175.215 58.8918 174.839 60.5786 174.087 61.9695C173.341 63.3603 172.323 64.4227 171.033 65.1566C169.749 65.8846 168.305 66.2486 166.701 66.2486C165.085 66.2486 163.635 65.8816 162.351 65.1477C161.066 64.4138 160.051 63.3514 159.306 61.9606C158.56 60.5697 158.187 58.8859 158.187 56.9091C158.187 54.9264 158.56 53.2396 159.306 51.8487C160.051 50.4579 161.066 49.3984 162.351 48.6705C163.635 47.9366 165.085 47.5696 166.701 47.5696C168.305 47.5696 169.749 47.9366 171.033 48.6705C172.323 49.3984 173.341 50.4579 174.087 51.8487C174.839 53.2396 175.215 54.9264 175.215 56.9091ZM171.317 56.9091C171.317 55.6248 171.125 54.5417 170.74 53.6598C170.361 52.7779 169.826 52.1091 169.133 51.6534C168.441 51.1977 167.63 50.9698 166.701 50.9698C165.772 50.9698 164.961 51.1977 164.268 51.6534C163.576 52.1091 163.037 52.7779 162.652 53.6598C162.274 54.5417 162.084 55.6248 162.084 56.9091C162.084 58.1934 162.274 59.2765 162.652 60.1584C163.037 61.0402 163.576 61.709 164.268 62.1648C164.961 62.6205 165.772 62.8484 166.701 62.8484C167.63 62.8484 168.441 62.6205 169.133 62.1648C169.826 61.709 170.361 61.0402 170.74 60.1584C171.125 59.2765 171.317 58.1934 171.317 56.9091ZM178.062 66V47.8182H185.342C186.68 47.8182 187.795 48.0165 188.689 48.413C189.583 48.8095 190.254 49.36 190.704 50.0643C191.154 50.7627 191.379 51.5676 191.379 52.479C191.379 53.1893 191.237 53.8137 190.953 54.3523C190.669 54.8849 190.278 55.3229 189.781 55.6662C189.29 56.0036 188.727 56.2433 188.094 56.3853V56.5629C188.787 56.5924 189.435 56.7878 190.038 57.1488C190.648 57.5098 191.142 58.0159 191.521 58.6669C191.9 59.312 192.089 60.0814 192.089 60.9751C192.089 61.9399 191.849 62.801 191.37 63.5586C190.897 64.3103 190.195 64.9051 189.266 65.343C188.337 65.781 187.192 66 185.83 66H178.062ZM181.906 62.8572H185.04C186.111 62.8572 186.893 62.6531 187.384 62.2447C187.875 61.8304 188.121 61.2799 188.121 60.5934C188.121 60.0903 187.999 59.6464 187.757 59.2617C187.514 58.877 187.168 58.5752 186.718 58.3562C186.274 58.1372 185.744 58.0277 185.129 58.0277H181.906V62.8572ZM181.906 55.4265H184.756C185.283 55.4265 185.75 55.3348 186.159 55.1513C186.573 54.9619 186.899 54.6955 187.135 54.3523C187.378 54.009 187.499 53.5977 187.499 53.1183C187.499 52.4613 187.266 51.9316 186.798 51.5291C186.336 51.1267 185.679 50.9254 184.827 50.9254H181.906V55.4265ZM201.87 47.8182H205.67V60.4957C205.67 61.6676 205.407 62.6856 204.88 63.5497C204.359 64.4138 203.634 65.0797 202.705 65.5472C201.776 66.0148 200.696 66.2486 199.464 66.2486C198.37 66.2486 197.375 66.0562 196.481 65.6715C195.594 65.2809 194.889 64.689 194.369 63.896C193.848 63.0969 193.59 62.0937 193.596 60.8864H197.423C197.434 61.3658 197.532 61.7771 197.716 62.1204C197.905 62.4577 198.162 62.7182 198.488 62.9016C198.819 63.0792 199.21 63.168 199.66 63.168C200.133 63.168 200.533 63.0674 200.858 62.8661C201.19 62.659 201.441 62.3571 201.613 61.9606C201.785 61.564 201.87 61.0758 201.87 60.4957V47.8182ZM208.848 66V47.8182H221.1V50.9876H212.692V55.32H220.469V58.4893H212.692V62.8306H221.135V66H208.848ZM240.198 54.1836H236.31C236.239 53.6805 236.094 53.2337 235.875 52.843C235.656 52.4465 235.375 52.1091 235.031 51.831C234.688 51.5528 234.291 51.3397 233.842 51.1918C233.398 51.0438 232.915 50.9698 232.395 50.9698C231.454 50.9698 230.634 51.2036 229.935 51.6712C229.237 52.1328 228.695 52.8075 228.311 53.6953C227.926 54.5772 227.734 55.6484 227.734 56.9091C227.734 58.2053 227.926 59.2943 228.311 60.1761C228.701 61.058 229.246 61.7238 229.944 62.1737C230.643 62.6235 231.451 62.8484 232.368 62.8484C232.883 62.8484 233.359 62.7803 233.797 62.6442C234.241 62.508 234.635 62.3098 234.978 62.0494C235.321 61.783 235.605 61.4605 235.83 61.0817C236.061 60.7029 236.221 60.2708 236.31 59.7855L240.198 59.8033C240.098 60.6378 239.846 61.4427 239.444 62.218C239.047 62.9875 238.511 63.677 237.837 64.2866C237.168 64.8903 236.369 65.3697 235.44 65.7248C234.516 66.074 233.472 66.2486 232.306 66.2486C230.684 66.2486 229.234 65.8816 227.956 65.1477C226.683 64.4138 225.677 63.3514 224.937 61.9606C224.203 60.5697 223.836 58.8859 223.836 56.9091C223.836 54.9264 224.209 53.2396 224.955 51.8487C225.701 50.4579 226.713 49.3984 227.991 48.6705C229.27 47.9366 230.708 47.5696 232.306 47.5696C233.359 47.5696 234.336 47.7176 235.235 48.0135C236.141 48.3094 236.943 48.7415 237.641 49.3097C238.34 49.8719 238.908 50.5614 239.346 51.3782C239.79 52.195 240.074 53.1301 240.198 54.1836ZM242.262 50.9876V47.8182H257.195V50.9876H251.628V66H247.829V50.9876H242.262Z" fill="black"/>
<path d="M158.382 77.8182L162.111 90.6378H162.253L165.982 77.8182H171.557L165.556 96H158.808L152.807 77.8182H158.382ZM173.308 96V77.8182H186.412V81.7955H178.244V84.9205H185.737V88.8977H178.244V92.0227H186.376V96H173.308ZM188.86 96V77.8182H193.796V84.9205H200.33V77.8182H205.266V96H200.33V88.8977H193.796V96H188.86ZM212.546 77.8182V96H207.61V77.8182H212.546ZM231.86 84.6364H226.853C226.817 84.2221 226.722 83.8462 226.568 83.5089C226.421 83.1715 226.213 82.8815 225.947 82.6388C225.687 82.3903 225.37 82.2009 224.997 82.0707C224.624 81.9345 224.201 81.8665 223.728 81.8665C222.899 81.8665 222.198 82.0677 221.624 82.4702C221.055 82.8726 220.623 83.4497 220.327 84.2013C220.037 84.953 219.892 85.8556 219.892 86.9091C219.892 88.0218 220.04 88.954 220.336 89.7056C220.638 90.4513 221.073 91.0136 221.641 91.3924C222.209 91.7653 222.893 91.9517 223.692 91.9517C224.148 91.9517 224.556 91.8955 224.917 91.783C225.278 91.6647 225.592 91.496 225.858 91.277C226.125 91.058 226.341 90.7946 226.506 90.4869C226.678 90.1732 226.793 89.821 226.853 89.4304L231.86 89.4659C231.801 90.2353 231.584 91.0195 231.212 91.8185C230.839 92.6116 230.309 93.3455 229.622 94.0202C228.942 94.689 228.098 95.2276 227.092 95.636C226.086 96.0444 224.917 96.2486 223.586 96.2486C221.917 96.2486 220.419 95.8905 219.093 95.1744C217.774 94.4582 216.729 93.4047 215.959 92.0138C215.196 90.623 214.814 88.9214 214.814 86.9091C214.814 84.8849 215.205 83.1804 215.986 81.7955C216.767 80.4046 217.821 79.354 219.147 78.6438C220.472 77.9277 221.952 77.5696 223.586 77.5696C224.734 77.5696 225.79 77.7264 226.755 78.0401C227.72 78.3538 228.566 78.8125 229.294 79.4162C230.022 80.014 230.608 80.7508 231.052 81.6268C231.496 82.5027 231.765 83.5059 231.86 84.6364ZM234.099 96V77.8182H239.035V92.0227H246.386V96H234.099ZM248.381 96V77.8182H261.485V81.7955H253.317V84.9205H260.81V88.8977H253.317V92.0227H261.45V96H248.381Z" fill="#FADF38"/>
<path d="M27.2402 179V165.909H32.9164C33.9135 165.909 34.7509 166.043 35.4284 166.312C36.1103 166.58 36.6238 166.96 36.9689 167.45C37.3184 167.94 37.4931 168.517 37.4931 169.182C37.4931 169.663 37.3865 170.102 37.1735 170.499C36.9647 170.895 36.6706 171.227 36.2914 171.496C35.9121 171.76 35.4689 171.943 34.9618 172.045V172.173C35.5243 172.195 36.0357 172.337 36.4959 172.602C36.9561 172.862 37.3226 173.222 37.5953 173.682C37.8681 174.138 38.0044 174.675 38.0044 175.293C38.0044 176.009 37.8169 176.646 37.4419 177.204C37.0712 177.762 36.5428 178.201 35.8567 178.521C35.1706 178.84 34.3525 179 33.4022 179H27.2402ZM30.7942 176.162H32.4561C33.0527 176.162 33.5002 176.051 33.7985 175.83C34.0968 175.604 34.2459 175.271 34.2459 174.832C34.2459 174.526 34.1756 174.266 34.035 174.053C33.8944 173.839 33.6941 173.678 33.4341 173.567C33.1784 173.456 32.8695 173.401 32.5073 173.401H30.7942V176.162ZM30.7942 171.202H32.2516C32.5627 171.202 32.8375 171.153 33.0762 171.055C33.3148 170.957 33.5002 170.816 33.6323 170.633C33.7686 170.445 33.8368 170.217 33.8368 169.949C33.8368 169.544 33.6919 169.235 33.4022 169.022C33.1124 168.805 32.7459 168.696 32.3027 168.696H30.7942V171.202ZM39.2637 179V165.909H44.9142C45.8858 165.909 46.736 166.086 47.4647 166.44C48.1934 166.793 48.7601 167.303 49.165 167.967C49.5698 168.632 49.7722 169.429 49.7722 170.358C49.7722 171.295 49.5634 172.086 49.1458 172.729C48.7324 173.373 48.1507 173.859 47.4007 174.187C46.655 174.515 45.7836 174.679 44.7864 174.679H41.4114V171.918H44.0705C44.4881 171.918 44.8439 171.866 45.138 171.764C45.4363 171.658 45.6642 171.489 45.8219 171.259C45.9838 171.029 46.0648 170.729 46.0648 170.358C46.0648 169.983 45.9838 169.678 45.8219 169.444C45.6642 169.205 45.4363 169.031 45.138 168.92C44.8439 168.805 44.4881 168.747 44.0705 168.747H42.8176V179H39.2637ZM46.9341 172.991L50.2069 179H46.3461L43.15 172.991H46.9341ZM54.6877 179H50.8525L55.1735 165.909H60.0314L64.3525 179H60.5172L57.6536 169.514H57.5513L54.6877 179ZM53.9718 173.835H61.182V176.494H53.9718V173.835ZM76.94 165.909V179H73.9741L69.244 172.122H69.1673V179H65.6133V165.909H68.6303L73.2837 172.761H73.386V165.909H76.94ZM83.658 179H78.6211V165.909H83.6069C84.9535 165.909 86.1168 166.171 87.0969 166.695C88.0813 167.215 88.8398 167.965 89.3725 168.945C89.9094 169.921 90.1779 171.091 90.1779 172.455C90.1779 173.818 89.9116 174.99 89.3789 175.97C88.8462 176.946 88.092 177.696 87.1161 178.22C86.1403 178.74 84.9876 179 83.658 179ZM82.1751 175.983H83.5302C84.1779 175.983 84.7298 175.879 85.1857 175.67C85.646 175.461 85.9954 175.101 86.234 174.589C86.4769 174.078 86.5984 173.366 86.5984 172.455C86.5984 171.543 86.4748 170.831 86.2276 170.32C85.9847 169.808 85.6268 169.448 85.1538 169.239C84.685 169.031 84.1097 168.926 83.4279 168.926H82.1751V175.983ZM93.791 177.581C93.2967 177.581 92.8727 177.408 92.519 177.063C92.1696 176.714 91.997 176.29 92.0012 175.791C91.997 175.305 92.1696 174.89 92.519 174.545C92.8727 174.2 93.2967 174.027 93.791 174.027C94.2598 174.027 94.6731 174.2 95.0311 174.545C95.3933 174.89 95.5765 175.305 95.5808 175.791C95.5765 176.124 95.4892 176.426 95.3187 176.699C95.1525 176.967 94.9352 177.183 94.6667 177.344C94.3983 177.502 94.1064 177.581 93.791 177.581ZM93.791 171.291C93.2967 171.291 92.8727 171.119 92.519 170.773C92.1696 170.424 91.997 170 92.0012 169.501C91.997 169.016 92.1696 168.6 92.519 168.255C92.8727 167.91 93.2967 167.737 93.791 167.737C94.2598 167.737 94.6731 167.91 95.0311 168.255C95.3933 168.6 95.5765 169.016 95.5808 169.501C95.5765 169.834 95.4892 170.136 95.3187 170.409C95.1525 170.678 94.9352 170.893 94.6667 171.055C94.3983 171.212 94.1064 171.291 93.791 171.291Z" fill="white"/>
<path d="M224.942 181V167.909H230.593C231.565 167.909 232.415 168.086 233.143 168.44C233.872 168.793 234.439 169.303 234.844 169.967C235.248 170.632 235.451 171.429 235.451 172.358C235.451 173.295 235.242 174.086 234.824 174.729C234.411 175.373 233.829 175.859 233.079 176.187C232.334 176.515 231.462 176.679 230.465 176.679H227.09V173.918H229.749C230.167 173.918 230.523 173.866 230.817 173.764C231.115 173.658 231.343 173.489 231.501 173.259C231.663 173.029 231.744 172.729 231.744 172.358C231.744 171.983 231.663 171.678 231.501 171.444C231.343 171.205 231.115 171.031 230.817 170.92C230.523 170.805 230.167 170.747 229.749 170.747H228.496V181H224.942ZM232.613 174.991L235.886 181H232.025L228.829 174.991H232.613ZM236.966 181V167.909H246.4V170.773H240.52V173.023H245.915V175.886H240.52V178.136H246.375V181H236.966ZM248.163 181V167.909H257.368V170.773H251.717V173.023H256.805V175.886H251.717V181H248.163ZM258.675 181V167.909H268.109V170.773H262.229V173.023H267.624V175.886H262.229V178.136H268.084V181H258.675ZM269.872 181V167.909H275.523C276.494 167.909 277.344 168.086 278.073 168.44C278.802 168.793 279.369 169.303 279.773 169.967C280.178 170.632 280.381 171.429 280.381 172.358C280.381 173.295 280.172 174.086 279.754 174.729C279.341 175.373 278.759 175.859 278.009 176.187C277.263 176.515 276.392 176.679 275.395 176.679H272.02V173.918H274.679C275.097 173.918 275.452 173.866 275.746 173.764C276.045 173.658 276.273 173.489 276.43 173.259C276.592 173.029 276.673 172.729 276.673 172.358C276.673 171.983 276.592 171.678 276.43 171.444C276.273 171.205 276.045 171.031 275.746 170.92C275.452 170.805 275.097 170.747 274.679 170.747H273.426V181H269.872ZM277.543 174.991L280.815 181H276.954L273.758 174.991H277.543ZM281.896 181V167.909H291.33V170.773H285.449V173.023H290.844V175.886H285.449V178.136H291.305V181H281.896ZM304.419 167.909V181H301.454L296.723 174.122H296.647V181H293.093V167.909H296.11L300.763 174.761H300.866V167.909H304.419ZM318.322 172.818H314.717C314.691 172.52 314.623 172.249 314.513 172.006C314.406 171.763 314.257 171.555 314.065 171.38C313.878 171.201 313.65 171.065 313.381 170.971C313.113 170.873 312.808 170.824 312.467 170.824C311.87 170.824 311.366 170.969 310.952 171.259C310.543 171.548 310.232 171.964 310.019 172.505C309.81 173.046 309.706 173.696 309.706 174.455C309.706 175.256 309.812 175.927 310.025 176.468C310.243 177.005 310.556 177.41 310.965 177.683C311.374 177.951 311.866 178.085 312.441 178.085C312.77 178.085 313.064 178.045 313.324 177.964C313.584 177.879 313.809 177.757 314.001 177.599C314.193 177.442 314.348 177.252 314.468 177.031C314.591 176.805 314.674 176.551 314.717 176.27L318.322 176.295C318.28 176.849 318.124 177.414 317.856 177.989C317.587 178.56 317.206 179.089 316.711 179.575C316.221 180.056 315.614 180.444 314.89 180.738C314.165 181.032 313.324 181.179 312.365 181.179C311.163 181.179 310.085 180.921 309.13 180.406C308.18 179.89 307.428 179.131 306.874 178.13C306.324 177.129 306.049 175.903 306.049 174.455C306.049 172.997 306.331 171.77 306.893 170.773C307.456 169.771 308.214 169.015 309.169 168.504C310.123 167.988 311.189 167.73 312.365 167.73C313.191 167.73 313.952 167.843 314.647 168.069C315.341 168.295 315.951 168.625 316.475 169.06C316.999 169.49 317.421 170.021 317.741 170.651C318.06 171.282 318.254 172.004 318.322 172.818ZM319.935 181V167.909H329.369V170.773H323.489V173.023H328.883V175.886H323.489V178.136H329.344V181H319.935ZM338.189 172C338.155 171.574 337.995 171.241 337.709 171.003C337.428 170.764 337 170.645 336.424 170.645C336.058 170.645 335.758 170.69 335.523 170.779C335.293 170.864 335.123 170.982 335.012 171.131C334.901 171.28 334.843 171.45 334.839 171.642C334.831 171.8 334.858 171.942 334.922 172.07C334.991 172.194 335.097 172.307 335.242 172.409C335.387 172.507 335.572 172.597 335.798 172.678C336.024 172.759 336.292 172.831 336.603 172.895L337.677 173.125C338.402 173.278 339.022 173.481 339.537 173.732C340.053 173.984 340.475 174.28 340.803 174.621C341.131 174.957 341.372 175.337 341.525 175.759C341.683 176.18 341.764 176.641 341.768 177.139C341.764 178 341.549 178.729 341.123 179.325C340.696 179.922 340.087 180.376 339.294 180.687C338.506 180.998 337.558 181.153 336.45 181.153C335.312 181.153 334.319 180.985 333.471 180.648C332.628 180.312 331.971 179.794 331.503 179.095C331.038 178.392 330.804 177.493 330.799 176.398H334.174C334.196 176.798 334.296 177.135 334.475 177.408C334.654 177.68 334.905 177.887 335.229 178.028C335.557 178.168 335.947 178.239 336.399 178.239C336.778 178.239 337.096 178.192 337.351 178.098C337.607 178.004 337.801 177.874 337.933 177.708C338.065 177.542 338.133 177.352 338.138 177.139C338.133 176.939 338.067 176.764 337.939 176.615C337.816 176.462 337.611 176.325 337.326 176.206C337.04 176.082 336.655 175.967 336.169 175.861L334.865 175.58C333.706 175.328 332.792 174.908 332.123 174.32C331.458 173.728 331.128 172.92 331.132 171.898C331.128 171.067 331.349 170.34 331.797 169.718C332.248 169.092 332.873 168.604 333.669 168.254C334.471 167.905 335.389 167.73 336.424 167.73C337.481 167.73 338.395 167.907 339.167 168.261C339.938 168.614 340.532 169.113 340.95 169.756C341.372 170.396 341.585 171.143 341.589 172H338.189ZM345.089 179.581C344.595 179.581 344.171 179.408 343.817 179.063C343.467 178.714 343.295 178.29 343.299 177.791C343.295 177.305 343.467 176.89 343.817 176.545C344.171 176.2 344.595 176.027 345.089 176.027C345.558 176.027 345.971 176.2 346.329 176.545C346.691 176.89 346.874 177.305 346.879 177.791C346.874 178.124 346.787 178.426 346.617 178.699C346.45 178.967 346.233 179.183 345.965 179.344C345.696 179.502 345.404 179.581 345.089 179.581ZM345.089 173.291C344.595 173.291 344.171 173.119 343.817 172.773C343.467 172.424 343.295 172 343.299 171.501C343.295 171.016 343.467 170.6 343.817 170.255C344.171 169.91 344.595 169.737 345.089 169.737C345.558 169.737 345.971 169.91 346.329 170.255C346.691 170.6 346.874 171.016 346.879 171.501C346.874 171.834 346.787 172.136 346.617 172.409C346.45 172.678 346.233 172.893 345.965 173.055C345.696 173.212 345.404 173.291 345.089 173.291Z" fill="white"/>
<path d="M25.1426 239.909H29.5659L32.6085 247.324H32.7619L35.8045 239.909H40.2278V253H36.7505V245.432H36.6483L33.7335 252.898H31.6369L28.7221 245.381H28.6199V253H25.1426V239.909ZM54.5939 246.455C54.5939 247.912 54.3105 249.141 53.7438 250.143C53.177 251.14 52.4121 251.896 51.449 252.412C50.486 252.923 49.4121 253.179 48.2275 253.179C47.0343 253.179 45.9561 252.921 44.9931 252.406C44.0343 251.886 43.2715 251.127 42.7047 250.13C42.1422 249.129 41.861 247.903 41.861 246.455C41.861 244.997 42.1422 243.77 42.7047 242.773C43.2715 241.771 44.0343 241.015 44.9931 240.504C45.9561 239.988 47.0343 239.73 48.2275 239.73C49.4121 239.73 50.486 239.988 51.449 240.504C52.4121 241.015 53.177 241.771 53.7438 242.773C54.3105 243.77 54.5939 244.997 54.5939 246.455ZM50.9377 246.455C50.9377 245.67 50.8333 245.01 50.6245 244.473C50.4199 243.932 50.1152 243.523 49.7104 243.246C49.3098 242.964 48.8155 242.824 48.2275 242.824C47.6394 242.824 47.1429 242.964 46.7381 243.246C46.3375 243.523 46.0328 243.932 45.824 244.473C45.6195 245.01 45.5172 245.67 45.5172 246.455C45.5172 247.239 45.6195 247.901 45.824 248.442C46.0328 248.979 46.3375 249.388 46.7381 249.67C47.1429 249.947 47.6394 250.085 48.2275 250.085C48.8155 250.085 49.3098 249.947 49.7104 249.67C50.1152 249.388 50.4199 248.979 50.6245 248.442C50.8333 247.901 50.9377 247.239 50.9377 246.455ZM61.2752 253H56.2383V239.909H61.2241C62.5707 239.909 63.734 240.171 64.7141 240.695C65.6985 241.215 66.457 241.965 66.9897 242.945C67.5266 243.921 67.7951 245.091 67.7951 246.455C67.7951 247.818 67.5288 248.99 66.9961 249.97C66.4634 250.946 65.7092 251.696 64.7333 252.22C63.7575 252.74 62.6048 253 61.2752 253ZM59.7923 249.983H61.1474C61.7951 249.983 62.3469 249.879 62.8029 249.67C63.2631 249.461 63.6126 249.101 63.8512 248.589C64.0941 248.078 64.2156 247.366 64.2156 246.455C64.2156 245.543 64.092 244.831 63.8448 244.32C63.6019 243.808 63.244 243.448 62.771 243.239C62.3022 243.031 61.7269 242.926 61.0451 242.926H59.7923V249.983ZM69.4395 253V239.909H78.8741V242.773H72.9934V245.023H78.3883V247.886H72.9934V250.136H78.8485V253H69.4395ZM80.6367 253V239.909H84.1907V250.136H89.4833V253H80.6367ZM92.8887 251.581C92.3944 251.581 91.9703 251.408 91.6167 251.063C91.2672 250.714 91.0946 250.29 91.0989 249.791C91.0946 249.305 91.2672 248.89 91.6167 248.545C91.9703 248.2 92.3944 248.027 92.8887 248.027C93.3574 248.027 93.7708 248.2 94.1287 248.545C94.4909 248.89 94.6742 249.305 94.6784 249.791C94.6742 250.124 94.5868 250.426 94.4164 250.699C94.2502 250.967 94.0328 251.183 93.7644 251.344C93.4959 251.502 93.204 251.581 92.8887 251.581ZM92.8887 245.291C92.3944 245.291 91.9703 245.119 91.6167 244.773C91.2672 244.424 91.0946 244 91.0989 243.501C91.0946 243.016 91.2672 242.6 91.6167 242.255C91.9703 241.91 92.3944 241.737 92.8887 241.737C93.3574 241.737 93.7708 241.91 94.1287 242.255C94.4909 242.6 94.6742 243.016 94.6784 243.501C94.6742 243.834 94.5868 244.136 94.4164 244.409C94.2502 244.678 94.0328 244.893 93.7644 245.055C93.4959 245.212 93.204 245.291 92.8887 245.291Z" fill="white"/>
<path d="M238.611 245.818H235.006C234.981 245.52 234.912 245.249 234.802 245.006C234.695 244.763 234.546 244.555 234.354 244.38C234.167 244.201 233.939 244.065 233.67 243.971C233.402 243.873 233.097 243.824 232.756 243.824C232.16 243.824 231.655 243.969 231.241 244.259C230.832 244.548 230.521 244.964 230.308 245.505C230.099 246.046 229.995 246.696 229.995 247.455C229.995 248.256 230.101 248.927 230.314 249.468C230.532 250.005 230.845 250.41 231.254 250.683C231.663 250.951 232.155 251.085 232.731 251.085C233.059 251.085 233.353 251.045 233.613 250.964C233.873 250.879 234.098 250.757 234.29 250.599C234.482 250.442 234.638 250.252 234.757 250.031C234.88 249.805 234.964 249.551 235.006 249.27L238.611 249.295C238.569 249.849 238.413 250.414 238.145 250.989C237.876 251.56 237.495 252.089 237 252.575C236.51 253.056 235.903 253.444 235.179 253.738C234.454 254.032 233.613 254.179 232.654 254.179C231.452 254.179 230.374 253.921 229.419 253.406C228.469 252.89 227.717 252.131 227.163 251.13C226.613 250.129 226.339 248.903 226.339 247.455C226.339 245.997 226.62 244.77 227.182 243.773C227.745 242.771 228.503 242.015 229.458 241.504C230.412 240.988 231.478 240.73 232.654 240.73C233.481 240.73 234.241 240.843 234.936 241.069C235.63 241.295 236.24 241.625 236.764 242.06C237.288 242.49 237.71 243.021 238.03 243.651C238.349 244.282 238.543 245.004 238.611 245.818ZM252.905 247.455C252.905 248.912 252.622 250.141 252.055 251.143C251.489 252.14 250.724 252.896 249.761 253.412C248.797 253.923 247.724 254.179 246.539 254.179C245.346 254.179 244.268 253.921 243.305 253.406C242.346 252.886 241.583 252.127 241.016 251.13C240.454 250.129 240.172 248.903 240.172 247.455C240.172 245.997 240.454 244.77 241.016 243.773C241.583 242.771 242.346 242.015 243.305 241.504C244.268 240.988 245.346 240.73 246.539 240.73C247.724 240.73 248.797 240.988 249.761 241.504C250.724 242.015 251.489 242.771 252.055 243.773C252.622 244.77 252.905 245.997 252.905 247.455ZM249.249 247.455C249.249 246.67 249.145 246.01 248.936 245.473C248.731 244.932 248.427 244.523 248.022 244.246C247.621 243.964 247.127 243.824 246.539 243.824C245.951 243.824 245.454 243.964 245.05 244.246C244.649 244.523 244.344 244.932 244.136 245.473C243.931 246.01 243.829 246.67 243.829 247.455C243.829 248.239 243.931 248.901 244.136 249.442C244.344 249.979 244.649 250.388 245.05 250.67C245.454 250.947 245.951 251.085 246.539 251.085C247.127 251.085 247.621 250.947 248.022 250.67C248.427 250.388 248.731 249.979 248.936 249.442C249.145 248.901 249.249 248.239 249.249 247.455ZM254.55 254V240.909H258.104V251.136H263.396V254H254.55ZM277.005 247.455C277.005 248.912 276.722 250.141 276.155 251.143C275.588 252.14 274.823 252.896 273.86 253.412C272.897 253.923 271.823 254.179 270.639 254.179C269.445 254.179 268.367 253.921 267.404 253.406C266.445 252.886 265.683 252.127 265.116 251.13C264.553 250.129 264.272 248.903 264.272 247.455C264.272 245.997 264.553 244.77 265.116 243.773C265.683 242.771 266.445 242.015 267.404 241.504C268.367 240.988 269.445 240.73 270.639 240.73C271.823 240.73 272.897 240.988 273.86 241.504C274.823 242.015 275.588 242.771 276.155 243.773C276.722 244.77 277.005 245.997 277.005 247.455ZM273.349 247.455C273.349 246.67 273.244 246.01 273.036 245.473C272.831 244.932 272.526 244.523 272.122 244.246C271.721 243.964 271.227 243.824 270.639 243.824C270.051 243.824 269.554 243.964 269.149 244.246C268.749 244.523 268.444 244.932 268.235 245.473C268.031 246.01 267.928 246.67 267.928 247.455C267.928 248.239 268.031 248.901 268.235 249.442C268.444 249.979 268.749 250.388 269.149 250.67C269.554 250.947 270.051 251.085 270.639 251.085C271.227 251.085 271.721 250.947 272.122 250.67C272.526 250.388 272.831 249.979 273.036 249.442C273.244 248.901 273.349 248.239 273.349 247.455ZM278.649 254V240.909H284.3C285.272 240.909 286.122 241.086 286.85 241.44C287.579 241.793 288.146 242.303 288.551 242.967C288.956 243.632 289.158 244.429 289.158 245.358C289.158 246.295 288.949 247.086 288.532 247.729C288.118 248.373 287.536 248.859 286.786 249.187C286.041 249.515 285.169 249.679 284.172 249.679H280.797V246.918H283.456C283.874 246.918 284.23 246.866 284.524 246.764C284.822 246.658 285.05 246.489 285.208 246.259C285.37 246.029 285.451 245.729 285.451 245.358C285.451 244.983 285.37 244.678 285.208 244.444C285.05 244.205 284.822 244.031 284.524 243.92C284.23 243.805 283.874 243.747 283.456 243.747H282.203V254H278.649ZM286.32 247.991L289.593 254H285.732L282.536 247.991H286.32ZM292.642 252.581C292.147 252.581 291.723 252.408 291.37 252.063C291.02 251.714 290.848 251.29 290.852 250.791C290.848 250.305 291.02 249.89 291.37 249.545C291.723 249.2 292.147 249.027 292.642 249.027C293.11 249.027 293.524 249.2 293.882 249.545C294.244 249.89 294.427 250.305 294.431 250.791C294.427 251.124 294.34 251.426 294.169 251.699C294.003 251.967 293.786 252.183 293.517 252.344C293.249 252.502 292.957 252.581 292.642 252.581ZM292.642 246.291C292.147 246.291 291.723 246.119 291.37 245.773C291.02 245.424 290.848 245 290.852 244.501C290.848 244.016 291.02 243.6 291.37 243.255C291.723 242.91 292.147 242.737 292.642 242.737C293.11 242.737 293.524 242.91 293.882 243.255C294.244 243.6 294.427 244.016 294.431 244.501C294.427 244.834 294.34 245.136 294.169 245.409C294.003 245.678 293.786 245.893 293.517 246.055C293.249 246.212 292.957 246.291 292.642 246.291Z" fill="white"/>
<path d="M45.3613 586.909H49.7846L52.8272 594.324H52.9806L56.0233 586.909H60.4466V600H56.9693V592.432H56.867L53.9522 599.898H51.8556L48.9409 592.381H48.8386V600H45.3613V586.909ZM62.1309 600V586.909H71.5655V589.773H65.6848V592.023H71.0797V594.886H65.6848V597.136H71.54V600H62.1309ZM72.9702 589.773V586.909H84.348V589.773H80.4105V600H76.9077V589.773H72.9702ZM85.6855 600V586.909H89.2395V592.023H93.9441V586.909H97.498V600H93.9441V594.886H89.2395V600H85.6855ZM111.867 593.455C111.867 594.912 111.584 596.141 111.017 597.143C110.45 598.14 109.686 598.896 108.722 599.412C107.759 599.923 106.686 600.179 105.501 600.179C104.308 600.179 103.23 599.921 102.267 599.406C101.308 598.886 100.545 598.127 99.9782 597.13C99.4157 596.129 99.1344 594.903 99.1344 593.455C99.1344 591.997 99.4157 590.77 99.9782 589.773C100.545 588.771 101.308 588.015 102.267 587.504C103.23 586.988 104.308 586.73 105.501 586.73C106.686 586.73 107.759 586.988 108.722 587.504C109.686 588.015 110.45 588.771 111.017 589.773C111.584 590.77 111.867 591.997 111.867 593.455ZM108.211 593.455C108.211 592.67 108.107 592.01 107.898 591.473C107.693 590.932 107.389 590.523 106.984 590.246C106.583 589.964 106.089 589.824 105.501 589.824C104.913 589.824 104.416 589.964 104.012 590.246C103.611 590.523 103.306 590.932 103.097 591.473C102.893 592.01 102.791 592.67 102.791 593.455C102.791 594.239 102.893 594.901 103.097 595.442C103.306 595.979 103.611 596.388 104.012 596.67C104.416 596.947 104.913 597.085 105.501 597.085C106.089 597.085 106.583 596.947 106.984 596.67C107.389 596.388 107.693 595.979 107.898 595.442C108.107 594.901 108.211 594.239 108.211 593.455ZM118.549 600H113.512V586.909H118.498C119.844 586.909 121.007 587.171 121.988 587.695C122.972 588.215 123.73 588.965 124.263 589.945C124.8 590.921 125.069 592.091 125.069 593.455C125.069 594.818 124.802 595.99 124.27 596.97C123.737 597.946 122.983 598.696 122.007 599.22C121.031 599.74 119.878 600 118.549 600ZM117.066 596.983H118.421C119.069 596.983 119.62 596.879 120.076 596.67C120.537 596.461 120.886 596.101 121.125 595.589C121.368 595.078 121.489 594.366 121.489 593.455C121.489 592.543 121.365 591.831 121.118 591.32C120.875 590.808 120.517 590.448 120.044 590.239C119.576 590.031 119 589.926 118.319 589.926H117.066V596.983ZM133.77 591C133.736 590.574 133.576 590.241 133.29 590.003C133.009 589.764 132.581 589.645 132.006 589.645C131.639 589.645 131.339 589.69 131.104 589.779C130.874 589.864 130.704 589.982 130.593 590.131C130.482 590.28 130.425 590.45 130.42 590.642C130.412 590.8 130.439 590.942 130.503 591.07C130.572 591.194 130.678 591.307 130.823 591.409C130.968 591.507 131.153 591.597 131.379 591.678C131.605 591.759 131.873 591.831 132.184 591.895L133.258 592.125C133.983 592.278 134.603 592.481 135.118 592.732C135.634 592.984 136.056 593.28 136.384 593.621C136.712 593.957 136.953 594.337 137.106 594.759C137.264 595.18 137.345 595.641 137.349 596.139C137.345 597 137.13 597.729 136.704 598.325C136.278 598.922 135.668 599.376 134.876 599.687C134.087 599.998 133.139 600.153 132.031 600.153C130.893 600.153 129.9 599.985 129.052 599.648C128.209 599.312 127.552 598.794 127.084 598.095C126.619 597.392 126.385 596.493 126.381 595.398H129.756C129.777 595.798 129.877 596.135 130.056 596.408C130.235 596.68 130.486 596.887 130.81 597.028C131.138 597.168 131.528 597.239 131.98 597.239C132.359 597.239 132.677 597.192 132.932 597.098C133.188 597.004 133.382 596.874 133.514 596.708C133.646 596.542 133.714 596.352 133.719 596.139C133.714 595.939 133.648 595.764 133.52 595.615C133.397 595.462 133.192 595.325 132.907 595.206C132.621 595.082 132.236 594.967 131.75 594.861L130.446 594.58C129.287 594.328 128.373 593.908 127.704 593.32C127.039 592.728 126.709 591.92 126.713 590.898C126.709 590.067 126.93 589.34 127.378 588.718C127.829 588.092 128.454 587.604 129.251 587.254C130.052 586.905 130.97 586.73 132.006 586.73C133.062 586.73 133.976 586.907 134.748 587.261C135.519 587.614 136.113 588.113 136.531 588.756C136.953 589.396 137.166 590.143 137.17 591H133.77ZM140.67 598.581C140.176 598.581 139.752 598.408 139.398 598.063C139.048 597.714 138.876 597.29 138.88 596.791C138.876 596.305 139.048 595.89 139.398 595.545C139.752 595.2 140.176 595.027 140.67 595.027C141.139 595.027 141.552 595.2 141.91 595.545C142.272 595.89 142.455 596.305 142.46 596.791C142.455 597.124 142.368 597.426 142.198 597.699C142.031 597.967 141.814 598.183 141.546 598.344C141.277 598.502 140.985 598.581 140.67 598.581ZM140.67 592.291C140.176 592.291 139.752 592.119 139.398 591.773C139.048 591.424 138.876 591 138.88 590.501C138.876 590.016 139.048 589.6 139.398 589.255C139.752 588.91 140.176 588.737 140.67 588.737C141.139 588.737 141.552 588.91 141.91 589.255C142.272 589.6 142.455 590.016 142.46 590.501C142.455 590.834 142.368 591.136 142.198 591.409C142.031 591.678 141.814 591.893 141.546 592.055C141.277 592.212 140.985 592.291 140.67 592.291Z" fill="#464444"/>
<path d="M58.3283 139H54.4931L58.8141 125.909H63.6721L67.9931 139H64.1578L61.2942 129.514H61.1919L58.3283 139ZM57.6124 133.835H64.8226V136.494H57.6124V133.835ZM67.2436 128.773V125.909H78.6214V128.773H74.6839V139H71.1811V128.773H67.2436ZM79.601 128.773V125.909H90.9789V128.773H87.0414V139H83.5385V128.773H79.601ZM92.3164 139V125.909H97.967C98.9386 125.909 99.7887 126.086 100.517 126.44C101.246 126.793 101.813 127.303 102.218 127.967C102.623 128.632 102.825 129.429 102.825 130.358C102.825 131.295 102.616 132.086 102.199 132.729C101.785 133.373 101.203 133.859 100.453 134.187C99.7077 134.515 98.8363 134.679 97.8391 134.679H94.4641V131.918H97.1232C97.5408 131.918 97.8967 131.866 98.1907 131.764C98.489 131.658 98.717 131.489 98.8746 131.259C99.0366 131.029 99.1175 130.729 99.1175 130.358C99.1175 129.983 99.0366 129.678 98.8746 129.444C98.717 129.205 98.489 129.031 98.1907 128.92C97.8967 128.805 97.5408 128.747 97.1232 128.747H95.8704V139H92.3164ZM99.9869 132.991L103.26 139H99.3988L96.2028 132.991H99.9869ZM107.894 125.909V139H104.34V125.909H107.894ZM109.578 139V125.909H115.254C116.251 125.909 117.089 126.043 117.766 126.312C118.448 126.58 118.962 126.96 119.307 127.45C119.656 127.94 119.831 128.517 119.831 129.182C119.831 129.663 119.724 130.102 119.511 130.499C119.303 130.895 119.009 131.227 118.629 131.496C118.25 131.76 117.807 131.943 117.3 132.045V132.173C117.862 132.195 118.374 132.337 118.834 132.602C119.294 132.862 119.661 133.222 119.933 133.682C120.206 134.138 120.342 134.675 120.342 135.293C120.342 136.009 120.155 136.646 119.78 137.204C119.409 137.762 118.881 138.201 118.195 138.521C117.509 138.84 116.69 139 115.74 139H109.578ZM113.132 136.162H114.794C115.391 136.162 115.838 136.051 116.136 135.83C116.435 135.604 116.584 135.271 116.584 134.832C116.584 134.526 116.513 134.266 116.373 134.053C116.232 133.839 116.032 133.678 115.772 133.567C115.516 133.456 115.207 133.401 114.845 133.401H113.132V136.162ZM113.132 131.202H114.589C114.901 131.202 115.175 131.153 115.414 131.055C115.653 130.957 115.838 130.816 115.97 130.633C116.107 130.445 116.175 130.217 116.175 129.949C116.175 129.544 116.03 129.235 115.74 129.022C115.45 128.805 115.084 128.696 114.641 128.696H113.132V131.202ZM129.349 125.909H132.903V134.295C132.903 135.293 132.664 136.156 132.187 136.884C131.714 137.609 131.053 138.169 130.205 138.565C129.357 138.957 128.373 139.153 127.252 139.153C126.123 139.153 125.134 138.957 124.286 138.565C123.438 138.169 122.778 137.609 122.305 136.884C121.836 136.156 121.602 135.293 121.602 134.295V125.909H125.156V133.989C125.156 134.393 125.245 134.756 125.424 135.075C125.603 135.391 125.85 135.638 126.165 135.817C126.485 135.996 126.847 136.085 127.252 136.085C127.661 136.085 128.023 135.996 128.339 135.817C128.654 135.638 128.901 135.391 129.08 135.075C129.259 134.756 129.349 134.393 129.349 133.989V125.909ZM134.234 128.773V125.909H145.612V128.773H141.674V139H138.171V128.773H134.234ZM146.949 139V125.909H156.384V128.773H150.503V131.023H155.898V133.886H150.503V136.136H156.358V139H146.949ZM165.203 130C165.169 129.574 165.009 129.241 164.724 129.003C164.443 128.764 164.014 128.645 163.439 128.645C163.073 128.645 162.772 128.69 162.538 128.779C162.308 128.864 162.137 128.982 162.026 129.131C161.916 129.28 161.858 129.45 161.854 129.642C161.845 129.8 161.873 129.942 161.937 130.07C162.005 130.194 162.112 130.307 162.257 130.409C162.401 130.507 162.587 130.597 162.813 130.678C163.039 130.759 163.307 130.831 163.618 130.895L164.692 131.125C165.416 131.278 166.036 131.481 166.552 131.732C167.068 131.984 167.49 132.28 167.818 132.621C168.146 132.957 168.387 133.337 168.54 133.759C168.698 134.18 168.779 134.641 168.783 135.139C168.779 136 168.563 136.729 168.137 137.325C167.711 137.922 167.102 138.376 166.309 138.687C165.521 138.998 164.573 139.153 163.465 139.153C162.327 139.153 161.334 138.985 160.486 138.648C159.642 138.312 158.986 137.794 158.517 137.095C158.053 136.392 157.818 135.493 157.814 134.398H161.189C161.21 134.798 161.311 135.135 161.49 135.408C161.669 135.68 161.92 135.887 162.244 136.028C162.572 136.168 162.962 136.239 163.414 136.239C163.793 136.239 164.11 136.192 164.366 136.098C164.622 136.004 164.816 135.874 164.948 135.708C165.08 135.542 165.148 135.352 165.152 135.139C165.148 134.939 165.082 134.764 164.954 134.615C164.83 134.462 164.626 134.325 164.34 134.206C164.055 134.082 163.669 133.967 163.183 133.861L161.879 133.58C160.72 133.328 159.806 132.908 159.137 132.32C158.472 131.728 158.142 130.92 158.146 129.898C158.142 129.067 158.364 128.34 158.811 127.718C159.263 127.092 159.887 126.604 160.684 126.254C161.485 125.905 162.404 125.73 163.439 125.73C164.496 125.73 165.41 125.907 166.181 126.261C166.953 126.614 167.547 127.113 167.965 127.756C168.387 128.396 168.6 129.143 168.604 130H165.203ZM172.104 137.581C171.609 137.581 171.185 137.408 170.831 137.063C170.482 136.714 170.309 136.29 170.314 135.791C170.309 135.305 170.482 134.89 170.831 134.545C171.185 134.2 171.609 134.027 172.104 134.027C172.572 134.027 172.986 134.2 173.344 134.545C173.706 134.89 173.889 135.305 173.893 135.791C173.889 136.124 173.802 136.426 173.631 136.699C173.465 136.967 173.248 137.183 172.979 137.344C172.711 137.502 172.419 137.581 172.104 137.581ZM172.104 131.291C171.609 131.291 171.185 131.119 170.831 130.773C170.482 130.424 170.309 130 170.314 129.501C170.309 129.016 170.482 128.6 170.831 128.255C171.185 127.91 171.609 127.737 172.104 127.737C172.572 127.737 172.986 127.91 173.344 128.255C173.706 128.6 173.889 129.016 173.893 129.501C173.889 129.834 173.802 130.136 173.631 130.409C173.465 130.678 173.248 130.893 172.979 131.055C172.711 131.212 172.419 131.291 172.104 131.291Z" fill="#464444"/>
<rect x="16.5" y="305.5" width="385" height="257" rx="8.5" fill="#C4C4C4" stroke="#FADF38" stroke-width="3"/>
</svg>
