<svg width="68" height="68" viewBox="0 0 68 68" fill="none" xmlns="http://www.w3.org/2000/svg">
<circle cx="34" cy="34" r="34" fill="#FADF38"/>
<path d="M32.6667 40L26.4167 33.75L32.6667 40ZM26.4167 33.75L32.6667 27.5L26.4167 33.75ZM26.4167 33.75H43.0833H26.4167ZM16 33.75C16 31.2877 16.485 28.8495 17.4273 26.5747C18.3695 24.2998 19.7506 22.2328 21.4917 20.4917C23.2328 18.7506 25.2998 17.3695 27.5747 16.4273C29.8495 15.485 32.2877 15 34.75 15C37.2123 15 39.6505 15.485 41.9253 16.4273C44.2002 17.3695 46.2672 18.7506 48.0082 20.4917C49.7493 22.2328 51.1305 24.2998 52.0727 26.5747C53.015 28.8495 53.5 31.2877 53.5 33.75C53.5 38.7228 51.5246 43.4919 48.0082 47.0082C44.4919 50.5246 39.7228 52.5 34.75 52.5C29.7772 52.5 25.0081 50.5246 21.4917 47.0082C17.9754 43.4919 16 38.7228 16 33.75V33.75Z" stroke="black" stroke-width="2" stroke-linecap="round" stroke-linejoin="round"/>
</svg>
