<svg width="50" height="50" viewBox="0 0 50 50" fill="none" xmlns="http://www.w3.org/2000/svg">
<circle cx="25" cy="25" r="23.5" fill="#464444" stroke="#FADF38" stroke-width="3"/>
<path d="M32.9617 27.795C31.5977 28.3435 30.1026 28.479 28.6622 28.1848C27.2218 27.8905 25.8997 27.1794 24.8602 26.1399C23.8206 25.1003 23.1095 23.7782 22.8152 22.3378C22.521 20.8974 22.6565 19.4023 23.205 18.0383C21.5898 18.6889 20.2511 19.8812 19.4186 21.4106C18.5861 22.94 18.3115 24.7114 18.6419 26.4212C18.9724 28.1309 19.8872 29.6724 21.2297 30.7815C22.5722 31.8906 24.2587 32.4981 26 32.5C27.4975 32.5 28.9606 32.052 30.2013 31.2135C31.442 30.375 32.4033 29.1844 32.9617 27.795Z" stroke="white" stroke-width="2" stroke-linecap="round" stroke-linejoin="round"/>
</svg>
