<svg width="68" height="68" viewBox="0 0 68 68" fill="none" xmlns="http://www.w3.org/2000/svg">
<circle cx="34" cy="34" r="34" fill="#FADF38"/>
<path d="M52.5 33.75C52.5 36.2123 52.015 38.6505 51.0727 40.9253C50.1305 43.2002 48.7493 45.2672 47.0082 47.0082C45.2672 48.7493 43.2002 50.1305 40.9253 51.0727C38.6505 52.015 36.2123 52.5 33.75 52.5C31.2877 52.5 28.8495 52.015 26.5747 51.0727C24.2998 50.1305 22.2328 48.7493 20.4917 47.0082C18.7506 45.2672 17.3695 43.2002 16.4273 40.9253C15.485 38.6505 15 36.2123 15 33.75C15 28.7772 16.9754 24.0081 20.4917 20.4917C24.0081 16.9754 28.7772 15 33.75 15C38.7228 15 43.4919 16.9754 47.0082 20.4917C50.5246 24.0081 52.5 28.7772 52.5 33.75Z" stroke="black" stroke-width="2" stroke-linecap="round" stroke-linejoin="round"/>
<path d="M28 29.0833C28 28.5308 28.2195 28.0009 28.6102 27.6102C29.0009 27.2195 29.5308 27 30.0833 27H38.4167C38.9692 27 39.4991 27.2195 39.8898 27.6102C40.2805 28.0009 40.5 28.5308 40.5 29.0833V37.4167C40.5 37.9692 40.2805 38.4991 39.8898 38.8898C39.4991 39.2805 38.9692 39.5 38.4167 39.5H30.0833C29.5308 39.5 29.0009 39.2805 28.6102 38.8898C28.2195 38.4991 28 37.9692 28 37.4167V29.0833Z" stroke="black" stroke-width="2" stroke-linecap="round" stroke-linejoin="round"/>
</svg>
