<svg width="67" height="68" viewBox="0 0 67 68" fill="none" xmlns="http://www.w3.org/2000/svg">
<ellipse cx="33.5" cy="34" rx="33.5" ry="34" fill="#FADF38"/>
<path d="M47.2583 47.2583L20.7417 20.7417M47.2583 47.2583C50.7747 43.742 52.7501 38.9728 52.7501 34C52.7501 29.0272 50.7747 24.258 47.2583 20.7417C43.742 17.2253 38.9728 15.2499 34 15.2499C29.0272 15.2499 24.258 17.2253 20.7417 20.7417L47.2583 47.2583ZM47.2583 47.2583C43.742 50.7747 38.9728 52.7501 34 52.7501C29.0272 52.7501 24.258 50.7747 20.7417 47.2583C17.2253 43.742 15.2499 38.9728 15.2499 34C15.2499 29.0272 17.2253 24.258 20.7417 20.7417L47.2583 47.2583Z" stroke="black" stroke-width="2" stroke-linecap="round" stroke-linejoin="round"/>
</svg>
