<svg width="68" height="68" viewBox="0 0 68 68" fill="none" xmlns="http://www.w3.org/2000/svg">
<circle cx="34" cy="34" r="34" fill="#FADF38"/>
<path d="M35.8333 27.5L42.0833 33.75L35.8333 27.5ZM42.0833 33.75L35.8333 40L42.0833 33.75ZM42.0833 33.75H25.4167H42.0833ZM52.5 33.75C52.5 36.2123 52.015 38.6505 51.0727 40.9253C50.1305 43.2002 48.7493 45.2672 47.0082 47.0082C45.2672 48.7493 43.2002 50.1305 40.9253 51.0727C38.6505 52.015 36.2123 52.5 33.75 52.5C31.2877 52.5 28.8495 52.015 26.5747 51.0727C24.2998 50.1305 22.2328 48.7493 20.4917 47.0082C18.7506 45.2672 17.3695 43.2002 16.4273 40.9253C15.485 38.6505 15 36.2123 15 33.75C15 28.7772 16.9754 24.0081 20.4917 20.4917C24.0081 16.9754 28.7772 15 33.75 15C38.7228 15 43.4919 16.9754 47.0082 20.4917C50.5246 24.0081 52.5 28.7772 52.5 33.75Z" stroke="black" stroke-width="2" stroke-linecap="round" stroke-linejoin="round"/>
</svg>
