<svg width="50" height="50" viewBox="0 0 50 50" fill="none" xmlns="http://www.w3.org/2000/svg">
<circle cx="25" cy="25" r="23.5" fill="#C4C4C4" stroke="#FADF38" stroke-width="3"/>
<path d="M25 16V17V16ZM25 33V34V33ZM34 25H33H34ZM17 25H16H17ZM31.364 31.364L30.657 30.657L31.364 31.364ZM19.343 19.343L18.636 18.636L19.343 19.343ZM31.364 18.636L30.657 19.343L31.364 18.636ZM19.343 30.657L18.636 31.364L19.343 30.657ZM29 25C29 26.0609 28.5786 27.0783 27.8284 27.8284C27.0783 28.5786 26.0609 29 25 29C23.9391 29 22.9217 28.5786 22.1716 27.8284C21.4214 27.0783 21 26.0609 21 25C21 23.9391 21.4214 22.9217 22.1716 22.1716C22.9217 21.4214 23.9391 21 25 21C26.0609 21 27.0783 21.4214 27.8284 22.1716C28.5786 22.9217 29 23.9391 29 25V25Z" stroke="#464444" stroke-width="2" stroke-linecap="round" stroke-linejoin="round"/>
</svg>
