<svg width="50" height="50" viewBox="0 0 50 50" fill="none" xmlns="http://www.w3.org/2000/svg">
<circle cx="25" cy="25" r="23.5" fill="#C4C4C4" stroke="#FADF38" stroke-width="3"/>
<path d="M24 16.5V17.3333V16.5ZM24 30.6667V31.5V30.6667ZM31.5 24H30.6667H31.5ZM17.3333 24H16.5H17.3333ZM29.3033 29.3033L28.7142 28.7142L29.3033 29.3033ZM19.2858 19.2858L18.6967 18.6967L19.2858 19.2858ZM29.3033 18.6967L28.7142 19.2858L29.3033 18.6967ZM19.2858 28.7142L18.6967 29.3033L19.2858 28.7142ZM27.3333 24C27.3333 24.8841 26.9821 25.7319 26.357 26.357C25.7319 26.9821 24.8841 27.3333 24 27.3333C23.1159 27.3333 22.2681 26.9821 21.643 26.357C21.0179 25.7319 20.6667 24.8841 20.6667 24C20.6667 23.1159 21.0179 22.2681 21.643 21.643C22.2681 21.0179 23.1159 20.6667 24 20.6667C24.8841 20.6667 25.7319 21.0179 26.357 21.643C26.9821 22.2681 27.3333 23.1159 27.3333 24V24Z" stroke="black" stroke-width="2" stroke-linecap="round" stroke-linejoin="round"/>
</svg>
