<svg width="776" height="260" viewBox="0 0 776 260" fill="none" xmlns="http://www.w3.org/2000/svg">
<rect width="388" height="260" fill="url(#paint0_linear_32_173)"/>
<circle cx="36" cy="52" r="20" fill="white"/>
<circle cx="122" cy="60" r="20" fill="white"/>
<circle cx="83" cy="47" r="20" fill="white"/>
<circle cx="63" cy="40" r="20" fill="white"/>
<circle cx="97" cy="32" r="20" fill="white"/>
<circle cx="129" cy="47" r="20" fill="white"/>
<circle cx="97" cy="67" r="20" fill="white"/>
<circle cx="63" cy="67" r="20" fill="white"/>
<circle cx="106" cy="67" r="20" fill="white"/>
<circle cx="192" cy="75" r="20" fill="white"/>
<circle cx="153" cy="62" r="20" fill="white"/>
<circle cx="133" cy="55" r="20" fill="white"/>
<circle cx="167" cy="47" r="20" fill="white"/>
<circle cx="199" cy="62" r="20" fill="white"/>
<circle cx="167" cy="82" r="20" fill="white"/>
<circle cx="133" cy="82" r="20" fill="white"/>
<circle cx="137" cy="40" r="20" fill="white"/>
<circle cx="223" cy="48" r="20" fill="white"/>
<circle cx="184" cy="35" r="20" fill="white"/>
<circle cx="164" cy="28" r="20" fill="white"/>
<circle cx="198" cy="20" r="20" fill="white"/>
<circle cx="230" cy="35" r="20" fill="white"/>
<circle cx="198" cy="55" r="20" fill="white"/>
<circle cx="164" cy="55" r="20" fill="white"/>
<circle cx="207" cy="64" r="20" fill="white"/>
<circle cx="293" cy="72" r="20" fill="white"/>
<circle cx="254" cy="59" r="20" fill="white"/>
<circle cx="234" cy="52" r="20" fill="white"/>
<circle cx="268" cy="44" r="20" fill="white"/>
<circle cx="300" cy="59" r="20" fill="white"/>
<circle cx="268" cy="79" r="20" fill="white"/>
<circle cx="234" cy="79" r="20" fill="white"/>
<rect x="388" width="388" height="260" fill="url(#paint1_linear_32_173)"/>
<circle cx="371" cy="45" r="20" fill="white"/>
<circle cx="457" cy="53" r="20" fill="white"/>
<circle cx="418" cy="40" r="20" fill="white"/>
<circle cx="398" cy="33" r="20" fill="white"/>
<circle cx="432" cy="25" r="20" fill="white"/>
<circle cx="464" cy="40" r="20" fill="white"/>
<circle cx="432" cy="60" r="20" fill="white"/>
<circle cx="398" cy="60" r="20" fill="white"/>
<circle cx="593" cy="42" r="20" fill="white"/>
<circle cx="679" cy="50" r="20" fill="white"/>
<circle cx="640" cy="37" r="20" fill="white"/>
<circle cx="620" cy="30" r="20" fill="white"/>
<circle cx="654" cy="22" r="20" fill="white"/>
<circle cx="686" cy="37" r="20" fill="white"/>
<circle cx="654" cy="57" r="20" fill="white"/>
<circle cx="620" cy="57" r="20" fill="white"/>
<path d="M219 127C233.667 123.167 262.8 123 262 153" stroke="black"/>
<path d="M299 126.796C286.385 122.932 261.326 122.765 262.014 153" stroke="black"/>
<path d="M654 92.3571C665.367 89.756 687.945 89.6429 687.325 110" stroke="black"/>
<path d="M716 92.2187C706.223 89.597 686.802 89.4831 687.336 110" stroke="black"/>
<path d="M620 113.357C631.367 110.756 653.945 110.643 653.325 131" stroke="black"/>
<path d="M682 113.219C672.223 110.597 652.802 110.483 653.336 131" stroke="black"/>
<path d="M699 104.357C710.367 101.756 732.945 101.643 732.325 122" stroke="black"/>
<path d="M761 104.219C751.223 101.597 731.802 101.483 732.336 122" stroke="black"/>
<path d="M671 130.357C682.367 127.756 704.945 127.643 704.325 148" stroke="black"/>
<path d="M733 130.219C723.223 127.597 703.802 127.483 704.336 148" stroke="black"/>
<path d="M288 137.214C299 134.887 320.85 134.786 320.25 153" stroke="black"/>
<path d="M348 137.09C338.538 134.745 319.744 134.643 320.26 153" stroke="black"/>
<path d="M281 102.286C292.55 99.8214 315.493 99.7143 314.863 119" stroke="black"/>
<path d="M344 102.155C334.065 99.6709 314.332 99.5629 314.873 119" stroke="black"/>
<circle cx="429" cy="84" r="20" fill="white"/>
<circle cx="515" cy="92" r="20" fill="white"/>
<circle cx="476" cy="79" r="20" fill="white"/>
<circle cx="456" cy="72" r="20" fill="white"/>
<circle cx="490" cy="64" r="20" fill="white"/>
<circle cx="522" cy="79" r="20" fill="white"/>
<circle cx="490" cy="99" r="20" fill="white"/>
<circle cx="456" cy="99" r="20" fill="white"/>
<circle cx="460" cy="57" r="20" fill="white"/>
<circle cx="546" cy="65" r="20" fill="white"/>
<circle cx="507" cy="52" r="20" fill="white"/>
<circle cx="487" cy="45" r="20" fill="white"/>
<circle cx="521" cy="37" r="20" fill="white"/>
<circle cx="553" cy="52" r="20" fill="white"/>
<circle cx="521" cy="72" r="20" fill="white"/>
<circle cx="487" cy="72" r="20" fill="white"/>
<circle cx="530" cy="81" r="20" fill="white"/>
<circle cx="616" cy="89" r="20" fill="white"/>
<circle cx="577" cy="76" r="20" fill="white"/>
<circle cx="557" cy="69" r="20" fill="white"/>
<circle cx="591" cy="61" r="20" fill="white"/>
<circle cx="623" cy="76" r="20" fill="white"/>
<circle cx="591" cy="96" r="20" fill="white"/>
<circle cx="557" cy="96" r="20" fill="white"/>
<defs>
<linearGradient id="paint0_linear_32_173" x1="194" y1="0" x2="194" y2="260" gradientUnits="userSpaceOnUse">
<stop stop-color="white"/>
<stop offset="0.648958" stop-color="#000AFF" stop-opacity="0.63"/>
</linearGradient>
<linearGradient id="paint1_linear_32_173" x1="582" y1="0" x2="582" y2="260" gradientUnits="userSpaceOnUse">
<stop stop-color="white"/>
<stop offset="0.648958" stop-color="#000AFF" stop-opacity="0.63"/>
</linearGradient>
</defs>
</svg>
