<svg width="775" height="260" viewBox="0 0 775 260" fill="none" xmlns="http://www.w3.org/2000/svg">
<rect x="26" y="85" width="83" height="175" rx="15" fill="url(#paint0_linear_32_187)"/>
<rect x="304" y="85" width="83" height="175" rx="15" fill="url(#paint1_linear_32_187)"/>
<rect x="137" y="66" width="83" height="175" rx="15" fill="url(#paint2_linear_32_187)"/>
<rect x="79" y="130" width="74" height="122" rx="15" fill="url(#paint3_linear_32_187)"/>
<rect x="413" y="85" width="83" height="175" rx="15" fill="url(#paint4_linear_32_187)"/>
<rect x="691" y="85" width="83" height="175" rx="15" fill="url(#paint5_linear_32_187)"/>
<rect x="524" y="66" width="83" height="175" rx="15" fill="url(#paint6_linear_32_187)"/>
<rect x="466" y="130" width="74" height="122" rx="15" fill="url(#paint7_linear_32_187)"/>
<defs>
<linearGradient id="paint0_linear_32_187" x1="67.5" y1="85" x2="67.5" y2="260" gradientUnits="userSpaceOnUse">
<stop offset="0.451042" stop-color="#0FBC16"/>
<stop offset="1" stop-color="#C4C4C4" stop-opacity="0"/>
</linearGradient>
<linearGradient id="paint1_linear_32_187" x1="345.5" y1="85" x2="345.5" y2="260" gradientUnits="userSpaceOnUse">
<stop offset="0.451042" stop-color="#0FBC16"/>
<stop offset="1" stop-color="#C4C4C4" stop-opacity="0"/>
</linearGradient>
<linearGradient id="paint2_linear_32_187" x1="178.5" y1="66" x2="178.5" y2="241" gradientUnits="userSpaceOnUse">
<stop offset="0.451042" stop-color="#0FBC16"/>
<stop offset="1" stop-color="#C4C4C4" stop-opacity="0"/>
</linearGradient>
<linearGradient id="paint3_linear_32_187" x1="116" y1="130" x2="116" y2="252" gradientUnits="userSpaceOnUse">
<stop offset="0.451042" stop-color="#0FBC16"/>
<stop offset="1" stop-color="#C4C4C4" stop-opacity="0"/>
</linearGradient>
<linearGradient id="paint4_linear_32_187" x1="454.5" y1="85" x2="454.5" y2="260" gradientUnits="userSpaceOnUse">
<stop offset="0.451042" stop-color="#0FBC16"/>
<stop offset="1" stop-color="#C4C4C4" stop-opacity="0"/>
</linearGradient>
<linearGradient id="paint5_linear_32_187" x1="732.5" y1="85" x2="732.5" y2="260" gradientUnits="userSpaceOnUse">
<stop offset="0.451042" stop-color="#0FBC16"/>
<stop offset="1" stop-color="#C4C4C4" stop-opacity="0"/>
</linearGradient>
<linearGradient id="paint6_linear_32_187" x1="565.5" y1="66" x2="565.5" y2="241" gradientUnits="userSpaceOnUse">
<stop offset="0.451042" stop-color="#0FBC16"/>
<stop offset="1" stop-color="#C4C4C4" stop-opacity="0"/>
</linearGradient>
<linearGradient id="paint7_linear_32_187" x1="503" y1="130" x2="503" y2="252" gradientUnits="userSpaceOnUse">
<stop offset="0.451042" stop-color="#0FBC16"/>
<stop offset="1" stop-color="#C4C4C4" stop-opacity="0"/>
</linearGradient>
</defs>
</svg>
