<svg width="777" height="260" viewBox="0 0 777 260" fill="none" xmlns="http://www.w3.org/2000/svg">
<rect x="26" y="85" width="83" height="175" rx="15" fill="url(#paint0_linear_34_159)"/>
<rect x="353" y="136" width="72" height="109" rx="15" fill="url(#paint1_linear_34_159)"/>
<rect x="137" y="66" width="83" height="175" rx="15" fill="url(#paint2_linear_34_159)"/>
<rect x="79" y="130" width="74" height="122" rx="15" fill="url(#paint3_linear_34_159)"/>
<rect x="415" y="85" width="83" height="175" rx="15" fill="url(#paint4_linear_34_159)"/>
<rect x="693" y="85" width="83" height="175" rx="15" fill="url(#paint5_linear_34_159)"/>
<rect x="618" y="66" width="83" height="175" rx="15" fill="url(#paint6_linear_34_159)"/>
<rect x="476" y="130" width="74" height="122" rx="15" fill="url(#paint7_linear_34_159)"/>
<defs>
<linearGradient id="paint0_linear_34_159" x1="67.5" y1="85" x2="67.5" y2="260" gradientUnits="userSpaceOnUse">
<stop offset="0.451042" stop-color="#007505"/>
<stop offset="1" stop-color="#C4C4C4" stop-opacity="0"/>
</linearGradient>
<linearGradient id="paint1_linear_34_159" x1="389" y1="136" x2="389" y2="245" gradientUnits="userSpaceOnUse">
<stop offset="0.451042" stop-color="#008505"/>
<stop offset="1" stop-color="#C4C4C4" stop-opacity="0"/>
</linearGradient>
<linearGradient id="paint2_linear_34_159" x1="178.5" y1="66" x2="178.5" y2="241" gradientUnits="userSpaceOnUse">
<stop offset="0.451042" stop-color="#007905"/>
<stop offset="1" stop-color="#C4C4C4" stop-opacity="0"/>
</linearGradient>
<linearGradient id="paint3_linear_34_159" x1="116" y1="130" x2="116" y2="252" gradientUnits="userSpaceOnUse">
<stop offset="0.451042" stop-color="#007605"/>
<stop offset="1" stop-color="#C4C4C4" stop-opacity="0"/>
</linearGradient>
<linearGradient id="paint4_linear_34_159" x1="456.5" y1="85" x2="456.5" y2="260" gradientUnits="userSpaceOnUse">
<stop offset="0.451042" stop-color="#007D05"/>
<stop offset="1" stop-color="#C4C4C4" stop-opacity="0"/>
</linearGradient>
<linearGradient id="paint5_linear_34_159" x1="734.5" y1="85" x2="734.5" y2="260" gradientUnits="userSpaceOnUse">
<stop offset="0.451042" stop-color="#036F07"/>
<stop offset="1" stop-color="#C4C4C4" stop-opacity="0"/>
</linearGradient>
<linearGradient id="paint6_linear_34_159" x1="659.5" y1="66" x2="659.5" y2="241" gradientUnits="userSpaceOnUse">
<stop offset="0.451042" stop-color="#006304"/>
<stop offset="1" stop-color="#C4C4C4" stop-opacity="0"/>
</linearGradient>
<linearGradient id="paint7_linear_34_159" x1="513" y1="130" x2="513" y2="252" gradientUnits="userSpaceOnUse">
<stop offset="0.451042" stop-color="#006F04"/>
<stop offset="1" stop-color="#C4C4C4" stop-opacity="0"/>
</linearGradient>
</defs>
</svg>
