<svg width="776" height="260" viewBox="0 0 776 260" fill="none" xmlns="http://www.w3.org/2000/svg">
<rect x="745" y="142" width="7" height="55" fill="#850000"/>
<rect x="708" y="142" width="7" height="55" fill="#850000"/>
<rect y="199" width="388" height="61" fill="#817C7C"/>
<rect x="280" y="225" width="85" height="9" fill="#CAAE00"/>
<rect x="151" y="225" width="85" height="9" fill="#CAAE00"/>
<rect x="26" y="225" width="85" height="9" fill="#CAAE00"/>
<rect x="19" y="144" width="7" height="55" fill="#850000"/>
<rect x="352" y="144" width="7" height="55" fill="#850000"/>
<rect x="315" y="144" width="7" height="55" fill="#850000"/>
<rect x="278" y="144" width="7" height="55" fill="#850000"/>
<rect x="241" y="144" width="7" height="55" fill="#850000"/>
<rect x="204" y="144" width="7" height="55" fill="#850000"/>
<rect x="167" y="144" width="7" height="55" fill="#850000"/>
<rect x="130" y="144" width="7" height="55" fill="#850000"/>
<rect x="93" y="144" width="7" height="55" fill="#850000"/>
<rect x="56" y="144" width="7" height="55" fill="#850000"/>
<line y1="169.5" x2="388" y2="169.5" stroke="#740007" stroke-width="5"/>
<line y1="141.5" x2="388" y2="141.5" stroke="#740007" stroke-width="5"/>
<rect x="388" y="199" width="388" height="61" fill="#817C7C"/>
<rect x="668" y="225" width="85" height="9" fill="#CAAE00"/>
<rect x="539" y="225" width="85" height="9" fill="#CAAE00"/>
<rect x="414" y="225" width="85" height="9" fill="#CAAE00"/>
<rect x="407" y="144" width="7" height="55" fill="#850000"/>
<rect x="666" y="144" width="7" height="55" fill="#850000"/>
<rect x="629" y="144" width="7" height="55" fill="#850000"/>
<rect x="592" y="144" width="7" height="55" fill="#850000"/>
<rect x="555" y="144" width="7" height="55" fill="#850000"/>
<rect x="518" y="144" width="7" height="55" fill="#850000"/>
<rect x="481" y="144" width="7" height="55" fill="#850000"/>
<rect x="444" y="144" width="7" height="55" fill="#850000"/>
<line x1="388" y1="169.5" x2="776" y2="169.5" stroke="#740007" stroke-width="5"/>
<line x1="388" y1="141.5" x2="776" y2="141.5" stroke="#740007" stroke-width="5"/>
</svg>
