<svg width="70" height="70" viewBox="0 0 70 70" fill="none" xmlns="http://www.w3.org/2000/svg">
<rect x="1.5" y="1.5" width="67" height="67" rx="33.5" fill="#E31E45" fill-opacity="0.4" stroke="#E31E45" stroke-width="3"/>
<path d="M35.1154 54.4972C32.6059 54.4972 30.3687 54.0355 28.4038 53.1122C26.4506 52.1889 24.9 50.9164 23.7518 49.2947C22.6036 47.6731 22.0058 45.8146 21.9585 43.7195H29.4158C29.4987 45.1281 30.0906 46.2704 31.1914 47.1463C32.2923 48.0223 33.6003 48.4602 35.1154 48.4602C36.3228 48.4602 37.3881 48.1939 38.3114 47.6612C39.2466 47.1167 39.9746 46.3651 40.4954 45.4062C41.0281 44.4356 41.2944 43.3229 41.2944 42.0682C41.2944 40.7898 41.0221 39.6652 40.4776 38.6946C39.945 37.724 39.2051 36.9664 38.2582 36.4219C37.3112 35.8774 36.2281 35.5992 35.0089 35.5874C33.9435 35.5874 32.9078 35.8063 31.9016 36.2443C30.9073 36.6823 30.132 37.2801 29.5756 38.0376L22.7397 36.8125L24.462 17.6364H46.6921V23.9219H30.8008L29.8597 33.0305H30.0728C30.712 32.1309 31.6767 31.3852 32.967 30.7933C34.2572 30.2015 35.7013 29.9055 37.2994 29.9055C39.4892 29.9055 41.4424 30.4205 43.1587 31.4503C44.8751 32.4801 46.2305 33.8946 47.2248 35.6939C48.2191 37.4813 48.7103 39.541 48.6985 41.8729C48.7103 44.3232 48.1422 46.5012 46.994 48.407C45.8576 50.3009 44.2655 51.7924 42.2177 52.8814C40.1817 53.9586 37.8143 54.4972 35.1154 54.4972Z" fill="white"/>
</svg>
