<svg width="92" height="121" viewBox="0 0 92 121" fill="none" xmlns="http://www.w3.org/2000/svg">
<rect width="92" height="95" rx="46" fill="#686868"/>
<path d="M44.9439 73.696C41.2318 73.696 37.9257 73.058 35.0256 71.782C32.142 70.4893 29.8634 68.7161 28.1896 66.4624C26.5324 64.192 25.679 61.5736 25.6293 58.6072H36.4673C36.5336 59.8501 36.9396 60.9439 37.6854 61.8885C38.4477 62.8165 39.4586 63.5374 40.718 64.0511C41.9775 64.5649 43.3944 64.8217 44.9688 64.8217C46.6094 64.8217 48.0594 64.5317 49.3189 63.9517C50.5784 63.3717 51.5644 62.5679 52.277 61.5405C52.9896 60.513 53.3459 59.3281 53.3459 57.9858C53.3459 56.6269 52.9647 55.4254 52.2024 54.3814C51.4567 53.3208 50.3795 52.4922 48.9709 51.8956C47.5788 51.299 45.9216 51.0007 43.9993 51.0007H39.2514V43.0959H43.9993C45.6233 43.0959 47.0568 42.8142 48.2997 42.2507C49.5592 41.6873 50.5369 40.9084 51.233 39.9141C51.929 38.9032 52.277 37.7266 52.277 36.3842C52.277 35.1082 51.9704 33.9896 51.3572 33.0284C50.7607 32.0507 49.9155 31.2884 48.8217 30.7415C47.7446 30.1946 46.4851 29.9212 45.0433 29.9212C43.585 29.9212 42.2509 30.1863 41.0412 30.7166C39.8314 31.2303 38.862 31.9678 38.1328 32.929C37.4036 33.8901 37.0142 35.017 36.9645 36.3097H26.6484C26.6982 33.3764 27.535 30.7912 29.1591 28.554C30.7831 26.3168 32.9706 24.5684 35.7216 23.3089C38.4891 22.0329 41.6129 21.3949 45.093 21.3949C48.6063 21.3949 51.6804 22.0329 54.3153 23.3089C56.9503 24.585 58.9969 26.3085 60.4553 28.4794C61.9302 30.6338 62.6593 33.0533 62.6428 35.7379C62.6593 38.5883 61.7727 40.9664 59.983 42.8722C58.2098 44.7779 55.898 45.9877 53.0476 46.5014V46.8991C56.7929 47.3797 59.6432 48.6806 61.5987 50.8018C63.5708 52.9065 64.5485 55.5414 64.532 58.7067C64.5485 61.6068 63.7116 64.1837 62.0213 66.4375C60.3475 68.6913 58.0357 70.4645 55.0859 71.7571C52.1361 73.0497 48.7554 73.696 44.9439 73.696Z" fill="white"/>
</svg>
