<svg width="92" height="123" viewBox="0 0 92 123" fill="none" xmlns="http://www.w3.org/2000/svg">
<rect width="92" height="95" rx="46" fill="#686868"/>
<path d="M44.1179 75.696C40.2898 75.696 36.8842 75.0746 33.9013 73.8317C30.9349 72.5722 28.6065 70.857 26.9162 68.6861C25.2259 66.5152 24.3807 64.0542 24.3807 61.3033C24.3807 59.1821 24.8613 57.2348 25.8224 55.4616C26.8002 53.6719 28.1259 52.1887 29.7997 51.0121C31.4735 49.8189 33.3461 49.0566 35.4176 48.7251V48.3771C32.6998 47.8303 30.4957 46.5128 28.8054 44.4247C27.1151 42.3201 26.2699 39.8757 26.2699 37.0916C26.2699 34.4567 27.0405 32.1117 28.5817 30.0568C30.1229 27.9853 32.2358 26.3613 34.9205 25.1847C37.6217 23.9915 40.6875 23.3949 44.1179 23.3949C47.5483 23.3949 50.6058 23.9915 53.2905 25.1847C55.9917 26.3778 58.1129 28.0102 59.6541 30.0817C61.1953 32.1366 61.9742 34.4732 61.9908 37.0916C61.9742 39.8923 61.1125 42.3366 59.4055 44.4247C57.6986 46.5128 55.5111 47.8303 52.843 48.3771V48.7251C54.8814 49.0566 56.7292 49.8189 58.3864 51.0121C60.0601 52.1887 61.3859 53.6719 62.3636 55.4616C63.358 57.2348 63.8634 59.1821 63.88 61.3033C63.8634 64.0542 63.0099 66.5152 61.3196 68.6861C59.6293 70.857 57.2926 72.5722 54.3097 73.8317C51.3433 75.0746 47.946 75.696 44.1179 75.696ZM44.1179 67.7912C45.8248 67.7912 47.3163 67.4846 48.5923 66.8714C49.8684 66.2417 50.8627 65.38 51.5753 64.2862C52.3045 63.1759 52.669 61.8999 52.669 60.4581C52.669 58.9832 52.2962 57.6823 51.5504 56.5554C50.8047 55.4119 49.7938 54.517 48.5178 53.8707C47.2417 53.2079 45.7751 52.8764 44.1179 52.8764C42.4773 52.8764 41.0107 53.2079 39.718 53.8707C38.4254 54.517 37.4063 55.4119 36.6605 56.5554C35.9313 57.6823 35.5668 58.9832 35.5668 60.4581C35.5668 61.8999 35.9231 63.1759 36.6357 64.2862C37.3482 65.38 38.3509 66.2417 39.6435 66.8714C40.9361 67.4846 42.4276 67.7912 44.1179 67.7912ZM44.1179 45.0462C45.5431 45.0462 46.8108 44.7562 47.9212 44.1761C49.0315 43.5961 49.9015 42.7924 50.5312 41.7649C51.161 40.7375 51.4759 39.5526 51.4759 38.2102C51.4759 36.8845 51.161 35.7244 50.5312 34.7301C49.9015 33.7192 49.0398 32.9321 47.946 32.3686C46.8523 31.7886 45.5762 31.4986 44.1179 31.4986C42.6761 31.4986 41.4001 31.7886 40.2898 32.3686C39.1795 32.9321 38.3094 33.7192 37.6797 34.7301C37.0665 35.7244 36.7599 36.8845 36.7599 38.2102C36.7599 39.5526 37.0748 40.7375 37.7045 41.7649C38.3343 42.7924 39.2043 43.5961 40.3146 44.1761C41.425 44.7562 42.6927 45.0462 44.1179 45.0462Z" fill="white"/>
</svg>
