<svg width="70" height="70" viewBox="0 0 70 70" fill="none" xmlns="http://www.w3.org/2000/svg">
<rect x="1.5" y="1.5" width="67" height="67" rx="33.5" fill="#E31E45" fill-opacity="0.4" stroke="#E31E45" stroke-width="3"/>
<path d="M21.2004 54V48.4602L34.1443 36.4751C35.2451 35.4098 36.1684 34.451 36.9142 33.5987C37.6717 32.7464 38.2458 31.9119 38.6365 31.0952C39.0271 30.2666 39.2224 29.3729 39.2224 28.4141C39.2224 27.3487 38.9797 26.4313 38.4944 25.6619C38.0091 24.8807 37.3462 24.2829 36.5058 23.8686C35.6653 23.4425 34.7124 23.2294 33.6471 23.2294C32.5344 23.2294 31.5638 23.4543 30.7352 23.9041C29.9066 24.3539 29.2674 24.9991 28.8176 25.8395C28.3677 26.6799 28.1428 27.6802 28.1428 28.8402H20.8453C20.8453 26.4609 21.3838 24.3954 22.461 22.6435C23.5382 20.8916 25.0474 19.5362 26.9887 18.5774C28.93 17.6186 31.1672 17.1392 33.7004 17.1392C36.3045 17.1392 38.5713 17.6009 40.5008 18.5241C42.4421 19.4356 43.9513 20.7022 45.0285 22.3239C46.1057 23.9455 46.6443 25.804 46.6443 27.8991C46.6443 29.2723 46.372 30.6276 45.8275 31.9652C45.2948 33.3028 44.3419 34.7884 42.9688 36.4219C41.5957 38.0436 39.6604 39.9908 37.1627 42.2635L31.8538 47.4659V47.7145H47.1237V54H21.2004Z" fill="white"/>
</svg>
