<svg width="92" height="179" viewBox="0 0 92 179" fill="none" xmlns="http://www.w3.org/2000/svg">
<rect y="84" width="92" height="95" rx="46" fill="#FFA030"/>
<path d="M47.3189 147.385C43.8033 147.385 40.7848 146.142 38.2635 143.656C35.7777 141.135 34.5348 138.116 34.5348 134.601C34.5348 131.121 35.7777 128.138 38.2635 125.652C40.7848 123.166 43.8033 121.923 47.3189 121.923C50.728 121.923 53.7109 123.166 56.2678 125.652C58.8246 128.138 60.103 131.121 60.103 134.601C60.103 136.945 59.4993 139.093 58.2919 141.046C57.12 142.964 55.5753 144.509 53.6577 145.68C51.7401 146.817 49.6271 147.385 47.3189 147.385Z" fill="white"/>
</svg>
