<svg width="70" height="70" viewBox="0 0 70 70" fill="none" xmlns="http://www.w3.org/2000/svg">
<rect x="1.5" y="1.5" width="67" height="67" rx="33.5" fill="#E31E45" fill-opacity="0.4" stroke="#E31E45" stroke-width="3"/>
<path d="M34.9845 52.4972C32.2501 52.4972 29.8176 52.0533 27.6869 51.1655C25.568 50.2659 23.9049 49.0407 22.6975 47.4901C21.4901 45.9394 20.8865 44.1816 20.8865 42.2166C20.8865 40.7015 21.2297 39.3106 21.9163 38.044C22.6147 36.7656 23.5616 35.7062 24.7572 34.8658C25.9527 34.0135 27.2903 33.469 28.77 33.2322V32.9837C26.8287 32.593 25.2544 31.652 24.047 30.1605C22.8396 28.6572 22.2359 26.9112 22.2359 24.9226C22.2359 23.0405 22.7863 21.3655 23.8872 19.8977C24.988 18.4181 26.4972 17.258 28.4149 16.4176C30.3443 15.5653 32.5342 15.1392 34.9845 15.1392C37.4347 15.1392 39.6187 15.5653 41.5363 16.4176C43.4658 17.2699 44.9809 18.4358 46.0818 19.9155C47.1826 21.3833 47.739 23.0523 47.7508 24.9226C47.739 26.9231 47.1234 28.669 45.9042 30.1605C44.685 31.652 43.1225 32.593 41.2167 32.9837V33.2322C42.6727 33.469 43.9925 34.0135 45.1762 34.8658C46.3718 35.7062 47.3187 36.7656 48.0171 38.044C48.7274 39.3106 49.0884 40.7015 49.1002 42.2166C49.0884 44.1816 48.4788 45.9394 47.2714 47.4901C46.064 49.0407 44.395 50.2659 42.2643 51.1655C40.1454 52.0533 37.7188 52.4972 34.9845 52.4972ZM34.9845 46.8509C36.2037 46.8509 37.269 46.6319 38.1805 46.1939C39.0919 45.7441 39.8022 45.1286 40.3112 44.3473C40.832 43.5542 41.0924 42.6428 41.0924 41.6129C41.0924 40.5594 40.8261 39.6302 40.2934 38.8253C39.7607 38.0085 39.0387 37.3693 38.1272 36.9077C37.2158 36.4342 36.1682 36.1974 34.9845 36.1974C33.8126 36.1974 32.765 36.4342 31.8417 36.9077C30.9184 37.3693 30.1904 38.0085 29.6578 38.8253C29.1369 39.6302 28.8765 40.5594 28.8765 41.6129C28.8765 42.6428 29.131 43.5542 29.64 44.3473C30.149 45.1286 30.8651 45.7441 31.7884 46.1939C32.7117 46.6319 33.7771 46.8509 34.9845 46.8509ZM34.9845 30.6044C36.0025 30.6044 36.908 30.3973 37.7011 29.983C38.4942 29.5687 39.1156 28.9946 39.5654 28.2607C40.0152 27.5268 40.2401 26.6804 40.2401 25.7216C40.2401 24.7746 40.0152 23.946 39.5654 23.2358C39.1156 22.5137 38.5001 21.9515 37.7188 21.549C36.9376 21.1347 36.0261 20.9276 34.9845 20.9276C33.9546 20.9276 33.0432 21.1347 32.2501 21.549C31.457 21.9515 30.8356 22.5137 30.3857 23.2358C29.9478 23.946 29.7288 24.7746 29.7288 25.7216C29.7288 26.6804 29.9537 27.5268 30.4035 28.2607C30.8533 28.9946 31.4748 29.5687 32.2678 29.983C33.0609 30.3973 33.9665 30.6044 34.9845 30.6044Z" fill="white"/>
</svg>
