<svg width="92" height="118" viewBox="0 0 92 118" fill="none" xmlns="http://www.w3.org/2000/svg">
<rect width="92" height="95" rx="46" fill="#686868"/>
<path d="M46.8079 76.1985C42.2269 76.1808 38.2852 75.0533 34.9826 72.8161C31.6978 70.5788 29.1676 67.3384 27.392 63.0948C25.6342 58.8512 24.7642 53.7464 24.782 47.7805C24.782 41.8324 25.6609 36.7631 27.4187 32.5728C29.1942 28.3825 31.7244 25.1953 35.0092 23.0114C38.3118 20.8097 42.2447 19.7088 46.8079 19.7088C51.3711 19.7088 55.2951 20.8097 58.5799 23.0114C61.8825 25.2131 64.4215 28.4091 66.1971 32.5994C67.9727 36.772 68.8516 41.8324 68.8338 47.7805C68.8338 53.7642 67.946 58.8778 66.1705 63.1214C64.4126 67.3651 61.8913 70.6055 58.6065 72.8427C55.3217 75.0799 51.3888 76.1985 46.8079 76.1985ZM46.8079 66.6371C49.9329 66.6371 52.4276 65.0657 54.2919 61.9229C56.1563 58.7802 57.0795 54.0661 57.0618 47.7805C57.0618 43.6435 56.6357 40.1989 55.7834 37.4467C54.9489 34.6946 53.7592 32.6261 52.2145 31.2411C50.6875 29.8562 48.8853 29.1637 46.8079 29.1637C43.7006 29.1637 41.2148 30.7173 39.3505 33.8246C37.4862 36.9318 36.5451 41.5838 36.5273 47.7805C36.5273 51.9709 36.9446 55.4688 37.7791 58.2741C38.6314 61.0618 39.8299 63.157 41.3746 64.5597C42.9194 65.9446 44.7305 66.6371 46.8079 66.6371Z" fill="white"/>
</svg>
