<svg width="92" height="95" viewBox="0 0 92 95" fill="none" xmlns="http://www.w3.org/2000/svg">
<rect width="92" height="95" rx="46" fill="#C4C4C4"/>
<path d="M46.4091 64.6392C43.0568 64.6392 40.1733 63.929 37.7585 62.5085C35.358 61.0739 33.5114 59.0852 32.2188 56.5426C30.9403 54 30.3011 51.0739 30.3011 47.7642C30.3011 44.4119 30.9474 41.4716 32.2401 38.9432C33.5469 36.4006 35.4006 34.419 37.8011 32.9986C40.2017 31.5639 43.0568 30.8466 46.3665 30.8466C49.2216 30.8466 51.7216 31.3651 53.8665 32.402C56.0114 33.4389 57.7088 34.8949 58.9588 36.7699C60.2088 38.6449 60.8977 40.8466 61.0256 43.375H52.4602C52.2188 41.7415 51.5795 40.4276 50.5426 39.4332C49.5199 38.4247 48.1776 37.9205 46.5156 37.9205C45.1094 37.9205 43.8807 38.304 42.8295 39.071C41.7926 39.8239 40.983 40.9247 40.4006 42.3736C39.8182 43.8224 39.527 45.5767 39.527 47.6364C39.527 49.7244 39.8111 51.5 40.3793 52.9631C40.9616 54.4261 41.7784 55.5412 42.8295 56.3082C43.8807 57.0753 45.1094 57.4588 46.5156 57.4588C47.5526 57.4588 48.483 57.2457 49.3068 56.8196C50.1449 56.3935 50.8338 55.7756 51.3736 54.9659C51.9276 54.142 52.2898 53.1548 52.4602 52.0043H61.0256C60.8835 54.5043 60.2017 56.706 58.9801 58.6094C57.7727 60.4986 56.1037 61.9759 53.973 63.0412C51.8423 64.1065 49.321 64.6392 46.4091 64.6392Z" fill="white"/>
</svg>
