<svg width="70" height="70" viewBox="0 0 70 70" fill="none" xmlns="http://www.w3.org/2000/svg">
<rect x="1.5" y="1.5" width="67" height="67" rx="33.5" fill="#E31E45" fill-opacity="0.4" stroke="#E31E45" stroke-width="3"/>
<path d="M34.6005 17.1392C36.4708 17.1392 38.27 17.4529 39.9982 18.0803C41.7383 18.7076 43.2889 19.7079 44.6502 21.081C46.0233 22.4541 47.1064 24.277 47.8995 26.5497C48.7044 28.8106 49.1128 31.5864 49.1246 34.8771C49.1246 37.9666 48.7755 40.7247 48.0771 43.1513C47.3905 45.5661 46.4021 47.6198 45.1119 49.3125C43.8216 51.0052 42.265 52.2955 40.4421 53.1832C38.6192 54.0592 36.5832 54.4972 34.3342 54.4972C31.9076 54.4972 29.765 54.0296 27.9066 53.0945C26.0482 52.1475 24.5508 50.8632 23.4144 49.2415C22.2899 47.608 21.6093 45.7732 21.3725 43.7372H28.9542C29.2501 45.063 29.8716 46.0928 30.8185 46.8267C31.7655 47.5488 32.9374 47.9098 34.3342 47.9098C36.7016 47.9098 38.5008 46.88 39.7319 44.8203C40.963 42.7488 41.5844 39.9138 41.5962 36.3153H41.3477C40.8031 37.3807 40.0692 38.2981 39.146 39.0675C38.2227 39.825 37.1632 40.411 35.9677 40.8253C34.784 41.2396 33.5233 41.4467 32.1857 41.4467C30.0432 41.4467 28.1315 40.9437 26.4506 39.9375C24.7698 38.9313 23.444 37.5464 22.4734 35.7827C21.5027 34.0189 21.0174 32.0066 21.0174 29.7457C21.0056 27.3073 21.5678 25.1352 22.7042 23.2294C23.8406 21.3236 25.4267 19.8321 27.4627 18.755C29.5105 17.666 31.8898 17.1274 34.6005 17.1392ZM34.6538 23.1761C33.4582 23.1761 32.3929 23.4602 31.4577 24.0284C30.5344 24.5966 29.8005 25.3601 29.256 26.3189C28.7234 27.2777 28.4629 28.349 28.4748 29.5327C28.4748 30.7282 28.7352 31.8054 29.256 32.7642C29.7887 33.7112 30.5108 34.4687 31.4222 35.0369C32.3455 35.5933 33.399 35.8714 34.5827 35.8714C35.4705 35.8714 36.2932 35.7057 37.0508 35.3743C37.8084 35.0428 38.4653 34.5871 39.0217 34.0071C39.5898 33.4152 40.0337 32.7346 40.3533 31.9652C40.6729 31.1958 40.8327 30.379 40.8327 29.5149C40.8209 28.3667 40.5487 27.3132 40.016 26.3544C39.4833 25.3956 38.7494 24.6262 37.8143 24.0462C36.8791 23.4661 35.8256 23.1761 34.6538 23.1761Z" fill="white"/>
</svg>
