<svg width="70" height="70" viewBox="0 0 70 70" fill="none" xmlns="http://www.w3.org/2000/svg">
<rect x="1.5" y="1.5" width="67" height="67" rx="33.5" fill="#E31E45" fill-opacity="0.4" stroke="#E31E45" stroke-width="3"/>
<path d="M34.909 54.4972C32.2575 54.4972 29.896 54.0414 27.8245 53.13C25.7648 52.2067 24.1372 50.9401 22.9417 49.3303C21.758 47.7086 21.1483 45.8383 21.1128 43.7195H28.8543C28.9017 44.6072 29.1917 45.3885 29.7243 46.0632C30.2689 46.7261 30.9909 47.241 31.8905 47.608C32.7902 47.9749 33.8022 48.1584 34.9268 48.1584C36.0986 48.1584 37.1344 47.9512 38.034 47.5369C38.9336 47.1226 39.6379 46.5485 40.1469 45.8146C40.6559 45.0807 40.9104 44.2344 40.9104 43.2756C40.9104 42.3049 40.6382 41.4467 40.0937 40.701C39.561 39.9434 38.7916 39.3516 37.7854 38.9254C36.7911 38.4993 35.6074 38.2862 34.2343 38.2862H30.843V32.6399H34.2343C35.3943 32.6399 36.4182 32.4387 37.306 32.0362C38.2056 31.6338 38.904 31.0774 39.4012 30.3672C39.8983 29.6451 40.1469 28.8047 40.1469 27.8459C40.1469 26.9344 39.9279 26.1354 39.49 25.4489C39.0638 24.7505 38.4601 24.206 37.6789 23.8153C36.9095 23.4247 36.0099 23.2294 34.98 23.2294C33.9384 23.2294 32.9855 23.4188 32.1214 23.7976C31.2573 24.1645 30.5648 24.6913 30.0439 25.3778C29.5231 26.0644 29.2449 26.8693 29.2094 27.7926H21.8408C21.8763 25.6974 22.4741 23.8509 23.6341 22.2528C24.7942 20.6548 26.3567 19.406 28.3216 18.5064C30.2984 17.5949 32.5297 17.1392 35.0155 17.1392C37.525 17.1392 39.7208 17.5949 41.6029 18.5064C43.485 19.4178 44.9469 20.6489 45.9885 22.1996C47.0421 23.7384 47.5629 25.4666 47.551 27.3842C47.5629 29.4202 46.9296 31.1188 45.6512 32.4801C44.3846 33.8414 42.7333 34.7055 40.6974 35.0724V35.3565C43.3725 35.6998 45.4085 36.629 46.8053 38.1442C48.2139 39.6475 48.9123 41.5296 48.9005 43.7905C48.9123 45.862 48.3145 47.7027 47.1072 49.3125C45.9116 50.9223 44.2603 52.1889 42.1533 53.1122C40.0463 54.0355 37.6315 54.4972 34.909 54.4972Z" fill="white"/>
</svg>
