<svg width="70" height="70" viewBox="0 0 70 70" fill="none" xmlns="http://www.w3.org/2000/svg">
<rect x="1.5" y="1.5" width="67" height="67" rx="33.5" fill="#E31E45" fill-opacity="0.4" stroke="#E31E45" stroke-width="3"/>
<path d="M35.3995 54.4972C33.5292 54.4853 31.7241 54.1716 29.984 53.5561C28.2558 52.9406 26.7051 51.9403 25.332 50.5554C23.9589 49.1705 22.8699 47.3357 22.065 45.0511C21.2719 42.7666 20.8754 39.9612 20.8754 36.6349C20.8872 33.581 21.2364 30.8525 21.9229 28.4496C22.6213 26.0348 23.6156 23.987 24.9059 22.3061C26.208 20.6252 27.7646 19.3468 29.5756 18.4709C31.3867 17.5831 33.4168 17.1392 35.6658 17.1392C38.0924 17.1392 40.235 17.6127 42.0934 18.5597C43.9518 19.4948 45.4433 20.7673 46.5678 22.3771C47.7042 23.987 48.3907 25.7921 48.6275 27.7926H41.0458C40.7499 26.526 40.1284 25.5317 39.1815 24.8097C38.2345 24.0876 37.0626 23.7266 35.6658 23.7266C33.2984 23.7266 31.4992 24.7564 30.2681 26.8161C29.0489 28.8757 28.4274 31.6752 28.4038 35.2145H28.6523C29.1969 34.1373 29.9308 33.2199 30.854 32.4624C31.7892 31.6929 32.8486 31.107 34.0323 30.7045C35.2279 30.2902 36.4885 30.0831 37.8143 30.0831C39.9686 30.0831 41.8862 30.5921 43.5671 31.6101C45.248 32.6162 46.5737 34.0012 47.5444 35.7649C48.515 37.5286 49.0004 39.5469 49.0004 41.8196C49.0004 44.2817 48.4263 46.4716 47.2781 48.3892C46.1417 50.3068 44.5496 51.8101 42.5018 52.8991C40.4658 53.9763 38.0984 54.509 35.3995 54.4972ZM35.364 48.4602C36.5477 48.4602 37.6071 48.1761 38.5423 47.608C39.4774 47.0398 40.2113 46.2704 40.744 45.2997C41.2766 44.3291 41.543 43.2401 41.543 42.0327C41.543 40.8253 41.2766 39.7422 40.744 38.7834C40.2231 37.8246 39.5011 37.0611 38.5778 36.4929C37.6545 35.9247 36.601 35.6406 35.4173 35.6406C34.5295 35.6406 33.7068 35.8063 32.9492 36.1378C32.2035 36.4692 31.5465 36.9309 30.9783 37.5227C30.422 38.1146 29.984 38.8011 29.6644 39.5824C29.3448 40.3518 29.185 41.1745 29.185 42.0504C29.185 43.2223 29.4513 44.2936 29.984 45.2642C30.5285 46.2348 31.2624 47.0102 32.1857 47.5902C33.1209 48.1702 34.1803 48.4602 35.364 48.4602Z" fill="white"/>
</svg>
