<svg width="70" height="70" viewBox="0 0 70 70" fill="none" xmlns="http://www.w3.org/2000/svg">
<rect x="1.5" y="1.5" width="67" height="67" rx="33.5" fill="#AAAA00" fill-opacity="0.4" stroke="#AAAA00" stroke-width="3"/>
<path d="M36.3672 47.1818V45.2642C36.3672 43.8082 36.675 42.4706 37.2905 41.2514C37.9179 40.0204 38.8234 39.0379 40.0071 38.304C41.2027 37.5582 42.6586 37.1854 44.375 37.1854C46.1151 37.1854 47.5769 37.5523 48.7607 38.2862C49.9562 39.0201 50.8558 40.0026 51.4595 41.2337C52.075 42.4529 52.3828 43.7964 52.3828 45.2642V47.1818C52.3828 48.6378 52.075 49.9813 51.4595 51.2124C50.844 52.4316 49.9384 53.4081 48.7429 54.142C47.5473 54.8878 46.0914 55.2607 44.375 55.2607C42.6349 55.2607 41.1731 54.8878 39.9893 54.142C38.8056 53.4081 37.906 52.4316 37.2905 51.2124C36.675 49.9813 36.3672 48.6378 36.3672 47.1818ZM41.5341 45.2642V47.1818C41.5341 48.0223 41.7353 48.8153 42.1378 49.5611C42.5521 50.3068 43.2978 50.6797 44.375 50.6797C45.4522 50.6797 46.1861 50.3127 46.5767 49.5788C46.9792 48.8449 47.1804 48.0459 47.1804 47.1818V45.2642C47.1804 44.4001 46.991 43.5952 46.6122 42.8494C46.2334 42.1037 45.4877 41.7308 44.375 41.7308C43.3097 41.7308 42.5698 42.1037 42.1555 42.8494C41.7412 43.5952 41.5341 44.4001 41.5341 45.2642ZM17.706 26.3722V24.4545C17.706 22.9867 18.0196 21.6432 18.647 20.424C19.2744 19.1929 20.1799 18.2105 21.3636 17.4766C22.5592 16.7427 24.0033 16.3757 25.696 16.3757C27.4479 16.3757 28.9157 16.7427 30.0994 17.4766C31.2831 18.2105 32.1828 19.1929 32.7983 20.424C33.4138 21.6432 33.7216 22.9867 33.7216 24.4545V26.3722C33.7216 27.84 33.4079 29.1835 32.7805 30.4027C32.165 31.6219 31.2595 32.5985 30.0639 33.3324C28.8802 34.0545 27.4242 34.4155 25.696 34.4155C23.9678 34.4155 22.5059 34.0485 21.3104 33.3146C20.1267 32.5689 19.227 31.5923 18.6115 30.3849C18.0078 29.1657 17.706 27.8281 17.706 26.3722ZM22.9084 24.4545V26.3722C22.9084 27.2363 23.1096 28.0353 23.5121 28.7692C23.9264 29.5031 24.6544 29.87 25.696 29.87C26.785 29.87 27.5249 29.5031 27.9155 28.7692C28.3179 28.0353 28.5192 27.2363 28.5192 26.3722V24.4545C28.5192 23.5904 28.3298 22.7855 27.951 22.0398C27.5722 21.294 26.8205 20.9212 25.696 20.9212C24.6425 20.9212 23.9145 21.3 23.5121 22.0575C23.1096 22.8151 22.9084 23.6141 22.9084 24.4545ZM20.0497 54L45.0497 17.6364H49.7017L24.7017 54H20.0497Z" fill="white"/>
</svg>
