<svg width="92" height="116" viewBox="0 0 92 116" fill="none" xmlns="http://www.w3.org/2000/svg">
<rect width="92" height="95" rx="46" fill="#686868"/>
<path d="M45.6648 68.696C43.0464 68.6795 40.5192 68.2403 38.0831 67.3786C35.6636 66.5168 33.4927 65.1165 31.5703 63.1776C29.648 61.2386 28.1233 58.67 26.9964 55.4716C25.8861 52.2732 25.331 48.3456 25.331 43.6889C25.3475 39.4134 25.8364 35.5935 26.7976 32.2294C27.7753 28.8487 29.1674 25.9818 30.9737 23.6285C32.7966 21.2753 34.9759 19.4856 37.5114 18.2592C40.0469 17.0163 42.889 16.3949 46.0376 16.3949C49.4349 16.3949 52.4344 17.0578 55.0362 18.3835C57.638 19.6927 59.7261 21.4742 61.3004 23.728C62.8913 25.9818 63.8525 28.509 64.184 31.3097H53.5696C53.1553 29.5365 52.2853 28.1444 50.9595 27.1335C49.6338 26.1226 47.9931 25.6172 46.0376 25.6172C42.7232 25.6172 40.2043 27.0589 38.4808 29.9425C36.7739 32.826 35.9039 36.7453 35.8707 41.7003H36.2188C36.9811 40.1922 38.0085 38.9079 39.3011 37.8473C40.6103 36.7701 42.0935 35.9498 43.7507 35.3864C45.4245 34.8063 47.1894 34.5163 49.0455 34.5163C52.0616 34.5163 54.7462 35.2289 57.0994 36.6541C59.4527 38.0627 61.3087 40.0017 62.6676 42.4709C64.0265 44.9401 64.706 47.7656 64.706 50.9474C64.706 54.3944 63.9022 57.4602 62.2947 60.1449C60.7038 62.8295 58.4749 64.9342 55.608 66.4588C52.7576 67.9669 49.4432 68.7126 45.6648 68.696ZM45.6151 60.2443C47.2723 60.2443 48.7554 59.8466 50.0646 59.0511C51.3738 58.2557 52.4013 57.1785 53.147 55.8196C53.8928 54.4607 54.2656 52.9361 54.2656 51.2457C54.2656 49.5554 53.8928 48.0391 53.147 46.6967C52.4179 45.3544 51.407 44.2855 50.1143 43.4901C48.8217 42.6946 47.3468 42.2969 45.6896 42.2969C44.4467 42.2969 43.295 42.5289 42.2344 42.9929C41.1903 43.4569 40.2706 44.1032 39.4751 44.9318C38.6963 45.7604 38.0831 46.7216 37.6357 47.8153C37.1882 48.8925 36.9645 50.0443 36.9645 51.2706C36.9645 52.9112 37.3374 54.411 38.0831 55.7699C38.8454 57.1288 39.8729 58.2143 41.1655 59.0263C42.4747 59.8383 43.9579 60.2443 45.6151 60.2443Z" fill="white"/>
</svg>
