<svg width="92" height="119" viewBox="0 0 92 119" fill="none" xmlns="http://www.w3.org/2000/svg">
<rect width="92" height="95" rx="46" fill="#686868"/>
<path d="M44.7202 71.696C41.2069 71.696 38.0748 71.0497 35.3239 69.7571C32.5895 68.4645 30.4186 66.683 28.8111 64.4126C27.2036 62.1423 26.3667 59.5405 26.3004 56.6072H36.7408C36.8568 58.5793 37.6854 60.1785 39.2266 61.4048C40.7678 62.6312 42.599 63.2443 44.7202 63.2443C46.4105 63.2443 47.902 62.8714 49.1946 62.1257C50.5038 61.3634 51.523 60.3111 52.2521 58.9688C52.9979 57.6098 53.3707 56.0521 53.3707 54.2955C53.3707 52.5057 52.9896 50.9313 52.2273 49.5724C51.4815 48.2135 50.4458 47.1529 49.12 46.3906C47.7943 45.6283 46.2779 45.2389 44.571 45.2223C43.0795 45.2223 41.6295 45.5289 40.2209 46.142C38.8288 46.7552 37.7434 47.5921 36.9645 48.6527L27.3942 46.9375L29.8054 20.0909H60.9276V28.8906H38.6797L37.3622 41.6428H37.6605C38.5554 40.3833 39.906 39.3393 41.7124 38.5107C43.5187 37.6821 45.5405 37.2678 47.7777 37.2678C50.8435 37.2678 53.5779 37.9886 55.9808 39.4304C58.3838 40.8722 60.2812 42.8525 61.6733 45.3714C63.0653 47.8738 63.7531 50.7573 63.7365 54.022C63.7531 57.4524 62.9576 60.5017 61.3501 63.1697C59.7592 65.8213 57.5303 67.9093 54.6634 69.4339C51.813 70.942 48.4986 71.696 44.7202 71.696Z" fill="white"/>
</svg>
