<svg width="70" height="70" viewBox="0 0 70 70" fill="none" xmlns="http://www.w3.org/2000/svg">
<rect x="1.5" y="1.5" width="67" height="67" rx="33.5" fill="#AAAA00" fill-opacity="0.4" stroke="#AAAA00" stroke-width="3"/>
<path d="M50.4462 30.3672H42.6692C42.5272 29.361 42.2372 28.4673 41.7992 27.6861C41.3612 26.893 40.7989 26.2183 40.1124 25.6619C39.4258 25.1056 38.6328 24.6794 37.7331 24.3835C36.8453 24.0876 35.8806 23.9396 34.839 23.9396C32.9569 23.9396 31.3174 24.4072 29.9206 25.3423C28.5239 26.2656 27.4408 27.6151 26.6713 29.3906C25.9019 31.1544 25.5172 33.2969 25.5172 35.8182C25.5172 38.4105 25.9019 40.5885 26.6713 42.3523C27.4526 44.116 28.5416 45.4477 29.9384 46.3473C31.3352 47.2469 32.9509 47.6967 34.7857 47.6967C35.8155 47.6967 36.7684 47.5606 37.6444 47.2884C38.5321 47.0161 39.3193 46.6196 40.0059 46.0987C40.6924 45.5661 41.2606 44.9209 41.7104 44.1634C42.1721 43.4058 42.4917 42.5417 42.6692 41.571L50.4462 41.6065C50.245 43.2756 49.7419 44.8854 48.937 46.4361C48.1439 47.9749 47.0726 49.3539 45.7232 50.5732C44.3856 51.7805 42.7876 52.7393 40.9292 53.4496C39.0826 54.148 36.9933 54.4972 34.6614 54.4972C31.418 54.4972 28.5179 53.7633 25.9611 52.2955C23.4161 50.8277 21.4038 48.7029 19.9242 45.9212C18.4564 43.1394 17.7225 39.7718 17.7225 35.8182C17.7225 31.8527 18.4682 28.4792 19.9597 25.6974C21.4512 22.9157 23.4753 20.7969 26.0321 19.3409C28.589 17.8731 31.4654 17.1392 34.6614 17.1392C36.7684 17.1392 38.7215 17.4351 40.5208 18.027C42.3319 18.6188 43.9358 19.483 45.3326 20.6193C46.7293 21.7438 47.8657 23.1229 48.7417 24.7564C49.6294 26.3899 50.1976 28.2602 50.4462 30.3672Z" fill="white"/>
</svg>
