<svg width="95" height="116" viewBox="0 0 95 116" fill="none" xmlns="http://www.w3.org/2000/svg">
<rect width="92" height="95" rx="46" fill="#686868"/>
<path d="M47.5462 16.3949C50.1645 16.3949 52.6835 16.834 55.103 17.7124C57.5391 18.5907 59.71 19.991 61.6158 21.9134C63.5381 23.8357 65.0545 26.3878 66.1648 29.5696C67.2917 32.7348 67.8634 36.621 67.88 41.228C67.88 45.5533 67.3911 49.4145 66.4134 52.8118C65.4522 56.1925 64.0684 59.0677 62.2621 61.4375C60.4557 63.8073 58.2765 65.6136 55.7244 66.8565C53.1723 68.0829 50.322 68.696 47.1733 68.696C43.776 68.696 40.7765 68.0414 38.1747 66.7322C35.5729 65.4065 33.4766 63.6084 31.8857 61.3381C30.3113 59.0511 29.3584 56.4825 29.027 53.6321H39.6413C40.0556 55.4882 40.9257 56.9299 42.2514 57.9574C43.5772 58.9683 45.2178 59.4737 47.1733 59.4737C50.4877 59.4737 53.0066 58.032 54.7301 55.1484C56.4536 52.2483 57.3236 48.2794 57.3402 43.2415H56.9922C56.2299 44.733 55.2024 46.0173 53.9098 47.0945C52.6172 48.1551 51.134 48.9754 49.4602 49.5554C47.803 50.1354 46.0381 50.4254 44.1655 50.4254C41.166 50.4254 38.4896 49.7211 36.1364 48.3125C33.7831 46.9039 31.9271 44.965 30.5682 42.4957C29.2093 40.0265 28.5298 37.2093 28.5298 34.044C28.5133 30.6302 29.3004 27.5893 30.8913 24.9212C32.4822 22.2531 34.7029 20.165 37.5533 18.657C40.4202 17.1323 43.7512 16.3783 47.5462 16.3949ZM47.6207 24.8466C45.947 24.8466 44.4555 25.2443 43.1463 26.0398C41.8537 26.8352 40.8262 27.9041 40.0639 29.2464C39.3182 30.5888 38.9536 32.0885 38.9702 33.7457C38.9702 35.4195 39.3348 36.9276 40.0639 38.2699C40.8097 39.5956 41.8206 40.6562 43.0966 41.4517C44.3892 42.2306 45.8641 42.62 47.5213 42.62C48.7642 42.62 49.916 42.388 50.9766 41.924C52.0372 41.46 52.9569 40.822 53.7358 40.0099C54.5313 39.1813 55.1527 38.2285 55.6001 37.1513C56.0476 36.0741 56.2713 34.9306 56.2713 33.7209C56.2547 32.1134 55.8736 30.6385 55.1278 29.2962C54.3821 27.9538 53.3546 26.8767 52.0455 26.0646C50.7363 25.2526 49.2614 24.8466 47.6207 24.8466Z" fill="white"/>
</svg>
