<svg width="93" height="121" viewBox="0 0 93 121" fill="none" xmlns="http://www.w3.org/2000/svg">
<rect width="92" height="95" rx="46" fill="#686868"/>
<path d="M27.1264 73V65.2443L45.2479 48.4652C46.7891 46.9737 48.0817 45.6314 49.1257 44.4382C50.1863 43.245 50.9901 42.0767 51.5369 40.9332C52.0838 39.7732 52.3572 38.522 52.3572 37.1797C52.3572 35.6882 52.0175 34.4039 51.3381 33.3267C50.6586 32.233 49.7306 31.3961 48.554 30.816C47.3774 30.2195 46.0433 29.9212 44.5518 29.9212C42.9941 29.9212 41.6352 30.236 40.4751 30.8658C39.3151 31.4955 38.4202 32.3987 37.7905 33.5753C37.1607 34.7519 36.8459 36.1522 36.8459 37.7763H26.6293C26.6293 34.4453 27.3833 31.5535 28.8913 29.1009C30.3994 26.6482 32.5123 24.7507 35.2301 23.4084C37.9479 22.066 41.08 21.3949 44.6264 21.3949C48.2723 21.3949 51.4458 22.0412 54.147 23.3338C56.8648 24.6098 58.9777 26.383 60.4858 28.6534C61.9938 30.9238 62.7479 33.5256 62.7479 36.4588C62.7479 38.3812 62.3667 40.2786 61.6044 42.1513C60.8587 44.0239 59.5246 46.1037 57.6023 48.3906C55.6799 50.661 52.9704 53.3871 49.4737 56.5689L42.0412 63.8523V64.2003H63.419V73H27.1264Z" fill="white"/>
</svg>
