<svg width="92" height="95" viewBox="0 0 92 95" fill="none" xmlns="http://www.w3.org/2000/svg">
<rect width="92" height="95" rx="46" fill="#C4C4C4"/>
<path d="M45 52L50 47L45 52ZM50 47L55 42L50 47ZM50 47L45 42L50 47ZM50 47L55 52L50 47ZM22.5 47L38.535 63.035C39.4725 63.9727 40.744 64.4997 42.07 64.5H62.5C63.8261 64.5 65.0979 63.9732 66.0355 63.0355C66.9732 62.0979 67.5 60.8261 67.5 59.5V34.5C67.5 33.1739 66.9732 31.9021 66.0355 30.9645C65.0979 30.0268 63.8261 29.5 62.5 29.5H42.07C40.744 29.5003 39.4725 30.0273 38.535 30.965L22.5 47Z" stroke="white" stroke-width="4" stroke-linecap="round" stroke-linejoin="round"/>
</svg>
