<svg width="92" height="95" viewBox="0 0 92 95" fill="none" xmlns="http://www.w3.org/2000/svg">
<rect width="92" height="95" rx="46" fill="#FFA030"/>
<path d="M45.8516 59.1818V57.2642C45.8516 55.8082 46.1593 54.4706 46.7749 53.2514C47.4022 52.0204 48.3078 51.0379 49.4915 50.304C50.687 49.5582 52.143 49.1854 53.8594 49.1854C55.5994 49.1854 57.0613 49.5523 58.245 50.2862C59.4406 51.0201 60.3402 52.0026 60.9439 53.2337C61.5594 54.4529 61.8672 55.7964 61.8672 57.2642V59.1818C61.8672 60.6378 61.5594 61.9813 60.9439 63.2124C60.3284 64.4316 59.4228 65.4081 58.2273 66.142C57.0317 66.8878 55.5758 67.2607 53.8594 67.2607C52.1193 67.2607 50.6574 66.8878 49.4737 66.142C48.29 65.4081 47.3904 64.4316 46.7749 63.2124C46.1593 61.9813 45.8516 60.6378 45.8516 59.1818ZM51.0185 57.2642V59.1818C51.0185 60.0223 51.2197 60.8153 51.6222 61.5611C52.0365 62.3068 52.7822 62.6797 53.8594 62.6797C54.9366 62.6797 55.6705 62.3127 56.0611 61.5788C56.4635 60.8449 56.6648 60.0459 56.6648 59.1818V57.2642C56.6648 56.4001 56.4754 55.5952 56.0966 54.8494C55.7178 54.1037 54.9721 53.7308 53.8594 53.7308C52.794 53.7308 52.0542 54.1037 51.6399 54.8494C51.2256 55.5952 51.0185 56.4001 51.0185 57.2642ZM27.1903 38.3722V36.4545C27.1903 34.9867 27.504 33.6432 28.1314 32.424C28.7588 31.1929 29.6643 30.2105 30.848 29.4766C32.0436 28.7427 33.4877 28.3757 35.1804 28.3757C36.9323 28.3757 38.4001 28.7427 39.5838 29.4766C40.7675 30.2105 41.6671 31.1929 42.2827 32.424C42.8982 33.6432 43.206 34.9867 43.206 36.4545V38.3722C43.206 39.84 42.8923 41.1835 42.2649 42.4027C41.6494 43.6219 40.7438 44.5985 39.5483 45.3324C38.3646 46.0545 36.9086 46.4155 35.1804 46.4155C33.4522 46.4155 31.9903 46.0485 30.7947 45.3146C29.611 44.5689 28.7114 43.5923 28.0959 42.3849C27.4922 41.1657 27.1903 39.8281 27.1903 38.3722ZM32.3928 36.4545V38.3722C32.3928 39.2363 32.594 40.0353 32.9964 40.7692C33.4107 41.5031 34.1387 41.87 35.1804 41.87C36.2694 41.87 37.0092 41.5031 37.3999 40.7692C37.8023 40.0353 38.0036 39.2363 38.0036 38.3722V36.4545C38.0036 35.5904 37.8142 34.7855 37.4354 34.0398C37.0566 33.294 36.3049 32.9212 35.1804 32.9212C34.1269 32.9212 33.3989 33.3 32.9964 34.0575C32.594 34.8151 32.3928 35.6141 32.3928 36.4545ZM29.5341 66L54.5341 29.6364H59.1861L34.1861 66H29.5341Z" fill="white"/>
</svg>
