<svg width="70" height="70" viewBox="0 0 70 70" fill="none" xmlns="http://www.w3.org/2000/svg">
<rect x="1.5" y="1.5" width="67" height="67" rx="33.5" fill="#AAAA00" fill-opacity="0.4" stroke="#AAAA00" stroke-width="3"/>
<path d="M34.9933 54.4616C33.8215 54.4616 32.8153 54.0473 31.9749 53.2188C31.1463 52.3783 30.732 51.3722 30.732 50.2003C30.732 49.0402 31.1463 48.0459 31.9749 47.2173C32.8153 46.3887 33.8215 45.9744 34.9933 45.9744C36.1297 45.9744 37.124 46.3887 37.9763 47.2173C38.8286 48.0459 39.2547 49.0402 39.2547 50.2003C39.2547 50.9815 39.0535 51.6977 38.651 52.3487C38.2604 52.9879 37.7455 53.5028 37.1063 53.8935C36.4671 54.2723 35.7628 54.4616 34.9933 54.4616Z" fill="white"/>
</svg>
