<svg width="70" height="70" viewBox="0 0 70 70" fill="none" xmlns="http://www.w3.org/2000/svg">
<rect x="1.5" y="1.5" width="67" height="67" rx="33.5" fill="#E31E45" fill-opacity="0.4" stroke="#E31E45" stroke-width="3"/>
<path d="M34.9933 54.799C31.9394 54.7872 29.3115 54.0355 27.1098 52.544C24.92 51.0526 23.2332 48.8923 22.0494 46.0632C20.8776 43.2341 20.2976 39.831 20.3094 35.8537C20.3094 31.8883 20.8953 28.5088 22.0672 25.7152C23.2509 22.9216 24.9377 20.7969 27.1276 19.3409C29.3293 17.8731 31.9512 17.1392 34.9933 17.1392C38.0355 17.1392 40.6515 17.8731 42.8414 19.3409C45.0431 20.8087 46.7358 22.9394 47.9195 25.733C49.1032 28.5147 49.6891 31.8883 49.6773 35.8537C49.6773 39.8428 49.0854 43.2519 47.9017 46.081C46.7298 48.91 45.049 51.0703 42.8591 52.5618C40.6692 54.0533 38.0473 54.799 34.9933 54.799ZM34.9933 48.4247C37.0767 48.4247 38.7398 47.3771 39.9827 45.282C41.2256 43.1868 41.8411 40.044 41.8293 35.8537C41.8293 33.0956 41.5452 30.7992 40.977 28.9645C40.4207 27.1297 39.6276 25.7507 38.5977 24.8274C37.5798 23.9041 36.3783 23.4425 34.9933 23.4425C32.9218 23.4425 31.2646 24.4782 30.0218 26.5497C28.7789 28.6212 28.1515 31.7225 28.1396 35.8537C28.1396 38.6473 28.4178 40.9792 28.9742 42.8494C29.5423 44.7079 30.3414 46.1046 31.3712 47.0398C32.401 47.9631 33.6084 48.4247 34.9933 48.4247Z" fill="white"/>
</svg>
